/* XPM */
static char *avatar[] = {
/* columns rows colors chars-per-pixel */
"6 6 36 1 ",
"  c #519768",
". c #529768",
"X c #53986E",
"o c #638A6B",
"O c #50A06C",
"+ c #59A275",
"@ c #75A986",
"# c #78AF8D",
"$ c #7DB592",
"% c #809580",
"& c #82AE92",
"* c #8CA892",
"= c #97B6A2",
"- c #99C4A9",
"; c #9FC6AF",
": c #B2D1BC",
"> c #BFD0C3",
", c #C8DBCF",
"< c #CDDBD1",
"1 c #D2D4D5",
"2 c #E8EFEB",
"3 c #F4F7F6",
"4 c #F5F7F6",
"5 c #F9F8F6",
"6 c #F7F9F8",
"7 c #F9F9F8",
"8 c #F9FAF9",
"9 c #FBFBFA",
"0 c #FCFBFB",
"q c #FBF9FC",
"w c #FDFCFC",
"e c #FDFDFC",
"r c #FEFEFD",
"t c #FFFEFD",
"y c #FEFEFE",
"u c #FEFEFF",
/* pixels */
"yu94wt",
"q2-$:6",
"1;O +,",
"o.@>X#",
"%*<3=&",
"80re75"
};
