/* XPM */
static char *exit[] = {
/* columns rows colors chars-per-pixel */
"6 6 34 1 ",
"  c #151515",
". c #171717",
"X c #181818",
"o c #19191A",
"O c #191A1A",
"+ c #1B1C1C",
"@ c #1D1D1D",
"# c #1D1D1E",
"$ c #212121",
"% c #202122",
"& c #242323",
"* c #222325",
"= c #2D2C2A",
"- c #2E2D2B",
"; c #38342D",
": c #3F382A",
"> c #3D3931",
", c #3F3A30",
"< c #403B30",
"1 c #4D4536",
"2 c #67583B",
"3 c #746A55",
"4 c #897346",
"5 c #8B7D5F",
"6 c #8D7D5F",
"7 c #9A8150",
"8 c #CCA964",
"9 c #C7A76A",
"0 c #C9A96A",
"q c #DFBA70",
"w c #E5BF74",
"e c #E6C175",
"r c #F7CD79",
"t c #F9CE7A",
/* pixels */
"@->$X ",
"%39;O ",
"*5e<+.",
"=6w,#X",
"70q1&o",
"rt842:"
};
