/* XPM */
static char *test[] = {
/* columns rows colors chars-per-pixel */
"6 6 23 1 ",
"  c #6D696D",
". c #6C696E",
"X c #6C6A6E",
"o c #6D6A6F",
"O c #6E6B6F",
"+ c #6F6B6F",
"@ c #6D6B70",
"# c #6E6B70",
"$ c #6F6B70",
"% c #6F6B71",
"& c #6E6C70",
"* c #6F6C70",
"= c #6F6C71",
"- c #6F6D71",
"; c #6F6D72",
": c #706C71",
"> c #706D71",
", c #706E71",
"< c #706D72",
"1 c #716D72",
"2 c #716E72",
"3 c #706E73",
"4 c #726E73",
/* pixels */
"-;-#-@",
"#=#%$.",
"#32:<,",
"*>*O&@",
"24<11#",
" $+XoO"
};
