/* XPM */
static char *wall[] = {
/* columns rows colors chars-per-pixel */
"6 6 21 1 ",
"  c #6C696E",
". c #6D696E",
"X c #6D6B6E",
"o c #6D6A6F",
"O c #6F6C6F",
"+ c #6D6B70",
"@ c #6E6B70",
"# c #6F6B70",
"$ c #6F6B71",
"% c #6F6C70",
"& c #6F6C71",
"* c #6F6D71",
"= c #706C71",
"- c #706D71",
"; c #716D71",
": c #706D72",
"> c #716D72",
", c #726D72",
"< c #716E72",
"1 c #706E73",
"2 c #726E73",
/* pixels */
"*:*@*+",
"@&@$% ",
"#1<=:-",
"#;%@#+",
",2;>>@",
".@O.oX"
};
