/* XPM */
static char *avatar_right[] = {
/* columns rows colors chars-per-pixel */
"22 22 151 2 ",
"   c #224121",
".  c #2F4E2F",
"X  c #2F5936",
"o  c #38593A",
"O  c #2B6F3D",
"+  c #3E603E",
"@  c #366645",
"#  c #316B49",
"$  c #3E6B4B",
"%  c #35734F",
"&  c #3C734D",
"*  c #3D7252",
"=  c #397851",
"-  c #4C5F49",
";  c #416A44",
":  c #4E674F",
">  c #426E4F",
",  c #417B4C",
"<  c #4A784D",
"1  c #566853",
"2  c #437854",
"3  c #4B7658",
"4  c #477F5D",
"5  c #4A7D5B",
"6  c #51725D",
"7  c #547C63",
"8  c #5B7B63",
"9  c #3B8051",
"0  c #3B8A55",
"q  c #3B8A5A",
"w  c #399157",
"e  c #3C9B5F",
"r  c #438350",
"t  c #4E8656",
"y  c #4D815E",
"u  c #428A5B",
"i  c #4C885F",
"p  c #50845B",
"a  c #439157",
"s  c #429C5D",
"d  c #468361",
"f  c #4E8362",
"g  c #4D8964",
"h  c #598E6F",
"j  c #459460",
"k  c #449B66",
"l  c #4A9963",
"z  c #459568",
"x  c #469E6B",
"c  c #4B9E6A",
"v  c #529663",
"b  c #55936D",
"n  c #569B6E",
"m  c #5A9574",
"M  c #549A71",
"N  c #5A9B72",
"B  c #65846B",
"V  c #61886B",
"C  c #639569",
"Z  c #6C8B73",
"A  c #629472",
"S  c #6C9775",
"D  c #6E9975",
"F  c #679478",
"G  c #6E987E",
"H  c #739379",
"J  c #79967E",
"K  c #42A265",
"L  c #46A469",
"P  c #4BA169",
"I  c #4CA96C",
"U  c #58A76E",
"Y  c #4EA570",
"T  c #4EA971",
"R  c #55A475",
"E  c #54AB76",
"W  c #58AE75",
"Q  c #5DA479",
"!  c #55B37A",
"~  c #5DB27E",
"^  c #5ABA7D",
"/  c #66A078",
"(  c #68A07A",
")  c #61A87C",
"_  c #6C9A80",
"`  c #779784",
"'  c #7E998B",
"]  c #65A980",
"[  c #75A284",
"{  c #67B385",
"}  c #62BF84",
"|  c #6CB488",
" . c #63BE89",
".. c #6BBD8E",
"X. c #67C186",
"o. c #6CC78F",
"O. c #8DAE9B",
"+. c #93A795",
"@. c #93AE9D",
"#. c #9BAE9A",
"$. c #89B29A",
"%. c #91B29E",
"&. c #A2A99F",
"*. c #A4B4A5",
"=. c #A4BBA7",
"-. c #A2BEAF",
";. c #B2B5B3",
":. c #9BC2A7",
">. c #A5C2AE",
",. c #A5C7B3",
"<. c #ABC1B3",
"1. c #ACCBB5",
"2. c #BAC1BC",
"3. c #B4CABD",
"4. c #C6BCC3",
"5. c #B8CBC0",
"6. c #BDDACB",
"7. c #C1C5C0",
"8. c #C4CDC2",
"9. c #C6C4C9",
"0. c #C6CACD",
"q. c #C1D2C3",
"w. c #D3CBD0",
"e. c #CED8D1",
"r. c #D3DED6",
"t. c #DED5DA",
"y. c #DCD8DE",
"u. c #CDE0CF",
"i. c #D4E6D6",
"p. c #D8E2D7",
"a. c #D2EADB",
"s. c #DAE9DE",
"d. c #DDE2E5",
"f. c #DEEFE6",
"g. c #DDF0E2",
"h. c #E3E6E9",
"j. c #E6EFE9",
"k. c #E2F3EA",
"l. c #E9F9EB",
"z. c #F0F5EE",
"x. c #EFEBF0",
"c. c #F8EFF4",
"v. c #EBF6F2",
"b. c #EAFBF0",
"n. c #EFF9F8",
"m. c #F0F6F1",
"M. c #F4FDF5",
"N. c #FCFDF6",
"B. c #FDF6FB",
"V. c #F6FDFB",
"C. c #FDFDFD",
/* pixels */
"N.N.N.C.C.C.C.N.V.C.N.C.V.C.C.C.V.V.V.C.C.C.",
"C.C.C.C.C.C.C.C.C.C.C.C.C.C.C.C.C.C.C.C.C.C.",
"C.C.C.C.C.C.C.C.C.C.C.B.C.B.C.C.C.C.C.C.C.C.",
"C.C.C.C.C.C.C.C.C.V.V.N.N.B.C.C.C.C.C.C.C.V.",
"C.C.C.C.C.V.s.>.@.O.%.1.i.M.N.N.C.B.C.C.C.V.",
"C.C.C.V.b.>.G t g N M i A $.a.M.C.C.C.C.C.V.",
"B.C.N.b.:./ ) l ~ o.Y R { M h 6.V.C.B.B.C.V.",
"C.B.V.1.g ) X.L I ^ e ! } x n G k.C.B.t.x.h.",
"C.C.f.[ n P } e w l 0 I K ! ..m 6.V.c.4.y.0.",
"B.C.3.d | Y x z 9 & , a s } R g ,.N.t.w.9.d.",
"B.C.-.4 R ] q = 5 J B , l I Y M $.l.7.;.2.n.",
"C.m._ ] T z 4 7 5.m.p.Z 5 R  .T l ( V B ` 6.",
"j.>.b k ! Y * ' v.V.N.=.> Q ! L W O p D 3 F ",
"' y { ! K 0 % @.C.N.N.u.7 N c W U r C D S $ ",
"% R I ^ E u * <.V.C.N.l.H f u U v t < ; $ X ",
"# ] R j q 2 8 g.V.N.N.N.q.8 @ p p ; +   . o ",
"$.7 y 2 > 6 =.V.C.C.C.C.C.e.@.Z 8 : - - 1 #.",
"v.6.*.+.*.e.n.C.C.C.C.C.C.V.C.j.r.r.8.&.2.z.",
"C.C.B.B.C.B.B.C.C.C.C.C.C.C.C.C.C.C.C.B.C.N.",
"C.C.C.N.B.C.C.C.C.C.C.C.C.C.B.C.B.C.C.C.C.C.",
"C.B.C.N.N.C.V.V.C.C.N.N.C.C.B.C.C.C.V.C.N.C.",
"V.C.N.C.N.M.V.V.C.N.N.N.N.N.C.C.C.C.C.C.V.C."
};
