/* XPM */
static char *avatar[] = {
/* columns rows colors chars-per-pixel */
"22 22 154 2 ",
"   c #224121",
".  c #2F4E2F",
"X  c #2F5936",
"o  c #38593A",
"O  c #2B6F3D",
"+  c #3E603E",
"@  c #366645",
"#  c #316B49",
"$  c #3E6B4B",
"%  c #35734F",
"&  c #3C734D",
"*  c #3D7252",
"=  c #397851",
"-  c #4C5F49",
";  c #416A44",
":  c #4E674F",
">  c #426E4F",
",  c #417B4C",
"<  c #4A784D",
"1  c #566853",
"2  c #437854",
"3  c #4B7658",
"4  c #477F5D",
"5  c #4A7D5B",
"6  c #51725D",
"7  c #547C63",
"8  c #5B7B63",
"9  c #3B8051",
"0  c #3B8A55",
"q  c #3B8A5A",
"w  c #399157",
"e  c #3C9B5F",
"r  c #438350",
"t  c #4E8656",
"y  c #4D815E",
"u  c #428A5B",
"i  c #4C885F",
"p  c #50845B",
"a  c #439157",
"s  c #429C5D",
"d  c #468361",
"f  c #4E8362",
"g  c #4D8964",
"h  c #508761",
"j  c #558861",
"k  c #459460",
"l  c #499666",
"z  c #449B66",
"x  c #4A9963",
"c  c #459568",
"v  c #469E6B",
"b  c #529663",
"n  c #55936D",
"m  c #569B6E",
"M  c #5A9574",
"N  c #549A71",
"B  c #5A9B72",
"V  c #65846B",
"C  c #61886B",
"Z  c #639569",
"A  c #6C8B73",
"S  c #629472",
"D  c #6C9775",
"F  c #6E9975",
"G  c #679478",
"H  c #6E987E",
"J  c #739379",
"K  c #42A265",
"L  c #46A469",
"P  c #4BA169",
"I  c #4CA96C",
"U  c #50A56E",
"Y  c #4EA570",
"T  c #4EA971",
"R  c #55A475",
"E  c #58A472",
"W  c #54AB76",
"Q  c #58AE75",
"!  c #5DA479",
"~  c #5EAC78",
"^  c #55B37A",
"/  c #5ABA7D",
"(  c #66A078",
")  c #68A07A",
"_  c #61A87C",
"`  c #61B17F",
"'  c #6C9A80",
"]  c #779784",
"[  c #7E998B",
"{  c #65A980",
"}  c #75A284",
"|  c #7AA289",
" . c #7DAD8F",
".. c #67B385",
"X. c #62BF84",
"o. c #63BE89",
"O. c #6BBD8E",
"+. c #67C186",
"@. c #6CC78F",
"#. c #8DAE9B",
"$. c #93A795",
"%. c #93AE9D",
"&. c #9BAE9A",
"*. c #89B29A",
"=. c #91B29E",
"-. c #A2A99F",
";. c #A4B4A5",
":. c #A4BBA7",
">. c #A7B9B0",
",. c #B2B5B3",
"<. c #9BC2A7",
"1. c #A5C2AE",
"2. c #A5C7B3",
"3. c #ABC1B3",
"4. c #ACCBB5",
"5. c #BAC1BC",
"6. c #C6BCC3",
"7. c #B8CBC0",
"8. c #BDDACB",
"9. c #C1C5C0",
"0. c #C4CDC2",
"q. c #C6C4C9",
"w. c #C6CACD",
"e. c #C1D2C3",
"r. c #C2D4C9",
"t. c #D3CBD0",
"y. c #CED8D1",
"u. c #D3DED6",
"i. c #DED5DA",
"p. c #DCD8DE",
"a. c #CDE0CF",
"s. c #D4E6D6",
"d. c #D8E2D7",
"f. c #D2EADB",
"g. c #DAE9DE",
"h. c #DDE2E5",
"j. c #DEEFE6",
"k. c #DDF0E2",
"l. c #E3E6E9",
"z. c #E6EFE9",
"x. c #E2F3EA",
"c. c #E9F9EB",
"v. c #F0F5EE",
"b. c #EFEBF0",
"n. c #F8EFF4",
"m. c #EBF6F2",
"M. c #EAFBF0",
"N. c #EFF9F8",
"B. c #F0F6F1",
"V. c #F4FDF5",
"C. c #FCFDF6",
"Z. c #FDF6FB",
"A. c #F6FDFB",
"S. c #FDFDFD",
/* pixels */
"S.S.S.S.S.A.S.S.S.S.A.S.S.S.S.A.S.S.S.C.C.C.",
"S.S.S.S.S.S.S.S.S.S.S.Z.S.Z.S.S.S.S.S.S.S.S.",
"S.S.S.S.S.S.Z.S.S.S.S.S.S.S.S.Z.Z.S.S.S.S.S.",
"S.S.S.S.S.Z.S.S.S.C.C.V.A.S.S.S.S.S.S.S.S.S.",
"S.S.S.S.Z.S.S.A.V.s.4.=.#.%.3.g.A.S.S.S.S.S.",
"A.S.S.Z.Z.S.V.f.*.S f N B g 5 H 1.c.S.S.S.S.",
"A.A.Z.Z.S.A.r.n m ..R I @./ x _ ( <.c.A.S.Z.",
"l.b.i.Z.S.x.' N v X.^ e / I L +.~ i 4.A.S.Z.",
"w.p.6.n.S.8.M O.^ K U 0 x w e ` L N } k.A.Z.",
"h.q.t.i.S.2.d W X.s a , & 9 s L Y ..7 7.S.Z.",
"N.7.,.9.M. .N Y U x , V ] 5 = q { W 4 <.S.Z.",
"8.] C C ) l T o.E 5 A d.B.7.7 y c W { H N.Z.",
"G 3 D 5 O Q L ^ ! $ :.C.S.v.[ * Y ^ z n 2.z.",
"$ D F Z r E Q P B j a.C.C.A.%.% 0 K ^ { 4 | ",
"X ; ; < t b E u 5 J c.C.A.A.3.> u W / R E % ",
"o .   + ; j j @ 8 e.C.S.A.S.j.7 2 q k E { # ",
"&.1 - - : 6 A &.s.A.S.S.S.S.A.>.6 > 2 p h *.",
"v.5.-.0.u.u.z.S.S.S.Z.S.S.S.A.A.y.;.$.&.r.m.",
"S.S.C.S.S.S.S.S.S.Z.S.S.S.S.S.S.Z.S.C.Z.S.S.",
"S.S.Z.S.S.S.S.Z.S.Z.S.S.S.S.Z.S.S.Z.Z.S.S.Z.",
"S.S.S.S.S.S.S.S.S.S.S.C.A.S.S.S.C.C.C.S.Z.S.",
"C.A.S.A.S.S.S.S.C.A.C.C.C.S.A.A.V.C.C.S.S.S."
};
