/* XPM */
static char *exit[] = {
/* columns rows colors chars-per-pixel */
"22 22 152 2 ",
"   c #131313",
".  c #141414",
"X  c #151515",
"o  c #161616",
"O  c #171717",
"+  c #181818",
"@  c #191919",
"#  c #191A1B",
"$  c #1A1A1A",
"%  c #1B1B1B",
"&  c #1C1C1C",
"*  c #1C1D1D",
"=  c #1D1D1D",
"-  c #1E1E1E",
";  c #1F1F1F",
":  c #202020",
">  c #212121",
",  c #222222",
"<  c #222323",
"1  c #232323",
"2  c #242424",
"3  c #242425",
"4  c #242525",
"5  c #252525",
"6  c #272625",
"7  c #252526",
"8  c #262626",
"9  c #262627",
"0  c #262727",
"q  c #272727",
"w  c #292722",
"e  c #272728",
"r  c #272828",
"t  c #282828",
"y  c #292929",
"u  c #28282A",
"i  c #29292A",
"p  c #292A2A",
"a  c #292A2B",
"s  c #2A2A2A",
"d  c #2B2B2B",
"f  c #2A2B2C",
"g  c #2C2C2C",
"h  c #2D2D2D",
"j  c #2E2D2D",
"k  c #2F2E2D",
"l  c #2D2D2E",
"z  c #2F2F2F",
"x  c #312F2C",
"c  c #35332F",
"v  c #36332E",
"b  c #3C3629",
"n  c #3B372F",
"m  c #303030",
"M  c #393630",
"N  c #3C3830",
"B  c #3D3931",
"V  c #3D3932",
"C  c #3D3A32",
"Z  c #3E3A32",
"A  c #3F3B33",
"S  c #3C3C3C",
"D  c #3C3D3D",
"F  c #3D3D3D",
"G  c #423D32",
"H  c #4F4634",
"J  c #4D4637",
"K  c #534732",
"L  c #544933",
"P  c #554A35",
"I  c #574C37",
"U  c #675738",
"Y  c #67583A",
"T  c #6E5E3C",
"R  c #72613D",
"E  c #78643C",
"W  c #78653E",
"Q  c #78653F",
"!  c #7C673E",
"~  c #7C683F",
"^  c #4B4B4C",
"/  c #575042",
"(  c #515152",
")  c #7D6940",
"_  c #78684A",
"`  c #796E57",
"'  c #727272",
"]  c #747372",
"[  c #747472",
"{  c #757472",
"}  c #856E42",
"|  c #877043",
" . c #897244",
".. c #8A7244",
"X. c #8F7646",
"o. c #8E7647",
"O. c #83714E",
"+. c #917948",
"@. c #927948",
"#. c #947B49",
"$. c #957B49",
"%. c #957C4A",
"&. c #977D4A",
"*. c #977D4B",
"=. c #987E4B",
"-. c #997E4B",
";. c #847E74",
":. c #9A804C",
">. c #9F844E",
",. c #9B8356",
"<. c #A0854F",
"1. c #A58C5B",
"2. c #BB9B5C",
"3. c #BD9C5D",
"4. c #BF9F5F",
"5. c #BBA477",
"6. c #B6A178",
"7. c #C5A361",
"8. c #D3AE68",
"9. c #D7B46D",
"0. c #DBB66C",
"q. c #E2BB6F",
"w. c #E4BD71",
"e. c #E6BE71",
"r. c #E4BD72",
"t. c #E0BE7B",
"y. c #E0BF7B",
"u. c #E1BF7B",
"i. c #E9C172",
"p. c #E9C173",
"a. c #E9C174",
"s. c #EBC375",
"d. c #EAC376",
"f. c #EEC575",
"g. c #ECC476",
"h. c #EEC97E",
"j. c #F3CA78",
"k. c #F3CA79",
"l. c #F2CB79",
"z. c #F8CD7A",
"x. c #FDD17C",
"c. c #FCD27C",
"v. c #FDD27D",
"b. c #FED27D",
"n. c #FED37D",
"m. c #FFD37D",
"M. c #FFD47D",
"N. c #FFD57D",
"B. c #FFD47E",
"V. c #FFD57E",
"C. c #FFD67E",
"Z. c #FFD87F",
/* pixels */
"O + @ - = ; - - & - ; = - $ + + O o o . . o ",
"O + $ ; : 1 2 0 2 2 2 > > = @ O o O o .   . ",
"% - - 2 q d s i u f h y 1 - $ @ + o X X X . ",
"- : > 0 d z ^ ` 1._ l g q , - % @ O . . X . ",
"& - > q m ( ;.h.Z.l.O.j 0 1 : * $ + o X o o ",
"* - 1 t S ' 6.n.m.V.d.A q , : = @ + O X . . ",
"* : 1 t F [ y.N.m.M.g.A q 2 > ; $ O O o X . ",
"; 1 4 y F ] t.N.m.M.g.Z e 3 > : & @ + O o . ",
"- , 2 s F ] t.N.m.M.g.B e 3 > : & $ O O O o ",
": 1 5 d F ] t.N.m.M.s.N q 5 2 , - % + X o X ",
"> 1 8 p F ] t.N.m.M.s.N 9 2 1 : - % @ o o X ",
": , 8 y F ] t.N.m.M.g.Z q 5 1 : ; & $ o X o ",
"1 8 y s S ] t.N.m.M.g.V 7 5 1 : : % @ o o O ",
"< 9 p d F ] t.N.m.M.g.B 5 4 1 > : & $ + O + ",
"L P c k D { u.C.m.M.s.n 3 1 2 2 > - % + + O ",
"X.} Q R / 5.k.a.M.M.s.N e 7 0 2 ; % % @ @ @ ",
"=.&.=.:.7.V.9.,.C.M.g.C i t t 4 > - & O + + ",
"%.<.2.i.c.j.4.r.M.M.w.J M h a r 5 , : @ o O ",
"7.e.v.V.z.8.f.V.m.M.3.o.) I H x p q 4 * O O ",
"V.M.m.b.p.j.M.m.B.0.<.=.#.@. .T Y G v 6 # + ",
"m.m.m.m.x.M.m.m.0.>.*.=.-.-.=.$...~ W K b w ",
"m.m.m.m.m.m.B.q.<.*.=.=.=.=.=.=.=.+.| ! E U "
};
