/* XPM */
static char *npxfess[] = {
/* columns rows colors chars-per-pixel */
"22 22 35 1 ",
"  c #1C1C1C",
". c #1D1D1C",
"X c #1C1C1D",
"o c #1D1D1D",
"O c #1D1D1E",
"+ c #1E1E1E",
"@ c #1F1F1E",
"# c #20201E",
"$ c #22211E",
"% c #2A271D",
"& c #282828",
"* c #373737",
"= c #6B5D19",
"- c #404040",
"; c #424242",
": c #474747",
"> c #676767",
", c #7C7C7C",
"< c #837217",
"1 c #867417",
"2 c #A08A15",
"3 c #AF9615",
"4 c #E5C310",
"5 c #E7C510",
"6 c #B6B6B6",
"7 c #BABABA",
"8 c #C9C9C9",
"9 c #E4E4E4",
"0 c #ECECEC",
"q c #EEEEEE",
"w c #FAFAFA",
"e c #FBFBFB",
"r c #FDFDFD",
"t c #FEFEFE",
"y c #FFFFFF",
/* pixels */
"yyyyyyyyyyyyyyyyyyyyyy",
"yyyyyyyyeq99qeyyyyyyyy",
"yyyyyy06,:**:,60yyyyyy",
"yyyyr8>&o    o&>8ryyyy",
"yyyt7;Xo++++++oX;7tyyy",
"yyy8-.%@O++++O@%.-8yyy",
"yy0>X%2<$O++O$<2%X>0yy",
"yy6&o@<51#OO#15<@o&6yy",
"yw,o+O$14<$$<41$O+o,wy",
"yq: ++O#<4==4<#O++ :qy",
"y9* +++O$=33=$O+++ *9y",
"y9* +++O$=33=$O+++ *9y",
"yq: ++O#<4==4<#O++ :qy",
"yw,o+O$14<$$<41$O+o,wy",
"yy6&o@<51#OO#15<@o&6yy",
"yy0>X%2<$O++O$<2%X>0yy",
"yyy8;.%@O++++O@%.;8yyy",
"yyyt7-Xo++++++oX-7tyyy",
"yyyyr8>&o    o&>8ryyyy",
"yyyyyy06,:**:,60yyyyyy",
"yyyyyyyyeq99qeyyyyyyyy",
"yyyyyyyyyyyyyyyyyyyyyy"
};
