/* XPM */
static char *test[] = {
/* columns rows colors chars-per-pixel */
"22 22 21 1 ",
"  c #5B5656",
". c #5A565C",
"X c #635D5D",
"o c #5F5B61",
"O c #625E64",
"+ c #656265",
"@ c #696466",
"# c #666269",
"$ c #6A666C",
"% c #6D6A6D",
"& c #706D6F",
"* c #6E6B71",
"= c #716D73",
"- c #747174",
"; c #797777",
": c #767379",
"> c #79767B",
", c #7A797C",
"< c #7D7B81",
"1 c #807F83",
"2 c #808082",
/* pixels */
",<<,,<<<<<<--1<<<<2:,<",
"$$-&+==*$*-++-%+%-=$%-",
"O#%#O#%##$#OO%Oo#%+O+#",
";:--:-:>::%:;:::--*::#",
"%$+*%$+%%++*$#%%$@@%#.",
"*#+*%##$$##*##%%$#%$OO",
":*,,:>>,:>>>,,,::;,--:",
"%$-*$--*%==*%-&$--&%%:",
"$$$%*==$%*=$$%%%=*#%=-",
":==:::=-::----:::**:::",
"@OO@*#X$-%#%OO**$O#*@+",
":,,,:,;;:>:-=,>::;;>:;",
"O%-&$=-&%=-O$:%+=-=#*-",
"O$$@O$&%O%@O#$###$++OO",
",>::;;>::>%;,=::>-=><O",
"-%@==%@==@O&&@==&O$=$o",
"-OO>=$$=%@*>O$:=O*=%OO",
">:1,>>1>>>>,-1<=:1>>-1",
"%$-=%===%==&$:=**:=%$>",
"$$@$$==O$%=@O$$$$$O%*%",
"===>>-->---&=*---%=---",
"$X $$O.O&OO@OOO%@.O&OO"
};
