/* XPM */
static char *avatar[] = {
/* columns rows colors chars-per-pixel */
"14 14 175 2 ",
"   c #355935",
".  c #345937",
"X  c #457249",
"o  c #546751",
"O  c #4E7A59",
"+  c #4F7E5D",
"@  c #5F765F",
"#  c #527F67",
"$  c #3E8055",
"%  c #3E885A",
"&  c #3E8E5E",
"*  c #3C9059",
"=  c #4E8757",
"-  c #468A56",
";  c #46855B",
":  c #44845E",
">  c #408C58",
",  c #518D5F",
"<  c #548563",
"1  c #528F67",
"2  c #5C8668",
"3  c #5E8F6B",
"4  c #5D8D6D",
"5  c #4A9A6D",
"6  c #4F9E6F",
"7  c #539A6E",
"8  c #509E6C",
"9  c #559570",
"0  c #5B9772",
"q  c #618768",
"w  c #66926D",
"e  c #6A8A75",
"r  c #6A8D74",
"t  c #6F8C74",
"y  c #6D9176",
"u  c #6A9079",
"i  c #669C78",
"p  c #669E7A",
"a  c #699979",
"s  c #48A265",
"d  c #4CA36B",
"f  c #4CA96D",
"g  c #51A169",
"h  c #50A66F",
"j  c #4FAD73",
"k  c #4DAE72",
"l  c #51A272",
"z  c #52A575",
"x  c #53A776",
"c  c #56A775",
"v  c #59A275",
"b  c #53A871",
"n  c #53A971",
"m  c #54AA72",
"M  c #5FA079",
"N  c #5BA47A",
"B  c #54B176",
"V  c #54B177",
"C  c #57B079",
"Z  c #55B17B",
"A  c #62A678",
"S  c #6DA284",
"D  c #7BA48B",
"F  c #7CA68F",
"G  c #829581",
"H  c #89A693",
"J  c #83AD94",
"K  c #8BAA97",
"L  c #8BAE9B",
"P  c #91B99F",
"I  c #8FBBA0",
"U  c #A0BAA5",
"Y  c #B6B7B7",
"T  c #9EC4AA",
"R  c #ADCAB5",
"E  c #B1C7BB",
"W  c #B4D1C1",
"Q  c #C6D5CC",
"!  c #CAD9CF",
"~  c #D1D8CF",
"^  c #D5CCD3",
"/  c #C9DBD0",
"(  c #CADAD1",
")  c #D2D3D7",
"_  c #D7DFD7",
"`  c #D8DBD6",
"'  c #D2DED9",
"]  c #D6DEDE",
"[  c #D3E2D4",
"{  c #D7E0D8",
"}  c #D6E6DA",
"|  c #D6E9DC",
" . c #DFEADE",
".. c #E1E8DF",
"X. c #E3EBE5",
"o. c #E0EEE5",
"O. c #E8ECE8",
"+. c #E9ECE9",
"@. c #F0E8EE",
"#. c #EEF1EF",
"$. c #F0F2EE",
"%. c #EFF3F0",
"&. c #EFF1F3",
"*. c #F0F6F3",
"=. c #F9F5F6",
"-. c #F1F9F2",
";. c #F7FAF3",
":. c #F0FAF4",
">. c #F6FEF7",
",. c #FEFEF4",
"<. c #FCFDF6",
"1. c #F7FDF8",
"2. c #F6FEF8",
"3. c #F7FFFD",
"4. c #FAFEF8",
"5. c #FBFCFA",
"6. c #FBFEFA",
"7. c #FDFDF9",
"8. c #FCFFF9",
"9. c #FDFFF9",
"0. c #FEFFF8",
"q. c #FEFFF9",
"w. c #FCFDFB",
"e. c #FEFCFB",
"r. c #FFFDFB",
"t. c #FDFEFA",
"y. c #FCFEFB",
"u. c #FDFFFB",
"i. c #FAFBFC",
"p. c #FFFAFC",
"a. c #FFFBFC",
"s. c #FFFAFD",
"d. c #FFFBFD",
"f. c #FFF9FE",
"g. c #FCFBFE",
"h. c #FDFBFE",
"j. c #FFFAFE",
"k. c #FEFBFE",
"l. c #FFFAFF",
"z. c #FFFBFF",
"x. c #FBFCFC",
"c. c #FBFDFC",
"v. c #FBFDFD",
"b. c #FBFEFC",
"n. c #F9FEFE",
"m. c #F9FFFF",
"M. c #FAFFFE",
"N. c #FAFFFF",
"B. c #FCFDFC",
"V. c #FDFCFD",
"C. c #FCFDFD",
"Z. c #FDFDFD",
"A. c #FEFCFC",
"S. c #FEFDFC",
"D. c #FFFCFD",
"F. c #FCFEFC",
"G. c #FDFEFD",
"H. c #FEFFFD",
"J. c #FDFCFE",
"K. c #FDFCFF",
"L. c #FCFDFF",
"P. c #FEFCFE",
"I. c #FFFCFE",
"U. c #FEFDFE",
"Y. c #FEFCFF",
"T. c #FFFCFF",
"R. c #FEFDFF",
"E. c #FFFDFF",
"W. c #FDFEFF",
"Q. c #FCFFFF",
"!. c #FEFEFE",
"~. c #FFFEFE",
"^. c #FEFEFF",
"/. c #FFFEFF",
"(. c #FEFFFF",
/* pixels */
"D.(.m.N.W.R.C.Z.Z.B.F.u.q.0.",
"H.(.^.R.T.a.S./.E.I.k.E.~.~.",
"M.^.T.l.A.;. ./ ( X.x./.E.T.",
"n.Y.f.w.| P i M 0 a R :.G.j.",
"&.@.s.o.S l C j B m A T >.p.",
") ^ =.W N V s > * f b p } d.",
"] Y { I 6 n - q < % x 9 E z.",
"L r 3 8 Z 7 y ..Q # 5 z J %.",
"O w = g h 1 U 9.-.u & k v D ",
".   X , ; 2 [ 8.2.K $ d c : ",
"G o @ t H ! 5.c.Q.' e + 4 F ",
"$.` O.#.i.E.z.K.h.g.+.~ _ *.",
"U.!.!.P.d.I.P.S.J.L.V.r.D.T.",
"y.b.b.S.e.t.4.,.6.3.1.<.7.v."
};
