/* XPM */
static char *collectible[] = {
/* columns rows colors chars-per-pixel */
"14 14 124 2 ",
"   c #A31A21",
".  c #A51E28",
"X  c #B11E26",
"o  c #BD1F27",
"O  c #BE1F27",
"+  c #BF1F28",
"@  c #90272A",
"#  c #A92B29",
"$  c #B52228",
"%  c #BA2028",
"&  c #BC232B",
"*  c #BB2429",
"=  c #BE252B",
"-  c #B8252D",
";  c #B13A32",
":  c #C02029",
">  c #C1262A",
",  c #C9232B",
"<  c #CE272D",
"1  c #CC242E",
"2  c #D7232B",
"3  c #D4232D",
"4  c #D1242C",
"5  c #DB252D",
"6  c #DC242C",
"7  c #D2292F",
"8  c #C52831",
"9  c #D32731",
"0  c #D52833",
"q  c #E1242E",
"w  c #E5353D",
"e  c #AC503C",
"r  c #C43540",
"t  c #DF3540",
"y  c #A56240",
"u  c #BB6142",
"i  c #DD4F58",
"p  c #ED474F",
"a  c #DE646B",
"s  c #EA7D7E",
"d  c #62964F",
"f  c #6A984E",
"g  c #6A935F",
"h  c #6A945E",
"j  c #799A50",
"k  c #6F9267",
"l  c #6E9268",
"z  c #70936B",
"x  c #70966C",
"c  c #83854A",
"v  c #81934D",
"b  c #958E53",
"n  c #968F54",
"m  c #869350",
"M  c #8FAF85",
"N  c #93B38D",
"B  c #BAB790",
"V  c #A8BAA8",
"C  c #ACBEAC",
"Z  c #F08186",
"A  c #F38C92",
"S  c #F68F96",
"D  c #E59A9D",
"F  c #F4989A",
"G  c #F8B2B6",
"H  c #C2CB9E",
"J  c #DBDFDE",
"K  c #F5C2C1",
"L  c #F4CBCD",
"P  c #F9D1D3",
"I  c #FCDCDD",
"U  c #DFE2E0",
"Y  c #E2E5E2",
"T  c #E3E7E4",
"R  c #FBE2E3",
"E  c #F8E8E7",
"W  c #FAEDEE",
"Q  c #EEF1EF",
"!  c #EDF2EE",
"~  c #F4F3F2",
"^  c #F3F4F3",
"/  c #FDF4F4",
"(  c #FAF9F7",
")  c #F9FBF9",
"_  c #FAFBF9",
"`  c #FCFBFB",
"'  c #F9FCF8",
"]  c #F9FCF9",
"[  c #FCFCF9",
"{  c #FBFCFC",
"}  c #FAFDFC",
"|  c #FBFDFC",
" . c #FBFDFE",
".. c #FBFFFE",
"X. c #FBFEFF",
"o. c #FCFCFC",
"O. c #FCFDFC",
"+. c #FDFDFC",
"@. c #FDFCFD",
"#. c #FCFDFD",
"$. c #FDFDFD",
"%. c #FEFDFC",
"&. c #FEFDFD",
"*. c #FCFEFC",
"=. c #FDFEFD",
"-. c #FEFEFC",
";. c #FEFFFC",
":. c #FEFEFD",
">. c #FCFDFE",
",. c #FEFDFE",
"<. c #FFFDFE",
"1. c #FEFDFF",
"2. c #FDFEFE",
"3. c #FCFFFE",
"4. c #FDFFFE",
"5. c #FCFEFF",
"6. c #FDFEFF",
"7. c #FCFFFF",
"8. c #FDFFFF",
"9. c #FEFEFE",
"0. c #FFFEFE",
"q. c #FEFEFF",
"w. c #FEFFFF",
"e. c #FFFFFF",
/* pixels */
"e.e.e.5.$.}  .>.O.*.2.e.e.e.",
"e.e.e.&.@.X.o.`  .%.:.e.e.e.",
"e.e.e.2.6.R A S E X.2.e.e.e.",
"q.4.0.9.( Z 5 < F #.<.e.e.e.",
"5.&.<.8.K t 6 2 p P 7.w.9.e.",
":.&...W a o 3 q 4 s / w.w.0.",
"9.2.[ D 8 * 1 0 7 w G 1.8.9.",
"O.O.L r . & = - 9 , i I 3.+.",
"| ] B ;   X + % : O u H ) | ",
"*.' M c e @ $ > # y j N _ { ",
"%.9.J k f v b n m d x U 9.+.",
"$.$.9.Y V l h g z C T $.,.9.",
"$.9.,.0.,.~ ! Q ^ ,.0.9.0.9.",
"9.9.$.$.=.=.-.;.9.2.9.9.9.0."
};
