/* XPM */
static char *exit[] = {
/* columns rows colors chars-per-pixel */
"14 14 106 2 ",
"   c #141414",
".  c #151515",
"X  c #161616",
"o  c #171717",
"O  c #181818",
"+  c #191919",
"@  c #1A1A1A",
"#  c #1A1A1B",
"$  c #1B1B1B",
"%  c #1C1C1B",
"&  c #1C1C1C",
"*  c #1D1D1D",
"=  c #1E1E1E",
"-  c #1F1F1F",
";  c #202020",
":  c #212121",
">  c #222222",
",  c #222223",
"<  c #232323",
"1  c #232324",
"2  c #232424",
"3  c #242424",
"4  c #242425",
"5  c #252525",
"6  c #262626",
"7  c #272726",
"8  c #262627",
"9  c #282827",
"0  c #2E2B26",
"q  c #272729",
"w  c #282828",
"e  c #292929",
"r  c #2A2A2A",
"t  c #2B2B2A",
"y  c #2C2C2C",
"u  c #2F2F2F",
"i  c #302F2C",
"p  c #36332D",
"a  c #2F3031",
"s  c #2F3032",
"d  c #303031",
"f  c #303132",
"g  c #313132",
"h  c #3F3A31",
"j  c #3E3A32",
"k  c #403B31",
"l  c #403B32",
"z  c #413C32",
"x  c #423D33",
"c  c #423D34",
"v  c #494233",
"b  c #4A4334",
"n  c #474238",
"m  c #564A32",
"M  c #584D37",
"N  c #65573A",
"B  c #6D5B39",
"V  c #6D5C3B",
"C  c #3F4041",
"Z  c #706040",
"A  c #706247",
"S  c #7F6A42",
"D  c #6F6C66",
"F  c #7C766A",
"G  c #7E776A",
"H  c #7E786B",
"J  c #866F43",
"K  c #907848",
"L  c #937A48",
"P  c #957C49",
"I  c #977D4A",
"U  c #987E4B",
"Y  c #997E4B",
"T  c #AF9156",
"R  c #AE9158",
"E  c #B49559",
"W  c #B8985A",
"Q  c #8E8064",
"!  c #95876C",
"~  c #C4A466",
"^  c #CBAA69",
"/  c #DAB56C",
"(  c #DDB76D",
")  c #DEB971",
"_  c #DFBF7D",
"`  c #E4BD70",
"'  c #E7C072",
"]  c #E7C074",
"[  c #E8C174",
"{  c #E9C276",
"}  c #F0C776",
"|  c #F3CB7B",
" . c #F4CA78",
".. c #F6CC79",
"X. c #F4CC7D",
"o. c #F5CC7D",
"O. c #F4CD7D",
"+. c #F8CD7A",
"@. c #F9CE7A",
"#. c #FACF7B",
"$. c #FDD17C",
"%. c #FFD37D",
"&. c #FFD47D",
"*. c #FFD47E",
"=. c #FFD57E",
"-. c #FFD87F",
/* pixels */
"o + = ; ; - ; - & O o X   . ",
"$ = 3 w y i r 6 - @ o X .   ",
"= : e C Q ^ A t < * @ X . . ",
"* : u D _ -.) j , - @ o .   ",
"- < a H O.=.[ x 1 ; $ O X . ",
"; 3 g G o.=.] z 2 : * + X X ",
": 5 f G o.=.] l 2 > = @ X X ",
"> 6 d G o.=.] z 4 > - # X X ",
"7 e s F X.=.] k 1 , ; $ o o ",
"V M n ! | &.] h 2 3 ; $ + O ",
"P U R { ~ #.] c q 8 : * O O ",
"W ( @.` ' =./ Z b p 9 1 # X ",
"$.*.+. .*.} T I K S N v 0 % ",
"%.%.%.&...E I U Y Y L J B m "
};
