/* XPM */
static char *npxfess[] = {
/* columns rows colors chars-per-pixel */
"14 14 22 1 ",
"  c #1A1A1A",
". c #1C1C1C",
"X c #1C1C1E",
"o c #1D1D1E",
"O c #1E1E1E",
"+ c #34301B",
"@ c #2B2A22",
"# c #313132",
"$ c #52491A",
"% c #564D1A",
"& c #666666",
"* c #9B8616",
"= c #AA9214",
"- c #B99E13",
"; c #8E8E8E",
": c #8E8E8F",
"> c #8F8F90",
", c #CECECE",
"< c #F3F3F3",
"1 c #FAFAFA",
"2 c #FBFBFB",
"3 c #FFFFFF",
/* pixels */
"33333322333333",
"3331,;&&;,1333",
"33<>#.  .#><33",
"32:@+oOOo+@:23",
"3,#+=%XX%=+#,3",
"3;.o%-$$-%o.;3",
"2& OX$**$XO &2",
"2& OX$**$XO &2",
"3;.o%-$$-%o.;3",
"3,#+=%XX%=+#,3",
"32>@+oOOo+@>23",
"33<:#.  .#:<33",
"3331,;&&;,1333",
"33333322333333"
};
