/* XPM */
static char *test[] = {
/* columns rows colors chars-per-pixel */
"14 14 143 2 ",
"   c #676364",
".  c #646166",
"X  c #666267",
"o  c #666168",
"O  c #646268",
"+  c #646369",
"@  c #666268",
"#  c #66636A",
"$  c #666468",
"%  c #676469",
"&  c #67656B",
"*  c #68646A",
"=  c #69656A",
"-  c #68656B",
";  c #69656B",
":  c #69666B",
">  c #6A666B",
",  c #68646C",
"<  c #68656C",
"1  c #69656D",
"2  c #69666C",
"3  c #6A666C",
"4  c #6A676C",
"5  c #6B676C",
"6  c #6A666D",
"7  c #6A676D",
"8  c #6B676D",
"9  c #6A666E",
"0  c #6D676C",
"q  c #6C676F",
"w  c #6B6868",
"e  c #6A6969",
"r  c #6B696A",
"t  c #6B696B",
"y  c #6C686B",
"u  c #6A686C",
"i  c #6B696C",
"p  c #6A686D",
"a  c #6B696D",
"s  c #6B686E",
"d  c #6C686C",
"f  c #6C686D",
"g  c #6C696D",
"h  c #6F686D",
"j  c #6E696D",
"k  c #6C686E",
"l  c #6C696E",
"z  c #6D696E",
"x  c #6C696F",
"c  c #6D696F",
"v  c #6E686F",
"b  c #6D6B6E",
"n  c #6D6A6F",
"m  c #6E6B6E",
"M  c #6F6B6E",
"N  c #6E6A6F",
"B  c #6E6B6F",
"V  c #6E6C6F",
"C  c #6F6C6F",
"Z  c #706D6F",
"A  c #716E6F",
"S  c #6E6870",
"D  c #6E6970",
"F  c #6C6A70",
"G  c #6D6B70",
"H  c #6D6B71",
"J  c #6E6A70",
"K  c #6E6B70",
"L  c #6F6B70",
"P  c #6E6B71",
"I  c #6F6B71",
"U  c #6F6B72",
"Y  c #6E6C70",
"T  c #6F6C70",
"R  c #6F6D70",
"E  c #6E6C71",
"W  c #6F6D71",
"Q  c #6F6E70",
"!  c #6F6E73",
"~  c #706B71",
"^  c #706C70",
"/  c #716C71",
"(  c #706D71",
")  c #716D71",
"_  c #716E70",
"`  c #706C72",
"'  c #706D72",
"]  c #716D73",
"[  c #706E72",
"{  c #706E73",
"}  c #716E73",
"|  c #716F73",
" . c #726D74",
".. c #716E74",
"X. c #726F74",
"o. c #736F74",
"O. c #726E75",
"+. c #726F75",
"@. c #736F77",
"#. c #746E74",
"$. c #717072",
"%. c #717073",
"&. c #727072",
"*. c #737072",
"=. c #737073",
"-. c #747072",
";. c #747073",
":. c #757373",
">. c #727074",
",. c #737074",
"<. c #727076",
"1. c #737176",
"2. c #737177",
"3. c #737276",
"4. c #747075",
"5. c #757075",
"6. c #747175",
"7. c #747275",
"8. c #757375",
"9. c #747076",
"0. c #757276",
"q. c #747376",
"w. c #757376",
"e. c #747277",
"r. c #747377",
"t. c #757377",
"y. c #767276",
"u. c #767376",
"i. c #767277",
"p. c #757476",
"a. c #767476",
"s. c #767477",
"d. c #777577",
"f. c #767278",
"g. c #767478",
"h. c #76747A",
"j. c #77747A",
"k. c #76757B",
"l. c #77767A",
"z. c #78767A",
"x. c #78777C",
"c. c #79797B",
"v. c #7A787B",
/* pixels */
"e.v.q.k.z.j.x.T l.s.g.c.2.h.",
"$ f % 6 a - u . i @ : u # & ",
"=.n | R [ $.4 _ W X.A j ! + ",
"x - P 7 s s 1 I 9 L 8 k 5 O ",
"K 3.>.t.w.=.f.#.f.=.9.a.Z 7.",
"v k E O.K )  .h L U ..l K ,.",
"B ; { G z >.T M 5 <.G 3 %.b ",
"( 8.7.0.:.1.0.m e.&.} p...6.",
"* n ; z C > f X J = 4 i , 9 ",
"0.) 7.-.o.o.f ;.^ 4.*.z 6.# ",
"/ S 5.D ` K c ] q @.c ~ N < ",
"' e.,.y.u.o.i.,.r.+.,.d.) 0.",
"0 g J ` B c / d p F V 5 J Y ",
"y   ` 2 2 Q t w X H r o E e "
};
