/* XPM */
static char *avatar_right[] = {
/* columns rows colors chars-per-pixel */
"30 30 189 2 ",
"   c #1A3E1A",
".  c #184C29",
"X  c #224826",
"o  c #2E4A2C",
"O  c #2A502B",
"+  c #225C3A",
"@  c #315A38",
"#  c #286A3C",
"$  c #42543F",
"%  c #2F5943",
"&  c #345E44",
"*  c #2D6242",
"=  c #386646",
"-  c #356B46",
";  c #3D6349",
":  c #396C4B",
">  c #3C7245",
",  c #39764B",
"<  c #3E6850",
"1  c #3B7B53",
"2  c #3B7856",
"3  c #465F45",
"4  c #446747",
"5  c #4C644C",
"6  c #43724C",
"7  c #446A50",
"8  c #486853",
"9  c #526F5A",
"0  c #447353",
"q  c #4C7356",
"w  c #437A55",
"e  c #4C745B",
"r  c #457E5B",
"t  c #4B7C5B",
"y  c #527058",
"u  c #547D5A",
"i  c #587D64",
"p  c #657E65",
"a  c #2B894C",
"s  c #34834F",
"d  c #36894A",
"f  c #328451",
"g  c #3E8553",
"h  c #308F55",
"j  c #3C8558",
"k  c #359055",
"l  c #3A935B",
"z  c #399859",
"x  c #3D9A62",
"c  c #44814E",
"v  c #428653",
"b  c #458C5D",
"n  c #4A895F",
"m  c #54835B",
"M  c #5D865E",
"N  c #43945F",
"B  c #4A965D",
"V  c #4C8562",
"C  c #478B66",
"Z  c #538364",
"A  c #538E65",
"S  c #598668",
"D  c #518D6A",
"F  c #5A8B6C",
"G  c #459464",
"H  c #4A9261",
"J  c #439A63",
"K  c #489D65",
"L  c #469768",
"P  c #4A9468",
"I  c #469E69",
"U  c #4C9C6C",
"Y  c #579768",
"T  c #53946C",
"R  c #559772",
"E  c #5E9070",
"W  c #5C9D71",
"Q  c #65846C",
"!  c #68856C",
"~  c #65916D",
"^  c #66996C",
"/  c #618A71",
"(  c #6D8A75",
")  c #649573",
"_  c #67977B",
"`  c #699279",
"'  c #74927E",
"]  c #729C7C",
"[  c #40A166",
"{  c #4BA46A",
"}  c #47A96A",
"|  c #4EA96D",
" . c #55A36C",
".. c #4EAD73",
"X. c #55A575",
"o. c #5CA075",
"O. c #52AD73",
"+. c #5DA179",
"@. c #5CAD7B",
"#. c #4CB072",
"$. c #53B175",
"%. c #51B379",
"&. c #5BB37D",
"*. c #5ABB7C",
"=. c #63A37D",
"-. c #63AA7D",
";. c #66B47F",
":. c #828B7E",
">. c #739E86",
",. c #5AB782",
"<. c #5DB883",
"1. c #65AA80",
"2. c #6AA882",
"3. c #7DA387",
"4. c #7AA78B",
"5. c #64B585",
"6. c #63BE82",
"7. c #6FB48D",
"8. c #65BE8A",
"9. c #6BBB8B",
"0. c #75BA8C",
"q. c #5EC082",
"w. c #63C285",
"e. c #6BC38C",
"r. c #68C88C",
"t. c #6DC492",
"y. c #809F87",
"u. c #869C8B",
"i. c #879E92",
"p. c #80A08C",
"a. c #83AD8D",
"s. c #88AA94",
"d. c #98A897",
"f. c #8EB59B",
"g. c #93B49F",
"h. c #9CBBAA",
"j. c #A5ABA7",
"k. c #A3BCA9",
"l. c #B0BCAF",
"z. c #B4A9B0",
"x. c #B8B9B8",
"c. c #9BC4A9",
"v. c #9EC9B3",
"b. c #ACC0AC",
"n. c #AAC2B5",
"m. c #A6CAB4",
"M. c #B1C0B5",
"N. c #B6C9B9",
"B. c #B7CFC3",
"V. c #BDD2C4",
"C. c #BAD8C7",
"Z. c #BEDEC7",
"A. c #CEC3CA",
"S. c #C4C8CB",
"D. c #C3D2C8",
"F. c #C4DBCC",
"G. c #C8D9CF",
"H. c #CCCDD1",
"J. c #CFD2D6",
"K. c #CDDFD5",
"L. c #DCDBDB",
"P. c #E0D9DF",
"I. c #CDE7D7",
"U. c #D1E2D5",
"Y. c #D4E4DB",
"T. c #DAE4D9",
"R. c #DAEBDD",
"E. c #E5DFE5",
"W. c #D9E6E1",
"Q. c #DDF5EE",
"!. c #DFFCE8",
"~. c #E2E7E5",
"^. c #E2ECE4",
"/. c #E9EFE8",
"(. c #F2E8EF",
"). c #E2F3E4",
"_. c #E2F4E9",
"`. c #EBF3ED",
"'. c #EDFDEF",
"]. c #EFF7F1",
"[. c #ECFDF4",
"{. c #F3F6F6",
"}. c #FAF5F4",
"|. c #F4FBF4",
" X c #FCFDF5",
".X c #F7F7FB",
"XX c #FDF6FB",
"oX c #F5FDFA",
"OX c #FDFDFD",
/* pixels */
" X X XOXOXOX X XOXOXOXOXOXOXOXoXOXOXOXOXOXOXoXoXoXoXOXOXOXOX",
"OX X XOXOXOXOXOXOXoXOXOXOXOXOXOXOXOXOXOXOXOXOXOXOXOXOXOXOXOX",
"OXOXOXOXOXOXOXOXOXOXOXXXOXOXOX.XOXOXXXOXOXOXOXOXOXOXOXOXOXOX",
"OXOXOXOXOXOXOXXXXXOXOXOXOXOXOXOXXXOXOXOXOXOXOXOXOXOXOXOXOXOX",
"OXOXOXOXOXOXOXOXOXOXOXOXOXOX.XOX X X}.|.OXXXOXOXOXOXOXOXOXOX",
"OXOXOXOXOXOXOXOXOXoX^.Y.K.Y.Y.).|. XOX XOXOXXXOXOXOXOXOXoXOX",
"OXOXOXOXOXOXOXoXY.b.' ( ` _ ` s.b.F.'. XXXXXOXOXOXOXOXOXOXOX",
"OXOXXXOXOXOX_.c.] F , V T +.Y w Z ) s.I.[.oXOXOXOXXXOXOXoXoX",
"XXOX X XoX).c.) W W H 5.t.e.X.U 1.o.D E m.[.oXXXXXOXXXXX.XoX",
"OXOXOXoX_.c.A =.9.O.z $.r.w.h O.e.e.X.1 D B.OXOXOXXX(.(.OX.X",
"OXXX|.oXZ.m n @.e.q.z } #.$.k $.r...x @.R >.Q.OXOXXXA.E..XJ.",
"XXOX X!.f.D U L w.*.a k K N s | $.z &.t.1._ C.OXXXXXz.~.H.S.",
"OXXXOXV.i 2.5.x $.O.l s B w c B k } r.8.U Z C.oXOXL.A.P.x.W.",
"XXXXOXn.& W 9.,.l f b 1 = @ 6 B d $.;.{ C n f.[.OXz.P.x.J..X",
"OXOX|.h.2 R R <.L j - e y.d.p > v  .I I 5.P 3.!.{.j.x.j.Y.oX",
"XXOXW./ 1.5.L x C i e N.`./.K.! t V X.t.,.I G 0.3.y 9 ( h.Q.",
"OX{.Z.r G w.<.U 2 % s.W..XOX|.k.7 n -.<.%.[ { # # ^ a.! q m.",
"^.g.E o.J x %.X.C < B.OX X X XR.8 0 -.;.z $.e.g > m ~ u 6 S ",
"4.t 2 9.q...k f 1 < V.oXOX|. X).p.w =.X.N 6. .> Y ^ ] ] ] . ",
"+ 2.P &.q.*...j - e G.oX X X X[.N.@ A b B ;.K c ^ 6 M m u @ ",
". 7.@.G | { G A : 3.`.oX X X X|.U.Q q > n o.A > m O     X X ",
"* D 1.1.G g 1 : ; n.oXoXoX XOXOX{.V.Q & = m M 4 $ $ o o 5 4 ",
"v.V q t w 6 ; 8 i.W.oXOXOXoXOXOX X|.I.h.' p y 7 $ 3 5 $ p b.",
"[.B.s.( ! ( u.M.^.OX.XOXOXOXOXXXOXOXOXOX`.D.M.M.l.d.:.:.N.|.",
"OX.X].^.T.T.^.|.OXOXXXOXOXOXOXOXOXOXXXOXOXOXOXOXOX`.L.^.|.XX",
"OXOXOXXXOXOX}.OXXXOXOXOXOXOXOXOXXXOXXXOXOXOXOXOX.XOXOXOXOXOX",
"OXOXOXOX X}.OXOXOXOXOXOXOXOXOXOXOXOXOXOXOXOXOXOXOXOX|.XXOXOX",
"OXOXXXOXOXOX}.|.OXOXOXOXOXOX X XOXOXOXXXXXXXOXOXOXOXOXOXOXOX",
"OXOXOXOX X X XoXoXoXoXOX XOX X|.OXOXOXOXOXOXOXOX XOXOXoXOXOX",
".XOX XOX X X XoXoXoXoXOX X X X XoX X XOXOX X XOXOXoXOXOX XoX"
};
