/* XPM */
static char *collectible[] = {
/* columns rows colors chars-per-pixel */
"30 30 173 2 ",
"   c #6D1819",
".  c #7A211A",
"X  c #6D1823",
"o  c #2F5722",
"O  c #345D23",
"+  c #3B5D34",
"@  c #386125",
"#  c #3B752C",
"$  c #3D7737",
"%  c #436135",
"&  c #467C34",
"*  c #407438",
"=  c #446944",
"-  c #4F6D45",
";  c #4A7343",
":  c #5A7854",
">  c #667E53",
",  c #95181D",
"<  c #A11D1D",
"1  c #93251C",
"2  c #B7201F",
"3  c #891B27",
"4  c #951D24",
"5  c #AD1E21",
"6  c #AD1B2B",
"7  c #A31827",
"8  c #B41C25",
"9  c #BA1D28",
"0  c #B81A27",
"q  c #892622",
"w  c #AE2524",
"e  c #A52021",
"r  c #B32125",
"t  c #BA2124",
"y  c #BD252B",
"u  c #B42A2B",
"i  c #BD2929",
"p  c #B42928",
"a  c #AD2031",
"s  c #B53D32",
"d  c #C31B23",
"f  c #C11C2B",
"g  c #CB1D29",
"h  c #CF1B26",
"j  c #D21E2C",
"k  c #D11F24",
"l  c #EC1F2C",
"z  c #C42225",
"x  c #C4222C",
"c  c #CC252C",
"v  c #CC2025",
"b  c #D3232E",
"n  c #DB242C",
"m  c #D52B2E",
"M  c #DB2C2E",
"N  c #D1302E",
"B  c #C42232",
"V  c #CD2B33",
"C  c #C72935",
"Z  c #D52332",
"A  c #DC2532",
"S  c #D32A33",
"D  c #D32A3B",
"F  c #D7333C",
"G  c #E2252C",
"H  c #E9252B",
"J  c #E4262B",
"K  c #E32531",
"L  c #E92330",
"P  c #EC2B34",
"I  c #E02B38",
"U  c #F12C3C",
"Y  c #E2353F",
"T  c #A94234",
"R  c #B44634",
"E  c #9B623D",
"W  c #A9653E",
"Q  c #C3603F",
"!  c #FA3346",
"~  c #AB6C4A",
"^  c #BD6B45",
"/  c #BF7655",
"(  c #D04F57",
")  c #E64249",
"_  c #F05748",
"`  c #ED4656",
"'  c #F04850",
"]  c #F55359",
"[  c #F45B65",
"{  c #F75F6D",
"}  c #DD7178",
"|  c #F7616F",
" . c #F06C79",
".. c #EA767B",
"X. c #F07075",
"o. c #45863B",
"O. c #4E9548",
"+. c #509748",
"@. c #589C51",
"#. c #5AA44F",
"$. c #5FAC56",
"%. c #63AD55",
"&. c #6AB65E",
"*. c #75BA5C",
"=. c #78AC57",
"-. c #748368",
";. c #789177",
":. c #6FBD62",
">. c #71B961",
",. c #64C064",
"<. c #77C963",
"1. c #9A834C",
"2. c #A3824A",
"3. c #AE8754",
"4. c #85B05F",
"5. c #9FA764",
"6. c #87BA64",
"7. c #9EB368",
"8. c #90BF71",
"9. c #A2AD67",
"0. c #A5B16B",
"q. c #A7B567",
"w. c #93C16B",
"e. c #92CC79",
"r. c #B3C872",
"t. c #ED7E83",
"y. c #829B82",
"u. c #9DA89A",
"i. c #9DAEA5",
"p. c #A6B4A3",
"a. c #A9B5A5",
"s. c #ACB9AC",
"d. c #A8B8A4",
"f. c #ACB8B4",
"g. c #B5BDB2",
"h. c #D29A8D",
"j. c #F5808C",
"k. c #F58B92",
"l. c #F49898",
"z. c #EF9DA0",
"x. c #F597A1",
"c. c #EBBEAA",
"v. c #F8B7B8",
"b. c #FAB3B1",
"n. c #8CD780",
"m. c #B5C2BA",
"M. c #F6C0BF",
"N. c #F4BFC4",
"B. c #CCDCC3",
"V. c #D6DCD6",
"C. c #F7CBCB",
"Z. c #F6D2CF",
"A. c #F6DDDC",
"S. c #FCDCD9",
"D. c #F9D9D8",
"F. c #D7EFD2",
"G. c #DAF1D6",
"H. c #F9E2DB",
"J. c #ECEEEC",
"K. c #E5E6E3",
"L. c #F4E6E2",
"P. c #F5EEE6",
"I. c #FCEFED",
"U. c #F5EBEF",
"Y. c #F4F5EC",
"T. c #EEF0F1",
"R. c #F3F3F4",
"E. c #FDF4F5",
"W. c #F2FCF3",
"Q. c #FCFCF6",
"!. c #FFF7FC",
"~. c #F6FEFC",
"^. c #FEFEFE",
/* pixels */
"^.^.^.^.^.^.^.^.^.^.^.Q.^.^.^.^.^.!.^.^.^.^.^.^.^.^.^.^.^.^.",
"^.^.^.^.^.^.^.^.~.^.^.~.~.~.~.~.~.!.^.~.Q.~.^.^.^.^.^.^.^.^.",
"^.^.^.^.^.^.^.^.^.^.!.~.^.^.!.^.!.^.^.^.^.^.^.^.^.^.^.^.^.^.",
"^.^.^.^.^.^.^.^.^.^.!.^.^.^.^.^.^.~.^.^.^.^.E.^.^.^.^.^.^.^.",
"^.^.^.^.^.^.^.^.^.^.^.^.~.L.S.S.L.^.^.!.^.~.^.^.^.^.^.^.^.^.",
"^.^.^.^.^.^.^.^.!.^.^.Q.C.t.{ | t.D.W.^.^.^.^.^.^.^.^.^.^.^.",
"^.^.^.^.^.^.^.^.!.^.~.H. .U G G ! k.P.~.^.^.^.^.^.^.^.^.^.^.",
"^.^.^.^.^.^.^.^.^.!.W.k.Y l m 1 G ' v.^.~.^.^.^.^.^.^.^.^.^.",
"^.^.~.^.^.^.^.^.^.~.A.` n H Z 4 v P ..I.^.^.^.^.^.^.^.^.^.^.",
"^.^.^.^.^.^.^.^.^.H.t.F n G G n A P ' x.E.^.~.^.^.^.^.^.^.^.",
"^.^.!.!.^.^.^.^.^.b.) j Z n M H M L I [ Z.^.!.^.^.^.^.^.^.^.",
"~.^.^.^.^.^.~.^.P...C c f b G n n M c ! l.P.^.^.^.^.^.^.^.^.",
"^.^.^.^.^.~.~.E.x.D z e . Z L A H Z < 2 ' C.!.^.^.^.^.^.^.^.",
"^.^.^.^.~.Q.E.C.( y g x y j c c A F V k U ..A.!.^.^.^.^.^.^.",
"^.^.^.^.~.^.H.} B y x i y b S c D F n P I ! l.U.^.^.^.^.^.^.",
"^.~.^.^.!.^.z.x 8 u C u w D C p S F m M M H [ C.^.^.~.^.^.Q.",
"^.Q.~.E.!.C.) 8 6 3 7 B t d p   x b Z c y 4 D X.D.^.^.Q.!.^.",
"~.!.~.!.Y.h.p 0 6 . , f f g c 6 x x x g y 3 m _ c.W.~.!.~.~.",
"^.~.~.^.G.e.3.u < 2 r p r 9 f 2 p i z z v x ^ r.n.F.!.!.^.^.",
"Q.^.^.^.B.+.4./ p 8 6 3 4 9 b z 9 f 7 5 z Q q.<.@.B.^.~.~.^.",
"^.Q.^.^.V.> & 6.2.R a X   6 d 9 x 8 , q ~ 5.=.# -.K.^.Q.^.^.",
"^.!.~.^.R.f.= & w.7.1.E s s s s R R W 1.w.,.O.= g.^.^.~.^.^.",
"^.^.^.^.^.R.i.% & $.*.6.7.9.7.0.9.q.8.=.#.# = s.R.^.^.^.^.Q.",
"^.^.^.^.^.^.U.u.: ; $ O.$.>.*.*.&.%.O.* ; : p.R.^.!.^.^.^.^.",
"^.^.^.^.^.^.^.T.V.s.;.+ o O @ O @ O + y.m.V.T.^.Q.!.^.^.^.^.",
"~.^.^.!.^.^.^.^.^.Q.K.g.a.d.d.d.p.s.f.J.^.^.^.^.^.^.^.^.^.^.",
"^.^.^.^.^.^.^.^.Q.^.^.^.^.~.~.^.~.^.Q.^.^.Q.^.^.^.^.^.^.^.^.",
"^.^.^.^.!.~.^.^.^.^.^.!.^.~.^.^.!.^.^.^.^.^.^.^.^.^.^.^.^.^.",
"^.^.^.^.^.^.^.^.^.^.~.^.^.Q.Q.Q.~.^.^.^.^.^.^.^.^.^.^.^.^.^.",
"^.^.^.^.^.^.^.^.^.~.^.^.^.^.^.^.^.^.^.^.^.^.^.^.^.^.^.^.^.^."
};
