/* XPM */
static char *exit[] = {
/* columns rows colors chars-per-pixel */
"30 30 195 2 ",
"   c #121212",
".  c #131313",
"X  c #141414",
"o  c #151515",
"O  c #161616",
"+  c #171717",
"@  c #181818",
"#  c #191919",
"$  c #1A1A1A",
"%  c #1B1B1B",
"&  c #1C1C1C",
"*  c #1D1D1D",
"=  c #1E1E1E",
"-  c #1F1F1F",
";  c #202020",
":  c #212121",
">  c #222222",
",  c #222223",
"<  c #232323",
"1  c #232324",
"2  c #242424",
"3  c #252525",
"4  c #262626",
"5  c #272727",
"6  c #272828",
"7  c #27282A",
"8  c #282828",
"9  c #292929",
"0  c #28292A",
"q  c #29292A",
"w  c #292A2B",
"e  c #2A2A2A",
"r  c #2B2B2B",
"t  c #292A2C",
"y  c #2A2B2C",
"u  c #2B2B2C",
"i  c #2B2C2D",
"p  c #2C2C2C",
"a  c #2D2D2D",
"s  c #2C2C2E",
"d  c #2C2D2E",
"f  c #2D2D2E",
"g  c #2D2E2E",
"h  c #2E2E2E",
"j  c #302C28",
"k  c #31302F",
"l  c #36332D",
"z  c #36332E",
"x  c #37342E",
"c  c #37342F",
"v  c #39342C",
"b  c #38352F",
"n  c #3D372C",
"m  c #3D392F",
"M  c #333230",
"N  c #393630",
"B  c #383631",
"V  c #393731",
"C  c #3B3833",
"Z  c #3B3933",
"A  c #3F3A30",
"S  c #383838",
"D  c #393939",
"F  c #3A3A3A",
"G  c #433C2F",
"H  c #484133",
"J  c #4B4334",
"K  c #4C4434",
"L  c #4F4634",
"P  c #564C37",
"I  c #5A4C31",
"U  c #635335",
"Y  c #605439",
"T  c #65563A",
"R  c #66573A",
"E  c #695A3B",
"W  c #6C5C3B",
"Q  c #6F5D3A",
"!  c #6D5C3C",
"~  c #6F5E3C",
"^  c #71603C",
"/  c #75623D",
"(  c #76633D",
")  c #78643D",
"_  c #7B673E",
"`  c #7D683E",
"'  c #7D683F",
"]  c #7F6A3F",
"[  c #404143",
"{  c #46484B",
"}  c #4C4C4C",
"|  c #4D4D4D",
" . c #5F5645",
".. c #6D5F46",
"X. c #6F6146",
"o. c #746341",
"O. c #746648",
"+. c #736750",
"@. c #626261",
"#. c #606162",
"$. c #6E7075",
"%. c #6F7175",
"&. c #717275",
"*. c #747576",
"=. c #806A3F",
"-. c #836C41",
";. c #856F42",
":. c #897244",
">. c #8A7344",
",. c #8B7445",
"<. c #8C7445",
"1. c #8E7545",
"2. c #8E7646",
"3. c #907747",
"4. c #927948",
"5. c #947A49",
"6. c #947B49",
"7. c #957B49",
"8. c #957B4A",
"9. c #967C4A",
"0. c #967D4A",
"q. c #977D4A",
"w. c #977E4B",
"e. c #987E4B",
"r. c #997E4B",
"t. c #997F4B",
"y. c #997F4C",
"u. c #8B7851",
"i. c #917C53",
"p. c #9A804C",
"a. c #9F844E",
"s. c #A1864F",
"d. c #A48850",
"f. c #A48851",
"g. c #A58B57",
"h. c #BC9C5C",
"j. c #BD9C5D",
"k. c #BF9E5D",
"l. c #8A8477",
"z. c #988D76",
"x. c #948A78",
"c. c #B89B62",
"v. c #C09F5E",
"b. c #C1A05F",
"n. c #C7A767",
"m. c #CEAA65",
"M. c #D2AE67",
"N. c #D2AF68",
"B. c #D6B269",
"V. c #DBB66C",
"C. c #DDB96D",
"Z. c #DFB96E",
"A. c #C0A879",
"S. c #C2A979",
"D. c #C2AB79",
"F. c #C9AF79",
"G. c #DBBA7A",
"H. c #DBBC7D",
"J. c #E1BA6F",
"K. c #E2BC6F",
"L. c #E3BD70",
"P. c #E3BC72",
"I. c #E4BD70",
"U. c #E6BF71",
"Y. c #E4BD73",
"T. c #EBC675",
"R. c #E7C27B",
"E. c #E5C47C",
"W. c #F0C877",
"Q. c #F1C877",
"!. c #F2C977",
"~. c #F1C878",
"^. c #F1CA79",
"/. c #F1CC7A",
"(. c #F5CC79",
"). c #F9CF7B",
"_. c #FBD07B",
"`. c #FBD17C",
"'. c #FDD17C",
"]. c #FED27C",
"[. c #FED27D",
"{. c #FFD37D",
"}. c #FBD47D",
"|. c #FFD47D",
" X c #FFD67D",
".X c #FFD77D",
"XX c #FDD47E",
"oX c #FFD47E",
"OX c #FFD57E",
"+X c #FFD67E",
"@X c #FFD67F",
"#X c #FFD77F",
"$X c #FFD87E",
"%X c #FFD87F",
"&X c #FFDA81",
/* pixels */
"O @ @ # = * & = * % * $ % - = & * % # @ @ + + O O o X X O + ",
"+ + + # = * ; < > : < - - < > - : ; & # # + O + O O .   . o ",
"+ # # % : : > 3 3 8 e 5 4 5 3 < : : = $ @ + O O O O o . . o ",
"$ - * = < 4 9 p r e 0 7 t g h r 2 : * $ $ # @ O O o o O X X ",
"& : - > 4 9 p p D [  .X...M f g 8 3 : = & % # @ O o X O X X ",
"* - - : 4 e r S #.x.E.#XXXu.k a 8 4 > - * % # # O X X o O o ",
"% * = > 4 r F @.$.F. X{.{.}.i.M 8 3 > : - & $ # @ O O o O O ",
"& = - < 8 e | *.z.R.|.{.{.{./.Z 8 5 : ; - % # # @ + o X X X ",
"& = ; < 8 e } &.D..X{.{.{.{.~.C 8 5 > ; ; * # + @ O O o X X ",
"* ; > < 5 e } &.S. X{.{.{.{.~.C 8 8 2 : : ; % @ @ + + O o o ",
"= < 2 3 9 r } &.S. X{.{.{.{.~.V 8 5 2 : : ; & $ # @ + + O X ",
"& ; > < e p } &.S. X{.{.{.{.~.N 8 5 2 : ; - & $ # + + @ @ o ",
"= : > 2 e p } &.S. X{.{.{.{.Q.x 8 5 2 < < : = $ # O o O O o ",
": < 3 4 p p } &.S. X{.{.{.{.Q.z 8 5 2 2 2 ; - * & @ O + O o ",
": : < 4 q e } &.S. X{.{.{.{.Q.z 8 3 < > : = = % % @ o o o o ",
"; ; > 3 9 e } &.S. X{.{.{.{.~.N e 5 3 2 : - - & % # + o O O ",
"< 2 8 9 r e } &.S. X{.{.{.{.~.N 8 3 3 2 : : : * & @ o X O O ",
"< 2 8 9 r e } &.S. X{.{.{.{.~.N 8 3 3 2 : ; ; % $ @ + O @ @ ",
", 1 6 q p e } &.S. X{.{.{.{.~.b 5 3 3 2 > : ; * & # @ + @ @ ",
"n G A y s u } %.A. X{.{.{.{.Q.l 3 3 < < 2 < : - * $ @ @ @ + ",
"-.=./ J K m { l.G.%XoX{.{.{.Q.l 4 4 2 3 4 < : * % & @ @ # @ ",
"w.>.>.<.1.^ +.H.$Xn.P.oX{.{.Q.c q 9 4 5 4 > - % $ % # # $ @ ",
"e.t.t.e.6.d.C.+X&XO.c.#X{.{.~.N r e 8 8 4 < : = = % + + @ @ ",
"e.e.6.f.M.L.@X#XN.g.Y.oX{.{.^.B y y r r 9 5 3 : > = @ O + + ",
"7.a.B.K.@XOX+XV.j.T.+X{.{.'.b.o.Y P d i 0 8 4 < < : % + + + ",
"Z.I.OXoX{.OXU.m.W.OX{.{.{.`.s.t.3._ T R L w u q 9 3 = + + + ",
"OXOX{.{.|.!.J.(.oX{.{.{.[.h.p.e.e.4.5.2.) E W H i p 5 * # # ",
"{.{.{.{.{._.).|.{.{.{.[.k.y.e.e.e.r.r.q.6.,.=.( ! ~ v < - % ",
"{.{.{.{.{.{.{.{.{.{.].h.y.e.e.e.e.e.e.e.r.0.8.:.] ] Q U I j ",
"{.{.{.{.{.{.{.{.{.OXv.r.e.e.e.e.e.e.e.e.e.e.r.0.9.;.' ` _ ( "
};
