/* XPM */
static char *npxfess[] = {
/* columns rows colors chars-per-pixel */
"30 30 52 1 ",
"  c #1A1A1A",
". c #1B1B1B",
"X c #1A1B1E",
"o c #1B1C1E",
"O c #1C1C1C",
"+ c #1C1C1D",
"@ c #1D1D1D",
"# c #1C1C1E",
"$ c #1D1D1E",
"% c #1E1E1E",
"& c #24231E",
"* c #2E2B1D",
"= c #312E1D",
"- c #33301D",
"; c #35311C",
": c #3A351C",
"> c #202020",
", c #212121",
"< c #242424",
"1 c #2B2B2B",
"2 c #3E3E3E",
"3 c #6B5E19",
"4 c #716219",
"5 c #515151",
"6 c #6F6F6F",
"7 c #757575",
"8 c #797979",
"9 c #7B7B7B",
"0 c #937F16",
"q c #B49A13",
"w c #B69C13",
"e c #B89E13",
"r c #BA9F13",
"t c #C7AA13",
"y c #F3CF0F",
"u c #F5D00F",
"i c #F6D20F",
"p c #E3C110",
"a c #A6A6A6",
"s c #A8A8A8",
"d c #C0C0C0",
"f c #C4C4C4",
"g c #DADADA",
"h c #DBDBDB",
"j c #DCDCDC",
"k c #DDDDDD",
"l c #E7E7E7",
"z c #ECECEC",
"x c #F8F8F8",
"c c #F9F9F9",
"v c #FEFEFE",
"b c white",
/* pixels */
"bbbbbbbbbbbbbbbbbbbbbbbbbbbbbb",
"bbbbbbbbbbbbbvvvvbbbbbbbbbbbbb",
"bbbbbbbbbbczjfddfjzcbbbbbbbbbb",
"bbbbbbbbxgs72>@@>27sgxbbbbbbbb",
"bbbbbbbla5,.@%%%%@.,5albbbbbbb",
"bbbbbbk91 %%%%%%%%%% 19kbbbbbb",
"bbbbbh6<O%%%%%%%%%%%%O<6hbbbbb",
"bbbbl8,+&%#%%%%%%%%#%&+,8lbbbb",
"bbbxa1O&30:X%%%%%%X:03&O1axbbb",
"bbbg5 %%0iq;o%%%%o;qi0%% 5gbbb",
"bbcs,%%#:qiw-#%%#-wiq:#%%,scbb",
"bbz7.%%%X;wue=$$=euw;X%%%.7zbb",
"bbj2@%%%%o-eyr**rye-o%%%%@2jbb",
"bvf>%%%%%%#=rp44pr=#%%%%%%>fvb",
"bvd@%%%%%%%$*4tt4*$%%%%%%%@dvb",
"bvd@%%%%%%%$*4tt4*$%%%%%%%@dvb",
"bvf>%%%%%%#=rp44pr=#%%%%%%>fvb",
"bbj2@%%%%o-eyr**rye-o%%%%@2jbb",
"bbz7.%%%X;wue=$$=euw;X%%%.7zbb",
"bbcs,%%#:qiw-#%%#-wiq:#%%,scbb",
"bbbg5 %%0iq;o%%%%o;qi0%% 5gbbb",
"bbbxa1O&30:X%%%%%%X:03&O1axbbb",
"bbbbl9<+&%#%%%%%%%%#%&+<9lbbbb",
"bbbbbk6,O%%%%%%%%%%%%O,6kbbbbb",
"bbbbbbh81 %%%%%%%%%% 18hbbbbbb",
"bbbbbbbla5,.@%%%%@.,5albbbbbbb",
"bbbbbbbbxgs72>@@>27sgxbbbbbbbb",
"bbbbbbbbbbczjfddfjzcbbbbbbbbbb",
"bbbbbbbbbbbbbvvvvbbbbbbbbbbbbb",
"bbbbbbbbbbbbbbbbbbbbbbbbbbbbbb"
};
