/* XPM */
static char *wall[] = {
/* columns rows colors chars-per-pixel */
"30 30 55 1 ",
"  c #483F42",
". c #443F49",
"X c #47434B",
"o c #4C454A",
"O c #4C494C",
"+ c #524C4D",
"@ c #56504D",
"# c #4D4954",
"$ c #524E53",
"% c #534F59",
"& c #565455",
"* c #5A5556",
"= c #575857",
"- c #5A5B56",
"; c #56525A",
": c #59555C",
"> c #5C5B5D",
", c #625C5E",
"< c #62635E",
"1 c #5B5661",
"2 c #5D5A62",
"3 c #625D64",
"4 c #635E69",
"5 c #685F6A",
"6 c #646264",
"7 c #696366",
"8 c #626867",
"9 c #65626B",
"0 c #6A656B",
"q c #6D6A6C",
"w c #726D6E",
"e c #71706F",
"r c #78726F",
"t c #6B6671",
"y c #6E6A72",
"u c #726D73",
"i c #746E7A",
"p c #747374",
"a c #797476",
"s c #7A7975",
"d c #76737A",
"f c #79757B",
"g c #7C7A7C",
"h c #817D7E",
"j c #767480",
"k c #7A7581",
"l c #7D7C82",
"z c #7D7A88",
"x c #817E83",
"c c #827E88",
"v c #7F8084",
"b c #828186",
"n c #84828A",
"m c #888792",
"M c #8D8D94",
/* pixels */
"zdMvlvzznvgczmlk0Mlvvzzvvbbivv",
"a0hpspqsfpsefasa*hpseqfppspqps",
"7>peq62epqq80ye8+awq62qeq00>yy",
":#9:;:#:91;%%41:.9:;:#:0=;1#t;",
"bgldkvlfflbbvgqvxzllblsfdlvll2",
"aspqassswdpppe7pspqgppsrqppse2",
"06>%6t33*296>&:033;3q7,,%56>>#",
"y9239y9444t0229p5535u9492tt:22",
"kuabvkfkglxfllklfccggkkhxhgull",
"s6pdppyapasqfpfsqfpppypppfw0pd",
"u>pgy89fseq6waww,ugq03afp0q,aq",
"05822p0qy>0q5ww79061u9uu&0u3uu",
"fuuudddddddadfiiupfdddffyddusd",
"auiqdafdydgdfppfppukkpduqddddd",
"82*o3q8>$$8q6=>6<&o2y6>&O6e>>=",
"kymlzzzlhshzdbgftmklvjjvghvybg",
"a8faspwhfagwddfp>bfsrqpdssdtdg",
"3*fwq53uuww39pu0oguw7>yuuq92yp",
"1$q1:1%30,*;;0>2Xy1%1%20*;>$0=",
"nxxlkbghhhcxbl9bxbfdnxggugbxz2",
"sauuapshuafasu5usruuaphp5ifau2",
"w7,,0u7,*2y7,;:u73*5uq<,:y06=%",
"fq45ufw300uu,0qkw3tyk53w6pu1t9",
"gifcxgklbxxldxxxfdbclufnvhvtvv",
"a0fapeufppfwpuffqapdpqudapp0yg",
"w3dspq9pspw6wauw,afuq6ysae06de",
"533>:t590;693qq8352:y408#60>q0",
"auuddiddfdfuifupyuiuddfftipddu",
"irpwkfppudgdppppppyddppwuddpps",
"6,+ 308>$o608&&<<&X:88,+X90<=="
};
