/* XPM */
static char *avatar_right[] = {
/* columns rows colors chars-per-pixel */
"13 13 151 2 ",
"   c #40583D",
".  c #3C6442",
"X  c #3F7E52",
"o  c #3F7E56",
"O  c #4E6C4F",
"+  c #4A724C",
"@  c #457F57",
"#  c #5E765D",
"$  c #3E915C",
"%  c #448353",
"&  c #4C8254",
"*  c #428854",
"=  c #42885F",
"-  c #46895D",
";  c #4B8964",
":  c #558568",
">  c #5F8669",
",  c #578968",
"<  c #5F8A6D",
"1  c #4C9162",
"2  c #49956A",
"3  c #539068",
"4  c #53946A",
"5  c #549C69",
"6  c #539D73",
"7  c #549C70",
"8  c #539F74",
"9  c #5B9C74",
"0  c #638F6D",
"q  c #688B75",
"w  c #619577",
"e  c #4AA66B",
"r  c #4CA769",
"t  c #4EA66D",
"y  c #4AA86B",
"u  c #4CA86D",
"i  c #4CA971",
"p  c #4FA871",
"a  c #4FAC71",
"s  c #56AB76",
"d  c #56AB77",
"f  c #5DA479",
"g  c #57AB79",
"h  c #56AC79",
"j  c #5DA87A",
"k  c #5CAF78",
"l  c #55B078",
"z  c #61A279",
"x  c #69A47F",
"c  c #779881",
"v  c #779C80",
"b  c #7C9C80",
"n  c #72A783",
"m  c #7FAE8E",
"M  c #8C9E91",
"N  c #92AD9E",
"B  c #83B196",
"V  c #90B39F",
"C  c #9BBDA5",
"Z  c #A6BBAA",
"A  c #9BC1AA",
"S  c #AFC7B7",
"D  c #ADC6B8",
"F  c #AECDBB",
"G  c #B0C6B8",
"H  c #B8C5B8",
"J  c #B4CABC",
"K  c #BAC8BB",
"L  c #B8CFBF",
"P  c #C0C6BE",
"I  c #B8CDC4",
"U  c #BECFC4",
"Y  c #D1CACF",
"T  c #CFDCD2",
"R  c #D4DAD3",
"E  c #D0DDD0",
"W  c #D3D4D8",
"Q  c #D1E7D8",
"!  c #DEE3DC",
"~  c #DCE8DC",
"^  c #E8DFE5",
"/  c #DDE4E0",
"(  c #DDE9E4",
")  c #E1E6E4",
"_  c #E4E4E7",
"`  c #E0EBE6",
"'  c #E4F3E7",
"]  c #EBF2ED",
"[  c #EEF7EC",
"{  c #ECF6EF",
"}  c #F0F3F1",
"|  c #F9FBF7",
" . c #FBFEF5",
".. c #FBFCF6",
"X. c #FDFEF7",
"o. c #F5F8F8",
"O. c #F7FDFA",
"+. c #FBFEFA",
"@. c #FDFDF9",
"#. c #FEFFF9",
"$. c #FEFCFB",
"%. c #FEFDFB",
"&. c #FFFDFB",
"*. c #FCFEFB",
"=. c #FDFFFB",
"-. c #FEFFFA",
";. c #FDF9FD",
":. c #FCFAFC",
">. c #FFFBFC",
",. c #FCFBFE",
"<. c #FEFAFE",
"1. c #FFFAFE",
"2. c #FFFBFE",
"3. c #FFFBFF",
"4. c #F9FDFD",
"5. c #F8FFFD",
"6. c #FBFEFC",
"7. c #FBFEFD",
"8. c #FBFFFD",
"9. c #F9FFFF",
"0. c #FAFFFE",
"q. c #FBFEFF",
"w. c #FCFDFC",
"e. c #FDFCFD",
"r. c #FCFDFD",
"t. c #FFFCFC",
"y. c #FEFCFD",
"u. c #FEFDFD",
"i. c #FFFDFD",
"p. c #FCFEFC",
"a. c #FDFFFC",
"s. c #FEFFFC",
"d. c #FFFEFD",
"f. c #FEFFFD",
"g. c #FDFCFE",
"h. c #FDFDFE",
"j. c #FDFDFF",
"k. c #FEFCFE",
"l. c #FFFCFE",
"z. c #FEFDFE",
"x. c #FFFDFE",
"c. c #FEFCFF",
"v. c #FFFCFF",
"b. c #FEFDFF",
"n. c #FFFDFF",
"m. c #FDFFFF",
"M. c #FEFEFE",
"N. c #FFFEFE",
"B. c #FEFEFF",
"V. c #FFFEFF",
"C. c #FEFFFF",
/* pixels */
"#.-.s.p.w.e.r.h.b.q.9.m.i.",
"N.x.n.k.V.x.d.t.2.v.B.C.f.",
"v.n.B.] U D L ~ | 2.3.B.0.",
"<.6.Q m 4 j 7 x A { 1.;.4.",
">.' n k y a e l 6 F y.^ _ ",
"l.J 9 p $ X * r g B } Y W ",
":.V 8 2 : Z b 1 h f C M I ",
"S z i = N a.E , d t % 0 < ",
"; s u o G =.[ v - 5 & + . ",
"w 3 @ q ` 8.*.T c > O   # ",
"( K H ) ,.g.c.c.o./ R P ! ",
"n.i.&.g.j.e.u.3.2.n.V.M.z.",
"r.@...O.5.X. .+.$.%.p.7.*."
};
