/* XPM */
static char *collectible[] = {
/* columns rows colors chars-per-pixel */
"13 13 108 2 ",
"   c #A11B25",
".  c #A31C24",
"X  c #AE1E26",
"o  c #B81E27",
"O  c #A7262A",
"+  c #B42228",
"@  c #BB2129",
"#  c #BA232B",
"$  c #B02E2A",
"%  c #BE3231",
"&  c #C31D26",
"*  c #C81F25",
"=  c #C02129",
"-  c #C5202A",
";  c #C3232C",
":  c #C2262C",
">  c #C4272F",
",  c #D5212C",
"<  c #D5252E",
"1  c #DB242F",
"2  c #DA272E",
"3  c #DD252C",
"4  c #C72B33",
"5  c #D22B35",
"6  c #D6383D",
"7  c #E22730",
"8  c #A55D3D",
"9  c #E73842",
"0  c #967146",
"q  c #A86F49",
"w  c #A17447",
"e  c #A37E49",
"r  c #C8444B",
"t  c #E4484E",
"y  c #E95B64",
"u  c #ED6269",
"i  c #E46D72",
"p  c #5F9252",
"a  c #678E4F",
"s  c #7F8C4C",
"d  c #629256",
"f  c #639257",
"g  c #689858",
"h  c #7CA078",
"j  c #7FA27C",
"k  c #838A4A",
"l  c #88A46C",
"z  c #89B275",
"x  c #ABBBAC",
"c  c #B0BFB0",
"v  c #D19689",
"b  c #F08286",
"n  c #E1B39E",
"m  c #EBABAF",
"M  c #F5A4A8",
"N  c #F6ADB0",
"B  c #B9C6B9",
"V  c #BCC9BC",
"C  c #F9C0C2",
"Z  c #F5CCCB",
"A  c #F7D5D8",
"S  c #FADBDC",
"D  c #DEE5DF",
"F  c #E1E5DF",
"G  c #E1E5E1",
"H  c #FBE3E7",
"J  c #EFF5ED",
"K  c #F0F5EF",
"L  c #F5F4F4",
"P  c #F4F6F4",
"I  c #FCF3F2",
"U  c #FCF3F3",
"Y  c #FBF7F7",
"T  c #F8FAF7",
"R  c #F8F8F9",
"E  c #F9F9F9",
"W  c #FBFAFA",
"Q  c #FBFBFB",
"!  c #FCF9F9",
"~  c #F8FCF8",
"^  c #FCFCFB",
"/  c #FAFCFC",
"(  c #FBFDFD",
")  c #FBFFFC",
"_  c #FBFDFF",
"`  c #FCFCFC",
"'  c #FCFDFC",
"]  c #FCFDFD",
"[  c #FDFDFD",
"{  c #FEFDFD",
"}  c #FCFEFC",
"|  c #FDFEFC",
" . c #FCFEFD",
".. c #FDFEFD",
"X. c #FEFFFD",
"o. c #FCFDFE",
"O. c #FDFDFE",
"+. c #FDFEFE",
"@. c #FCFEFF",
"#. c #FDFEFF",
"$. c #FDFFFF",
"%. c #FEFEFE",
"&. c #FEFFFE",
"*. c #FFFFFE",
"=. c #FEFEFF",
"-. c #FFFEFF",
";. c #FEFFFF",
":. c #FFFFFF",
/* pixels */
":.:.:.o.] ( _ ] } ..:.:.:.",
":.:.:.{ O.Q U W O.| :.:.:.",
":.:.:.O.! M u N / @.:.:.:.",
"#...%.$.Z 9 * t S $.-.-.-.",
"..{ =.I i , 3 7 b Y ;.&.-.",
"%.+.) m 4 @ 1 < 6 C ;.;.%.",
" .+.A r # : > 5 2 y H $.[ ",
"' T v X . = + ; - % n ~ ' ",
" .J l 8 O   & o $ e z K ( ",
"| ^ x a k 0 q w s p c ` ' ",
"[ %.R B h d g f j V E %.%.",
"[ %.%.:.L F D G P :.%.%.%.",
"%.%.[ ..[ *.X.*.&.#.%.%.-."
};
