/* XPM */
static char *exit[] = {
/* columns rows colors chars-per-pixel */
"13 13 94 2 ",
"   c #141414",
".  c #151515",
"X  c #161616",
"o  c #171717",
"O  c #181818",
"+  c #191919",
"@  c #1A1A1A",
"#  c #1B1B1A",
"$  c #1A1A1B",
"%  c #1B1B1B",
"&  c #1C1C1C",
"*  c #1E1E1E",
"=  c gray12",
"-  c #1F1F20",
";  c #202020",
":  c #212121",
">  c #222222",
",  c #222223",
"<  c #232323",
"1  c #222224",
"2  c #222324",
"3  c #232325",
"4  c #232425",
"5  c #242424",
"6  c #252525",
"7  c #242426",
"8  c #252526",
"9  c #242527",
"0  c #262626",
"q  c #262627",
"w  c #272727",
"e  c #2D2B26",
"r  c #272728",
"t  c #282929",
"y  c #2C2C2C",
"u  c #2E2E2E",
"i  c #34322D",
"p  c #3E392F",
"a  c #383530",
"s  c #393732",
"d  c #38383A",
"f  c #38393B",
"g  c #393A3C",
"h  c #3E3E3D",
"j  c #474032",
"k  c #484133",
"l  c #4F4532",
"z  c #534731",
"x  c #50493A",
"c  c #625539",
"v  c #6D5B3A",
"b  c #5B5955",
"n  c #7E6A42",
"m  c #877043",
"M  c #8A7345",
"N  c #8F7747",
"B  c #917847",
"V  c #957B49",
"C  c #977D4B",
"Z  c #997F4B",
"A  c #937D52",
"S  c #947E53",
"D  c #937E54",
"F  c #947E54",
"G  c #957F54",
"H  c #9E834E",
"J  c #998153",
"K  c #9E8554",
"L  c #A38750",
"P  c #AD9055",
"I  c #988B73",
"U  c #A29274",
"Y  c #A39374",
"T  c #AA9874",
"R  c #CBAA69",
"E  c #D3AE67",
"W  c #D8B46E",
"Q  c #DDB76C",
"!  c #C5A971",
"~  c #DCB974",
"^  c #E0B96E",
"/  c #E5BD70",
"(  c #E9C174",
")  c #F4CA77",
"_  c #F4CA78",
"`  c #F5CB78",
"'  c #F8CD7A",
"]  c #FAD17E",
"[  c #FED37D",
"{  c #FFD37D",
"}  c #FFD47D",
"|  c #FFD47E",
" . c #FFD67E",
".. c #FFD77F",
/* pixels */
"o @ = ; ; - ; * + o X     ",
"& = 0 y s a t , & O X .   ",
"* > u b ! R x 8 = $ o . . ",
"* > d I ] ..D 4 ; % O X   ",
"; 5 f Y }  .G 7 > * + o X ",
": 6 g Y {  .S 4 < = @ X X ",
": 6 f Y {  .S 4 < = % X X ",
"2 r f U {  .S 3 < ; % o o ",
"l p h T }  .A 1 5 > & + O ",
"B M J ~ W ..F 9 q > & + O ",
"P E ) ^ ( } K k i w , $ o ",
"' | ` _ | Q H N n c j e # ",
"{ { [ | / L C Z Z V m v z "
};
