/* XPM */
static char *npxfess[] = {
/* columns rows colors chars-per-pixel */
"13 13 22 1 ",
"  c #1B1B1B",
". c #1A1B1E",
"X c #1C1C1E",
"o c #1E1E1E",
"O c #3C3619",
"+ c #1E1E20",
"@ c #463F1B",
"# c #51481A",
"$ c #61561A",
"% c #535353",
"& c #555556",
"* c #555657",
"= c #666666",
"- c #A78F14",
"; c #AE9614",
": c #AF9614",
"> c #A2A2A2",
", c #D4D4D4",
"< c #E8E8E8",
"1 c #F4F4F4",
"2 c #FAFAFA",
"3 c #FFFFFF",
/* pixels */
"3333321233333",
"333<>=%=><333",
"33,*+   +*,33",
"3<&O@XoX@O&<3",
"3>+@;#.#;@+>3",
"2= X#-$-#X =2",
"1% o.$:$.o %1",
"2= X#-$-#X =2",
"3>+@;#.#;@+>3",
"3<*O@XoX@O*<3",
"33,&+   +&,33",
"333<>=%=><333",
"3333321233333"
};
