/* XPM */
static char *test[] = {
/* columns rows colors chars-per-pixel */
"13 13 123 2 ",
"   c #636167",
".  c #666267",
"X  c #696467",
"o  c #656269",
"O  c #686568",
"+  c #68656A",
"@  c #68656B",
"#  c #69656B",
"$  c #69666A",
"%  c #69666B",
"&  c #6A676B",
"*  c #6B676B",
"=  c #6C676A",
"-  c #6C676B",
";  c #68656C",
":  c #69666C",
">  c #68666D",
",  c #6A676C",
"<  c #6A676D",
"1  c #6B676D",
"2  c #6A676E",
"3  c #6D676C",
"4  c #6C676D",
"5  c #6B686B",
"6  c #6B6A6A",
"7  c #6C6A6A",
"8  c #6B686C",
"9  c #6B696C",
"0  c #6A686D",
"q  c #6B696D",
"w  c #6A686E",
"e  c #6B696E",
"r  c #6C686D",
"t  c #6C6A6D",
"y  c #6D6A6D",
"u  c #6E6A6D",
"i  c #6C686E",
"p  c #6D686E",
"a  c #6C696E",
"s  c #6C696F",
"d  c #6D696F",
"f  c #6E686E",
"g  c #6D6A6E",
"h  c #6C6A6F",
"j  c #6D6A6F",
"k  c #6D6B6F",
"l  c #6F6A6E",
"z  c #6E6B6E",
"x  c #6E6B6F",
"c  c #6F6B6F",
"v  c #6D6C6E",
"b  c #6D6C6F",
"n  c #6F6C6E",
"m  c #706B6F",
"M  c #706D6E",
"N  c #6C6970",
"B  c #6D6A70",
"V  c #6D6B70",
"C  c #6D6A71",
"Z  c #6D6B71",
"A  c #6E6A70",
"S  c #6F6A70",
"D  c #6E6B70",
"F  c #6F6B70",
"G  c #6E6B71",
"H  c #6F6B71",
"J  c #6E6A72",
"K  c #6F6C70",
"L  c #6F6C71",
"P  c #6F6D71",
"I  c #706B73",
"U  c #706C70",
"Y  c #706D70",
"T  c #716D70",
"R  c #716C71",
"E  c #706D71",
"W  c #706F71",
"Q  c #706C72",
"!  c #716C72",
"~  c #706D72",
"^  c #706C73",
"/  c #716D73",
"(  c #736D72",
")  c #706E72",
"_  c #716E72",
"`  c #706E73",
"'  c #716E73",
"]  c #716F73",
"[  c #736F72",
"{  c #726E73",
"}  c #726F73",
"|  c #736F73",
" . c #706D74",
".. c #716D74",
"X. c #716E74",
"o. c #716F75",
"O. c #726F74",
"+. c #726F75",
"@. c #727072",
"#. c #727073",
"$. c #737073",
"%. c #717075",
"&. c #727074",
"*. c #737074",
"=. c #727175",
"-. c #737175",
";. c #737076",
":. c #737176",
">. c #747075",
",. c #747175",
"<. c #757175",
"1. c #747176",
"2. c #767377",
"3. c #757278",
"4. c #757378",
"5. c #757379",
"6. c #767378",
"7. c #777378",
"8. c #767478",
"9. c #76747A",
"0. c #76757A",
"q. c #787578",
"w. c #787779",
/* pixels */
";.w.=.0.8.9.&.] 8.1.w.;.3.",
"% a + N q e + & , # t ; ; ",
"E 1 E y P 9 8 z L M - V   ",
"C G / G / G ..^ ' H ~ F w ",
"p ) L 1.T [ ( ! _ / $.u $.",
"S i X.^ ~ +.R l  .o.s ` } ",
"L K :.K @.%.T j O.) x #.Y ",
"$ Y r _ n B 5 i x : W < J ",
"+._ } $.*.Q d [ Q | z ' > ",
"U f | r Q * H r I c 4 D o ",
"{ 4.<.6.2.>.7.-.5.O.q.{ ,.",
"3 g A ~ g S m 0 h k y d K ",
"= X Q @ j b 7 O 2 v . Z 6 "
};
