/* XPM */
static char *wall[] = {
/* columns rows colors chars-per-pixel */
"13 13 141 2 ",
"   c #636266",
".  c #636268",
"X  c #676268",
"o  c #666369",
"O  c #666469",
"+  c #676469",
"@  c #67656B",
"#  c #67656C",
"$  c #696368",
"%  c #686469",
"&  c #686669",
"*  c #68646A",
"=  c #69666A",
"-  c #69666B",
";  c #6B676A",
":  c #6C666A",
">  c #6D666B",
",  c #6C676B",
"<  c #69656C",
"1  c #69666C",
"2  c #69676D",
"3  c #6B666C",
"4  c #6A676C",
"5  c #6B676C",
"6  c #6A676D",
"7  c #6C666C",
"8  c #6D676C",
"9  c #6C666D",
"0  c #6B6A6B",
"q  c #6B6B6B",
"w  c #6C696B",
"e  c #6D696B",
"r  c #69686D",
"t  c #6B686C",
"y  c #6B686D",
"u  c #6A686E",
"i  c #6A686F",
"p  c #6B6A6E",
"a  c #6C686D",
"s  c #6D6A6C",
"d  c #6E6A6D",
"f  c #6E6B6D",
"g  c #6C686E",
"h  c #6C696E",
"j  c #6D686F",
"k  c #6C696F",
"l  c #6D6B6E",
"z  c #6D6B6F",
"x  c #6E6A6E",
"c  c #6F6A6E",
"v  c #6F6A6F",
"b  c #6F6B6F",
"n  c #6D6C6E",
"m  c #6D6C6F",
"M  c #706D6F",
"N  c #716E6F",
"B  c #6D6970",
"V  c #6D6B70",
"C  c #6C6A71",
"Z  c #6E6A70",
"A  c #6F6A70",
"S  c #6E6B70",
"D  c #6F6B70",
"F  c #6E6A71",
"G  c #6E6B71",
"H  c #6E6B73",
"J  c #6D6D71",
"K  c #6F6C70",
"L  c #6E6D70",
"P  c #6F6D70",
"I  c #6E6C71",
"U  c #6F6C71",
"Y  c #6E6D71",
"T  c #6E6E70",
"R  c #6F6D73",
"E  c #6F6E74",
"W  c #706B70",
"Q  c #706B72",
"!  c #706B73",
"~  c #716C70",
"^  c #706C71",
"/  c #716C71",
"(  c #716D71",
")  c #706E71",
"_  c #706F71",
"`  c #716F71",
"'  c #716C72",
"]  c #706D72",
"[  c #706C73",
"{  c #706D73",
"}  c #726D72",
"|  c #716E72",
" . c #716F72",
".. c #716F73",
"X. c #736E72",
"o. c #736E73",
"O. c #726F73",
"+. c #736F73",
"@. c #746D71",
"#. c #716B74",
"$. c #706C75",
"%. c #706D75",
"&. c #726D74",
"*. c #716E74",
"=. c #726F74",
"-. c #736F74",
";. c #726F75",
":. c #736F75",
">. c #746F74",
",. c #727072",
"<. c #737073",
"1. c #727173",
"2. c #737173",
"3. c #747073",
"4. c #717074",
"5. c #717174",
"6. c #737074",
"7. c #737174",
"8. c #737275",
"9. c #737276",
"0. c #737377",
"q. c #747175",
"w. c #757175",
"e. c #747275",
"r. c #757275",
"t. c #747176",
"y. c #757176",
"u. c #747177",
"i. c #777476",
"p. c #777577",
"a. c #777677",
"s. c #757478",
"d. c #777579",
"f. c #777679",
"g. c #77747A",
"h. c #77757B",
"j. c #77767B",
"k. c #787479",
"l. c #797779",
"z. c #797878",
"x. c #7A797A",
/* pixels */
"9.x.8.j.p.h.7.1.a.t.z.q.s.",
"* y o k 6 2 O - - + a @ # ",
"` 4  .s U w t b ^ N : P   ",
"F F %.I *.G *.#.&.H ] G i ",
"8 _ D e.M X.@./ ) ' 2.d X.",
"W g ;.[ { =.} c $.:.j *.=.",
"J D 0.K ,.4.T z =.R l 5.L ",
"% ( 3 X.f C t g f < _ 1 G ",
"6...O.3.>.| k <.[ <.A =.r ",
"~ 9 o.; Q = F , ! x 7 Z . ",
"-.d.y.f.i.r.k.w.g.*.l.+.u.",
"> h B ^ h v c 5 j V p y W ",
"e $ E = V m q & u n X Y 0 "
};
