/* XPM */
static char *avatar_right[] = {
/* columns rows colors chars-per-pixel */
"19 19 113 2 ",
"   c #2E4B2D",
".  c #304E2E",
"X  c #325C39",
"o  c #3F6341",
"O  c #3E6B4C",
"+  c #3A7449",
"@  c #3D7654",
"#  c #3E7953",
"$  c #3E7A59",
"%  c #456F4B",
"&  c #467352",
"*  c #4C7954",
"=  c #457659",
"-  c #4B7C59",
";  c #51795C",
":  c #587C66",
">  c #667462",
",  c #6D7F6C",
"<  c #3D8958",
"1  c #3D9059",
"2  c #3F9661",
"3  c #468052",
"4  c #4C8656",
"5  c #498458",
"6  c #438B5A",
"7  c #4B8B59",
"8  c #50835F",
"9  c #55885A",
"0  c #409356",
"q  c #43945C",
"w  c #468D65",
"e  c #4C8D66",
"r  c #5B8367",
"t  c #5C876A",
"y  c #558C6A",
"u  c #459460",
"i  c #419B64",
"p  c #4D9A64",
"a  c #4D9B6D",
"s  c #549169",
"d  c #5D926F",
"f  c #529D6C",
"g  c #569970",
"h  c #5C9A74",
"j  c #68966E",
"k  c #688571",
"l  c #658C74",
"z  c #778D7B",
"x  c #669170",
"c  c #69977C",
"v  c #619979",
"b  c #74947A",
"n  c #47A566",
"m  c #4CA36D",
"M  c #47A96C",
"N  c #4EA371",
"B  c #4DAD70",
"V  c #54A275",
"C  c #5DA373",
"Z  c #51AF74",
"A  c #5EA279",
"S  c #55B176",
"D  c #56B17A",
"F  c #5BB37D",
"G  c #60AB7C",
"H  c #6C9E80",
"J  c #749483",
"K  c #7C9A84",
"L  c #5CB782",
"P  c #77A886",
"I  c #7AA48C",
"U  c #64BE86",
"Y  c #66B989",
"T  c #7FB693",
"R  c #8DA594",
"E  c #89AC96",
"W  c #93AA9B",
"Q  c #95B69F",
"!  c #96B1A1",
"~  c #A3BDA7",
"^  c #A4C6B2",
"/  c #ADC4B6",
"(  c #ABC8B5",
")  c #B2C1B1",
"_  c #BBCABC",
"`  c #B8C7C0",
"'  c #BDD0C5",
"]  c #BDDAC8",
"[  c #CBC4C7",
"{  c #C6D8CE",
"}  c #CEDCCE",
"|  c #D1D9CE",
" . c #CACDD0",
".. c #D5CDD3",
"X. c #DBDFD9",
"o. c #CDE4D4",
"O. c #D6E7DB",
"+. c #DBE6DE",
"@. c #D6EADF",
"#. c #D6EAE4",
"$. c #DCECE4",
"%. c #E7E1E7",
"&. c #E3EBE5",
"*. c #E2F4E7",
"=. c #EAF3EC",
"-. c #EFF9ED",
";. c #EEF9F3",
":. c #F4F6F3",
">. c #F6FCF6",
",. c #FCFDF6",
"<. c #FEF7FC",
"1. c #F6FDFB",
"2. c #FDFDFD",
/* pixels */
",.,.2.2.2.2.2.2.2.2.2.2.2.2.2.1.2.2.2.",
"2.2.2.2.2.2.2.2.2.2.2.<.2.2.2.2.2.2.2.",
"2.2.2.2.2.<.2.2.2.2.,.,.<.2.2.2.2.2.2.",
"2.2.2.2.2.:.$.{ { o.=.,.2.2.<.2.2.2.2.",
"2.2.2.2.O.Q t t h d P ^ *.1.2.<.<.1.2.",
"<.2.>.| P C n F U m A g H o.2.<.<.<.1.",
"<.2.*.G f U M B Z i L N a E ;.2.%.%.%.",
"2.2.( h f F q 1 6 q n S Y v @.2..... .",
"<.1.J h F q < # % 3 0 F V e ] :.[ [ X.",
"<.&.c V N w = W _ b 5 m F a T ( R W #.",
":.( w D V $ J =.2.} ; g L M u + x r I ",
"E y F M 2 @ ! 1.,.-.b s N S p 4 j j & ",
"$ V S S u @ / 1.,.>.~ - 7 C 7 9 o % X ",
"$ A a 6 @ : $.2.1.2.&.K O 8 * o .   o ",
"^ l ; ; k ` 1.2.2.2.2.=.' R z , > > ) ",
"1.*.| | &.2.<.2.2.2.<.2.2.1.:.:.X.+.,.",
"<.2.2.2.2.<.2.2.2.2.<.2.2.<.2.2.2.2.2.",
"2.<.,.,.,.2.2.2.2.,.2.2.2.2.2.2.1.2.2.",
"2.2.2.,.1.1.1.2.,.,.>.1.2.2.2.2.2.1.2."
};
