/* XPM */
static char *avatar[] = {
/* columns rows colors chars-per-pixel */
"19 19 115 2 ",
"   c #2E4B2D",
".  c #325C39",
"X  c #3F6341",
"o  c #3A7449",
"O  c #3D7654",
"+  c #3E7953",
"@  c #3E7A59",
"#  c #426143",
"$  c #416B43",
"%  c #456F4B",
"&  c #467352",
"*  c #457659",
"=  c #4B7C59",
"-  c #51795C",
";  c #557E60",
":  c #587C66",
">  c #667462",
",  c #6D7F6C",
"<  c #3D8958",
"1  c #3D9059",
"2  c #3F9661",
"3  c #468052",
"4  c #4C8656",
"5  c #498458",
"6  c #438B5A",
"7  c #4B8B59",
"8  c #55885A",
"9  c #409356",
"0  c #43945C",
"q  c #468D65",
"w  c #4C8D66",
"e  c #5B8367",
"r  c #558C6A",
"t  c #459460",
"y  c #419B64",
"u  c #4D9A64",
"i  c #4D9B6D",
"p  c #5D926F",
"a  c #529D6C",
"s  c #4E9E70",
"d  c #569970",
"f  c #5C9A74",
"g  c #688571",
"h  c #658C74",
"j  c #778D7B",
"k  c #669170",
"l  c #689270",
"z  c #69977C",
"x  c #619979",
"c  c #6C9E7C",
"v  c #74947A",
"b  c #47A566",
"n  c #46A668",
"m  c #4CA36D",
"M  c #47A96C",
"N  c #4EA371",
"B  c #4DAD70",
"V  c #54A275",
"C  c #5DA373",
"Z  c #51AF74",
"A  c #5EA279",
"S  c #55B176",
"D  c #56B17A",
"F  c #5BB37D",
"G  c #60AB7C",
"H  c #6C9E80",
"J  c #749483",
"K  c #7C9A84",
"L  c #5CB782",
"P  c #77A886",
"I  c #7AA48C",
"U  c #61B681",
"Y  c #64BE86",
"T  c #66B989",
"R  c #7FB693",
"E  c #8DA594",
"W  c #89AC96",
"Q  c #93AA9B",
"!  c #95B69F",
"~  c #96B1A1",
"^  c #A3BDA7",
"/  c #A4C6B2",
"(  c #ADC4B6",
")  c #ABC8B5",
"_  c #B2C1B1",
"`  c #BBCABC",
"'  c #B8C7C0",
"]  c #BDD0C5",
"[  c #BDDAC8",
"{  c #CBC4C7",
"}  c #C6D8CE",
"|  c #CEDCCE",
" . c #D1D9CE",
".. c #CACDD0",
"X. c #D5CDD3",
"o. c #DBDFD9",
"O. c #CDE4D4",
"+. c #D6E7DB",
"@. c #D6EADF",
"#. c #D6EAE4",
"$. c #DCECE4",
"%. c #E7E1E7",
"&. c #E3EBE5",
"*. c #EBE1E9",
"=. c #E5E8EA",
"-. c #E2F4E7",
";. c #EAF3EC",
":. c #EFF9ED",
">. c #EEF9F3",
",. c #F4F6F3",
"<. c #F6FCF6",
"1. c #FCFDF6",
"2. c #FEF7FC",
"3. c #F6FDFB",
"4. c #FDFDFD",
/* pixels */
"4.4.4.4.4.4.4.4.4.4.4.4.4.4.4.4.4.1.1.",
"4.4.4.4.4.4.4.4.4.4.4.4.4.4.4.4.4.4.4.",
"4.4.4.4.4.4.4.2.1.4.4.4.4.4.4.4.4.4.4.",
"4.4.4.4.2.4.1.1.;.O.} } $.<.4.4.4.4.4.",
"3.4.4.2.4.3.-./ c p x r e ! +.4.4.4.4.",
"3.3.2.2.3.+.H d G i Y U u f P O.<.4.4.",
"=.%.*.4.>.W i N Y y Z B n Y a G -.4.4.",
"..X.X.4.@.x T Z b 0 0 1 0 F m l ) 3.2.",
"%.{ { ,.[ w N F 9 3 % + < y F f J 3.2.",
"#.E E ) R s F a 4 v ` Q * q N d z &.4.",
"I : l o t M L d - | 4.;.J @ V D w ) ,.",
"& k l 4 u Z N r v :.4.3.~ O 2 M F r W ",
". % $ 8 7 C 6 = ^ <.3.3.( O t S D V + ",
"#     X = 5 % K $.4.4.4.$.: + < a A + ",
"_ > > , j E ] ;.1.4.3.4.3.' g - ; h / ",
"1.o.o.,.,.4.4.4.4.4.4.4.2.4.&. . .&.3.",
"3.4.4.3.4.4.4.4.4.4.4.4.4.4.3.2.4.4.4.",
"4.4.4.4.4.4.2.4.4.1.4.4.4.4.1.4.4.2.4.",
"4.3.4.4.4.4.4.4.1.1.1.1.3.3.3.1.1.4.4."
};
