/* XPM */
static char *collectible[] = {
/* columns rows colors chars-per-pixel */
"19 19 217 2 ",
"   c #4D7A3F",
".  c #507D3F",
"X  c #4D7445",
"o  c #4E7547",
"O  c #4E7B40",
"+  c #4A7D41",
"@  c #851925",
"#  c #991A26",
"$  c #A41C20",
"%  c #A91D22",
"&  c #A91B26",
"*  c #AD1B26",
"=  c #A21B28",
"-  c #AE1C2B",
";  c #A12525",
":  c #AA2423",
">  c #AA2027",
",  c #B32327",
"<  c #B52026",
"1  c #B62027",
"2  c #B32728",
"3  c #BB2228",
"4  c #BD2029",
"5  c #BF2228",
"6  c #BD222B",
"7  c #BE232A",
"8  c #BB2729",
"9  c #BF222D",
"0  c #BD222E",
"q  c #AE3A33",
"w  c #B43F34",
"e  c #B83D33",
"r  c #C71E25",
"t  c #C21E29",
"y  c #C71E28",
"u  c #C91E29",
"i  c #C72624",
"p  c #CF2127",
"a  c #C52228",
"s  c #C9222A",
"d  c #C8222D",
"f  c #CC212D",
"g  c #CD242F",
"h  c #CB282E",
"j  c #D7232A",
"k  c #D0242F",
"l  c #D5252E",
"z  c #DA262E",
"x  c #DE2A2F",
"c  c #C92730",
"v  c #C02930",
"b  c #C52830",
"n  c #C52835",
"m  c #D82330",
"M  c #D72E33",
"N  c #D02C36",
"B  c #DC2835",
"V  c #D1333A",
"C  c #E1232E",
"Z  c #E4222C",
"A  c #E0252C",
"S  c #E2282C",
"D  c #E22631",
"F  c #EA2935",
"G  c #EC2D37",
"H  c #EB2F3A",
"J  c #E4303B",
"K  c #934D36",
"L  c #B44234",
"P  c #B84134",
"I  c #A75136",
"U  c #E53B47",
"Y  c #BB6744",
"T  c #A17A4B",
"R  c #DC484A",
"E  c #CF5159",
"W  c #E3474F",
"Q  c #C6734C",
"!  c #F05A60",
"~  c #DF797D",
"^  c #F5646E",
"/  c #E96F73",
"(  c #F37378",
")  c #4A8143",
"_  c #4F8141",
"`  c #508144",
"'  c #5D9D4B",
"]  c #5D984D",
"[  c #6DA25E",
"{  c #78AD58",
"}  c #7CAC5C",
"|  c #77B15F",
" . c #70A567",
".. c #96824D",
"X. c #968F54",
"o. c #8CA75A",
"O. c #87B15B",
"+. c #8AB063",
"@. c #8CB163",
"#. c #8DB467",
"$. c #849D83",
"%. c #8B9C87",
"&. c #8BA38B",
"*. c #95A692",
"=. c #9AAA9B",
"-. c #B0B382",
";. c #A2AFA2",
":. c #F28991",
">. c #F28F93",
",. c #F58C90",
"<. c #F88F98",
"1. c #F4A0A7",
"2. c #F5A9A9",
"3. c #EEB2B6",
"4. c #F1B2B6",
"5. c #BACC92",
"6. c #BEC8C0",
"7. c #C1CCC4",
"8. c #D5DBD5",
"9. c #D4DCD4",
"0. c #D4DCD5",
"q. c #DCDEDA",
"w. c #F9C9C8",
"e. c #FBCBCB",
"r. c #F5D0CD",
"t. c #F7DBDA",
"y. c #DBE0DB",
"u. c #FADFE1",
"i. c #FCE6E5",
"p. c #FAE7E8",
"a. c #F6EDE9",
"s. c #EAF1E5",
"d. c #ECF1EA",
"f. c #FCF0EC",
"g. c #FCF1EE",
"h. c #F0F1F1",
"j. c #F1F2F2",
"k. c #F0F2F4",
"l. c #F3F4F4",
"z. c #F7F6F6",
"x. c #F9F5F5",
"c. c #FAF5F4",
"v. c #F9F7F5",
"b. c #FEF6F6",
"n. c #F1F8F0",
"m. c #F3F8F0",
"M. c #F7F8F6",
"N. c #F9F9F7",
"B. c #F8FBF6",
"V. c #FAFBFB",
"C. c #FCFAF9",
"Z. c #FDF8FA",
"A. c #FAFCFA",
"S. c #FBFCFB",
"D. c #FBFEFA",
"F. c #FDFDF9",
"G. c #FDFDFB",
"H. c #FCFEFB",
"J. c #FDFEFB",
"K. c #FDFBFD",
"L. c #FDFBFE",
"P. c #FEFBFF",
"I. c #FBFCFC",
"U. c #FAFDFD",
"Y. c #FBFDFD",
"T. c #FAFEFD",
"R. c #FBFEFD",
"E. c #FAFFFD",
"W. c #FBFDFE",
"Q. c #F9FFFE",
"!. c #F9FEFF",
"~. c #FBFEFE",
"^. c #FAFEFF",
"/. c #FCFCFC",
"(. c #FDFCFC",
"). c #FCFDFC",
"_. c #FDFDFC",
"`. c #FCFDFD",
"'. c #FDFDFD",
"]. c #FFFCFC",
"[. c #FEFDFC",
"{. c #FEFCFD",
"}. c #FEFDFD",
"|. c #FFFDFD",
" X c #FDFEFC",
".X c #FCFFFC",
"XX c #FCFEFD",
"oX c #FDFEFD",
"OX c #FDFFFD",
"+X c #FEFEFC",
"@X c #FEFEFD",
"#X c #FFFEFD",
"$X c #FCFCFE",
"%X c #FDFCFE",
"&X c #FCFDFE",
"*X c #FDFDFE",
"=X c #FDFCFF",
"-X c #FCFDFF",
";X c #FDFDFF",
":X c #FEFDFE",
">X c #FFFDFE",
",X c #FEFCFF",
"<X c #FEFDFF",
"1X c #FFFDFF",
"2X c #FCFEFE",
"3X c #FDFEFE",
"4X c #FCFFFE",
"5X c #FDFFFE",
"6X c #FDFEFF",
"7X c #FDFFFF",
"8X c #FEFEFE",
"9X c #FFFEFE",
"0X c #FEFFFE",
"qX c #FEFEFF",
"wX c #FFFEFF",
"eX c #FEFFFF",
"rX c #FFFFFF",
/* pixels */
"rXrXrXrX7X-X}.S.~.^.`./.R.&XeXrXrXrXrX",
"rXrXrXrX0X(.XXQ.%X=XL.T..XJ.0XrXrXrXrX",
"rXrXrXrX9X{.P.-Xv.g.c.W.,X).#XrXrXrXrX",
"rXrXrXrXeX$X2Xi.:.^ <.a.-X!.eXrXrXrXrX",
"wXeX0XrX0XK.B.>.F i J 2.R.*X>XrXrXrXrX",
";X2X X}.qX*Xr.U Z 6 p ! u.&X@XrX8XwXeX",
"4X[.].1X6Xf./ m z S D G ,.x.2XeX0XrXwX",
" X|.3XE.'.4.V < f A C s R w.<X3XeX0XwX",
"9X1XR.D.t.E y , d l B h j ( p.wXeX5X9X",
"&XoX/.b.~ 7 v 8 c b N M x H 1.Z.2X2X_.",
"G.S.C.3.n = # 9 a ; 0 k g > W e.R.F./.",
"I.I.m.-.w % $ 1 t 4 3 5 u 2 Q 5.n.(.Y.",
"H.4Xs.[ X.L - @ * r t & : Y O. .d.H.U.",
"J. XN.=._ o.T K q e P I ..| ) ;.V.A./.",
"[._.:Xk.%.` ' { @.#.+.} ] + *.l.}.8X_.",
"8X'.@X9Xh.6.$.X   . O o &.7.j.'.'.'.rX",
"'.8X8X8X8X9Xz.q.9.0.8.y.M.wX}.8XwX@X8X",
"'.8X8X'.'.oX@X#XOX5XrXeXoX'.8XoXrXwX8X",
"wX8X8X@XoXoX).'.+XJ.+X}.qX6X8X8X8X8XwX"
};
