/* XPM */
static char *exit[] = {
/* columns rows colors chars-per-pixel */
"19 19 135 2 ",
"   c #131313",
".  c #141414",
"X  c #151515",
"o  c #161616",
"O  c #171717",
"+  c #181818",
"@  c #191919",
"#  c #191A1A",
"$  c #1A1A1A",
"%  c #1B1B1B",
"&  c #1C1C1C",
"*  c #1D1D1D",
"=  c #1E1E1E",
"-  c #1F1F1F",
";  c #24231F",
":  c #202020",
">  c #212121",
",  c #222222",
"<  c #222323",
"1  c #232323",
"2  c #212224",
"3  c #232425",
"4  c #242424",
"5  c #242425",
"6  c #242525",
"7  c #252525",
"8  c #242426",
"9  c #242526",
"0  c #242527",
"q  c #252627",
"w  c #262626",
"e  c #262727",
"r  c #272727",
"t  c #26272A",
"y  c #282828",
"u  c #282829",
"i  c #292929",
"p  c #292A2A",
"a  c #2A2A2A",
"s  c #2B2B2B",
"d  c #2D2D2C",
"f  c #2C2C2D",
"g  c #2D2D2D",
"h  c #2E2E2E",
"j  c #2F2F2F",
"k  c #322E26",
"l  c #31302D",
"z  c #33312E",
"x  c #303030",
"c  c #323130",
"v  c #313132",
"b  c #343330",
"n  c #363637",
"m  c #3F3B31",
"M  c #3C3A36",
"N  c #443E32",
"B  c #474137",
"V  c #4C4433",
"C  c #534833",
"Z  c #524835",
"A  c #574B35",
"S  c #5C5038",
"D  c #635437",
"F  c #67593D",
"G  c #6B5B3B",
"H  c #74613B",
"J  c #76633E",
"K  c #7E693F",
"L  c #5C5D5E",
"P  c #7C6841",
"I  c #7F6A41",
"U  c #676562",
"Y  c #646465",
"T  c #646565",
"R  c #826D42",
"E  c #856F43",
"W  c #8D7546",
"Q  c #8E7646",
"!  c #8F7747",
"~  c #83714E",
"^  c #937A48",
"/  c #957C4A",
"(  c #967C4A",
")  c #977D4A",
"_  c #977D4B",
"`  c #987E4B",
"'  c #997F4B",
"]  c #937D52",
"[  c #947E53",
"{  c #947F54",
"}  c #957F54",
"|  c #9B814C",
" . c #968055",
".. c #968156",
"X. c #9A8251",
"o. c #9D8558",
"O. c #A0854F",
"+. c #A28650",
"@. c #A48851",
"#. c #B2965F",
"$. c #9C8F77",
"%. c #A5916A",
"&. c #C4A260",
"*. c #C5A461",
"=. c #D0AC66",
"-. c #D7B36C",
";. c #DAB46B",
":. c #DCB76C",
">. c #C5A974",
",. c #CEB27A",
"<. c #CFB27A",
"1. c #DEB970",
"2. c #D2B57B",
"3. c #E3BC6F",
"4. c #ECC474",
"5. c #EFC676",
"6. c #EDC779",
"7. c #F3C977",
"8. c #F7CC79",
"9. c #F8CD7A",
"0. c #F8CE7A",
"q. c #F9CF7B",
"w. c #FACF7B",
"e. c #FAD07B",
"r. c #F9D07D",
"t. c #FCD17C",
"y. c #FCD27C",
"u. c #FFD37D",
"i. c #FFD47D",
"p. c #FFD57D",
"a. c #FFD47E",
"s. c #FFD57E",
"d. c #FFD67E",
"f. c #FFD67F",
"g. c #FFD77F",
/* pixels */
"O O % * - = - & - = = % + O O o . . o ",
"+ @ * > 4 7 r 6 w 4 , = $ O o o X   . ",
"* - , y s v M B b f r : & $ + o X X . ",
"* - 1 a n U >.5.o.b u 1 - & @ O X X X ",
"& = 6 g L $.r.a.y.~ q 1 : & @ + o X X ",
"* : 7 h T ,.p.u.g...q 4 : = @ O o X . ",
"- 1 w j Y <.p.u.f. .q 7 > : % @ O O X ",
"= , r x Y <.p.u.f.[ 0 7 , : % @ o O o ",
"> 4 y x Y <.p.u.f.] 8 7 1 > * % o o X ",
": , r h Y <.p.u.f.[ 0 6 < - * % O X o ",
", w i h Y <.p.u.f.} 9 7 1 : - % O X O ",
"< e a j Y ,.p.u.f.} 3 7 1 > - % + O + ",
"C V z c T 2.d.u.f.] 2 4 4 1 : & @ + + ",
"! E P F %.6.1.i.f.[ 0 r w 1 = % $ + @ ",
"` ) @.&.e.-.#.s.g.{ t p u 7 > - $ O + ",
"+.*.4.a.4.=.9.i.0.X.S m l u 5 1 * O o ",
"7.y.a.8.3.q.i.a.;.| ^ R J Z N d 7 # O ",
"i.u.u.w.t.u.u.:.O._ ` ' ( Q I G A k ; ",
"u.u.u.u.u.a.3.O.) ` ` ` ` ` / W K H D "
};
