/* XPM */
static char *npxfess[] = {
/* columns rows colors chars-per-pixel */
"19 19 30 1 ",
"  c #1C1C1C",
". c #1F1F1C",
"X c #1D1D1E",
"o c #1E1E1E",
"O c #1F1F1E",
"+ c #202020",
"@ c #242424",
"# c #2B2B2B",
"$ c #363636",
"% c #6F6218",
"& c #716219",
"* c #726418",
"= c #7C6C18",
"- c #424242",
"; c #747474",
": c #BEA213",
"> c #CBAD12",
", c #D8B911",
"< c #DABB11",
"1 c #9C9C9C",
"2 c #9E9E9E",
"3 c #BABABA",
"4 c #C1C1C1",
"5 c #C7C7C7",
"6 c #DFDFDF",
"7 c #F8F8F8",
"8 c #F9F9F9",
"9 c #FAFAFA",
"0 c #FBFBFB",
"q c white",
/* pixels */
"qqqqqqqqqqqqqqqqqqq",
"qqqqqq8643468qqqqqq",
"qqqq95;-@+@-;59qqqq",
"qqq72$  ooo  $27qqq",
"qq01#.XoooooX.#10qq",
"qq5$.=%OoooO%=.$5qq",
"q8; X%<*XXX*<%X ;8q",
"q6- oO*,*o*,*Oo -6q",
"q4@oooX*:&:*Xooo@4q",
"q3+oooXo&>&oXooo+3q",
"q4@oooX*:&:*Xooo@4q",
"q6- oO*,*o*,*Oo -6q",
"q8; X%<*XXX*<%X ;8q",
"qq5$.=%OoooO%=.$5qq",
"qq02#.XoooooX.#20qq",
"qqq71$  ooo  $17qqq",
"qqqq95;-@+@-;59qqqq",
"qqqqqq8643468qqqqqq",
"qqqqqqqqqqqqqqqqqqq"
};
