/* XPM */
static char *test[] = {
/* columns rows colors chars-per-pixel */
"19 19 20 1 ",
"  c #5E5A5E",
". c #635E5E",
"X c #5E5A61",
"o c #625E64",
"O c #656265",
"+ c #686567",
"@ c #666269",
"# c #6A666B",
"$ c #6D6A6E",
"% c #706C6F",
"& c #73706F",
"* c #6C6771",
"= c #6E6B71",
"- c #716E73",
"; c #747175",
": c #787577",
"> c #767379",
", c #79767A",
"< c #7B7A7E",
"1 c #7D7C82",
/* pixels */
",1<<<1<11,-11,111>1",
"O#$O@=+O$@ $+o$$@O$",
"$=$$$==$=##-$+$$**O",
";==;;%;;$$;=;&&$;-o",
"$oO*@O#@o*#o##OO#O ",
";-,>>>,>>>>,,;>,>-;",
"$====>$$--#;=*>-$#>",
"=##==-$--=$$==;+==;",
"-#*;-$-;--%$>;=#;;=",
"-$$;-#----=#--=#;=$",
"%;:;>::;>;#<;$>>;=,",
"o##o@%#o#oo#OO#@O@@",
",:-,:::>--,;;>:$>>@",
"-@%-$+*$O#%o=-#O%#X",
";*-:----->-=>---;#=",
"->,-:,,;>>;,>-,,;;,",
"###$$-+#%%+###$#$#$",
"-%-;----;%$=---#--;",
"#.o%Oo#-O+Oo#=OX=#O"
};
