/* XPM */
static char *avatar_right[] = {
/* columns rows colors chars-per-pixel */
"15 15 196 2 ",
"   c #2C4B2B",
".  c #395A3B",
"X  c #3D613E",
"o  c #3F7F55",
"O  c #436F4C",
"+  c #417850",
"@  c #4B7C54",
"#  c #457A5C",
"$  c #4A7C5D",
"%  c #517C5E",
"&  c #6E7C6A",
"*  c #3B8554",
"=  c #3F955F",
"-  c #3E9D60",
";  c #428452",
":  c #4B8157",
">  c #45835F",
",  c #42855F",
"<  c #4C845D",
"1  c #4A8B5D",
"2  c #55885B",
"3  c #45935D",
"4  c #4F955F",
"5  c #538162",
"6  c #5C8761",
"7  c #5F8569",
"8  c #568C6C",
"9  c #489763",
"0  c #4D9064",
"q  c #459F65",
"w  c #469E67",
"e  c #53956F",
"r  c #509D6A",
"t  c #559771",
"y  c #579771",
"u  c #5E9373",
"i  c #638D6E",
"p  c #648F73",
"a  c #668E75",
"s  c #7A8A78",
"d  c #649274",
"f  c #6D937A",
"g  c #699F7F",
"h  c #6C9E7D",
"j  c #70927D",
"k  c #76917E",
"l  c #74997D",
"z  c #7A9A7E",
"x  c #47A062",
"c  c #49A168",
"v  c #4CA36E",
"b  c #4FA46D",
"n  c #4DA56F",
"m  c #54A56F",
"M  c #4DA371",
"N  c #4DAC72",
"B  c #51A373",
"V  c #54A372",
"C  c #51A474",
"Z  c #58A274",
"A  c #5CA574",
"S  c #56AB77",
"D  c #55AB79",
"F  c #59AB79",
"G  c #5BAB7B",
"H  c #5FAC7D",
"J  c #51B074",
"K  c #55B679",
"L  c #5BB47C",
"P  c #5CB97D",
"I  c #6BA383",
"U  c #71A485",
"Y  c #76AB86",
"T  c #61BB84",
"R  c #869B89",
"E  c #8B9D92",
"W  c #81AF90",
"Q  c #82B795",
"!  c #8DB398",
"~  c #94B49D",
"^  c #99B29F",
"/  c #9DBEAD",
"(  c #A0B5A7",
")  c #A7B5A5",
"_  c #A8C9B6",
"`  c #AFC6B9",
"'  c #B1C3B3",
"]  c #B7CABA",
"[  c #BBCDC3",
"{  c #CCC6CB",
"}  c #C9DFCF",
"|  c #C3D7D0",
" . c #CAD6D1",
".. c #C7DFD1",
"X. c #CDDCD1",
"o. c #CEDDD4",
"O. c #D0DDD0",
"+. c #D9D1D8",
"@. c #D2DFD8",
"#. c #D5D8DC",
"$. c #D9DADE",
"%. c #CEE5D5",
"&. c #D4E3D9",
"*. c #D9E9DD",
"=. c #DEEAE3",
"-. c #E9E5E6",
";. c #E6E9E2",
":. c #E0EFE7",
">. c #E5EFE6",
",. c #E6EEE9",
"<. c #EAEBE8",
"1. c #EEF7EB",
"2. c #EDF0EC",
"3. c #ECF7F1",
"4. c #EEF8F0",
"5. c #F1F2F0",
"6. c #F7F2F7",
"7. c #F4F6F4",
"8. c #F9F2F6",
"9. c #F7FAF3",
"0. c #F5FCF6",
"q. c #F9F9F7",
"w. c #FBFEF4",
"e. c #F8FCF7",
"r. c #FDFDF6",
"t. c #FEFEF6",
"y. c #F6F9FA",
"u. c #F6FEFC",
"i. c #F8F9F8",
"p. c #F9FBFA",
"a. c #F9FCF9",
"s. c #FAFFF8",
"d. c #FAFFF9",
"f. c #FBFFFB",
"g. c #FDFCF9",
"h. c #FDFFF9",
"j. c #FEFFF8",
"k. c #FDFDFA",
"l. c #FDFCFB",
"z. c #FFFCFA",
"x. c #FEFDFA",
"c. c #FEFDFB",
"v. c #FDFFFA",
"b. c #FCFEFB",
"n. c #FDFFFB",
"m. c #FEF8FD",
"M. c #FFFBFC",
"N. c #FEFAFD",
"B. c #FFFAFD",
"V. c #FFFBFD",
"C. c #FDFBFE",
"Z. c #FFFAFE",
"A. c #FEFBFE",
"S. c #FFFBFE",
"D. c #FFFAFF",
"F. c #FFFBFF",
"G. c #FAFCFC",
"H. c #FBFCFD",
"J. c #FBFDFD",
"K. c #F9FFFC",
"L. c #FAFEFC",
"P. c #FBFEFC",
"I. c #FBFFFD",
"U. c #FBFDFE",
"Y. c #F9FFFF",
"T. c #FAFFFE",
"R. c #FAFFFF",
"E. c #FDFDFC",
"W. c #FDFCFD",
"Q. c #FCFDFD",
"!. c #FDFDFD",
"~. c #FEFCFC",
"^. c #FFFCFC",
"/. c #FEFDFC",
"(. c #FEFDFD",
"). c #FDFEFC",
"_. c #FEFEFD",
"`. c #FFFFFD",
"'. c #FCFDFE",
"]. c #FDFDFE",
"[. c #FDFCFF",
"{. c #FCFDFF",
"}. c #FEFCFE",
"|. c #FFFCFE",
" X c #FEFDFE",
".X c #FFFDFE",
"XX c #FEFCFF",
"oX c #FFFCFF",
"OX c #FEFDFF",
"+X c #FFFDFF",
"@X c #FDFEFE",
"#X c #FCFEFF",
"$X c #FDFFFF",
"%X c #FFFEFE",
"&X c #FEFEFF",
"*X c #FEFFFF",
/* pixels */
"j.h.n.).P.Q.!.Q.@XOX#XY.R.&X^.",
"%X%X.X}.A.|.oX(.~.S.oXOX$X*X_.",
"oXoX+X.Xi.,.=.>.9.g.Z.D.oX*XT.",
"F. XI.*.~ d g h ! } 0.V.D.OXY.",
"B.f.%.Y A b T v H y _ a.m.6.y.",
"M.4.W r P - c q J D I :.8.+.$.",
"D.o.u F w * + ; x L e ..-.{ #.",
"oX` t C , a ' z 1 S B Q ^ E | ",
"X.U n M # [ `.O.5 G N 3 : i p ",
"8 V K = $ &.v.1.l 0 m 4 2 6 O ",
"> Z 9 o j 3.f.s.] % < @ X   . ",
"/ f 7 k  .U.H. Xp.@.( R s & ) ",
"G.2.;.5.C.C.[.oXD.+X].p.7.<.q.",
"F.M.z.l.'.{././.XX|.N.W.!.!.(.",
"J.k.r.e.u.K.t.w.d.x.c.E.L.L.b."
};
