/* XPM */
static char *collectible[] = {
/* columns rows colors chars-per-pixel */
"15 15 144 2 ",
"   c #9C1A24",
".  c #A51B25",
"X  c #AD1D27",
"o  c #AE1C27",
"O  c #B51C24",
"+  c #BC1F28",
"@  c #9F3530",
"#  c #AE2227",
"$  c #B02627",
"%  c #BD2026",
"&  c #B22028",
"*  c #BC222A",
"=  c #BB252D",
"-  c #BE262D",
";  c #BC3631",
":  c #B73A32",
">  c #BF3A30",
",  c #C31E27",
"<  c #C32129",
"1  c #C2222D",
"2  c #C4262C",
"3  c #C4272F",
"4  c #CB232B",
"5  c #C82428",
"6  c #CD232D",
"7  c #D12529",
"8  c #D0212D",
"9  c #DA242F",
"0  c #DA292F",
"q  c #D92732",
"w  c #D12C36",
"e  c #DC2930",
"r  c #C2353C",
"t  c #D2323A",
"y  c #E1222C",
"u  c #E1262C",
"i  c #E0242E",
"p  c #E33039",
"a  c #974F3A",
"s  c #9C5538",
"d  c #A06F46",
"f  c #DB5753",
"g  c #E34248",
"h  c #EC4651",
"j  c #EA545C",
"k  c #D65761",
"l  c #EB797E",
"z  c #F17478",
"x  c #5B8E4E",
"c  c #5A8C52",
"v  c #5E8E52",
"b  c #62894C",
"n  c #669B4D",
"m  c #699950",
"M  c #7DA055",
"N  c #7EA055",
"B  c #75946D",
"V  c #76946F",
"C  c #78986E",
"Z  c #9A874F",
"A  c #8A9856",
"S  c #A09C57",
"D  c #83A35A",
"F  c #95A993",
"G  c #98AC96",
"H  c #9CAD9A",
"J  c #A3B4A1",
"K  c #E2858A",
"L  c #F69397",
"P  c #F89BA0",
"I  c #F4A3AA",
"U  c #F3BBBB",
"Y  c #A9C999",
"T  c #ACCFA0",
"R  c #B5C3B2",
"E  c #BCC7BA",
"W  c #D4DBD5",
"Q  c #D8DED9",
"!  c #EACFC8",
"~  c #F7C7C9",
"^  c #F7CDCC",
"/  c #F8CBCD",
"(  c #F6D3D1",
")  c #F1E1D7",
"_  c #F8E1DF",
"`  c #F8E5E4",
"'  c #FCEEEF",
"]  c #FBF4F3",
"[  c #F7F7F9",
"{  c #FEF7F8",
"}  c #F7FAF9",
"|  c #F8F8F8",
" . c #FBF8F9",
".. c #F8FAF8",
"X. c #F8FAFA",
"o. c #FDFBFB",
"O. c #FCFCFB",
"+. c #FCFDFB",
"@. c #FDFEFB",
"#. c #FAFBFC",
"$. c #FEFAFC",
"%. c #FAFDFC",
"&. c #FBFDFC",
"*. c #FBFDFD",
"=. c #FBFEFC",
"-. c #FAFFFC",
";. c #FBFDFE",
":. c #FBFDFF",
">. c #FCFCFC",
",. c #FDFCFC",
"<. c #FCFDFC",
"1. c #FDFDFC",
"2. c #FCFCFD",
"3. c #FCFDFD",
"4. c #FDFDFD",
"5. c #FEFCFC",
"6. c #FEFDFC",
"7. c #FEFCFD",
"8. c #FEFDFD",
"9. c #FCFEFC",
"0. c #FDFEFC",
"q. c #FCFEFD",
"w. c #FDFEFD",
"e. c #FEFEFC",
"r. c #FEFEFD",
"t. c #FEFFFD",
"y. c #FDFCFE",
"u. c #FCFDFE",
"i. c #FDFDFE",
"p. c #FCFEFE",
"a. c #FDFEFE",
"s. c #FCFFFE",
"d. c #FDFFFE",
"f. c #FCFEFF",
"g. c #FDFEFF",
"h. c #FDFFFF",
"j. c #FEFEFE",
"k. c #FFFEFE",
"l. c #FEFFFE",
"z. c #FFFFFE",
"x. c #FEFEFF",
"c. c #FFFEFF",
"v. c #FEFFFF",
"b. c #FFFFFF",
/* pixels */
"b.b.b.h.u.&.*.:.2.=.3.v.b.b.b.",
"b.b.b.j.7.;.f.a.u.p.@.r.b.b.b.",
"b.b.b.v.y.o.~ P / #.:.v.b.b.b.",
"c.d.z.l.g.( h 7 j _ h.k.b.b.b.",
"g.w.8.x.] l y 4 e L  .d.v.j.z.",
"w.5.a.h.U t 8 u i g ^ h.d.v.c.",
"k.j.-.` k % * 9 q 5 z ' v.l.j.",
"q.3.{ K = - 2 3 w 0 p I $.s.6.",
"+.&.! r   X < # 1 6 & f ) 9.>.",
"%.<.Y d $ . o , + O > S T <.%.",
"@.t.R b Z a @ ; : s A x E 0.O.",
"6.i.[ H v n M D N m c J | j.4.",
"i.4.j.| W F B C V G Q | i.i.j.",
"4.j.i.i.z.,...} X.>.z.r.j.z.j.",
"j.j.i.i.w.1.e.@.r.i.g.j.j.j.z."
};
