/* XPM */
static char *exit[] = {
/* columns rows colors chars-per-pixel */
"15 15 104 2 ",
"   c #141414",
".  c #151515",
"X  c #161616",
"o  c #161617",
"O  c #171717",
"+  c #181818",
"@  c #191919",
"#  c #1A1A1A",
"$  c #1B1B1B",
"%  c #1C1C1C",
"&  c #1D1D1D",
"*  c #1E1D1C",
"=  c #1E1E1E",
"-  c #1F1F1F",
";  c #202020",
":  c #212121",
">  c #222222",
",  c #222223",
"<  c #232323",
"1  c #222224",
"2  c #232324",
"3  c #232425",
"4  c #232426",
"5  c #242424",
"6  c #252525",
"7  c #242526",
"8  c #262626",
"9  c #262627",
"0  c #272727",
"q  c #2F2C26",
"w  c #282828",
"e  c #282829",
"r  c #282929",
"t  c #292929",
"y  c #2A2928",
"u  c #292A2A",
"i  c #2A2A2A",
"p  c #2B2B2B",
"a  c #2B2B2C",
"s  c #2C2C2C",
"d  c #2C2D2D",
"f  c #312F2C",
"g  c #37332A",
"h  c #37342D",
"j  c #333230",
"k  c #323232",
"l  c #4D4434",
"z  c #4D4534",
"x  c #594C33",
"c  c #5F533A",
"v  c #67583A",
"b  c #6D5C39",
"n  c #6A5B3C",
"m  c #74623E",
"M  c #545455",
"N  c #5F5B53",
"B  c #5F5F5E",
"V  c #7E6A41",
"C  c #7E6D4C",
"Z  c #61605E",
"A  c #61605F",
"S  c #856F42",
"D  c #856E43",
"F  c #927948",
"G  c #967D4A",
"H  c #987E4B",
"J  c #997F4B",
"K  c #9A7F4C",
"L  c #8B7751",
"P  c #947E53",
"I  c #957F54",
"U  c #968054",
"Y  c #968155",
"T  c #A0844E",
"R  c #A08652",
"E  c #BF9E5E",
"W  c #908163",
"Q  c #AA9161",
"!  c #B19E78",
"~  c #C3A260",
"^  c #C6A461",
"/  c #C8A766",
"(  c #CCA964",
")  c #DCBB7C",
"_  c #DDBC7C",
"`  c #E2BC72",
"'  c #E6BF71",
"]  c #E7C072",
"[  c #E8C072",
"{  c #E4C078",
"}  c #F2C877",
"|  c #F4CA78",
" . c #F5CB79",
".. c #F7CD79",
"X. c #FBD07B",
"o. c #FAD17C",
"O. c #FED27C",
"+. c #FED27D",
"@. c #FFD37D",
"#. c #FFD47D",
"$. c #FFD57D",
"%. c #FFD47E",
"&. c #FFD67F",
"*. c #FFD77F",
/* pixels */
"O @ & - ; - - - = # + o X   . ",
"$ % > 9 e r e w > % @ O X .   ",
"= ; 0 k N Q L j 9 ; % @ X . . ",
"& ; t M ! &.o.C 7 : & @ O . . ",
"= > i A ) $.&.Y 7 > - @ O X . ",
"- 5 a Z _ $.&.I 7 < ; $ + O X ",
": 6 s Z _ $.&.P 4 5 : & @ X X ",
": 6 p Z _ $.&.P 4 5 ; & # X X ",
", 0 s Z _ $.&.I 3 5 : = # X O ",
"g f d B _ $.&.P 1 5 < - $ + + ",
"D m c W {  .*.P 4 8 5 = $ @ @ ",
"G T E } / ` *.U u r 8 : & + O ",
"~ ] O.[ ' #...R n z h y 2 # o ",
"#.%.X.| #.X.^ K G F V v l q * ",
"@.@.@.@.+.( J H H H H F S b x "
};
