/* XPM */
static char *npxfess[] = {
/* columns rows colors chars-per-pixel */
"15 15 24 1 ",
"  c #1A1A1A",
". c #1B1B1B",
"X c #1C1C1E",
"o c #1D1D1E",
"O c #1E1E1E",
"+ c #21201B",
"@ c #262626",
"# c #3F3F3E",
"$ c #5C511A",
"% c #5C521A",
"& c #675B19",
"* c #585859",
"= c #737373",
"- c #8C7916",
"; c #B29914",
": c #B79D14",
"> c #C0A413",
", c #838383",
"< c #B8B8B8",
"1 c #C6C6C6",
"2 c #C7C7C7",
"3 c #EDEDED",
"4 c #FEFEFE",
"5 c #FFFFFF",
/* pixels */
"555555545555555",
"55553<,=,<35555",
"5552*@. .@*2555",
"551#+oOOOo+#155",
"53*+-%XOX%-+*35",
"5<@o%>$X$>%o@<5",
"5,.OX$;&;$XO.,5",
"4= OOX&:&XOO =4",
"5,.OX$;&;$XO.,5",
"5<@o%>$X$>%o@<5",
"53*+-%XOX%-+*35",
"552#+oOOOo+#255",
"5551*@. .@*1555",
"55553<,=,<35555",
"555555545555555"
};
