/* XPM */
static char *test[] = {
/* columns rows colors chars-per-pixel */
"15 15 169 2 ",
"   c #5F5C63",
".  c #625F66",
"X  c #645F65",
"o  c #666162",
"O  c #646166",
"+  c #646167",
"@  c #676566",
"#  c #686567",
"$  c #646168",
"%  c #666268",
"&  c #666368",
"*  c #666269",
"=  c #676269",
"-  c #666369",
";  c #666468",
":  c #676469",
">  c #66646B",
",  c #686368",
"<  c #696669",
"1  c #69656A",
"2  c #68646B",
"3  c #68656B",
"4  c #69656B",
"5  c #69676B",
"6  c #6B676B",
"7  c #68656D",
"8  c #69676C",
"9  c #6A666C",
"0  c #6B666C",
"q  c #6A676C",
"w  c #6A676D",
"e  c #6A666E",
"r  c #6C676D",
"t  c #6D676D",
"y  c #6A6868",
"u  c #6B6968",
"i  c #6A686B",
"p  c #6C686B",
"a  c #6B686C",
"s  c #6B696C",
"d  c #6B686D",
"f  c #6B6A6D",
"g  c #6B686E",
"h  c #6C686C",
"j  c #6D696C",
"k  c #6C696D",
"l  c #6E686D",
"z  c #6D6A6C",
"x  c #6D6B6D",
"c  c #6E6A6C",
"v  c #6C686E",
"b  c #6D686E",
"n  c #6C696E",
"m  c #6D696E",
"M  c #6D686F",
"N  c #6C696F",
"B  c #6C6A6E",
"V  c #6D6B6E",
"C  c #6D6A6F",
"Z  c #6E6A6E",
"A  c #6E6A6F",
"S  c #6F6A6F",
"D  c #6E6B6F",
"F  c #6E6C6F",
"G  c #6F6C6F",
"H  c #6F6D6F",
"J  c #706B6F",
"K  c #706C6E",
"L  c #716D6F",
"P  c #726E6F",
"I  c #6D6B71",
"U  c #6E6B70",
"Y  c #6F6B70",
"T  c #6E6A71",
"R  c #6F6A71",
"E  c #6E6B71",
"W  c #6F6B71",
"Q  c #6D6C70",
"!  c #6F6C70",
"~  c #6E6D70",
"^  c #6F6D70",
"/  c #6F6C71",
"(  c #6F6C72",
")  c #6E6D72",
"_  c #6F6D73",
"`  c #6F6E72",
"'  c #706A70",
"]  c #706A71",
"[  c #706B73",
"{  c #706C70",
"}  c #706D70",
"|  c #716D70",
" . c #706C71",
".. c #716D71",
"X. c #716E71",
"o. c #726F70",
"O. c #706C72",
"+. c #716C72",
"@. c #706C73",
"#. c #706D73",
"$. c #726D72",
"%. c #706E72",
"&. c #716E72",
"*. c #706E73",
"=. c #716F73",
"-. c #726E72",
";. c #726F72",
":. c #736F72",
">. c #726F73",
",. c #736F73",
"<. c #726D74",
"1. c #716E74",
"2. c #716F74",
"3. c #716F75",
"4. c #726E74",
"5. c #726F74",
"6. c #736F74",
"7. c #726E75",
"8. c #726F75",
"9. c #736E77",
"0. c #736F77",
"q. c #717072",
"w. c #717073",
"e. c #737072",
"r. c #737073",
"t. c #737272",
"y. c #747073",
"u. c #757173",
"i. c #717175",
"p. c #727074",
"a. c #737174",
"s. c #727075",
"d. c #737075",
"f. c #727275",
"g. c #737276",
"h. c #737376",
"j. c #737277",
"k. c #747074",
"l. c #757174",
"z. c #747175",
"x. c #747274",
"c. c #757375",
"v. c #747176",
"b. c #747177",
"n. c #757276",
"m. c #757277",
"M. c #757377",
"N. c #737178",
"B. c #747178",
"V. c #757178",
"C. c #757278",
"Z. c #757378",
"A. c #767378",
"S. c #767279",
"D. c #767478",
"F. c #767578",
"G. c #777579",
"H. c #777678",
"J. c #76767A",
"K. c #787378",
"L. c #787578",
"P. c #79767A",
"I. c #78777A",
"U. c #78767B",
"Y. c #79787D",
"T. c #7B797D",
"R. c #7B7A7C",
"E. c #7B7A7D",
"W. c #79787E",
/* pixels */
"Z.E.H.J.Y.P.W.M.2.T.D.I.R.B.U.",
"O a ; = n & 8 & O i X s 5 $ 3 ",
"x.O.p.=.>.h.} A e.s.r.o.S i.> ",
"g + v 4 - w + 9 9 2 m , 1 :   ",
"#.g.A.b.F.n.m.S.V.G.d.C.L.X.g.",
"0 n B O.X.z $.' t Y b 5.k h ,.",
"+.r 1.3.T d.8.-.K @.N._ N f.>.",
"/ V p.2.x a.*.| N / p.C H w.G ",
"1 ;.G ! t.F #.z w p.< ` q.e 1.",
"E @.U  .r.{ W 9  .W T } a ( 7 ",
"y.j e.P Z 4.6 m L M k.c v ... ",
"6.[ K.<.7.v.U V.W 0.9.@.v.Y E ",
"D s.&.:.c.&.6.l.%.j.Y x.u.Y z.",
"l k W @.W A ] J q g I F 0 W ~ ",
"p o R d % ^ f u # * ) @ = Q y "
};
