/* XPM */
static char *wall[] = {
/* columns rows colors chars-per-pixel */
"15 15 201 2 ",
"   c #5D5B62",
".  c #615C62",
"X  c #625E63",
"o  c #615D64",
"O  c #615F65",
"+  c #625E64",
"@  c #635F64",
"#  c #625F66",
"$  c #666063",
"%  c #636066",
"&  c #646065",
"*  c #666165",
"=  c #646166",
"-  c #646067",
";  c #666267",
":  c #686466",
">  c #656169",
",  c #676069",
"<  c #656269",
"1  c #67636B",
"2  c #656468",
"3  c #676568",
"4  c #676469",
"5  c #66646B",
"6  c #67656B",
"7  c #68626A",
"8  c #686469",
"9  c #686768",
"0  c #6A6669",
"q  c #68646A",
"w  c #69656A",
"e  c #68666B",
"r  c #69666B",
"t  c #6B676A",
"y  c #6A666B",
"u  c #6C6469",
"i  c #6C666B",
"p  c #68666C",
"a  c #69676C",
"s  c #68666D",
"d  c #69666D",
"f  c #6A666C",
"g  c #6B676D",
"h  c #69666E",
"j  c #6A666E",
"k  c #6B666F",
"l  c #6C676C",
"z  c #6D676C",
"x  c #6C666D",
"c  c #6D676D",
"v  c #6F676D",
"b  c #6C656E",
"n  c #6C676E",
"m  c #696868",
"M  c #6A6B6A",
"N  c #6C686B",
"B  c #6D6A6B",
"V  c #6F6A6B",
"C  c #6B686C",
"Z  c #6A686D",
"A  c #6A6A6C",
"S  c #6B686E",
"D  c #6B696E",
"F  c #6C686C",
"G  c #6E696D",
"H  c #6C686E",
"J  c #6C696E",
"K  c #6D696E",
"L  c #6C6A6E",
"P  c #6C6A6F",
"I  c #6C6B6F",
"U  c #6E6B6E",
"Y  c #6F6B6E",
"T  c #6E6A6F",
"R  c #6F6A6F",
"E  c #6B6C6D",
"W  c #6D6D6E",
"Q  c #6E6D6E",
"!  c #6E6E6F",
"~  c #70696D",
"^  c #71696E",
"/  c #706B6F",
"(  c #716E6D",
")  c #736E6E",
"_  c #6D6970",
"`  c #6D6971",
"'  c #6D6A70",
"]  c #6E6A70",
"[  c #6E6B70",
"{  c #6F6B70",
"}  c #6E6A71",
"|  c #6E6B71",
" . c #6D6A72",
".. c #6F6B72",
"X. c #6E6B73",
"o. c #6C6D70",
"O. c #6E6C70",
"+. c #6F6D70",
"@. c #6F6C71",
"#. c #6F6D71",
"$. c #6E6E70",
"%. c #6E6F71",
"&. c #6F6E72",
"*. c #6F6F72",
"=. c #6F6C74",
"-. c #6F6D74",
";. c #706B70",
":. c #706B71",
">. c #706B72",
",. c #716C70",
"<. c #716D70",
"1. c #706C71",
"2. c #716D71",
"3. c #716E71",
"4. c #716F71",
"5. c #716C72",
"6. c #716D72",
"7. c #706D73",
"8. c #716D73",
"9. c #736D72",
"0. c #716E72",
"q. c #716E73",
"w. c #706F73",
"e. c #726E72",
"r. c #726E73",
"t. c #746F72",
"y. c #716C74",
"u. c #706D74",
"i. c #716D74",
"p. c #716C75",
"a. c #736E74",
"s. c #726F74",
"d. c #736F74",
"f. c #726F75",
"g. c #716E76",
"h. c #736F76",
"j. c #726E77",
"k. c #727072",
"l. c #727172",
"z. c #757171",
"x. c #757172",
"c. c #747073",
"v. c #757073",
"b. c #747173",
"n. c #747372",
"m. c #747273",
"M. c #707074",
"N. c #707075",
"B. c #727074",
"V. c #727174",
"C. c #727075",
"Z. c #727175",
"A. c #737175",
"S. c #737274",
"D. c #737275",
"F. c #727176",
"G. c #737176",
"H. c #747074",
"J. c #747075",
"K. c #757375",
"L. c #767274",
"P. c #747176",
"I. c #747177",
"U. c #747276",
"Y. c #757277",
"T. c #777276",
"R. c #767277",
"E. c #767377",
"W. c #777377",
"Q. c #757475",
"!. c #757476",
"~. c #757477",
"^. c #767476",
"/. c #767477",
"(. c #767577",
"). c #747178",
"_. c #757178",
"`. c #757179",
"'. c #757378",
"]. c #747379",
"[. c #777279",
"{. c #77727B",
"}. c #757478",
"|. c #767478",
" X c #767479",
".X c #777479",
"XX c #767579",
"oX c #77767C",
"OX c #787379",
"+X c #797579",
"@X c #787779",
"#X c #797779",
"$X c #79777A",
"%X c #7A777A",
"&X c #787879",
"*X c #7C7B7A",
"=X c #79787C",
"-X c #7B7A7C",
";X c #7B797F",
":X c #7B7C7C",
">X c #7D7C7D",
/* pixels */
"}.>X@XoX-X%X;X/.V.:X|.=X*X_.=X",
"+ y & - Z = 6 = @ w . r 3 # 5 ",
"(.w.U.K.J.|.k.O.~.P.!.x.6.^.e ",
"f o j 4 % p X q 7 , g * > 2   ",
"q.E. X].&XW..X+X[.$XI.XX#X0.'.",
"u L D :.+.F ,.^ z I x d.C l 9.",
"e.n f.C...G.B.r./ y.).8._ G.s.",
"o.K F.N.N S.*.$.P [ F.J Q M.W ",
"8 c.Y 1.L.U -.U g m.0 7.l.h f.",
"' i._ { t.R @.d ..` _ 2.C O.a ",
"z.t t.) i a.0 S ( c b.V b 3.O ",
"h.p.OXg.A.R.@.{.5.`.j.u.T...=.",
"~ D.4.a.Q.<.c.v.,.Y.T Z.n.G H.",
"v H  .>.} ] :.;.g k | #.s [ 2.",
"B $ X.E ; &.A M 9 < %.: 1 ! m "
};
