/* XPM */
static char *avatar[] = {
/* columns rows colors chars-per-pixel */
"7 7 46 1 ",
"  c #49714E",
". c #498557",
"X c #479464",
"o c #489D66",
"O c #529D71",
"+ c #5D9971",
"@ c #5E9F77",
"# c #52A371",
"$ c #6F9F81",
"% c #66AD82",
"& c #7EA787",
"* c #7AB48E",
"= c #83B193",
"- c #A4AFA2",
"; c #A0B3A7",
": c #A7B7A9",
"> c #A3BAA9",
", c #9FC5AD",
"< c #A4C1AE",
"1 c #A2C4AE",
"2 c #B6CCBE",
"3 c #B8D0C1",
"4 c #CEDAD2",
"5 c #D1E2D6",
"6 c #D7E3D7",
"7 c #D9E4DE",
"8 c #DFEBE3",
"9 c #E8E3E8",
"0 c #E9EFEA",
"q c #EBF0EF",
"w c #FBFBFB",
"e c #FDFDFB",
"r c #FCFBFC",
"t c #FDFDFD",
"y c #FFFDFC",
"u c #FCFEFD",
"i c #FFFEFC",
"p c #FCFDFE",
"a c #FEFDFE",
"s c #FFFDFF",
"d c #FDFEFF",
"f c #FEFEFE",
"g c #FFFEFE",
"h c #FEFFFE",
"j c #FFFEFF",
"k c #FFFFFF",
/* pixels */
"fdjtagi",
"pr5,18s",
"97%oo*0",
";=#&$O3",
" .+62X@",
"-:4wq><",
"hkjeuey"
};
