/* XPM */
static char *collectible[] = {
/* columns rows colors chars-per-pixel */
"7 7 38 1 ",
"  c #BC252E",
". c #B62A2B",
"X c #A0332B",
"o c #AD3B2E",
"O c #D71E27",
"+ c #C7232C",
"@ c #D52E37",
"# c #DE676D",
"$ c #E86E74",
"% c #E97479",
"& c #8C9062",
"* c #8E9F74",
"= c #AA8D71",
"- c #AE9E7B",
"; c #8FA177",
": c #E3A4A6",
"> c #F0B4B5",
", c #CAD6C6",
"< c #CAD8C8",
"1 c #F7CECF",
"2 c #F8D5D6",
"3 c #E6EEE6",
"4 c #F1F4F1",
"5 c #F1F5F2",
"6 c #FBF3F3",
"7 c #FCF6F7",
"8 c #FDF7F7",
"9 c #F4F9F3",
"0 c #F4F9F5",
"q c #FCFDFD",
"w c #FDFDFD",
"e c #FDFFFE",
"r c #FDFFFF",
"t c #FEFEFE",
"y c #FEFFFE",
"u c #FEFEFF",
"i c #FEFFFF",
"p c #FFFFFF",
/* pixels */
"puq7qyp",
"ii1$2ip",
"y6#O%8i",
"e: +@>r",
"9=X.o-0",
"w,*&;<w",
"tt435uu"
};
