/* XPM */
static char *exit[] = {
/* columns rows colors chars-per-pixel */
"7 7 44 1 ",
"  c #141414",
". c #151515",
"X c #161616",
"o c #171717",
"O c #181818",
"+ c #191919",
"@ c #1A1A1A",
"# c #1B1B1B",
"$ c #1C1C1C",
"% c #1D1D1D",
"& c #1F1F1F",
"* c #1E1F20",
"= c #202021",
"- c #202022",
"; c #202122",
": c #202123",
"> c #252523",
", c #242424",
"< c #272625",
"1 c #302F2B",
"2 c #38342D",
"3 c #41392A",
"4 c #443D30",
"5 c #69593B",
"6 c #474440",
"7 c #5F594E",
"8 c #605A4E",
"9 c #706145",
"0 c #706652",
"q c #887145",
"w c #937E52",
"e c #957E53",
"r c #958054",
"t c #9E8655",
"y c #A28650",
"u c #B59659",
"i c #BCA16B",
"p c #D4B06B",
"a c #E5BE70",
"s c #EFC677",
"d c #F4CB7D",
"f c #F5CD7E",
"g c #F5CE7F",
"h c #FCD17C",
/* pixels */
"#,1<$o ",
"&6i9*O.",
"=8gr-@X",
":7fe;$o",
"40dw:%O",
"upst2>+",
"hhayq53"
};
