/* XPM */
static char *test[] = {
/* columns rows colors chars-per-pixel */
"7 7 33 1 ",
"  c #69676C",
". c #6B696E",
"X c #6C686C",
"o c #6C696D",
"O c #6D6A6D",
"+ c #6D696E",
"@ c #6C686F",
"# c #6D696F",
"$ c #6D6B6E",
"% c #6D6A6F",
"& c #6D6B6F",
"* c #6E6A6E",
"= c #6E6B6F",
"- c #6E6A70",
"; c #6E6B70",
": c #6F6B70",
"> c #6E6B71",
", c #6F6C70",
"< c #6F6C71",
"1 c #6F6D72",
"2 c #706C71",
"3 c #706D71",
"4 c #706D72",
"5 c #716D72",
"6 c #716D73",
"7 c #726D72",
"8 c #706E72",
"9 c #716E72",
"0 c #706E73",
"q c #716E73",
"w c #726E73",
"e c #716E74",
"r c #736F74",
/* pixels */
"410;<8>",
"%;&#;* ",
";0q7543",
"=89,<<4",
",32+:=@",
"6rw6eq,",
"X-=O.o$"
};
