/* XPM */
static char *wall[] = {
/* columns rows colors chars-per-pixel */
"7 7 33 1 ",
"  c #69676C",
". c #6B696E",
"X c #6D686C",
"o c #6D6A6D",
"O c #6C696E",
"+ c #6D696E",
"@ c #6D6B6E",
"# c #6D6A6F",
"$ c #6D6B6F",
"% c #6E6A6E",
"& c #6E6B6F",
"* c #6F6B6F",
"= c #6D6A70",
"- c #6D6B70",
"; c #6E6B70",
": c #6F6B70",
"> c #6F6C70",
", c #6F6D70",
"< c #6E6C71",
"1 c #6F6C71",
"2 c #6F6D72",
"3 c #6F6E72",
"4 c #706C70",
"5 c #706D71",
"6 c #716D72",
"7 c #726D72",
"8 c #726D73",
"9 c #716E72",
"0 c #706E73",
"q c #716F73",
"w c #726E72",
"e c #726E73",
"r c #736F74",
/* pixels */
"52q;,5<",
"#-$+:% ",
":097665",
";09,113",
">44#:*.",
"8rw8e91",
"X=&oOO@"
};
