/* XPM */
static char *avatar_right[] = {
/* columns rows colors chars-per-pixel */
"32 32 204 2 ",
"   c #052905",
".  c #053513",
"X  c #05491A",
"o  c #1A401B",
"O  c #0E4E29",
"+  c #1F4724",
"@  c #1F5636",
"#  c #234222",
"$  c #244F2F",
"%  c #284B2C",
"&  c #224734",
"*  c #284B33",
"=  c #2E533A",
"-  c #285B3C",
";  c #325531",
":  c #325738",
">  c #335C3D",
",  c #177237",
"<  c #256439",
"1  c #346B3E",
"2  c #31713D",
"3  c #424F3E",
"4  c #2D6945",
"5  c #336144",
"6  c #366747",
"7  c #3B6C4C",
"8  c #277B47",
"9  c #3C734D",
"0  c #337A4D",
"q  c #387849",
"w  c #386F50",
"e  c #3C7652",
"r  c #357D52",
"t  c #3F7659",
"y  c #455742",
"u  c #44644A",
"i  c #46694C",
"p  c #51684E",
"a  c #45784D",
"s  c #476753",
"d  c #436C53",
"f  c #4C6D56",
"g  c #4A6A58",
"h  c #556A53",
"j  c #586957",
"k  c #447354",
"l  c #4C7454",
"z  c #4A7A56",
"x  c #45795A",
"c  c #4B7C5A",
"v  c #55765A",
"b  c #527C5B",
"n  c #5A7962",
"m  c #617866",
"M  c #25824A",
"N  c #2D8A4A",
"B  c #308242",
"V  c #31824D",
"C  c #2D8C51",
"Z  c #368357",
"A  c #3D8456",
"S  c #338B54",
"D  c #3C8952",
"F  c #3B8E5A",
"G  c #2D9050",
"H  c #359359",
"J  c #3A925A",
"K  c #379A5E",
"L  c #3F9861",
"P  c #428355",
"I  c #478358",
"U  c #49825C",
"Y  c #438A5C",
"T  c #538F5C",
"R  c #41935E",
"E  c #4C8563",
"W  c #4B8A63",
"Q  c #488E65",
"!  c #5A8969",
"~  c #4C9464",
"^  c #449B65",
"/  c #4C9C64",
"(  c #469769",
")  c #4C956A",
"_  c #499E6C",
"`  c #549664",
"'  c #55926B",
"]  c #5B926C",
"[  c #589C6D",
"{  c #589572",
"}  c #5C9B73",
"|  c #61846E",
" . c #66916D",
".. c #68976D",
"X. c #6A8975",
"o. c #738C79",
"O. c #6A9477",
"+. c #609B74",
"@. c #6C9C77",
"#. c #73937B",
"$. c #739E7A",
"%. c #45A366",
"&. c #4CA46A",
"*. c #48A56C",
"=. c #52A06D",
"-. c #52AA6D",
";. c #4DAA71",
":. c #59A575",
">. c #52AA72",
",. c #4FB176",
"<. c #53B375",
"1. c #53B37A",
"2. c #5CB27D",
"3. c #63A77E",
"4. c #6BA778",
"5. c #73A779",
"6. c #6C9E81",
"7. c #7A9E84",
"8. c #5EB683",
"9. c #68AA82",
"0. c #7BA885",
"q. c #63B886",
"w. c #64BB84",
"e. c #6AB883",
"r. c #6DB48B",
"t. c #6ABB8A",
"y. c #74B48B",
"u. c #71BC8E",
"i. c #7FA991",
"p. c #6FBE91",
"a. c #75BD93",
"s. c #7DBC91",
"d. c #62C285",
"f. c #65C389",
"g. c #6AC48A",
"h. c #6AC58B",
"j. c #66C88C",
"k. c #75C48D",
"l. c #6ECB92",
"z. c #78C497",
"x. c #71CA94",
"c. c #75D095",
"v. c #7DD5A2",
"b. c #8C958A",
"n. c #988D93",
"m. c #9B9098",
"M. c #85AF87",
"N. c #8BA496",
"B. c #8BA992",
"V. c #99A79B",
"C. c #86B297",
"Z. c #8FB19C",
"A. c #8DBB9A",
"S. c #A09BA1",
"D. c #9BB6A4",
"F. c #98BCA2",
"G. c #AFA4AC",
"H. c #A6B8A7",
"J. c #A6BCAA",
"K. c #ABAFB2",
"L. c #B3B4B8",
"P. c #9CC3A7",
"I. c #A9C4B4",
"U. c #B8C3B7",
"Y. c #B7D3BD",
"T. c #BDC1C4",
"R. c #ADD9C0",
"E. c #C1DDC6",
"W. c #C8CDD0",
"Q. c #D1D6D2",
"!. c #DCD4DA",
"~. c #CBE6D5",
"^. c #D2E9D6",
"/. c #D9E7DB",
"(. c #D0F8DE",
"). c #DBDEE3",
"_. c #E4D9E1",
"`. c #D7EBE0",
"'. c #DCEFE3",
"]. c #DCF3E5",
"[. c #DAF6E5",
"{. c #DFFFF0",
"}. c #E4E5E6",
"|. c #EDECEC",
" X c #F4E7EE",
".X c #E1FBE6",
"XX c #E5F4ED",
"oX c #EAF2EC",
"OX c #EDFDED",
"+X c #F4F3EE",
"@X c #F7FAEE",
"#X c #E9EDF0",
"$X c #F9EEF6",
"%X c #E9F7F3",
"&X c #EDFDF2",
"*X c #ECFFFA",
"=X c #F5F5F4",
"-X c #FCF5F6",
";X c #F4FCF4",
":X c #FBFDF6",
">X c #F4F5F9",
",X c #FCF6FB",
"<X c #F5FFFB",
"1X c #FEFDFD",
/* pixels */
":X:X:X:X:X:X1X1X<X1X:X1X<X1X,X1X;X1X1X1X1X1X1X<X<X1X1X1X1X1X1X:X",
":X:X1X:X1X1X:X1X1X1X>X1X1X1X1X1X1X1X1X1X1X1X<X1X1X<X<X1X1X1X1X1X",
"1X1X1X1X1X1X1X1X1X1X1X1X,X,X,X1X>X1X1X1X1X1X1X1X1X1X<X1X1X1X1X1X",
"1X1X1X1X1X1X1X1X,X,X,X1X1X1X1X1X:X1X1X1X,X1X1X1X1X1X1X1X1X1X1X1X",
"1X1X1X1X1X1X1X1X1X1X1X1X1X1X1X,X1X:X+X1X:X1X,X1X1X1X1X1X1X1X1X1X",
"1X1X1X1X1X1X1X1X,X1X1X<X<X*X<X<X;X:X:X:X-X1X1X,X,X,X1X1X1X1X1X<X",
",X1X1X1X1X1X1X1X<XOX~.I.D.N.Z.Z.Y..X<X:X=X:X1X1X1X,X1X1X1X1X<X1X",
",X1X1X1X1X1X<X<X^.B.d $ 7 x E e c l 7.~.;X<X;X:X1X1X1X1X1X1X1X<X",
"1X,X,X1X<X<X&XP.>  .+.Y u.q.k.r.A } Q 5 C.[.%X1X1X,X,X1X1X,X1X<X",
",X1X1X<X<X*XF.] s.2./ R h.l.d.J >.t.r.z.r e [.%X1X-X,X1X$X1X;X1X",
"1X1X:X<X&XP.e [ e.g.<.C ,.j.d.M ;.l.x._ Z ' n *X<X1X1X,X_. X1X#X",
"1X-X:X<X.Xc P =.w.d.d.G <.%.-.D ,.l.L H 8.a.w R.<X1X,X,XG.}.>XT.",
",X1X1X&XP.c y.V <.g.*., J / Y 8 &.<.N d.l.p.' i.<X:X1X Xm.,XL.W.",
",X-X1X].g +.z._ R w.*.F 0 ' q I / N %.l.t.8.4 i.&X1X,XL.!.).K.>X",
"1X$X1X`.& { 9.x.%.M V ) q > % a ` B -.h.^ F ' e [.<X,Xn.1XS.).<X",
",X1X1X~.5 { ( 8.q.Z I - v B.D.h 1 P :.^ F 8.a.< (.&X<Xb.Q.S.#X<X",
"1X-X<X| } z.^ J Q Q ! g XX:X|.'.n z I / v.1.w.8 9.A.O.: s o.J.*X",
",X<X*Xx r x.8.8.r t & L.'.<X:X:XH.i x 3.2.j.L *.S X a M.Z.! k R.",
"<XU.O.[ ^ C ,.8.:.t s *X,X:X:X:XOX> 7 3.w.%.K c.w.< a U  .f 5 6.",
"I.k 4 r.f.1.H 8 Q w c &X1X:X+X<XOX#.a } k.D 2.2.D 2 4...$.O.0.. ",
"@ 9.A t.g.<.d.S 0 4 g *XOX:X:X:X:XE.$ ] ` V 2.k.a T 5.p M. .$.> ",
"O a.:.S <.d.%.=.' 5 D.<X;X<X1X:XOX^.u | I Y ~ 3.2 I T   ; o o + ",
". r.z.:.R V A x g = ].<X<X1X<X:X:X:XI.u $ 9 +.@.I ; T ;   + i % ",
"6.4 E y.[ W U 7 * 6.XX1X1X1X1X1X1X=X<XY.X.* > b l p # p p 3 p o.",
"{.i.s = > 6 > h N.#X1X<X1X1X>X1X,X1X1X<X<X'.H.m m p j j y 3 b.@X",
"<X'.~.U.V.V.J./.#X1X1X>X1X1X1X1X1X1X1X1X1X<X1X%X:X:X;XU.H.L.oX:X",
"1X1X1X:X:X:X>X-X1X1X1X1X1X1X1X1X1X,X1X,X<X1X1X1X=X1X1X:X=X,X:X:X",
",X1X1X,X1X1X:X1X,X,X1X1X1X,X,X1X1X,X,X1X1X,X,X,X1X,X,X1X1X1X1X1X",
",X1X1X1X-X:X1X1X1X1X1X1X1X1X:X:X1X1X1X1X1X1X1X1X1X1X1X<X>X<X1X1X",
"1X1X-X1X:X1X1X+X1X1X1X<X1X1X:X:X1X1X1X1X1X,X,X1X,X1X1X1X1X1X1X1X",
"1X1X1X1X:X=X:X:X*X1X<X1X1X:X:X:X;X:X1X:X1X1X1X1X1X<X<X1X1X>X1X:X",
"<X1X:X:X:X:X:X>X<X<X<X1X<X:X:X:X:X<X:X<X:X1X:X:X1X1X1X<X1X1X:X1X"
};
