/* XPM */
static char *avatar[] = {
/* columns rows colors chars-per-pixel */
"32 32 207 2 ",
"   c #052905",
".  c #053513",
"X  c #223C21",
"o  c #05491A",
"O  c #1A401B",
"+  c #0E4E29",
"@  c #1F4724",
"#  c #1F5636",
"$  c #234222",
"%  c #244F2F",
"&  c #284B2C",
"*  c #224734",
"=  c #244C33",
"-  c #284B33",
";  c #2E533A",
":  c #285B3C",
">  c #325531",
",  c #325738",
"<  c #335C3D",
"1  c #177237",
"2  c #256439",
"3  c #346B3E",
"4  c #31713D",
"5  c #424F3E",
"6  c #375940",
"7  c #2D6945",
"8  c #336144",
"9  c #366747",
"0  c #3B6C4C",
"q  c #277B47",
"w  c #3C734D",
"e  c #337A4D",
"r  c #387849",
"t  c #386F50",
"y  c #3C7652",
"u  c #357D52",
"i  c #3F7659",
"p  c #455742",
"a  c #44644A",
"s  c #46694C",
"d  c #51684E",
"f  c #45784D",
"g  c #476753",
"h  c #436C53",
"j  c #4C6D56",
"k  c #4A6A58",
"l  c #556A53",
"z  c #586957",
"x  c #447354",
"c  c #4C7454",
"v  c #4A7A56",
"b  c #45795A",
"n  c #4B7C5A",
"m  c #55765A",
"M  c #5A7962",
"N  c #617866",
"B  c #25824A",
"V  c #2D8A4A",
"C  c #308242",
"Z  c #31824D",
"A  c #2D8C51",
"S  c #368357",
"D  c #3D8456",
"F  c #338B54",
"G  c #3B8E5A",
"H  c #2D9050",
"J  c #359359",
"K  c #3A925A",
"L  c #379A5E",
"P  c #3F9861",
"I  c #428355",
"U  c #478358",
"Y  c #49825C",
"T  c #438A5C",
"R  c #538F5C",
"E  c #41935E",
"W  c #4C8563",
"Q  c #4B8A63",
"!  c #488E65",
"~  c #5A8969",
"^  c #4C9464",
"/  c #449B65",
"(  c #4C9C64",
")  c #469769",
"_  c #4C956A",
"`  c #499E6C",
"'  c #549664",
"]  c #55926B",
"[  c #5B926C",
"{  c #589C6D",
"}  c #589572",
"|  c #5C9B73",
" . c #66916D",
".. c #68976D",
"X. c #6A8975",
"o. c #738C79",
"O. c #6A9477",
"+. c #609B74",
"@. c #6C9C77",
"#. c #73937B",
"$. c #739E7A",
"%. c #45A366",
"&. c #48A56C",
"*. c #52A06D",
"=. c #52AA6D",
"-. c #4DAA71",
";. c #59A575",
":. c #52AA72",
">. c #5BAB7B",
",. c #4FB176",
"<. c #53B375",
"1. c #53B37A",
"2. c #5CB27D",
"3. c #63A77E",
"4. c #6BA778",
"5. c #73A779",
"6. c #6C9E81",
"7. c #5EB683",
"8. c #68AA82",
"9. c #7BA885",
"0. c #6AB586",
"q. c #63B886",
"w. c #64BB84",
"e. c #6AB883",
"r. c #6DB48B",
"t. c #6ABB8A",
"y. c #74B48B",
"u. c #71BC8E",
"i. c #7FA991",
"p. c #6FBE91",
"a. c #75BD93",
"s. c #62C285",
"d. c #65C389",
"f. c #6AC48A",
"g. c #6AC58B",
"h. c #66C88C",
"j. c #75C48D",
"k. c #6ECB92",
"l. c #78C497",
"z. c #71CA94",
"x. c #75D095",
"c. c #7DD5A2",
"v. c #8C958A",
"b. c #988D93",
"n. c #9B9098",
"m. c #85AF87",
"M. c #8BA496",
"N. c #82A994",
"B. c #8BA992",
"V. c #99A79B",
"C. c #86B297",
"Z. c #8FB19C",
"A. c #8DBB9A",
"S. c #A3A99F",
"D. c #A09BA1",
"F. c #9BB6A4",
"G. c #98BCA2",
"H. c #AFA4AC",
"J. c #A6B8A7",
"K. c #A6BCAA",
"L. c #ABAFB2",
"P. c #B3B4B8",
"I. c #C1B6BC",
"U. c #9CC3A7",
"Y. c #A9C4B4",
"T. c #B8C3B7",
"R. c #AFD2BE",
"E. c #B7D3BD",
"W. c #BDC1C4",
"Q. c #ADD9C0",
"!. c #BBD0C1",
"~. c #C1DDC6",
"^. c #C8CDD0",
"/. c #D1D6D2",
"(. c #DCD4DA",
"). c #CBE6D5",
"_. c #D2E9D6",
"`. c #D9E7DB",
"'. c #D0F8DE",
"]. c #DBDEE3",
"[. c #E4D9E1",
"{. c #D7EBE0",
"}. c #DCEFE3",
"|. c #DCF3E5",
" X c #DAF6E5",
".X c #DFFFF0",
"XX c #E4E5E6",
"oX c #F4E7EE",
"OX c #E1FBE6",
"+X c #E5F4ED",
"@X c #EAF2EC",
"#X c #EDFDED",
"$X c #F4F3EE",
"%X c #F7FAEE",
"&X c #E9EDF0",
"*X c #F9EEF6",
"=X c #E9F7F3",
"-X c #EDFDF2",
";X c #ECFFFA",
":X c #F5F5F4",
">X c #FCF5F6",
",X c #F4FCF4",
"<X c #FBFDF6",
"1X c #F4F5F9",
"2X c #FCF6FB",
"3X c #F5FFFB",
"4X c #FEFDFD",
/* pixels */
"4X4X4X4X4X3X3X3X3X4X4X4X4X4X4X1X4X3X4X3X4X4X4X3X<X4X4X<X<X<X<X<X",
"4X4X4X4X4X4X3X4X4X4X4X4X4X4X4X4X4X4X4X4X4X>X4X3X4X4X4X<X4X<X4X<X",
"4X4X4X4X4X4X4X4X4X4X4X2X4X4X4X>X4X2X4X2X4X4X4X4X4X4X4X4X4X4X4X4X",
"4X<X4X4X4X4X4X4X2X4X4X4X4X4X4X4X4X4X4X2X2X4X2X2X4X4X4X4X4X4X4X4X",
"4X4X4X4X4X4X4X4X4X2X4X4X<X$X>X<X>X4X4X4X4X4X4X4X4X2X4X4X4X4X4X4X",
"3X4X4X4X4X4X4X4X2X4X2X>X<X<X4X,X3X3X-X3X3X4X2X3X4X4X4X4X4X4X4X4X",
"3X4X4X4X4X2X2X4X4X4X<X,X4X,XOX!.Z.F.N.F.K.).#X3X4X4X4X4X4X4X4X2X",
"3X3X4X4X4X4X2X4X<X,X3X,X).9.c n y W b 0 = j B._.3X4X4X4X4X4X4X4X",
"3X4X3X4X2X4X2X4X4X#X XC.: ] | I r.z.8.t.! +.[ 2 G.-X3X3X4X3X4X2X",
"4X1X4X*X4X2X2X4X#X{.x u l.0.t.:.K s.z.g.E R 0.C.] U.-X,X3X<X4X2X",
"&X4XoX[.2X4X<X4X;XM Q S &.z.f.=.B s.h.<.H <.d.e.{ w U.,X4X<X2X4X",
"W.1XXXH.2X4X4X3XQ.t a.7.J %.k.<.H -.%.<.H s.d.s.*.D n OX3X>X2X4X",
"^.P.4Xn.oX2X4X;Xi.] p.k.7.A <.=.e T ( K 1 &.d.<.Z a.W U.#X4X4X4X",
"1XL.(.(.I.2X3X-Xi.7 7.p.h.%.V E I r ' e G %.w.P ` l.| h |.<X2X4X",
"3X].D.4Xb.2X4X Xx _ G ) g.=.C ' f & 3 0 _ e q ` l.8.} * {.4X*X2X",
"3X=XD./.v.3X#X'.7 p.7.G / ;.I 3 l J.B.c : T S q.7.) } 6 ).4X2X4X",
";XY.X.d , 4.A.4.q 7.1.c._ U Y N }.@X4X|.k N ! ) G P l.6.~ ;X2X2X",
"R.h ~ Z.9.I o K &.P h.2.3.x s J.>X<X,XXXY.* i u 7.q.k.u i ;X4X2X",
"6.8 f  .Y f 2 5.x.J &.w.3.w , #X4X<X<X3X;Xg i ;.q.7.B P { O.Y.4X",
". 9.#.$...5.4 I s.1.F u.| x #.#X<X$X<X4X=XM 7 ! q L ,.h.0.7 x Y.",
"< @. .m.f 5.R C j.2.Z _ ] % ~.,X<X<X<X#X3Xj 7 e F s.<.d.t.! 8.# ",
"@ O O >    .U 3 4.^ T U  .a _.,X<X<X4X,X3XF.6 ] *.%.s.<.F :.a.+ ",
"& s $   > m , v 4.+.x % a K.4X<X4X3X4X3X;X|.; m I D Z E >.a.r.. ",
"o.c 5 d d X s c m < - X.E.3X:X4X4X4X3X4X4X+X6.- 9 Y Q } y.b 8 6.",
"#Xv.5 p z z d N N F.}.3X3X4X4X4X4X1X4X4X4X4X&XM.l 6 9 < , g N..X",
"<X@XT.S.W.%X4X<X=X4X4X4X4X4X4X2X4X4X4X4X1X4X4X@X`.K.V.V.T.).+X3X",
"<X4X>X:X3X<X4X:X4X4X4X2X2X4X2X4X4X4X4X4X3X2X4X4X:X:X<X<X4X4X4X4X",
"<X4X4X4X4X3X1X4X2X2X4X4X4X4X2X4X4X4X2X4X4X4X2X2X4X4X4X<X2X4X4X4X",
"2X4X3X,X>X4X4X4X4X4X4X4X4X4X4X4X4X4X4X2X4X4X4X4X4X<X>X<X4X4X4X4X",
"4X4X4X4X4X4X4X3X4X4X2X2X4X4X4X<X<X<X4X4X4X4X3X4X:X4X<X<X4X*X2X4X",
"4X<X3X4X4X3X4X4X4X4X4X4X4X<X<X#X<X<X<X4X4X3X3X-X<X<X>X<X<X4X4X4X",
"4X4X4X4X3X4X4X4X<X<X4X<X<X4X<X<X<X<X<X4X3X3X3X4X,X4X<X<X4X3X4X3X"
};
