/* XPM */
static char *collectible[] = {
/* columns rows colors chars-per-pixel */
"32 32 197 2 ",
"   c #4B1B1C",
".  c #531E10",
"X  c #451C08",
"o  c #620F19",
"O  c #7C1F1A",
"+  c #5B2A1B",
"@  c #602513",
"#  c #721821",
"$  c #2F4F1D",
"%  c #264813",
"&  c #22511A",
"*  c #1A4622",
"=  c #284122",
"-  c #304C23",
";  c #37532B",
":  c #36642F",
">  c #3F6D2F",
",  c #31613B",
"<  c #427A1F",
"1  c #40722D",
"2  c #457A37",
"3  c #467836",
"4  c #527731",
"5  c #426640",
"6  c #50724F",
"7  c #6A7950",
"8  c #8E1C15",
"9  c #9E1C1E",
"0  c #AD1C1C",
"q  c #B5191D",
"w  c #882418",
"e  c #A7241C",
"r  c #9E1728",
"t  c #B20A21",
"y  c #AC1C23",
"u  c #AA1E2D",
"i  c #B41D22",
"p  c #BD1B24",
"a  c #BC152B",
"s  c #B81A29",
"d  c #AC1634",
"f  c #AC1C33",
"g  c #BC1F30",
"h  c #832325",
"j  c #942329",
"k  c #AB2421",
"l  c #A3222A",
"z  c #A72924",
"x  c #B52425",
"c  c #BA2324",
"v  c #B3232D",
"b  c #BD252A",
"n  c #B62929",
"m  c #B63027",
"M  c #BA3138",
"N  c #C7181E",
"B  c #D1221F",
"V  c #C42B1B",
"C  c #CE1A26",
"Z  c #C31B2C",
"A  c #CE1E2D",
"S  c #C41828",
"D  c #DB1C24",
"F  c #D51D29",
"G  c #D41827",
"H  c #C41F30",
"J  c #C60C23",
"K  c #EA1D2C",
"L  c #F51F2B",
"P  c #EF1935",
"I  c #F31C3D",
"U  c #C22327",
"Y  c #C5222B",
"T  c #CA252B",
"R  c #C42B2C",
"E  c #CB2429",
"W  c #D4242B",
"Q  c #D6262A",
"!  c #D9312E",
"~  c #D73727",
"^  c #C72632",
"/  c #CC2433",
"(  c #CA2B33",
")  c #C22C37",
"_  c #D52332",
"`  c #DA2532",
"'  c #D42D33",
"]  c #DA2A33",
"[  c #D32E3C",
"{  c #D9283B",
"}  c #CF3034",
"|  c #DD343C",
" . c #D73437",
".. c #EC252C",
"X. c #E4292D",
"o. c #EB2427",
"O. c #F0282A",
"+. c #FD322C",
"@. c #E32433",
"#. c #EC2331",
"$. c #E92A37",
"%. c #F22532",
"&. c #FA2636",
"*. c #C72B40",
"=. c #D03A43",
"-. c #ED3044",
";. c #F73346",
":. c #EB3355",
">. c #B56E44",
",. c #AB7A4C",
"<. c #B87448",
"1. c #BB7454",
"2. c #817E6B",
"3. c #EE4756",
"4. c #F74E56",
"5. c #E65153",
"6. c #F35458",
"7. c #EE626D",
"8. c #F6757A",
"9. c #458235",
"0. c #548F3F",
"q. c #4F8841",
"w. c #518D43",
"e. c #599543",
"r. c #549746",
"t. c #599D54",
"y. c #52B354",
"u. c #53A455",
"i. c #69B350",
"p. c #6A826D",
"a. c #7BAE69",
"s. c #73BF65",
"d. c #58CB66",
"f. c #6CC668",
"g. c #74CB67",
"h. c #63DA66",
"j. c #B69258",
"k. c #AAAC59",
"l. c #B59366",
"z. c #B9A468",
"x. c #B2B56E",
"c. c #BBBB71",
"v. c #C3854C",
"b. c #D39969",
"n. c #83D26B",
"m. c #9FD46A",
"M. c #9FCC71",
"N. c #84D97B",
"B. c #F77F8B",
"V. c #8FA08E",
"C. c #99AC99",
"Z. c #A0A0A0",
"A. c #A6B3A9",
"S. c #A0B8BC",
"D. c #B9B9B9",
"F. c #DD9F94",
"G. c #F5868A",
"H. c #FE8A95",
"J. c #F6959E",
"K. c #EA9FA3",
"L. c #F19CA3",
"P. c #F6ACAC",
"I. c #F2A4A0",
"U. c #EBBCB7",
"Y. c #FFBFBD",
"T. c #8DD981",
"R. c #94DE93",
"E. c #B9DC82",
"W. c #A4DE91",
"Q. c #8FE184",
"!. c #BBE289",
"~. c #AEC0B4",
"^. c #BFCBCB",
"/. c #CED7D2",
"(. c #EBCDC3",
"). c #F9CCCB",
"_. c #F7DBCF",
"`. c #FBDBD6",
"'. c #DCE2DE",
"]. c #EADBE0",
"[. c #FFDBE0",
"{. c #DDE8E2",
"}. c #E2E4E1",
"|. c #E6ECE9",
" X c #E5ECE1",
".X c #FFECE3",
"XX c #FCEAEC",
"oX c #FAE9E7",
"OX c #F8F4E7",
"+X c #FAEDF4",
"@X c #F4F4F4",
"#X c #FDF5F5",
"$X c #F3FDF3",
"%X c #FCFDF5",
"&X c #FEF5FD",
"*X c #F5FFFD",
"=X c #FEFEFE",
/* pixels */
"=X=X=X=X=X=X=X=X=X=X=X=X&X=X=X=X*X=X#X=X=X*X=X=X=X=X=X=X=X=X=X=X",
"=X=X=X=X=X=X=X=X*X&X=X*X$X*X*X=X*X=X=X=X=X=X%X*X=X=X=X=X=X=X=X=X",
"=X=X=X=X=X=X=X=X=X=X=X*X=X=X&X&X=X&X=X*X*X%X=X=X=X=X=X=X=X=X=X=X",
"=X=X=X=X=X=X=X=X#X=X=X=X*X=X=X=X=X=X&X=X=X=X=X#X=X=X=X=X=X=X=X=X",
"=X=X=X=X=X=X=X=X=X=X&X=X&X*X$X%X$X#X*X=X&X=X*X=X=X=X=X=X=X=X=X=X",
"=X=X=X=X=X=X=X=X=X*X=X=X=X.XK.H.H.K.#X*X=X=X*X=X=X=X=X=X=X=X=X=X",
"=X=X=X=X=X=X=X=X=X&X=X*X.XB.-.K ..;.J. X*X=X*X=X=X=X=X=X=X=X=X=X",
"=X=X=X=X=X=X=X=X%X&X=X$XY.` O.~ V I 4.`.%X=X=X&X=X=X=X=X=X=X=X=X",
"=X=X=X*X%X=X=X=X=X&X*XOXP ! K [ . E O.7.=X*X=X=X=X=X=X=X=X=X=X=X",
"=X=X=X=X=X=X=X=X=X=X$XP.@.D &.` s C $.5.).=X&X*X=X=X=X=X=X=X=X=X",
"=X=X=X=X=X=X&X=X*X%XP.| ` ` Q X...] $.O.4.`.&X*X=X=X=X=X=X=X=X=X",
"*X=X=X#X=X=X=X=X=X#X8.' G _ ` ] o.` @.$.;.I.%X&X=X=X=X=X=X=X=X=X",
"=X=X=X=X=X=X=X$X=X(.` R ^ a _ K Q Q @.S ] 6._.=X=X=X=X=X=X=X=X=X",
"=X=X=X=X*X$X=X=X[.:.S Y 8 @ $.@.` ..@.9 8 O.G.@X=X=X=X=X=X=X=X=X",
"=X=X=X=X=X%X=XXXF.l Y F ( ^ F T R _ | | C %.3.U.&X=X=X=X=X=X=X=X",
"=X=X=X=X*X=X#XU._ Y R T x b W ' W [  .W O.! &.4.].+X=X=X=X=X=X=X",
"=X*X*X=X#X*X=X! c s M ( n k =.) n {  .} Q ] X.&.J.%X=X=X*X=X=X$X",
"=X%X=X+X=XXXG.J u d # a ) p N m X A A ` ^ ` w Z =.P.@X=X=X%X&X=X",
"%X&X*X=X%X).i b a l . t Z Y C ( u Y ^ Z i I + f +.4..X*X=X#X=X*X",
"=X*X$X&X=XW.x.k k e 0 c k x Z v i b n Y U F U i v.E.R.=X&X=X=X=X",
"%X*X=X%X%Xu.f.b.p k g y r v S W c q / y s S B j.E.h.t.%X=X*X%X*X",
"=X=X=X*X=X7 < a.z.k s d   o v U C _ S j O z >.z.i.1 2.*X=X#X=X*X",
"*X=X=X=X#X^.- 2 g.c.,.l h u i p 0 n z e w l.N.d.3 * '.=X$X$X=X=X",
"%X#X=X*X=X&XS.& 3 g.n.m.k.>.<.,.1.<.>.c.M.n.y.4 , A.=X%X=X=X&X#X",
"=X=X=X=X$X=X&XZ.% 1 w.r.f.N.Q.T.Q.N.Q.f.r.9.> % D.&X=X=X=X=X=X=X",
"=X=X&X=X=X=X=X@XA.p.5 : 2 9.0.e.e.e.9.> : 6 p.D.@X=X*X%X=X=X=X=X",
"=X=X=X=X=X=X=X=X&X=X/.V.= - - $ % - ; = C.{.=X&X=X=X&X=X=X%X=X=X",
"%X=X=X%X=X=X=X*X=X=X=X=X X}. X{.|.'.|.{.=X=X=X=X%X=X=X=X=X=X=X=X",
"=X*X=X=X=X=X=X=X%X%X=X=X=X=X=X=X=X=X=X=X$X=X=X%X=X=X=X=X=X=X=X=X",
"=X%X=X=X=X%X=X=X=X=X=X=X%X=X*X=X=X=X=X=X=X=X=X=X=X=X=X=X=X=X=X=X",
"=X=X=X=X=X=X=X%X=X*X=X*X=X=X=X$X%X=X=X$X=X=X=X=X=X=X=X=X=X=X=X=X",
"=X=X=X=X=X&X=X=X=X=X&X=X%X=X=X=X=X=X=X=X=X=X=X=X=X=X=X=X=X=X=X=X"
};
