/* XPM */
static char *npxfess[] = {
/* columns rows colors chars-per-pixel */
"32 32 42 1 ",
"  c white",
". c #1E1E1E",
"X c #F9D40E",
"o c #FCD70E",
"O c black",
"+ c #11141E",
"@ c #F2CE0E",
"# c #EECB0F",
"$ c #39341C",
"% c #34301D",
"& c gray9",
"* c #35311C",
"= c #00001F",
"- c #FFDB0D",
"; c #E7E7E7",
": c #2F2C1D",
"> c #D7D7D7",
", c #AAAAAA",
"< c #0B0B0B",
"1 c gray97",
"2 c #434343",
"3 c #B7B7B7",
"4 c #3D371C",
"5 c gray76",
"6 c #2C2C2C",
"7 c #191A1E",
"8 c #9D9D9D",
"9 c #CBCBCB",
"0 c #998417",
"q c #73641A",
"w c gray21",
"e c gray24",
"r c #4C4C4C",
"t c #939393",
"y c gray37",
"u c gray47",
"i c #686868",
"p c #848484",
"a c #060E1E",
"s c #6B5D1A",
"d c #7A6919",
"f c #DABA11",
/* pixels */
"                                ",
"                                ",
"              ;;;;              ",
"          15pe....ep51          ",
"        132..........231        ",
"       ;i..............i;       ",
"      ;r................r;      ",
"     ;2..................2;     ",
"    1i...4............4...i1    ",
"    3...4ff..........ff4...3    ",
"   12....fXf........fXf....21   ",
"   5......fXf......fXf......5   ",
"   p.......fXf....fXf.......p   ",
"   e........fXf..fXf........e   ",
"  ;..........f#ss#f..........;  ",
"  ;...........sffs...........;  ",
"  ;...........sffs...........;  ",
"  ;..........f#ss#f..........;  ",
"   e........fXf..fXf........e   ",
"   p.......fXf....fXf.......p   ",
"   5......fXf......fXf......5   ",
"   12....fXf........fXf....21   ",
"    3...4ff..........ff4...3    ",
"    1i...4............4...i1    ",
"     ;r..................r;     ",
"      ;2................2;      ",
"       ;i..............i;       ",
"        132..........231        ",
"          15pe....ep51          ",
"              ;;;;              ",
"                                ",
"                                "
};
