/* XPM */
static char *avatar[] = {
/* columns rows colors chars-per-pixel */
"16 16 218 2 ",
"   c #314C30",
".  c #3B593A",
"X  c #37603D",
"o  c #3E7952",
"O  c #3E7853",
"+  c #3D7F56",
"@  c #3E7E58",
"#  c #476F49",
"$  c #476E4C",
"%  c #4E6B4F",
"&  c #4C7A50",
"*  c #4F7C5D",
"=  c #547C61",
"-  c #3E8352",
";  c #3D8856",
":  c #3F985F",
">  c #448552",
",  c #438B55",
"<  c #4C8857",
"1  c #45825E",
"2  c #468A5D",
"3  c #468C5E",
"4  c #438661",
"5  c #4E8666",
"6  c #538260",
"7  c #588464",
"8  c #508964",
"9  c #588C61",
"0  c #5E816B",
"q  c #5E8769",
"w  c #568A6C",
"e  c #4E9066",
"r  c #4C9465",
"t  c #459C60",
"y  c #479D65",
"u  c #469968",
"i  c #549669",
"p  c #549D6F",
"a  c #59996E",
"s  c #509970",
"d  c #579970",
"f  c #549D72",
"g  c #589872",
"h  c #5F9F78",
"j  c #638668",
"k  c #628B6C",
"l  c #67926F",
"z  c #678A77",
"x  c #6C8D76",
"c  c #6D9075",
"v  c #609C76",
"b  c #659F78",
"n  c #77937C",
"m  c #46A368",
"M  c #46A36B",
"N  c #47A769",
"B  c #4AA36D",
"V  c #52A66D",
"C  c #59A26F",
"Z  c #4FAA71",
"A  c #57A373",
"S  c #51A572",
"D  c #55A473",
"F  c #52AD73",
"G  c #50AF72",
"H  c #53A874",
"J  c #52A876",
"K  c #56A977",
"L  c #52AC76",
"P  c #55AF74",
"I  c #5BAA7C",
"U  c #51B073",
"Y  c #56B379",
"T  c #57B579",
"R  c #60B17F",
"E  c #769F87",
"W  c #5EB281",
"Q  c #5DB783",
"!  c #6EA284",
"~  c #73A184",
"^  c #7BA68C",
"/  c #64BA81",
"(  c #8A9486",
")  c #8AA08F",
"_  c #86A690",
"`  c #88A592",
"'  c #82AF94",
"]  c #97A395",
"[  c #91B39A",
"{  c #96B1A1",
"}  c #96BBA6",
"|  c #9AB8A5",
" . c #98BAA8",
".. c #A6B4A7",
"X. c #A0B9A4",
"o. c #A1BFAD",
"O. c #A6BCAC",
"+. c #B6B9B8",
"@. c #A0C5AB",
"#. c #AEC5B7",
"$. c #ACCEB6",
"%. c #B6C5BA",
"&. c #BFD7CC",
"*. c #C6C9C5",
"=. c #D0C9CF",
"-. c #C7D1C5",
";. c #C2D8C6",
":. c #C4D8CA",
">. c #CCD7D1",
",. c #CFD1D5",
"<. c #D0DED7",
"1. c #CFE1D0",
"2. c #CCE6D5",
"3. c #DAE4DD",
"4. c #DEE6DD",
"5. c #E3DBE2",
"6. c #DCE5E5",
"7. c #DDEBE4",
"8. c #DFEAE4",
"9. c #DEF0E4",
"0. c #EAE1E5",
"q. c #E5E7EA",
"w. c #E6F0E8",
"e. c #EAF6EF",
"r. c #EFF6F2",
"t. c #EFF8F0",
"y. c #ECFAF0",
"u. c #F5F5F0",
"i. c #F5F6F4",
"p. c #F9F1F6",
"a. c #F5FAF3",
"s. c #F3FAF6",
"d. c #F7F8F5",
"f. c #F7FBF4",
"g. c #FEFEF3",
"h. c #F9FDF6",
"j. c #F9FEF7",
"k. c #FDFDF6",
"l. c #F6FEFA",
"z. c #F7FFFD",
"x. c #F8FAF8",
"c. c #FAFAF8",
"v. c #FAFBF9",
"b. c #F9FBFA",
"n. c #FBFBFA",
"m. c #FFFBF9",
"M. c #FCF8FB",
"N. c #FEFBFB",
"B. c #F9FFF9",
"V. c #F8FDFA",
"C. c #FBFEFA",
"Z. c #FAFFFA",
"A. c #FBFFFB",
"S. c #FEFDF8",
"D. c #FCFFF8",
"F. c #FCFEF9",
"G. c #FDFFF9",
"H. c #FEFFF8",
"J. c #FDFCFA",
"K. c #FDFDFA",
"L. c #FEFDFB",
"P. c #FCFEFA",
"I. c #FDFFFA",
"U. c #FCFEFB",
"Y. c #FEFEFA",
"T. c #F9FAFD",
"R. c #FFFAFC",
"E. c #FEFBFC",
"W. c #FFFAFD",
"Q. c #FEFBFD",
"!. c #FFF9FE",
"~. c #FDFBFE",
"^. c #FDFBFF",
"/. c #FFFAFE",
"(. c #FEFBFE",
"). c #FFFAFF",
"_. c #FFFBFF",
"`. c #F8FDFD",
"'. c #FBFDFC",
"]. c #FBFDFD",
"[. c #FAFEFC",
"{. c #FBFEFC",
"}. c #FBFFFD",
"|. c #FBFCFE",
" X c #F8FFFF",
".X c #F9FFFF",
"XX c #FAFEFF",
"oX c #FAFFFF",
"OX c #FDFCFC",
"+X c #FCFDFC",
"@X c #FDFCFD",
"#X c #FCFDFD",
"$X c #FDFDFD",
"%X c #FEFCFC",
"&X c #FFFCFC",
"*X c #FFFCFD",
"=X c #FEFDFD",
"-X c #FCFEFC",
";X c #FDFFFC",
":X c #FFFEFD",
">X c #FFFFFD",
",X c #FCFCFE",
"<X c #FCFDFE",
"1X c #FEFCFE",
"2X c #FFFCFE",
"3X c #FFFDFE",
"4X c #FEFCFF",
"5X c #FFFCFF",
"6X c #FEFDFF",
"7X c #FFFDFF",
"8X c #FDFEFE",
"9X c #FCFEFF",
"0X c #FDFEFF",
"qX c #FDFFFF",
"wX c #FEFEFE",
"eX c #FFFEFE",
"rX c #FEFEFF",
"tX c #FEFFFF",
/* pixels */
"&XrXoX XXX0X8X].#X$X'.{.;XI.G.H.",
":XtXqX0X6X5X*X%X2X(.1XQ.3XeXeX>X",
"}.qX7X_.).N.S.f.r.r.x.1X5X5X5X7X",
".X0X_./.OXt.;.[ ^ E _ :.s.tX5X_.",
"`.M.!.E.9.' h p K R r b @.y.+X/.",
"q.5.p.V.} s L Y m U N / i $.B.R.",
",.=.0.e.! W G t - ; : F A ~ w.W.",
"6.+.*.2.g S V > j q + u I w <.).",
" .x k a B Q e c 4.3.z 4 J f o.n.",
"* l 9 , P H 8 X.D.A.{ @ M Z v | ",
"X # & < C 2 7 1.D.Z.#.O y T D 1 ",
"%   . $ 6 = O.a.C.}.7.0 o 3 d 5 ",
"-.( ] ..%.8.b.5X,X<XT.>.) n ` &.",
"OXi.v.wXrX6X)._.4X^.^.~.d.u.c.rX",
"=X#X#X@XQ.Q.3X=XY.$X9X|.J.m.E._.",
"U.{.[.-XL.L.P.j.g.F.z.l.h.k.K.]."
};
