/* XPM */
static char *collectible[] = {
/* columns rows colors chars-per-pixel */
"16 16 155 2 ",
"   c #901924",
".  c #A01B21",
"X  c #A91C23",
"o  c #B11C27",
"O  c #BD1C26",
"+  c #AD2826",
"@  c #AB202A",
"#  c #AC212C",
"$  c #B12026",
"%  c #BE2025",
"&  c #B52128",
"*  c #B4252C",
"=  c #BC2028",
"-  c #BC242A",
";  c #BE252A",
":  c #BE272C",
">  c #B12A2A",
",  c #C31E26",
"<  c #C01F29",
"1  c #C61E29",
"2  c #C2222A",
"3  c #C4222A",
"4  c #CE222B",
"5  c #CF252F",
"6  c #D7232C",
"7  c #D6222E",
"8  c #D7222E",
"9  c #D1272E",
"0  c #DD262D",
"q  c #CD2932",
"w  c #CC2E36",
"e  c #D32833",
"r  c #D42833",
"t  c #D52C34",
"y  c #E0252D",
"u  c #E0242E",
"i  c #E72A34",
"p  c #E5333C",
"a  c #E2363F",
"s  c #985F3F",
"d  c #B1513B",
"f  c #B1543E",
"g  c #D63F42",
"h  c #E63943",
"j  c #B55740",
"k  c #B75847",
"l  c #A96340",
"z  c #B37549",
"x  c #CE4E54",
"c  c #ED5157",
"v  c #F3686F",
"b  c #E76E73",
"n  c #E0737B",
"m  c #5C8F53",
"M  c #599050",
"N  c #60994C",
"B  c #62994D",
"V  c #7D914E",
"C  c #739A4E",
"Z  c #639F51",
"A  c #6DA354",
"S  c #6EA354",
"D  c #75A956",
"F  c #688B63",
"G  c #698E67",
"H  c #74926E",
"J  c #749470",
"K  c #8D8B4F",
"L  c #95874D",
"P  c #CF835F",
"I  c #8DA386",
"U  c #8DA485",
"Y  c #91A38B",
"T  c #91A48D",
"R  c #F3888B",
"E  c #F49398",
"W  c #F3949B",
"Q  c #F6A5A8",
"!  c #EFAEB3",
"~  c #B2CDAA",
"^  c #B6CEB1",
"/  c #C6CFC6",
"(  c #CAD3CA",
")  c #DDDFCA",
"_  c #D1D6D2",
"`  c #D7DBD7",
"'  c #F7C1C2",
"]  c #F9C1C3",
"[  c #F9C6C6",
"{  c #F5CECC",
"}  c #F6D8D7",
"|  c #FADDDF",
" . c #DFE9D2",
".. c #DEE2DF",
"X. c #E4E6E4",
"o. c #FAE6E8",
"O. c #FCF2EF",
"+. c #FBEFF0",
"@. c #F1F2F2",
"#. c #F3F3F4",
"$. c #F9F2F1",
"%. c #FCF1F2",
"&. c #FAF6F6",
"*. c #FAFAF7",
"=. c #FDF7F9",
"-. c #FAFDFB",
";. c #FDFDFB",
":. c #FDFEFB",
">. c #FBFCFC",
",. c #FAFDFC",
"<. c #FBFDFC",
"1. c #FBFEFC",
"2. c #FBFEFD",
"3. c #FAFFFD",
"4. c #FBFDFE",
"5. c #FBFEFE",
"6. c #FAFEFF",
"7. c #FCFCFC",
"8. c #FDFCFC",
"9. c #FCFDFC",
"0. c #FDFCFD",
"q. c #FCFDFD",
"w. c #FDFDFD",
"e. c #FEFDFC",
"r. c #FEFDFD",
"t. c #FCFEFC",
"y. c #FDFEFC",
"u. c #FCFEFD",
"i. c #FDFEFD",
"p. c #FCFFFD",
"a. c #FEFEFC",
"s. c #FEFEFD",
"d. c #FFFEFD",
"f. c #FEFFFD",
"g. c #FDFCFE",
"h. c #FCFDFE",
"j. c #FDFDFE",
"k. c #FCFCFF",
"l. c #FDFDFF",
"z. c #FEFDFE",
"x. c #FFFDFE",
"c. c #FEFDFF",
"v. c #FDFEFE",
"b. c #FCFFFE",
"n. c #FDFFFE",
"m. c #FDFEFF",
"M. c #FDFFFF",
"N. c #FEFEFE",
"B. c #FFFEFE",
"V. c #FEFFFE",
"C. c #FFFFFE",
"Z. c #FEFEFF",
"A. c #FFFEFF",
"S. c #FEFFFF",
"D. c #FFFFFF",
/* pixels */
"D.D.D.S.h.0.,.4.4.9.2.q.D.D.D.D.",
"D.D.D.C.0.q.6.m.l.4.i.;.C.D.D.D.",
"D.D.D.D.j.c.+.' ] $.k.5.D.D.D.D.",
"D.S.C.S.g.*.E p a Q -.l.A.D.D.D.",
"l.u.s.N.m.{ h 6 % c | v.B.B.B.S.",
"b.e.x.m.O.b 7 0 y i R &.M.V.S.A.",
"s.x.3.t.! w $ 8 u 4 g [ Z.V.V.B.",
"Z.N.p.} x 3 - 5 r t 0 v o.D.n.N.",
"9.>.%.n o # ; : * e 9 q W =.1.8.",
"<.q.) k X . = < & 2 1 > P  .0.9.",
"1.S.~ V d @   O , o + z D ^ f.,.",
";.f...F C L s f j l K Z G X.t.7.",
"r.w.Z._ H M N S A B m J ` z.N.N.",
"w.w.N.N.@./ Y U I T ( #.w.z.z.N.",
"w.N.z.w.s.B.r.2.v.v.C.d.z.N.C.N.",
"B.N.z.z.i.9.y.:.a.s.v.m.N.N.N.C."
};
