/* XPM */
static char *npxfess[] = {
/* columns rows colors chars-per-pixel */
"16 16 27 1 ",
"  c #1A1A1A",
". c #1A1A1C",
"X c #1C1D1E",
"o c #1D1D1E",
"O c #1E1E1E",
"+ c #202020",
"@ c #202021",
"# c #222222",
"$ c #3C3C3C",
"% c #594F19",
"& c #5A501A",
"* c #615519",
"= c #717172",
"- c #A18A15",
"; c #C6AA12",
": c #878787",
"> c #8E8E8E",
", c #8E8E8F",
"< c #8F8F8F",
"1 c #A9A9A9",
"2 c #DBDBDB",
"3 c #DCDCDC",
"4 c #EBEBEB",
"5 c #ECECEC",
"6 c #FBFBFB",
"7 c #FCFCFC",
"8 c white",
/* pixels */
"8888888888888888",
"8888631::1368888",
"8885<$#  #$<5888",
"884=@.oOOo.@=488",
"87>+%&XOOX&%+>78",
"82$.&;*XX*;&.$28",
"81#oX*;&&;*Xo#18",
"8: OOX&--&XOO :8",
"8: OOX&--&XOO :8",
"81#oX*;&&;*Xo#18",
"82$.&;*XX*;&.$28",
"87,@%&XOOX&%@,78",
"885=+.oOOo.+=588",
"8885>$#  #$>5888",
"8888631::1368888",
"8888888888888888"
};
