/* XPM */
static char *test[] = {
/* columns rows colors chars-per-pixel */
"16 16 199 2 ",
"   c #5C5A60",
".  c #605C62",
"X  c #625E62",
"o  c #605D64",
"O  c #635F65",
"+  c #635F66",
"@  c #645F65",
"#  c #645F66",
"$  c #656061",
"%  c #646063",
"&  c #626065",
"*  c #636066",
"=  c #646165",
"-  c #646066",
";  c #676266",
":  c #666366",
">  c #676367",
",  c #6A6867",
"<  c #656169",
"1  c #676268",
"2  c #676368",
"3  c #666369",
"4  c #666468",
"5  c #676468",
"6  c #676568",
"7  c #676569",
"8  c #67646A",
"9  c #67656C",
"0  c #686369",
"q  c #696568",
"w  c #696469",
"e  c #696569",
"r  c #6A6469",
"t  c #696768",
"y  c #686669",
"u  c #68656A",
"i  c #69656A",
"p  c #68646B",
"a  c #68666A",
"s  c #69666A",
"d  c #68676A",
"f  c #68666B",
"g  c #6B676A",
"h  c #6B676B",
"j  c #6C676B",
"k  c #69656D",
"l  c #6A666C",
"z  c #6A676C",
"x  c #6B666D",
"c  c #6B676D",
"v  c #6A676E",
"b  c #6B676F",
"n  c #6C676C",
"m  c #696869",
"M  c #6B686A",
"N  c #6C686B",
"B  c #6D686B",
"V  c #6A686C",
"C  c #6B686C",
"Z  c #6B696C",
"A  c #6B6A6C",
"S  c #6B6B6E",
"D  c #6C686C",
"F  c #6D696C",
"G  c #6C686D",
"H  c #6C696D",
"J  c #6D696D",
"K  c #6E6B6D",
"L  c #6C686E",
"P  c #6D686E",
"I  c #6C696E",
"U  c #6D696E",
"Y  c #6C686F",
"T  c #6C696F",
"R  c #6D6A6E",
"E  c #6D6A6F",
"W  c #6C6B6F",
"Q  c #6F6A6E",
"!  c #6E6B6E",
"~  c #6F6B6E",
"^  c #6F6B6F",
"/  c #6D6D6F",
"(  c #6F6C6F",
")  c #70696E",
"_  c #70696F",
"`  c #706C6F",
"'  c #706D6F",
"]  c #716D6F",
"[  c #6C6970",
"{  c #6D6970",
"}  c #6E6A70",
"|  c #6F6B70",
" . c #6F6A71",
".. c #6F6B71",
"X. c #6F6A72",
"o. c #6F6B72",
"O. c #6E6C70",
"+. c #6F6C70",
"@. c #6F6D70",
"#. c #6F6C71",
"$. c #6F6D71",
"%. c #6F6E70",
"&. c #6F6C72",
"*. c #6F6D72",
"=. c #6F6E72",
"-. c #6F6E73",
";. c #6F6F73",
":. c #6F6E74",
">. c #706B71",
",. c #706C70",
"<. c #706D70",
"1. c #716D70",
"2. c #716D71",
"3. c #736F71",
"4. c #706C72",
"5. c #706D72",
"6. c #706C73",
"7. c #706D73",
"8. c #726D72",
"9. c #726D73",
"0. c #706E73",
"q. c #716E73",
"w. c #716F73",
"e. c #726E72",
"r. c #726F72",
"t. c #726F73",
"y. c #746F73",
"u. c #706C74",
"i. c #706D74",
"p. c #716D75",
"a. c #716E74",
"s. c #726E75",
"d. c #736E75",
"f. c #726F75",
"g. c #736F75",
"h. c #736F76",
"j. c #736F77",
"k. c #707072",
"l. c #737072",
"z. c #727073",
"x. c #737273",
"c. c #717074",
"v. c #737074",
"b. c #737174",
"n. c #737075",
"m. c #737175",
"M. c #727076",
"N. c #727176",
"B. c #737176",
"V. c #737377",
"C. c #747074",
"Z. c #747174",
"A. c #757174",
"S. c #757075",
"D. c #747274",
"F. c #747275",
"G. c #767375",
"H. c #747176",
"J. c #757176",
"K. c #757077",
"L. c #757177",
"P. c #757276",
"I. c #757376",
"U. c #757277",
"Y. c #757377",
"T. c #767276",
"R. c #767376",
"E. c #767377",
"W. c #767476",
"Q. c #767576",
"!. c #777576",
"~. c #777477",
"^. c #737078",
"/. c #757278",
"(. c #757378",
"). c #747279",
"_. c #767378",
"`. c #767379",
"'. c #75737A",
"]. c #777578",
"[. c #767479",
"{. c #777579",
"}. c #777678",
"|. c #77747A",
" X c #76767A",
".X c #787478",
"XX c #79757A",
"oX c #78747C",
"OX c #78777C",
"+X c #79777E",
"@X c #79787A",
"#X c #79787D",
"$X c #7A787C",
"%X c #7A797C",
"&X c #7B797C",
"*X c #7A797F",
"=X c #7B7A7E",
"-X c #7C7B7D",
";X c #7C7B7E",
/* pixels */
"|.;X@X X*X$X+X=X5.OX&X{.%X-X).#X",
"& h 7 * [ 4 3 V . d > O A a + f ",
"D.a.t.c.v.V.F.E e.b.B.r.3...N.9 ",
"I - c z : l 5 + J 1 x N ; i 6   ",
"i.0.U.f.M.U.f.j.K.^.P.s.g.E.| :.",
"n $.@.#.I.` ] S.Q 9.2.} J.' B Z.",
">.P &.s.s.4.g.h._ ,.u.s.7.T w.J.",
"E 2 E ;.u ( =.R K e 6.;.u H k.Z ",
"w.Q.]._.W.!.).~.+.).W.q.Y.}.f.E.",
"@ G s 1 O.M 8 H X Y s # S y < b ",
"(.H.m.G.R.T.H.{ C.A.d.T.l.#.[.9 ",
"2.r 2.` q X.g 0 ,.0 X.` w L C o ",
"H.j.XXL.'.{.n./._.f.oXp.`..X4.B.",
"D *.@.~ Z.<.| y.^ -.0.H x.1.U z.",
") J o.6.6.|  .8.F v [ *.! c 5.%.",
"j $ P E - J / m , = k / % p W t "
};
