/* XPM */
static char *wall[] = {
/* columns rows colors chars-per-pixel */
"16 16 227 2 ",
"   c #5A585E",
".  c #5D585D",
"X  c #5E595F",
"o  c #5D5B63",
"O  c #605B61",
"+  c #605B62",
"@  c #605C61",
"#  c #605C62",
"$  c #605C63",
"%  c #615D63",
"&  c #625C63",
"*  c #635F63",
"=  c #655F60",
"-  c #655F62",
";  c #605E64",
":  c #635F65",
">  c #625F66",
",  c #645E65",
"<  c #645F66",
"1  c #656062",
"2  c #676163",
"3  c #626065",
"4  c #636066",
"5  c #636167",
"6  c #656065",
"7  c #656165",
"8  c #666164",
"9  c #666065",
"0  c #656364",
"q  c #656366",
"w  c #676366",
"e  c #676267",
"r  c #656466",
"t  c #666466",
"y  c #676567",
"u  c #676767",
"i  c #686266",
"p  c #686366",
"a  c #696567",
"s  c #656168",
"d  c #676368",
"f  c #67646B",
"g  c #67666B",
"h  c #686368",
"j  c #6A6568",
"k  c #696669",
"l  c #6A6669",
"z  c #69656B",
"x  c #6B656B",
"c  c #69676A",
"v  c #6A666A",
"b  c #6B666B",
"n  c #6B676B",
"m  c #6C656A",
"M  c #6C676A",
"N  c #6E666A",
"B  c #6F676B",
"V  c #68656D",
"C  c #6B656D",
"Z  c #68666D",
"A  c #69676D",
"S  c #6B676C",
"D  c #69676E",
"F  c #6C676D",
"G  c #6C676F",
"H  c #6B686B",
"J  c #6A6A6B",
"K  c #6C6A6B",
"L  c #6B6C6A",
"P  c #69686D",
"I  c #6A686C",
"U  c #6B686C",
"Y  c #6B696D",
"T  c #6A6A6C",
"R  c #6A686E",
"E  c #6B696E",
"W  c #6E696C",
"Q  c #6E6A6C",
"!  c #6F6A6D",
"~  c #6C696E",
"^  c #6D696E",
"/  c #6C686F",
"(  c #6C696F",
")  c #6E686E",
"_  c #6C6A6E",
"`  c #6C6A6F",
"'  c #6F6B6F",
"]  c #6D6E6D",
"[  c #6C6C6E",
"{  c #6D6C6E",
"}  c #6C6D6E",
"|  c #6D6D6F",
" . c #6F6C6E",
".. c #6F6C6F",
"X. c #6C6E6F",
"o. c #6F6E6F",
"O. c #70686E",
"+. c #706B6E",
"@. c #706A6F",
"#. c #706B6F",
"$. c #716C6F",
"%. c #706E6E",
"&. c #6C6770",
"*. c #6D6871",
"=. c #6E6870",
"-. c #6F6970",
";. c #6D6B71",
":. c #6E6A70",
">. c #6F6A70",
",. c #6E6B70",
"<. c #6E6B71",
"1. c #6F6B71",
"2. c #6D6A73",
"3. c #6E6C70",
"4. c #6F6C70",
"5. c #6E6C71",
"6. c #6F6C71",
"7. c #6F6D71",
"8. c #6E6E70",
"9. c #6F6F71",
"0. c #6F6C73",
"q. c #6E6E72",
"w. c #6F6E73",
"e. c #6F6C75",
"r. c #716B71",
"t. c #726A70",
"y. c #706C71",
"u. c #706E70",
"i. c #706C72",
"p. c #716D72",
"a. c #706C73",
"s. c #706D73",
"d. c #716D73",
"f. c #726D73",
"g. c #716E72",
"h. c #736E72",
"j. c #726F73",
"k. c #706B74",
"l. c #716D74",
"z. c #716D75",
"x. c #716E75",
"c. c #726E74",
"v. c #726F74",
"b. c #726E75",
"n. c #726F75",
"m. c #716F77",
"M. c #736E76",
"N. c #736F76",
"B. c #756F75",
"V. c #726F78",
"C. c #6E7073",
"Z. c #737273",
"A. c #757073",
"S. c #767073",
"D. c #727075",
"F. c #737175",
"G. c #727274",
"H. c #737275",
"J. c #727176",
"K. c #727077",
"L. c #737077",
"P. c #767175",
"I. c #757375",
"U. c #757076",
"Y. c #747176",
"T. c #747276",
"R. c #747376",
"E. c #757277",
"W. c #747377",
"Q. c #767377",
"!. c #757475",
"~. c #747477",
"^. c #757477",
"/. c #767477",
"(. c #777477",
"). c #777777",
"_. c #787376",
"`. c #787477",
"'. c #787676",
"]. c #727078",
"[. c #757179",
"{. c #757278",
"}. c #757378",
"|. c #757379",
" X c #777278",
".X c #767378",
"XX c #767279",
"oX c #767379",
"OX c #76717A",
"+X c #75737A",
"@X c #75727B",
"#X c #76737A",
"$X c #757478",
"%X c #767478",
"&X c #777478",
"*X c #777578",
"=X c #767479",
"-X c #777479",
";X c #777579",
":X c #76747A",
">X c #77747A",
",X c #77757B",
"<X c #77777A",
"1X c #77767B",
"2X c #79737A",
"3X c #787478",
"4X c #787778",
"5X c #787679",
"6X c #7B7778",
"7X c #78767A",
"8X c #78777A",
"9X c #78767B",
"0X c #7A777B",
"qX c #7B777B",
"wX c #78767C",
"eX c #7A777F",
"rX c #7A797B",
"tX c #7C7A7A",
"yX c #7E7B7B",
"uX c #7A7B7C",
"iX c #7B7B7C",
"pX c #7A7A7D",
"aX c #7B7A7D",
"sX c #7B787F",
"dX c #7B7B7F",
"fX c #7D7C7F",
"gX c #7E7E7F",
/* pixels */
"=XgXrX1XdXtXsXfX7.iXuX>XaXyX[.pX",
"# n 7 % E q 4 I . v 7 @ U t ; g ",
"^.D.J.R.Y.|./.,.F.E.}.H.A.c./.Z ",
"H $ z k * f 0 O n , x l - s r   ",
"x.v.:X].~.-XY.oXXXOX&XV.W.-X6.K.",
"m u.8.>.!. .+.S.B j.o.) I...M A.",
"r.( 0.N.b.i.c.B.t.y.e.M.b.( c.U.",
"[ e :.C.h 3.9.T { p k.q.d Y 9.J ",
"w.;X7X,X`.'.+X<X4.,X).n.$X4Xm.%X",
"+ F e < #.a 5 ` X / w & ~ y > R ",
"*X.XE.(._. X3X;.T.Q.L.(.P.d.5XP ",
"$.9 @.! 8 =.j : ' 2 =.Q i C c o ",
"{.OXqX@X8X0XY.wX2XE.eXz.9X6Xl.#X",
"N g.o.-.Z. .! A.W p.p.S G.%.b h.",
"O.^ 2.a.a.<.1.f.^ G *.s.5.D 7.d.",
"K = &.X.6 _ | u L 3 A } 1 V ] u "
};
