/* XPM */
static char *exit[] = {
/* columns rows colors chars-per-pixel */
"10 10 73 1 ",
"  c #141414",
". c #151515",
"X c #161616",
"o c #171717",
"O c #181818",
"+ c #191919",
"@ c #1A1A1A",
"# c #1B1B1B",
"$ c #1C1C1C",
"% c #1D1D1D",
"& c #1E1E1E",
"* c #1F1F1F",
"= c #1F2020",
"- c #202020",
"; c #202021",
": c #212121",
"> c #202122",
", c #212122",
"< c #222223",
"1 c #222323",
"2 c #242424",
"3 c #262627",
"4 c #272727",
"5 c #292825",
"6 c #272829",
"7 c #292A2B",
"8 c #292A2C",
"9 c #2A2A2C",
"0 c #383737",
"q c #3C3830",
"w c #3F3A30",
"e c #3C3832",
"r c #403A2F",
"t c #403B31",
"y c #413C32",
"u c #49402D",
"i c #464034",
"p c #4B4231",
"a c #5C5038",
"s c #5E543F",
"d c #6B5B3B",
"f c #7E6B43",
"g c #74674E",
"h c #716B5F",
"j c #897245",
"k c #957C4A",
"l c #977D4A",
"z c #987E4B",
"x c #837965",
"c c #847965",
"v c #847A66",
"b c #8C7F66",
"n c #A48851",
"m c #A48953",
"M c #D5B069",
"N c #D3B06E",
"B c #DAB66F",
"V c #DEB76D",
"C c #E3BD72",
"Z c #E6BE71",
"A c #E6C073",
"S c #E7C073",
"D c #E7C074",
"F c #E7C174",
"G c #EEC574",
"H c #F6CC79",
"J c #F0CA7E",
"K c #F8CE7A",
"L c #FBD17E",
"P c #FED27D",
"I c #FED37D",
"U c #FDD27E",
"Y c #FFD57E",
/* pixels */
"+%:;>-@o. ",
"%20gs4&+X.",
"&6hJBq=@X.",
"-7vUFy,$oX",
":9cUSt<&OX",
"18xUDy<*+X",
"pebLAw1-@O",
"kmNCDi3,#O",
"VHGKMfar5+",
"YPIZnzljdu"
};
