/* XPM */
static char *test[] = {
/* columns rows colors chars-per-pixel */
"10 10 63 1 ",
"  c #67656C",
". c #6A6769",
"X c #68666B",
"o c #6C6669",
"O c #6A676D",
"+ c #6A676E",
"@ c #6B696C",
"# c #6B686D",
"$ c #6B686E",
"% c #6D686D",
"& c #6C696D",
"* c #6D6A6D",
"= c #6D6B6D",
"- c #6C696E",
"; c #6D696E",
": c #6C686F",
"> c #6C696F",
", c #6D6A6E",
"< c #6D6B6E",
"1 c #6D6A6F",
"2 c #6D6B6F",
"3 c #6F6B6E",
"4 c #6E6A6F",
"5 c #6E6B6F",
"6 c #6F6B6F",
"7 c #6F6C6F",
"8 c #6D6B70",
"9 c #6E6A70",
"0 c #6E6B70",
"q c #6F6B70",
"w c #6E6B71",
"e c #6F6B71",
"r c #6E6C70",
"t c #6F6C71",
"y c #6F6D71",
"u c #6F6C72",
"i c #6F6D72",
"p c #6F6D73",
"a c #706C71",
"s c #706D71",
"d c #716D71",
"f c #716E71",
"g c #716F71",
"h c #706C72",
"j c #706D72",
"k c #716D72",
"l c #706D73",
"z c #726C72",
"x c #706E72",
"c c #716E72",
"v c #716F72",
"b c #716E73",
"n c #726E72",
"m c #726F72",
"M c #726E73",
"N c #726F73",
"B c #716E75",
"V c #716F75",
"C c #726E74",
"Z c #736F74",
"A c #727073",
"S c #727074",
"D c #727075",
/* pixels */
"bAVSD2NNSl",
",;1r#&1*- ",
">080>et46X",
"9jDnZzbCsm",
"4wijb3lurv",
"5fcgj;sryu",
"aafd;6e75+",
"hZkCekBhk$",
"qxNcMspxdx",
"o%:,<.O@O="
};
