/* XPM */
static char *wall[] = {
/* columns rows colors chars-per-pixel */
"10 10 68 1 ",
"  c #68666B",
". c #6C676A",
"X c #6A676E",
"o c #6A686B",
"O c #6A686D",
"+ c #6B686D",
"@ c #6B686F",
"# c #6C696D",
"$ c #6D6A6D",
"% c #6C696E",
"& c #6D696E",
"* c #6C686F",
"= c #6D6A6E",
"- c #6D6B6E",
"; c #6D6A6F",
": c #6D6B6F",
"> c #6E6B6E",
", c #6E6A6F",
"< c #6F6A6F",
"1 c #6E6B6F",
"2 c #6D6C6D",
"3 c #6D6B70",
"4 c #6E6B70",
"5 c #6F6B70",
"6 c #6E6A71",
"7 c #6F6A71",
"8 c #6F6B71",
"9 c #6E6B72",
"0 c #6E6C70",
"q c #6F6C70",
"w c #6F6E71",
"e c #6E6C72",
"r c #6F6C72",
"t c #6F6D72",
"y c #6F6E73",
"u c #706B70",
"i c #706B71",
"p c #706C70",
"a c #716C70",
"s c #706D70",
"d c #716D70",
"f c #706C71",
"g c #716C71",
"h c #706D71",
"j c #716D71",
"k c #726C71",
"l c #716E70",
"z c #706D72",
"x c #716D72",
"c c #706C73",
"v c #716D73",
"b c #726D72",
"n c #706E72",
"m c #716E72",
"M c #706E73",
"N c #716E73",
"B c #716F73",
"V c #726E73",
"C c #736E73",
"Z c #746F73",
"A c #726E74",
"S c #736E74",
"D c #726F74",
"F c #727072",
"G c #727073",
"H c #717074",
"J c #737074",
"K c #727075",
/* pixels */
"BGHGK=FBFM",
":%14+%,$& ",
"&634%7i,; ",
"<nJmZkNDhb",
";9tzn>cr0n",
";xmly%h4we",
"fqdg&15p,O",
"xSxV8bAfb@",
"unDjCavzsg",
".*%;-oX#O2"
};
