/* XPM */
static char *avatar[] = {
/* columns rows colors chars-per-pixel */
"29 29 181 2 ",
"   c #203F1F",
".  c #1B5532",
"X  c #224A25",
"o  c #274D28",
"O  c #295636",
"+  c #365838",
"@  c #325D3D",
"#  c #266435",
"$  c #41573F",
"%  c #3A6647",
"&  c #366B4B",
"*  c #3A6A4B",
"=  c #257E44",
"-  c #3F774E",
";  c #397A52",
":  c #426242",
">  c #46664A",
",  c #46784F",
"<  c #456B55",
"1  c #437555",
"2  c #427A53",
"3  c #467558",
"4  c #4E745A",
"5  c #427C5B",
"6  c #567157",
"7  c #53755B",
"8  c #547C5E",
"9  c #597963",
"0  c #5C7D68",
"q  c #677163",
"w  c #6C7869",
"e  c #348353",
"r  c #3C8551",
"t  c #3B8C53",
"y  c #3E8A5E",
"u  c #369657",
"i  c #359459",
"p  c #3E945E",
"a  c #3F8A60",
"s  c #3E9B61",
"d  c #438153",
"f  c #418D57",
"g  c #44825A",
"h  c #428B5B",
"j  c #4C8E5B",
"k  c #52855D",
"l  c #409059",
"z  c #409C5C",
"x  c #4B8462",
"c  c #4C8C62",
"v  c #498B66",
"b  c #558365",
"n  c #5B8165",
"m  c #578D67",
"M  c #5D8D61",
"N  c #548468",
"B  c #548D6A",
"V  c #5C8C6F",
"C  c #459566",
"Z  c #4B9464",
"A  c #449C65",
"S  c #4A9D65",
"D  c #4D9B6A",
"F  c #519267",
"G  c #5F9867",
"H  c #5C926D",
"J  c #549A6D",
"K  c #59986C",
"L  c #559570",
"P  c #569A72",
"I  c #5A9C75",
"U  c #62936D",
"Y  c #6A956D",
"T  c #638C71",
"R  c #6B8A72",
"E  c #748979",
"W  c #659274",
"Q  c #6B9472",
"!  c #699079",
"~  c #6C9A7A",
"^  c #74947C",
"/  c #79947E",
"(  c #43A56A",
")  c #4AA56B",
"_  c #47A96D",
"`  c #4EAB6C",
"'  c #4EA674",
"]  c #4DAD73",
"[  c #53A273",
"{  c #52AC74",
"}  c #5FA379",
"|  c #5AAD7D",
" . c #56B37A",
".. c #58B478",
"X. c #5BB47C",
"o. c #57B97B",
"O. c #63A37D",
"+. c #69A47B",
"@. c #68AC7E",
"#. c #62B37B",
"$. c #759D86",
"%. c #789D81",
"&. c #5DAF80",
"*. c #5BB480",
"=. c #5EBA84",
"-. c #65AD82",
";. c #77A885",
":. c #64B483",
">. c #69BE86",
",. c #67B788",
"<. c #6EB38A",
"1. c #7CAC93",
"2. c #5DC082",
"3. c #64C285",
"4. c #66C48A",
"5. c #6CC58E",
"6. c #6CC690",
"7. c #889687",
"8. c #85998C",
"9. c #8BA28B",
"0. c #8EA59A",
"q. c #8FAA98",
"w. c #91A293",
"e. c #91AE9E",
"r. c #8AB29B",
"t. c #98B59F",
"y. c #A2AD9F",
"u. c #96B3A1",
"i. c #97BEA4",
"p. c #9EB8A4",
"a. c #9DB8A9",
"s. c #A3B4AA",
"d. c #BCB5BA",
"f. c #9DC1AD",
"g. c #A9C8B4",
"h. c #B8C6B7",
"j. c #B5CABB",
"k. c #ABDABB",
"l. c #BEBFC4",
"z. c #CBBFC7",
"x. c #BCCEC1",
"c. c #BDD3C7",
"v. c #BDDCC6",
"b. c #BBDCCB",
"n. c #C3C2C4",
"m. c #CACACD",
"M. c #C6D0C4",
"N. c #C3D6C9",
"B. c #CBD4CA",
"V. c #C5DCCD",
"C. c #CBDBCE",
"Z. c #D4CCD1",
"A. c #D8D0D7",
"S. c #D4D8D6",
"D. c #E0D9DF",
"F. c #C2E0CC",
"G. c #CBE4D4",
"H. c #D2E9D6",
"J. c #D2E8DA",
"K. c #E0E7DF",
"L. c #DBE9E2",
"P. c #DBF5E4",
"I. c #E3EEE6",
"U. c #ECE2EA",
"Y. c #EAEFE8",
"T. c #E5F5E5",
"R. c #E6F4EB",
"E. c #E9F5EC",
"W. c #E9FBEC",
"Q. c #F0F3EE",
"!. c #EBEEF1",
"~. c #F6ECF1",
"^. c #EEFCF3",
"/. c #EBFBFA",
"(. c #F3F7F5",
"). c #F9F7F5",
"_. c #F4FCF5",
"`. c #FCFDF5",
"'. c #FCF6FB",
"]. c #F6FEFB",
"[. c #FDFDFD",
/* pixels */
"[.[.[.[.].].].].[.[.[.[.[.[.].[.[.[.[.[.[.].[.`.[.`.`.`.`.",
"[.[.[.[.[.[.[.[.[.[.[.[.[.[.[.[.[.[.[.`.[.[.[.[.[.`.[.[.`.",
"[.[.[.[.[.[.[.[.[.[.[.[.[.[.[.[.'.'.[.[.[.[.[.[.[.[.[.[.[.",
"[.[.[.[.[.[.[.'.[.[.[.[.'.[.[.[.[.[.[.[.[.[.[.[.[.[.[.[.[.",
"[.[.[.[.[.[.[.[.'.[.[.`.).`.`.[.[.[.[.[.[.[.[.[.[.[.[.[.[.",
"].[.[.[.[.[.'.[.[.[.(.`.`.T.V.c.c.c.C.R.].[.[.[.[.[.[.[.[.",
"].[.[.[.[.[.'.[.).`._.H.t.%.W V V n 4 / j.T.`.[.[.[.[.[.'.",
"].[.[.[.[.'.[.[.^.P.i.N H c c :.| } g B U ! F.].`.[.[.[.[.",
"].[.'.'.[.'.`.^.J.~ v -.:.-.A  .5.5.A J #.+.;.F._.`.`.[.'.",
"!.'.U.U.'.[.[.^.$.v a ' 6.=.i _ 4.o.u { 4.@.j ~ G.].[.[.[.",
"m.!.A.z.[.[.[.b.N <.*.s ] 3.s A ) ` u o.3.#.j g f.W.`.'.[.",
"m.z.D.d.~.[.].f.B ,.6. .u ` f e Z f = ) 3.) D O.~ G.[.[.'.",
"!.x.A.Z.Z.`.^.r.5 [ *.>.z t j @ 2 ; l A ) A =.<.1 a.].'.'.",
"/.S.l.m.n.[.W.V J D A ..) d d 6 7 * ; e e &.,.I & e.].'.[.",
"/.x.8.w 8.v.k.y &.*.X.C j , Y h.V.a.< x v ' D P H $.L.[.[.",
"b.$.R ! b - g s _ =.4.J 2 w x.`.[.!.0.* 5 a ' ,.&.5 V.[.`.",
"$.& b ~ k # f 3.s { :.I % / W.`.`._.L.< ; P =.] p c 1.c._.",
"O T Q Q U d d #.{ s ,.B 3 p.`._.`.`.W.0 ; v i (  .,.g 9 g.",
"@ W Q Y M G d #.#.t D 8 8 H.`.`.`._.E.0 & ; s  .2.4.Z L & ",
"X X o X # G @ G K h 5 8 ^ T._.`.[._.^.u.& F S ] o.A P <.. ",
"+ $     : : , U m * @ R N.].`.`.].[.].G.* 3 5 r f [ <.O.. ",
"9.q $ > $ + > 6 < 9 q.J.`.[.[.[.].[.].R.8.% * 1 x H x 3 1.",
"Q.y.q w 7.8.w.w.x.R.].[.[.[.[.[.[.[.'.].R.s.E 9 7 7 R a.R.",
"`.Q.S.B.Y.[.`.`.[.[.[.[.[.[.[.[.[.[.'.[.[.(.K.B.M.C.I./.].",
"`.[.[.[.[.[.[.[.'.[.'.'.[.'.[.[.[.[.[.[.'.[.'.[.[.[.`.[.[.",
"`.[.[.[.[.[.[.[.[.[.[.[.[.[.[.[.[.'.[.[.[.[.[.`.[.[.[.[.[.",
"[.[.[.[.[.[.[.[.[.'.[.[.[.[.[.`.[.[.[.[.[.[.[.`.'.[.'.[.[.",
"[.`.].[.].[.[.[.[.[.[.[.`.`.`.`.`.[.].[.].(.[.`.).[.[.[.[.",
"`.[.[.[.].[.[.`.[.`.`.`.`.`.`.`.`.`.[.].].]._.`.`.`.`.[.`."
};
