/* XPM */
static char *collectible[] = {
/* columns rows colors chars-per-pixel */
"29 29 174 2 ",
"   c #5B181F",
".  c #691A18",
"X  c #762520",
"o  c #325D28",
"O  c #3D6C29",
"+  c #3A6629",
"@  c #376731",
"#  c #3D6830",
"$  c #456C37",
"%  c #49753E",
"&  c #507A36",
"*  c #497B40",
"=  c #547750",
"-  c #597A54",
";  c #587948",
":  c #697D5F",
">  c #871F1C",
",  c #9D1D1B",
"<  c #A61D1A",
"1  c #97211F",
"2  c #841521",
"3  c #9E1830",
"4  c #AC1D24",
"5  c #A71D2A",
"6  c #B21026",
"7  c #B41D24",
"8  c #BA1E24",
"9  c #B51D29",
"0  c #BB1F2A",
"q  c #BD1F31",
"w  c #992526",
"e  c #8E352D",
"r  c #AA2224",
"t  c #A5232A",
"y  c #A52426",
"u  c #B32424",
"i  c #BC2126",
"p  c #B62826",
"a  c #B4212A",
"s  c #BD242B",
"d  c #B72C2C",
"f  c #A73929",
"g  c #A8392D",
"h  c #B6332C",
"j  c #BC2D32",
"k  c #BF3D36",
"l  c #C61D24",
"z  c #C41D2D",
"x  c #C91D26",
"c  c #D41D2C",
"v  c #D81F36",
"b  c #C42127",
"n  c #C2232B",
"m  c #CB232D",
"M  c #C42A2D",
"N  c #CA2127",
"B  c #D62821",
"V  c #D0252E",
"C  c #DC252D",
"Z  c #DA292F",
"A  c #CA3429",
"S  c #C82A31",
"D  c #D22632",
"F  c #DB2632",
"G  c #D42C32",
"H  c #DA2D33",
"J  c #DB2D3B",
"K  c #D42A39",
"L  c #CC3137",
"P  c #D4343E",
"I  c #E3242C",
"U  c #E2292C",
"Y  c #EC242D",
"T  c #E42432",
"R  c #E52934",
"E  c #EC2A33",
"W  c #E82632",
"Q  c #F12633",
"!  c #944629",
"~  c #A14633",
"^  c #B14735",
"/  c #DE3E4B",
"(  c #EF3943",
")  c #EB3547",
"_  c #F53F40",
"`  c #B2794D",
"'  c #DB4858",
"]  c #EA4A4E",
"[  c #ED4151",
"{  c #F54857",
"}  c #F74D5F",
"|  c #F14351",
" . c #EE585B",
".. c #EF5261",
"X. c #F65662",
"o. c #F17378",
"O. c #49873E",
"+. c #488C40",
"@. c #4C9943",
"#. c #599C44",
"$. c #67984D",
"%. c #5FA853",
"&. c #56AB53",
"*. c #67AC55",
"=. c #62BB5E",
"-. c #63B05A",
";. c #698468",
":. c #778E7C",
">. c #7F967F",
",. c #72BB61",
"<. c #7AC15E",
"1. c #75C46A",
"2. c #7DC86F",
"3. c #7FC973",
"4. c #AE8E55",
"5. c #AB8B58",
"6. c #AA915B",
"7. c #B8945A",
"8. c #A0AB5B",
"9. c #A99C62",
"0. c #9DAB60",
"q. c #90BF67",
"w. c #A9A166",
"e. c #A7B569",
"r. c #AFB276",
"t. c #CE8E57",
"y. c #8DC361",
"u. c #9DD474",
"i. c #DA7C81",
"p. c #7D9382",
"a. c #8B9C85",
"s. c #8B9989",
"d. c #8AA28D",
"f. c #90A08B",
"g. c #AEBDB2",
"h. c #E08686",
"j. c #EC8086",
"k. c #F38486",
"l. c #F5999C",
"z. c #EAA2A4",
"x. c #F4A4A2",
"c. c #F4AFAE",
"v. c #FAA4A7",
"b. c #EFB3B5",
"n. c #FAB7B8",
"m. c #B8CF8B",
"M. c #B4D4AD",
"N. c #BEC6B1",
"B. c #C6C8BF",
"V. c #C5CCC3",
"C. c #C8D2C8",
"Z. c #DFDEDF",
"A. c #D6D8D7",
"S. c #F8CDC7",
"D. c #F8CBC8",
"F. c #F5D0CF",
"G. c #F2CFD5",
"H. c #F7D6D5",
"J. c #F7D5D4",
"K. c #DCE0DE",
"L. c #D7F1D2",
"P. c #D6DEE4",
"I. c #DCE3E0",
"U. c #EAECEB",
"Y. c #FBE4E5",
"T. c #F6EBE8",
"R. c #FAF1EC",
"E. c #F4F4F5",
"W. c #F9F4F2",
"Q. c #F6FCF4",
"!. c #FCFCF6",
"~. c #F6FDFD",
"^. c #FEFEFE",
"/. c #FCF7F9",
/* pixels */
"^.^.^.^.^.^.^.^.^.^.^./.^.^.^.^./.^.^.^.^.^.^.^.^.^.^.^.^.",
"^.^.^.^.^.^.^.^.~.^./.~.^.~.~.~.^.^.^./.^.~.^.^.^.^.^.^.^.",
"^.^.^.^.^.^.^.^.^.^.~.~.^./.^.^./.^.^.^.!.^.^.^.^.^.^.^.^.",
"^.^.^.^.^.^.^.^.^.^.^.^.^.^.^.^.~.~.^.^.^.!.^.^.^.^.^.^.^.",
"^.^.^.^.^.^.^.^.^.^.^.!.T.G.D.D.R.~./.^.~.^.^.^.^.^.^.^.^.",
"^.^.^.^.^.^.^.^.^.^.~.Y.l...{ X.v.T.^.^.^.^.^.^.^.^.^.^.^.",
"^.^.^.^.^.^.^.^./.^.Q.c.) Y B Q } D.~.^.^.^.^.^.^.^.^.^.^.",
"^.^.^.^.^.^.^.^.^.^.J.[ R W w r E o.T.~.^.^.^.^.^.^.^.^.^.",
"^.^.^.!.^.^.^.^.^.W.x.T c W n 8 I ] n.^.^.^.^.^.^.^.^.^.^.",
"^.^.^.^.^.^.^.^.!.c./ F C U I C R E X.H.~.~.^.^.^.^.^.^.^.",
"^.^.^./.^.^.^.^.R.o.G c D Z U I T R _ l.W./.^.^.^.^.^.^.^.",
"~.^.^.^.^.^.^./.b.P M 9 9 I I C I n M  .S./.^.^.^.^.^.^.^.",
"^.^.^.^.~.~.!.H.' x z w 5 T F F R s < E j.Y.^.^.^.^.^.^.^.",
"^.^.^.^.^.!.Y.h.j n N n m N m V J H C R | v.W./.^.^.^.^.^.",
"^.^.^.^.!.^.z.L s j S p s K S D P G U H Q X.J.^.^.^.^.^./.",
"^.!.^././.J.' 7 5 3 s d i M w r K F V D u J i.Y.^.^.!.^.^.",
"~./.^.~.R.i.n 9 5 . 6 n l m y 4 m m 0 v X n | x./.^.!.!.^.",
"^.~./.^.L.r.^ 7 r , 7 u 7 z 0 i s n i c r M t.m.L.^.^.~.^.",
"!.~.^.^.M.=.9.k 4 u 4 w 9 x b 7 s 7 7 l A 7.u.<.M.^.^.~.~.",
"^.!.^.^.N.& $.w.^ 9 3   2 s x m z 5 > g ` 0.#.* B.^.!./.~.",
"^.!.^./.U.:.# *.e.5.~ e t a u d p f ! 9.2.&.@ >.E.^.Q.^.^.",
"^./.^.~.^.P.: + %.1.y.8.4.6.6.9.5.e.q.,.@.$ :.Z.^.^.^.^.!.",
"^.^.^.^.^.^.A.: $ * +.&.1.2.2.1.1.*.O.* % ;.Z.~.^.^.^.^.^.",
"^.^.^.^.^.^.^.A.g.a.= + + O @ @ + o - f.g.I.~././.^.^.^.^.",
"^.^.^.!.^.^.^.^.^.U.V.s.a.a.a.w.f.s.C.E.^.^.^.^.^.^.^.^.^.",
"^.^.^.^.^.^.^.!.^.^.^./.~.~.~.~.~./.^.^.^.!.^.^.^.^.^.^.^.",
"^.^.^.^.^.^.^.^.^.^.^.^.^.^.^.^.^.^.^.~.^.^.^.^.^.^.^.^.^.",
"^.^.^.^.^.^.^.^.^.^.^.!.^.!.!.!.!.~.^.^.^.^.^.^.^.^.^.^.^.",
"^.^.^.^.^.^.^.^.^.!.^.^.^.^.^.^.^.^.^.^.^.^.^.^.^.^.^.^.^."
};
