/* XPM */
static char *exit[] = {
/* columns rows colors chars-per-pixel */
"29 29 192 2 ",
"   c #121212",
".  c #131313",
"X  c #141414",
"o  c #151515",
"O  c #161616",
"+  c #171717",
"@  c #181818",
"#  c #191919",
"$  c #1A1A1A",
"%  c #1B1B1B",
"&  c #1C1C1C",
"*  c #1D1D1D",
"=  c #1E1E1E",
"-  c #1F1F1F",
";  c #1F2124",
":  c #202020",
">  c #212121",
",  c #212122",
"<  c #222222",
"1  c #232323",
"2  c #202124",
"3  c #212225",
"4  c #212326",
"5  c #222326",
"6  c #222427",
"7  c #232427",
"8  c #232527",
"9  c gray14",
"0  c #252525",
"q  c #262626",
"w  c #272727",
"e  c #292826",
"r  c #2F2C27",
"t  c #232528",
"y  c #222429",
"u  c #242528",
"i  c #262729",
"p  c #26272A",
"a  c #272829",
"s  c #27292C",
"d  c #282828",
"f  c #292929",
"g  c #29292A",
"h  c #2A2A2A",
"j  c #2A2A2B",
"k  c #2B2B2B",
"l  c #2D2B29",
"z  c #2E2D2B",
"x  c #292A2C",
"c  c #2A2A2C",
"v  c #2A2B2C",
"b  c #2A2B2D",
"n  c #2B2C2C",
"m  c #2B2C2D",
"M  c #2C2C2C",
"N  c #2D2D2D",
"B  c #2F2E2D",
"V  c #2D2D2E",
"C  c #2E2E2E",
"Z  c #34322F",
"A  c #35332F",
"S  c #3F392E",
"D  c #373430",
"F  c #4F4635",
"G  c #504735",
"H  c #574A30",
"J  c #524835",
"K  c #514836",
"L  c #564B35",
"P  c #574C37",
"I  c #5D533F",
"U  c #605134",
"Y  c #605338",
"T  c #615439",
"R  c #625439",
"E  c #645539",
"W  c #66573A",
"Q  c #69593B",
"!  c #6F5D3A",
"~  c #725F3B",
"^  c #74613C",
"/  c #77633D",
"(  c #78643E",
")  c #7B673E",
"_  c #7D683E",
"`  c #7D683F",
"'  c #7F693F",
"]  c #484848",
"[  c #4B4B4B",
"{  c #50504E",
"}  c #5A5A5B",
"|  c #5B5B5B",
" . c #5C5C5C",
".. c #5D5D5D",
"X. c #6E6146",
"o. c #716347",
"O. c #7F6A40",
"+. c #716348",
"@. c #6C675D",
"#. c #707070",
"$. c #737270",
"%. c #767575",
"&. c #767675",
"*. c #787774",
"=. c #806A3F",
"-. c #816B40",
";. c #816C41",
":. c #826C41",
">. c #836D41",
",. c #846E41",
"<. c #897244",
"1. c #8D7546",
"2. c #907747",
"3. c #927948",
"4. c #937A49",
"5. c #947B49",
"6. c #957B49",
"7. c #967C49",
"8. c #957C4A",
"9. c #977D4A",
"0. c #977D4B",
"q. c #977E4B",
"w. c #987E4B",
"e. c #997E4B",
"r. c #997F4B",
"t. c #8B7852",
"y. c #8E7951",
"u. c #917C53",
"i. c #937D52",
"p. c #967F51",
"a. c #947E53",
"s. c #957F54",
"d. c #817D76",
"f. c #9E834E",
"g. c #948055",
"h. c #978156",
"j. c #978357",
"k. c #A38750",
"l. c #A98C53",
"z. c #AD8F55",
"x. c #AD9055",
"c. c #B6975A",
"v. c #BA9A5B",
"b. c #C2A160",
"n. c #CBA864",
"m. c #CEAB65",
"M. c #D2AF68",
"N. c #D5B269",
"B. c #D8B46A",
"V. c #D9B46B",
"C. c #DAB56C",
"Z. c #DDB76D",
"A. c #DFB96E",
"S. c #C0A97B",
"D. c #CBAF79",
"F. c #E1BB6F",
"G. c #E2BB6F",
"H. c #E4BD72",
"J. c #E0BE7C",
"K. c #E6C375",
"L. c #E7C376",
"P. c #ECC474",
"I. c #EFC675",
"U. c #E7C27B",
"Y. c #E7C47B",
"T. c #EAC47C",
"R. c #F0C776",
"E. c #F1C776",
"W. c #F1C876",
"Q. c #F3CA79",
"!. c #F7CC79",
"~. c #F7CD79",
"^. c #F6CE7A",
"/. c #F7CE7A",
"(. c #F6CF7A",
"). c #F6CE7B",
"_. c #F0CA7C",
"`. c #F8CD7A",
"'. c #FAD07B",
"]. c #FDD17C",
"[. c #FCD17D",
"{. c #FED27C",
"}. c #FFD37D",
"|. c #FFD47D",
" X c #FCD57F",
".X c #FFD47E",
"XX c #FFD57E",
"oX c #FFD67F",
"OX c #FFD77F",
"+X c #FFD880",
"@X c #FFD980",
"#X c #FFDA80",
/* pixels */
"O @ @ $ = * * = & & * $ * - * * & $ @ @ + @ O O o X X O + ",
"+ + + $ = * > 1 < < 1 - > 1 > : > = $ # + O + O O X   . o ",
"+ $ # & < > 9 0 w f h w d w 0 < > - % # + O O O O o . . X ",
"% - = - 9 w k M h h p p v C V d 1 - & % $ # + O o o O X X ",
"* > - < w h N N ] { t.u.X.s C k w 1 - * % $ @ O X X O X X ",
"& = = > w M M [ $.S. X@XK.o.x k w 9 : = & $ $ + o o o O o ",
"% * = < w M [ #.*._.}.}.oXL.+.i w 1 > - = # # @ O o o o o ",
"* = - 9 f k ..&.D.[.}.}.}.#Xj.u d 1 : - * # # # @ o X . X ",
"& = > 1 d k  .&.Y.|.}.}.}.+Xh.u d 0 > > - $ + + O O o o X ",
"* > 1 9 d k  .&.U.|.}.}.}.+Xh.t d q < > > = $ @ @ + + o o ",
"* 1 9 0 k M  .&.U.|.}.}.}.+Xs.6 d q , > - * # $ + O + + X ",
"& : > 9 k M | &.U.|.}.}.}.+Xs.5 d q < < : = $ $ + O + + o ",
": < 9 q M M | &.U.|.}.}.}.@Xi.3 d q 1 9 > - & % + o O O o ",
"> 1 9 w k M  .&.U.|.}.}.}.@Xi.3 w 0 < 1 - - * & # O O O o ",
": : < 0 f k  .&.U.|.}.}.}.+Xa.7 w 9 1 < = - & $ # O o O O ",
"> < 0 w h k  .&.U.|.}.}.}.+Xs.8 w 0 0 < : : = & $ O o O O ",
"1 9 d f k k  .&.U.|.}.}.}.+Xs.6 q 0 0 > : > * $ # O o + @ ",
"1 9 d f k k  .&.U.|.}.}.}.+Xs.6 q 0 0 1 > > * % # + O @ @ ",
"e l z n V M  .%.U.|.}.}.}.@Xa.2 0 9 1 1 1 > - * % @ @ @ + ",
"~ / E A D B } d.T.XX}.}.}.@Xa.; 0 9 1 0 9 < - & % @ + @ + ",
"5.>.:.O.;.L @.J.{.H.].}.}.@Xa.4 d q q w 1 : & $ & $ # $ @ ",
"w.w.w.9.6.q.Z.XX).I Q.}.}.+Xs.u k f d w 1 > * & % + + # @ ",
"w.0.5.k.v.F.XXXXM.y.`.}.}.#Xg.y c h h f q 0 > > - @ O + + ",
"5.f.b.C.OX.XXXV.c.(.}.}..XW.p.K G Z m g d w 1 1 > % + O O ",
"m.B.XXXX}.XXG.n.^.|.}.}.oXN.7.5.,.Y P J k g a d 0 = @ + + ",
"oXXX}.}.|.I.A./..X}.}.XXP.x.9.r.3.2.2.' T R F b j q * @ @ ",
"}.}.}.}.}.!.'.|.}.}..XR.z.8.w.w.e.r.e.3.2.-.( W Q S , = % ",
"}.}.}.}.}.}.}.}.}.}.E.l.0.w.w.w.w.w.w.e.w.4.1.=.-.! U H r ",
"}.}.}.}.}.}.}.}.}.~.l.0.w.w.w.w.w.w.w.w.w.e.9.8.<.` _ ) ^ "
};
