/* XPM */
static char *test[] = {
/* columns rows colors chars-per-pixel */
"29 29 34 1 ",
"  c #544E54",
". c #565153",
"X c #575359",
"o c #5A555B",
"O c #5D595E",
"+ c #605D5F",
"@ c #63615E",
"# c #5F5B62",
"$ c #625E64",
"% c #645E69",
"& c #656265",
"* c #696566",
"= c #666369",
"- c #6A656B",
"; c #67686A",
": c #6C6A6D",
"> c #716D6E",
", c #72706F",
"< c #6C6770",
"1 c #6E6B71",
"2 c #726D73",
"3 c #746F78",
"4 c #6F7072",
"5 c #747274",
"6 c #787677",
"7 c #7A7877",
"8 c #76747A",
"9 c #79767B",
"0 c #77787B",
"q c #7B7A7C",
"w c #7B7780",
"e c #7C7B82",
"r c #818084",
"t c #818288",
/* pixels */
"weteeeeeeeeerew36tet0eeere6ee",
"527q641q0063905::q652666q5180",
"#o*;&O#<;$##=;&Xo:$+o&;;&##%<",
";=1-==%-1;;;1-===2=-$=2;==%<#",
"66833655660661256886356>3595#",
"55-;255>;552;=:5>>23,>>-141;#",
":=##--&%#==&O#=-%$%<**$$=*$OX",
"2-==>1--;<1<==22<%-2:---11$==",
"019ee68w9eq60q999eq7697qq6360",
"3;565136552>68822836:2365>:20",
"-$<;**-35*:*22<*=3-<%28>*;&>3",
"3-;=<3132=2222>--1-1<22%;2>35",
"86223868368839355589968236696",
";=$$;21*$*22--*>*$-31-%$=2::=",
">:--2322*;32<>>>--;54<;;;51::",
"85rqqq8qq7q9qw623t0059qqe986e",
"=*25>-:5,,>-25>$*6>>$-355-=18",
"o+=%$$+-:%$+=*+o$1$%o$;&+o#=%",
"8382382236628<<333-7535:1883#",
"q856677769368-277638576>3065#",
"2>*<>2>*%>2<*$->-%%22:*$-3;$X",
"5%%%22-%%-2*$%22%%<82%%*<2$%&",
"7239w639q6q359q9269w22q706<36",
"627q636qw7q336q656w828qq7545q",
">%22><-22>>-222<-815;;52>:-25",
"**---<->>*<%::<*=-=<=;2;*-=2;",
">>>-22222:2>>3>:<<*1451&-522>",
"2>>5992>296356,,413555,:35555",
"%$..$<*+ +%-$++@OXX-;&X.#<&OO"
};
