/* XPM */
static char *wall[] = {
/* columns rows colors chars-per-pixel */
"29 29 61 1 ",
"  c #423C45",
". c #4C4247",
"X c #46434F",
"o c #4B444D",
"O c #4D494D",
"+ c #524D4E",
"@ c #4C4650",
"# c #4E4B51",
"$ c #524B55",
"% c #564D58",
"& c #555355",
"* c #595255",
"= c #5B5C57",
"- c #57535D",
"; c #5A555B",
": c #5C5A5C",
"> c #605C5D",
", c #60625D",
"< c #5B5661",
"1 c #5E5B62",
"2 c #635D63",
"3 c #635E68",
"4 c #5F6761",
"5 c #656265",
"6 c #696466",
"7 c #666867",
"8 c #686867",
"9 c #66636A",
"0 c #6B656B",
"q c #676868",
"w c #6C6A6C",
"e c #70676E",
"r c #726D6E",
"t c #72716E",
"y c #79736F",
"u c #6A6671",
"i c #6E6B72",
"p c #6E6D78",
"a c #726D73",
"s c #736E79",
"d c #6B7074",
"f c #757374",
"g c #797576",
"h c #777873",
"j c #7A7976",
"k c #76737A",
"l c #79767B",
"z c #7C7A7C",
"x c #817D7D",
"c c #777582",
"v c #7B7782",
"b c #7D7C82",
"n c #7F7D8A",
"m c #817E83",
"M c #817D89",
"N c #7F8085",
"B c #838186",
"V c #838289",
"C c #88838A",
"Z c #888690",
"A c #8B8B91",
/* pixels */
"blAbbBbnbNmMMVbubBNbncVbBMsMN",
"fwzhjwflhhjdlhj1fjhhwhhhjf0hh",
"2;f00;>pwq519iw+5r62;0wqq5<ww",
"1-0111-1011<191$39<1--03<1-u<",
"BzzkzbbljbmmBafBmzzBzzlflbxz1",
"hjfwhfhg0lfhf6whgeglyxy0ahhd1",
"5;$@13**$-1-#o12;$%31&*#<1&#X",
"kpiskcpkikkfikkkssakkikisl9pp",
"lufzlkkjlzzazlzalvzlkklzzlwkk",
"f5hhfialhffwlgxealth0ahffa6fz",
"e>dd090fhq05ey625l0u2ela602fw",
"e0919kia0<k0eaee001aiaa19f0af",
"zflkvlkllbzlbllffzmmkzlfkklzf",
"002;qdd6;qdi05qw5=3sw83;0fwq7",
"iqe3akde36hdwww0d59kp0w5wk5uq",
"cwCzbzzmzzzkbzN9cNzxkpNzxzpbz",
"w5zfg0rxfff0kkj:axhy6elhkawkl",
"&o9-*$$36**$-q: <3$-@%9:&&@51",
"bkMllvkfxlxlbaacvbuMlflfabkb1",
"jjffhggxalkll0wzjfrzfxluazjk<",
"fr00ayar2aar020ar60atr030feq-",
"a3%;0a2;;1i>*;ue>;<s0->;00*--",
"xlcCBmcmCmmzlVmmaMVBcaCCxCuVB",
"f0lhyaslhflrkkxralkfawkjffiiz",
"y2lld00ggfw6aff6rlfa90lfd05ff",
"323>50600-05000225;a55i:5q2e0",
"aeyassaksplafkfwaausfkkwukffd",
"laysbkkfazkkfkhffaslffapkkffl",
"5>+.3w4;+$q8,&=7:o#w7,&.1w4=&"
};
