/* XPM */
static char * avatar_right_xpm[] = {
"32 32 668 2",
"  	c None",
". 	c #FEFFF6",
"+ 	c #FCFFF6",
"@ 	c #FCFFF8",
"# 	c #FCFFFA",
"$ 	c #FCFFFB",
"% 	c #F8FDF9",
"& 	c #FCFFFD",
"* 	c #FBFFFC",
"= 	c #F8FAF9",
"- 	c #FEFFFF",
"; 	c #FDFFFE",
"> 	c #F4F8F7",
", 	c #FAFEFD",
"' 	c #FCFDFF",
") 	c #FBFCFF",
"! 	c #FCFFFF",
"~ 	c #FBFFFF",
"{ 	c #F9FFFF",
"] 	c #F7FFFF",
"^ 	c #F8FFFF",
"/ 	c #FFFDFF",
"( 	c #FFFCFB",
"_ 	c #FFFBFB",
": 	c #FEFFF8",
"< 	c #FEFFFA",
"[ 	c #FEFFFB",
"} 	c #FEFFFD",
"| 	c #FBFDFA",
"1 	c #F6F8F5",
"2 	c #FFFFFF",
"3 	c #FCFCFC",
"4 	c #FFFEFF",
"5 	c #F9FDFF",
"6 	c #F9FEFF",
"7 	c #FFFCFD",
"8 	c #FFFFFD",
"9 	c #FBF6FA",
"0 	c #FEF9FD",
"a 	c #FCF7FB",
"b 	c #F7F5F6",
"c 	c #FFFAFE",
"d 	c #FFF9FD",
"e 	c #FFFEFD",
"f 	c #FFFDFD",
"g 	c #FAF4F8",
"h 	c #FEF8FC",
"i 	c #FFFBFF",
"j 	c #FFFCFF",
"k 	c #FFFAFF",
"l 	c #F8F8F6",
"m 	c #FFFFFB",
"n 	c #FCF9F4",
"o 	c #F7F2EE",
"p 	c #FFFAF8",
"q 	c #FFF8FF",
"r 	c #FBF9FA",
"s 	c #FBFBFB",
"t 	c #F6FCF8",
"u 	c #F6FFFA",
"v 	c #EFFCF5",
"w 	c #F7FFFD",
"x 	c #F7FFFB",
"y 	c #F1FBF0",
"z 	c #FFFEF9",
"A 	c #F9F4F1",
"B 	c #FFFAFB",
"C 	c #F9FFFD",
"D 	c #F9FFFB",
"E 	c #ECF9EF",
"F 	c #CDE2D3",
"G 	c #A5BDAD",
"H 	c #98B5A3",
"I 	c #88A795",
"J 	c #8EB19D",
"K 	c #8FB09B",
"L 	c #B7D3BD",
"M 	c #E1F6E3",
"N 	c #F4FFF4",
"O 	c #F8FFF6",
"P 	c #F3FAF2",
"Q 	c #FDFEF9",
"R 	c #FFF8FC",
"S 	c #FBFFFD",
"T 	c #F7FFFA",
"U 	c #F4FFF8",
"V 	c #D1EAD7",
"W 	c #8AAA93",
"X 	c #486F54",
"Y 	c #214E31",
"Z 	c #3B6C4E",
"` 	c #467C5C",
" .	c #4D8665",
"..	c #3E7452",
"+.	c #4D7C5C",
"@.	c #4C7557",
"#.	c #7A9E84",
"$.	c #CCECD5",
"%.	c #F1FFF6",
"&.	c #F6FFF9",
"*.	c #F4F9F3",
"=.	c #FFF9FF",
"-.	c #F8F6F9",
";.	c #F7FFF9",
">.	c #F3FFF7",
",.	c #EEFFF4",
"'.	c #98BCA2",
").	c #305D3C",
"!.	c #5A906C",
"~.	c #609D74",
"{.	c #498C61",
"].	c #71BA8D",
"^.	c #65B183",
"/.	c #75C495",
"(.	c #6BB88A",
"_.	c #3E8357",
":.	c #609E75",
"<.	c #54906A",
"[.	c #255B3B",
"}.	c #86B297",
"|.	c #D9F9E4",
"1.	c #EAFCF0",
"2.	c #FBFFFB",
"3.	c #FFF6FA",
"4.	c #FAF8FB",
"5.	c #F5FEFD",
"6.	c #FFF5FB",
"7.	c #F7FEF7",
"8.	c #F2FFF6",
"9.	c #EDFFF4",
"0.	c #95C0A2",
"a.	c #5D946D",
"b.	c #7DBC91",
"c.	c #6CB484",
"d.	c #489662",
"e.	c #40955E",
"f.	c #6BC48C",
"g.	c #70CB92",
"h.	c #63C087",
"i.	c #38925C",
"j.	c #54A874",
"k.	c #6CBB8B",
"l.	c #68B587",
"m.	c #79C096",
"n.	c #397752",
"o.	c #417255",
"p.	c #D5F4E2",
"q.	c #EBFBF0",
"r.	c #FCF3F6",
"s.	c #FCF1F7",
"t.	c #F3F7F8",
"u.	c #F7FFF7",
"v.	c #9FC8AA",
"w.	c #3E764F",
"x.	c #589C6D",
"y.	c #6AB884",
"z.	c #68C086",
"A.	c #54B276",
"B.	c #2E8E51",
"C.	c #51B376",
"D.	c #66C88B",
"E.	c #64C689",
"F.	c #208247",
"G.	c #4DAA71",
"H.	c #6BC68D",
"I.	c #71CB95",
"J.	c #489E6D",
"K.	c #388559",
"L.	c #4F8C6A",
"M.	c #517D64",
"N.	c #EEFFF8",
"O.	c #FFF4FB",
"P.	c #E4D9E1",
"Q.	c #EFE8EF",
"R.	c #E9EDF0",
"S.	c #FFFBFD",
"T.	c #FFF6F7",
"U.	c #F8FAF5",
"V.	c #F5FFF8",
"W.	c #E1FFE9",
"X.	c #497B58",
"Y.	c #408156",
"Z.	c #52A06C",
"`.	c #66BE84",
" +	c #65C385",
".+	c #60C383",
"++	c #2D9050",
"@+	c #52B273",
"#+	c #44A266",
"$+	c #50AB70",
"%+	c #338E53",
"&+	c #51B174",
"*+	c #6ECE91",
"=+	c #3FA166",
"-+	c #36935C",
";+	c #5AB07F",
">+	c #79C199",
",+	c #386F50",
"'+	c #AFD2BE",
")+	c #F4FFFA",
"!+	c #FFF5FC",
"~+	c #AFA4AC",
"{+	c #E7E0E7",
"]+	c #F6F7FB",
"^+	c #BDC1C4",
"/+	c #ECFEF0",
"(+	c #9FC2AA",
"_+	c #4A805E",
":+	c #72B78A",
"<+	c #31844E",
"[+	c #56B176",
"}+	c #66C488",
"|+	c #4BA96D",
"1+	c #177237",
"2+	c #3C9158",
"3+	c #4C9C67",
"4+	c #428C59",
"5+	c #2E7C48",
"6+	c #4EA66A",
"7+	c #57B676",
"8+	c #2B8B4C",
"9+	c #61C086",
"0+	c #6DC793",
"a+	c #6FBE91",
"b+	c #528F6D",
"c+	c #7FA991",
"d+	c #F2FFFA",
"e+	c #FCFEFB",
"f+	c #FFF9FC",
"g+	c #F4E7EE",
"h+	c #9B9098",
"i+	c #B3B4B8",
"j+	c #C8CDD0",
"k+	c #FEF5F8",
"l+	c #DFF3E7",
"m+	c #446A53",
"n+	c #619976",
"o+	c #7FC89B",
"p+	c #4A9E6A",
"q+	c #3F9A61",
"r+	c #61BC83",
"s+	c #49A26A",
"t+	c #3C8F59",
"u+	c #357D4D",
"v+	c #559467",
"w+	c #387148",
"x+	c #458354",
"y+	c #4B9B60",
"z+	c #2E8848",
"A+	c #46A565",
"B+	c #6BC98D",
"C+	c #66C08A",
"D+	c #5CAE7E",
"E+	c #2F6F4A",
"F+	c #81AD94",
"G+	c #E7FFF1",
"H+	c #FEF8F8",
"I+	c #C1B6BC",
"J+	c #DCD3D8",
"K+	c #DBD6DC",
"L+	c #ABAFB2",
"M+	c #EEF3F6",
"N+	c #F9EEF6",
"O+	c #D7EBE0",
"P+	c #204732",
"Q+	c #5C9574",
"R+	c #64AD82",
"S+	c #71C594",
"T+	c #459D6A",
"U+	c #2A814C",
"V+	c #30804D",
"W+	c #4F9467",
"X+	c #377149",
"Y+	c #315F3B",
"Z+	c #284D2E",
"`+	c #487450",
" @	c #529760",
".@	c #308242",
"+@	c #52AA6D",
"@@	c #6CC689",
"#@	c #459E66",
"$@	c #408F60",
"%@	c #4F916B",
"&@	c #416F53",
"*@	c #D9F4E3",
"=@	c #FEFAF9",
"-@	c #988D93",
";@	c #A09BA1",
">@	c #DBDEE3",
",@	c #C9E3D6",
"'@	c #326046",
")@	c #549471",
"!@	c #49966A",
"~@	c #5FB382",
"{@	c #64B887",
"]@	c #348155",
"^@	c #42835B",
"/@	c #255B39",
"(@	c #4D755A",
"_@	c #8CA891",
":@	c #A0B3A0",
"<@	c #557256",
"[@	c #34673C",
"}@	c #428751",
"|@	c #5BA872",
"1@	c #459862",
"2@	c #3E9560",
"3@	c #5CB07E",
"4@	c #73BE93",
"5@	c #25613D",
"6@	c #D0F8DE",
"7@	c #EBFFF0",
"8@	c #F8FFFA",
"9@	c #8B908A",
"0@	c #D1D6D2",
"a@	c #9BA19F",
"b@	c #E5F4F1",
"c@	c #F4FFFF",
"d@	c #FCF6F8",
"e@	c #F4FFF7",
"f@	c #61846E",
"g@	c #5F9B77",
"h@	c #77C498",
"i@	c #429867",
"j@	c #398D5C",
"k@	c #469168",
"l@	c #4B8867",
"m@	c #58846D",
"n@	c #496858",
"o@	c #DDEFE3",
"p@	c #EAEFE8",
"q@	c #DFEBDF",
"r@	c #5E7C62",
"s@	c #4D7C5A",
"t@	c #48855C",
"u@	c #4A9668",
"v@	c #7DD5A2",
"w@	c #53B07B",
"x@	c #61BE89",
"y@	c #267A48",
"z@	c #69AC81",
"A@	c #8ABE9A",
"B@	c #6D9678",
"C@	c #315139",
"D@	c #4A6753",
"E@	c #6D8A78",
"F@	c #A1C2B1",
"G@	c #E9FFFB",
"H@	c #FFF9F9",
"I@	c #EDFFF5",
"J@	c #47785A",
"K@	c #347D50",
"L@	c #72C996",
"M@	c #5EBB86",
"N@	c #5DB382",
"O@	c #357D55",
"P@	c #3F7659",
"Q@	c #244635",
"R@	c #ADC1B8",
"S@	c #E1EAE5",
"T@	c #FAFAF8",
"U@	c #F7FCF5",
"V@	c #A6B8A8",
"W@	c #44684E",
"X@	c #417755",
"Y@	c #63A77E",
"Z@	c #5AB17E",
"`@	c #66C88F",
" #	c #379B5F",
".#	c #47A46B",
"+#	c #398954",
"@#	c #05491A",
"##	c #447B53",
"$#	c #7EAC88",
"%#	c #8FB89A",
"&#	c #598167",
"*#	c #447055",
"=#	c #ADD9C0",
"-#	c #AFC7B7",
";#	c #669376",
">#	c #5A9B73",
",#	c #429662",
"'#	c #2B8A50",
")#	c #4FB176",
"!#	c #60BA86",
"~#	c #59A277",
"{#	c #417859",
"]#	c #436652",
"^#	c #F0FFF8",
"/#	c #FBFDF8",
"(#	c #F9FFF5",
"_#	c #ECFFEC",
":#	c #36583F",
"<#	c #3B6E4D",
"[#	c #63A67D",
"}#	c #64B886",
"|#	c #46A36C",
"1#	c #339356",
"2#	c #75D095",
"3#	c #69B881",
"4#	c #246734",
"5#	c #40784B",
"6#	c #517F5A",
"7#	c #66926F",
"8#	c #477052",
"9#	c #346142",
"0#	c #6F9D80",
"a#	c #A5C8B2",
"b#	c #446F54",
"c#	c #2C6842",
"d#	c #6BB788",
"e#	c #68C38A",
"f#	c #52B678",
"g#	c #37995C",
"h#	c #217A44",
"i#	c #479063",
"j#	c #336A4A",
"k#	c #51745E",
"l#	c #ECFFF2",
"m#	c #F9FFFA",
"n#	c #F2F3ED",
"o#	c #EBFEEB",
"p#	c #73937B",
"q#	c #467553",
"r#	c #5B9970",
"s#	c #70BE8E",
"t#	c #338A53",
"u#	c #5BB67B",
"v#	c #67BC81",
"w#	c #3E8951",
"x#	c #31713D",
"y#	c #6EA375",
"z#	c #68976D",
"A#	c #759F7B",
"B#	c #6F9876",
"C#	c #77A483",
"D#	c #093615",
"E#	c #1F5636",
"F#	c #6AA682",
"G#	c #40895C",
"H#	c #68BF8A",
"I#	c #52B676",
"J#	c #61C484",
"K#	c #31784C",
"L#	c #336947",
"M#	c #4C6D58",
"N#	c #F2FFF8",
"O#	c #EFF9F0",
"P#	c #FBFFF6",
"Q#	c #F5FFF4",
"R#	c #C1DDC6",
"S#	c #264F2F",
"T#	c #5A926B",
"U#	c #4F9769",
"V#	c #34824E",
"W#	c #5FB27A",
"X#	c #75C48D",
"Y#	c #397E48",
"Z#	c #538F5C",
"`#	c #73A779",
" $	c #4A774E",
".$	c #85AF87",
"+$	c #66906A",
"@$	c #719D79",
"#$	c #315D3A",
"$$	c #0E4E29",
"%$	c #76BA93",
"&$	c #57A575",
"*$	c #348B56",
"=$	c #53B175",
"-$	c #459E64",
";$	c #52A06E",
">$	c #56946B",
",$	c #2E5C3F",
"'$	c #9AB7A5",
")$	c #F1FBF2",
"!$	c #F7FDF3",
"~$	c #F2FEF0",
"{$	c #D3E8D5",
"]$	c #416348",
"^$	c #5F8C6B",
"/$	c #46835A",
"($	c #478A5E",
"_$	c #4D9263",
":$	c #67AB7A",
"<$	c #346F3F",
"[$	c #4D8254",
"}$	c #5E8B62",
"|$	c #032C04",
"1$	c #315730",
"2$	c #1A401B",
"3$	c #173F1C",
"4$	c #1F4724",
"5$	c #003311",
"6$	c #6FB18D",
"7$	c #77BE92",
"8$	c #5AA878",
"9$	c #42925D",
"0$	c #31814C",
"a$	c #3B8554",
"b$	c #428057",
"c$	c #4A7B5B",
"d$	c #2F523C",
"e$	c #DFF5E8",
"f$	c #F1FEF7",
"g$	c #FAFFFB",
"h$	c #F8FDF7",
"i$	c #FBFFF8",
"j$	c #F8FFF8",
"k$	c #A7BEAA",
"l$	c #43654C",
"m$	c #214E2F",
"n$	c #3F734F",
"o$	c #609871",
"p$	c #689F77",
"q$	c #4E7E56",
"r$	c #335D37",
"s$	c #597D59",
"t$	c #335232",
"u$	c #072606",
"v$	c #234222",
"w$	c #48694A",
"x$	c #28492A",
"y$	c #699E82",
"z$	c #2C6344",
"A$	c #4B8461",
"B$	c #76B28C",
"C$	c #5C9B70",
"D$	c #4E8B61",
"E$	c #4A825B",
"F$	c #3A6949",
"G$	c #274A34",
"H$	c #738B7D",
"I$	c #E7F6EF",
"J$	c #F8FCFD",
"K$	c #F9FEFA",
"L$	c #F6F8F3",
"M$	c #BBD0C1",
"N$	c #678772",
"O$	c #284B33",
"P$	c #335C3E",
"Q$	c #52795C",
"R$	c #4F7254",
"S$	c #476549",
"T$	c #223C21",
"U$	c #526A50",
"V$	c #51684E",
"W$	c #435A40",
"X$	c #556D53",
"Y$	c #738D74",
"Z$	c #DFFFF0",
"`$	c #83A594",
" %	c #426851",
".%	c #2C5338",
"+%	c #345B3E",
"@%	c #3B6245",
"#%	c #375940",
"$%	c #4F6A57",
"%%	c #8DA196",
"&%	c #E7F3EF",
"*%	c #F5F6F8",
"=%	c #FCFEFD",
"-%	c #F5FEF9",
";%	c #DBEFE3",
">%	c #9EB5A5",
",%	c #617866",
"'%	c #5E7360",
")%	c #536653",
"!%	c #576856",
"~%	c #5D6B5A",
"{%	c #475443",
"]%	c #424F3E",
"^%	c #8D9B8A",
"/%	c #EFFDEE",
"(%	c #E1F2EA",
"_%	c #D1E3D7",
":%	c #B0C2B4",
"<%	c #97AA97",
"[%	c #99AA9A",
"}%	c #ACBDAD",
"|%	c #DAE6DC",
"1%	c #EAF0EE",
"2%	c #FDFCFF",
"3%	c #F1F0F8",
"4%	c #FAFBFF",
"5%	c #FCFCFE",
"6%	c #EBF6EE",
"7%	c #F0F8ED",
"8%	c #BFC7BC",
"9%	c #A3A99F",
"0%	c #BAC0B6",
"a%	c #EAF1E9",
"b%	c #FBFFFA",
"c%	c #FDFFFA",
"d%	c #FEFFF7",
"e%	c #FFFFFA",
"f%	c #F6F7F1",
"g%	c #F3F3F1",
"h%	c #FDFAFF",
"i%	c #FBFAFF",
"j%	c #FEF7FE",
"k%	c #F9F7FC",
"l%	c #FEFCFF",
"m%	c #F4F6F5",
"n%	c #F9FBF8",
"o%	c #F9F9F7",
"p%	c #FDFDFB",
"q%	c #FFF8F9",
"r%	c #FFFBF9",
"s%	c #FFFDFB",
"t%	c #FFFEFB",
"u%	c #FAF5FB",
"v%	c #F9F6FF",
"w%	c #F9F6FD",
"x%	c #FDFBFF",
"y%	c #FFF7FF",
"z%	c #FDF8FE",
"A%	c #FBF6FC",
"B%	c #F7F5F8",
"C%	c #F9F9F9",
"D%	c #FFFDFE",
"E%	c #FFF7F6",
"F%	c #FFF7F5",
"G%	c #FCFBFF",
"H%	c #FDFDFF",
"I%	c #FEFEFF",
"J%	c #FAF9FF",
"K%	c #FFFEFC",
"L%	c #F8F8FA",
"M%	c #F7F7F7",
"N%	c #FAFAFA",
"O%	c #FDFBFC",
"P%	c #FCFAFB",
"Q%	c #FEF9FF",
"R%	c #F9F3F5",
"S%	c #FFFDFA",
"T%	c #FFFEFA",
"U%	c #FFFCF9",
"V%	c #F2F1EF",
"W%	c #FAFBFD",
"X%	c #FCFBF6",
"Y%	c #FFF9FB",
"Z%	c #FBF5F7",
"`%	c #FDF7F9",
" &	c #F9F7F8",
".&	c #FCFCF4",
"+&	c #F7F7EF",
"@&	c #F0F9F4",
"#&	c #F6FFFD",
"$&	c #FDFEF6",
"%&	c #FFFEF2",
"&&	c #FFFFF3",
"*&	c #F3FBF0",
"=&	c #F8FFF9",
"-&	c #FAFCFB",
";&	c #F6FBF7",
">&	c #F4FAFA",
",&	c #FFFFF8",
"'&	c #F8FFFB",
")&	c #F2FEFA",
"!&	c #F7FFFC",
"~&	c #FEFCEF",
"{&	c #F9FFF6",
"]&	c #F9FFF8",
"^&	c #F9FCF5",
"/&	c #FEFDF9",
"(&	c #FBFAF6",
"_&	c #FAFCF7",
". . + @ @ # $ $ % & * & = - = ; > , - ' ) ! ~ { ] ] ^ ~ - / ( _ ",
": : : < < [ [ } | ; 1 - 2 2 2 2 - - 3 2 2 4 5 6 { ^ { ~ - 4 7 _ ",
"8 8 8 8 8 4 4 4 4 / 4 / 9 0 a 4 b 4 4 c d / 4 4 ! ! ~ ! - 2 e f ",
"2 4 4 / / / / / g h c i a c / 4 ( e f j j j j k 4 4 - - - - 8 8 ",
"/ / / j j i i i j / / 4 4 2 ; l m n o p 7 i q i i / / 2 - ! & & ",
"j j i j j j / / r s } t u v w x y @ : z A B i k k k j / 2 ! C C ",
"i i j / 4 2 - & D E F G H I J K L M N O P Q f R k k k j 4 ! { ^ ",
"i i / 4 - S T U V W X Y Z `  ...+.@.#.$.%.&.*.e 7 k k i / - { ^ ",
"=.i -.} ;.>.,.'.).!.~.{.].^./.(._.:.<.[.}.|.1.2.e 3.=.k j 4.~ 5.",
"6.j 8 7.8.9.0.a.b.c.d.e.f.g.h.i.j.k.l.m.n.o.p.q.[ r.k k s./ t.~ ",
"i B m u.,.v.w.x.y.z.A.B.C.D.E.F.G.H.I.J.K.L.M.N.D 4 i O.P.Q.- R.",
"S.T.U.V.W.X.Y.Z.`. +.+++@+#+$+%+&+*+=+-+;+>+,+'+)+8 R !+~+{+]+^+",
"k 7 [ /+(+_+:+<+[+}+|+1+2+3+4+5+6+7+8+9+0+a+b+c+d+e+f+g+h+k i+j+",
"k k+[ l+m+n+o+p+q+r+s+t+u+v+w+x+y+z+A+B+C+D+E+F+G+2.H+I+J+K+L+M+",
"=.N+! O+P+Q+R+S+T+U+V+W+X+Y+Z+`+ @.@+@@@#@$@%@&@*@D =@-@i ;@>@{ ",
"=.k ~ ,@'@)@!@~@{@]@^@/@(@_@:@<@[@}@|@1@2@3@4@5@6@7@8@9@0@a@b@c@",
"=.d@e@f@g@h@i@j@k@l@m@n@o@D p@q@r@s@t@u@v@w@x@y@z@A@B@C@D@E@F@G@",
"H@$ I@J@K@L@M@N@O@P@Q@R@S@T@8 U@V@W@X@Y@Z@`@ #.#+#@###$#%#&#*#=#",
"T -#;#>#,#'#)#!#~#{#]#^#;./#m (#_#:#<#[#}#|#1#2#3#4#5#6#7#8#9#0#",
"a#b#c#d#e#f#g#h#i#j#k#l#m#[ n#@ o#p#q#r#s#t#u#v#w#x#y#z#A#B#C#D#",
"E#F#G#H#D.I#J#t#K#L#M#N#O## : P#Q#R#S#T#U#V#W#X#Y#Z#`# $.$+$@$#$",
"$$%$&$*$=$ +-$;$>$,$'$)+)$# < !$~${$]$^$/$($_$:$<$[$}$|$1$2$3$4$",
"5$6$7$8$9$0$a$b$c$d$e$f$S g$h$# i$j$k$l$m$n$o$p$q$r$s$t$u$v$w$x$",
"y$z$A$B$C$D$E$F$G$H$I${ ! J$K$} m L$T M$N$O$P$Q$R$S$T$U$V$W$X$Y$",
"Z$`$ %.%+%@%#%$%%%&%~ ) - ' *%2 c 4 =%-%N#;%>%,%'%)%!%~%{%]%^%/%",
"c@(%_%:%<%[%}%|%1%! 2%3%4 4 4%4 i i / 5%! ~ C 6%m#m#7%8%9%0%a%b%",
"- - } c%d%e%f%g%4 / h%h%/ / i%4 i k j j%k%l%2 2 m%- } n%g%o%p%o%",
"i j / q%r%s%t%/ u%v%/ / / w%x%4 k y%q j j i z%A%4 B%C%2 2 4 D%4 ",
"i j j 7 E%F%t%4 4 G%H%I%J%/ 8 K%4 l%k j / j / / 4 4 2 L%M%N%O%P%",
"/ Q%R%7 S%T%U%V%- ! ~ ~ W%8 e%X%} - 2 4 Y%Z%`%D% &2 - - - 2 2 4 ",
"! - p%m .&+&: $ @&#&^ { $ $&%&&&*&=&$ m e e e e 8 -&t S S ;&| 8 ",
">&! % < ,&. @ )$'&w )&!&b%. ~&&&{&j$]&^&/&t%t%(&8 & S C S & $ _&"};
