/* XPM */
static char * collectible_xpm[] = {
"32 32 528 2",
"  	c #FFFFFF",
". 	c #FFFCFF",
"+ 	c #FFFEFF",
"@ 	c #FEFCFF",
"# 	c #FFFCFD",
"$ 	c #FFF9FA",
"% 	c #FFFDFD",
"& 	c #FDFDFF",
"* 	c #FCFCFE",
"= 	c #FFF5F6",
"- 	c #FEFFFD",
"; 	c #F9FFFF",
"> 	c #FFFDFF",
", 	c #FFFBFF",
"' 	c #F2FFFF",
") 	c #F9FAFC",
"! 	c #FCFEFB",
"~ 	c #F2FDF7",
"{ 	c #F8FFFD",
"] 	c #F5FFFC",
"^ 	c #F7FFFF",
"/ 	c #F5FFFF",
"( 	c #FCFFFD",
"_ 	c #F8FFFC",
": 	c #FBFFFD",
"< 	c #FCFCFA",
"[ 	c #F9FBFA",
"} 	c #FFFCFC",
"| 	c #FFFEFD",
"1 	c #F7FFFD",
"2 	c #FFF5FC",
"3 	c #FFF7FF",
"4 	c #FFF6FC",
"5 	c #FFFFFB",
"6 	c #FCFFFB",
"7 	c #FFF7F7",
"8 	c #FDFBFC",
"9 	c #FBFFFF",
"0 	c #FCFDFF",
"a 	c #FEFFFF",
"b 	c #FBF5F9",
"c 	c #FDFEFF",
"d 	c #FFFDFE",
"e 	c #FFFFFD",
"f 	c #FFF7F5",
"g 	c #FEFCFD",
"h 	c #FFF9FF",
"i 	c #FBFAFF",
"j 	c #F2FFF6",
"k 	c #FEFEF6",
"l 	c #F6FCF0",
"m 	c #F9FCF5",
"n 	c #F5FFFD",
"o 	c #FFF6FF",
"p 	c #FDFDFB",
"q 	c #F8FFFF",
"r 	c #FAFBFF",
"s 	c #FFE9E5",
"t 	c #EA9FA3",
"u 	c #FF8894",
"v 	c #FD8B95",
"w 	c #F19CA3",
"x 	c #FFF7F0",
"y 	c #F1FFFA",
"z 	c #FCFFFF",
"A 	c #FFF6FB",
"B 	c #F3FFFA",
"C 	c #FFE6E1",
"D 	c #F77F8B",
"E 	c #ED3044",
"F 	c #ED1D2D",
"G 	c #EB2131",
"H 	c #F9314B",
"I 	c #FC979F",
"J 	c #EBEDE0",
"K 	c #FEFDFF",
"L 	c #F8FDFF",
"M 	c #FAFCF9",
"N 	c #FFFAFD",
"O 	c #FEFEFC",
"P 	c #F2FFF1",
"Q 	c #FFBFBD",
"R 	c #DF2439",
"S 	c #F51F2B",
"T 	c #D73727",
"U 	c #C42B1B",
"V 	c #FF2235",
"W 	c #EE495A",
"X 	c #FDDCD3",
"Y 	c #F7FFF8",
"Z 	c #FFF8FB",
"` 	c #FDFCFF",
" .	c #F8FEFA",
"..	c #F0F1E1",
"+.	c #EF1935",
"@.	c #DB3634",
"#.	c #EC1D2D",
"$.	c #D22E39",
"%.	c #4F1C18",
"&.	c #CA2728",
"*.	c #F0282A",
"=.	c #EE626D",
"-.	c #F6FFFF",
";.	c #FFFBFA",
">.	c #FEFEFE",
",.	c #FDFFFE",
"'.	c #FBFCFE",
").	c #FDF9FA",
"!.	c #FAFFF5",
"~.	c #F7ADAA",
"{.	c #E62538",
"].	c #D81921",
"^.	c #F12733",
"/.	c #D9232F",
"(.	c #BA1C2A",
"_.	c #CD1924",
":.	c #EB2C31",
"<.	c #E65153",
"[.	c #FFCAC8",
"}.	c #F9FDFF",
"|.	c #FEFFFB",
"1.	c #FDFDFD",
"2.	c #FFFDFC",
"3.	c #F4FFFF",
"4.	c #FFFFF7",
"5.	c #F4ADAB",
"6.	c #DA2F3F",
"7.	c #D92531",
"8.	c #D92830",
"9.	c #DA252A",
"0.	c #E6292F",
"a.	c #E9262C",
"b.	c #DA2A34",
"c.	c #EF2B39",
"d.	c #EF232C",
"e.	c #F14F5A",
"f.	c #F9D9DA",
"g.	c #FAFFFC",
"h.	c #FCF6F6",
"i.	c #FFF8FF",
"j.	c #FFF8ED",
"k.	c #F6757A",
"l.	c #D72E35",
"m.	c #D41827",
"n.	c #D42534",
"o.	c #DA2631",
"p.	c #D8302D",
"q.	c #EB2427",
"r.	c #DF2530",
"s.	c #E32735",
"t.	c #EA2D33",
"u.	c #F53540",
"v.	c #F2A4A0",
"w.	c #FAFBF5",
"x.	c #FFF5FF",
"y.	c #FBFDFA",
"z.	c #FAFFFE",
"A.	c #F8FCFB",
"B.	c #EBCDC3",
"C.	c #D82737",
"D.	c #C12D2B",
"E.	c #CB2330",
"F.	c #BC1728",
"G.	c #D72130",
"H.	c #E61E29",
"I.	c #D42A2B",
"J.	c #DD1E26",
"K.	c #E22231",
"L.	c #C12028",
"M.	c #D63137",
"N.	c #F1585B",
"O.	c #F7DBCF",
"P.	c #FCFCFC",
"Q.	c #FBFDFC",
"R.	c #FFFCFE",
"S.	c #F8FFFE",
"T.	c #F3FEF8",
"U.	c #FFFEFB",
"V.	c #FFDBE0",
"W.	c #EB3355",
"X.	c #C11B25",
"Y.	c #C82329",
"Z.	c #8D1D19",
"`.	c #602513",
" +	c #EA233A",
".+	c #E62331",
"++	c #D92330",
"@+	c #EC2431",
"#+	c #9E1C1E",
"$+	c #8F1A11",
"%+	c #F12531",
"&+	c #F68A8A",
"*+	c #F5EBEC",
"=+	c #FCFEFD",
"-+	c #F8FEFC",
";+	c #FAFFF9",
">+	c #FFFCFA",
",+	c #FFEAEB",
"'+	c #DD9F94",
")+	c #A62329",
"!+	c #C7232C",
"~+	c #D41A28",
"{+	c #C72731",
"]+	c #CC2433",
"^+	c #CF1D2B",
"/+	c #CE252C",
"(+	c #C7282D",
"_+	c #D82632",
":+	c #E42E3D",
"<+	c #DB313A",
"[+	c #C92023",
"}+	c #F52231",
"|+	c #ED4552",
"1+	c #EFBEB0",
"2+	c #FFF4F8",
"3+	c #FFF2F3",
"4+	c #E6B9BE",
"5+	c #D32431",
"6+	c #C9232D",
"7+	c #BC272B",
"8+	c #CC282F",
"9+	c #B42625",
"0+	c #BF2428",
"a+	c #D7212D",
"b+	c #D22B32",
"c+	c #D12428",
"d+	c #D32639",
"e+	c #D03A43",
"f+	c #D22425",
"g+	c #F52A30",
"h+	c #D32E32",
"i+	c #F5233C",
"j+	c #FC4D52",
"k+	c #EADBE0",
"l+	c #FBF0F4",
"m+	c #F3FCFB",
"n+	c #FFF7F6",
"o+	c #FFF8FD",
"p+	c #D9312E",
"q+	c #B92022",
"r+	c #B52024",
"s+	c #BA3138",
"t+	c #C82D35",
"u+	c #B42827",
"v+	c #A92823",
"w+	c #D52E3F",
"x+	c #C72B40",
"y+	c #B7282A",
"z+	c #D92936",
"A+	c #D5363B",
"B+	c #CF3034",
"C+	c #D4272B",
"D+	c #DB2E30",
"E+	c #E2282B",
"F+	c #FF2936",
"G+	c #F0939D",
"H+	c #FFF8F6",
"I+	c #FEFEFF",
"J+	c #F8FFF4",
"K+	c #FFFFF3",
"L+	c #FAFEFF",
"M+	c #FAEDF4",
"N+	c #F8E9EC",
"O+	c #F4828A",
"P+	c #C60C23",
"Q+	c #A71E2E",
"R+	c #AC1631",
"S+	c #721821",
"T+	c #BB112E",
"U+	c #C22C37",
"V+	c #BA2123",
"W+	c #C6191D",
"X+	c #B63027",
"Y+	c #451C08",
"Z+	c #CC2134",
"`+	c #CD1E2F",
" @	c #E22134",
".@	c #C8272F",
"+@	c #DD2436",
"@@	c #84231C",
"#@	c #C2192E",
"$@	c #DF363D",
"%@	c #F6AAAE",
"&@	c #F8F2F6",
"*@	c #FBFFF9",
"=@	c #FBFEF7",
"-@	c #FFF8FC",
";@	c #FDFFF9",
">@	c #FCFFFA",
",@	c #F8FFF6",
"'@	c #F2CECE",
")@	c #B21D23",
"!@	c #BB242B",
"~@	c #BC162A",
"{@	c #A0232B",
"]@	c #531E10",
"^@	c #B20A21",
"/@	c #C61E2D",
"(@	c #C6222B",
"_@	c #CD1B27",
":@	c #CC2831",
"<@	c #AC1E2C",
"[@	c #C41F30",
"}@	c #C6222D",
"|@	c #C72229",
"1@	c #AF1D20",
"2@	c #F31C3D",
"3@	c #5B2A1B",
"4@	c #AC1C33",
"5@	c #FD322C",
"6@	c #F55054",
"7@	c #FFEEE2",
"8@	c #F1FFFF",
"9@	c #FFF9FD",
"0@	c #FFFCF2",
"a@	c #FBFFFB",
"b@	c #F3FDFF",
"c@	c #FBFFF4",
"d@	c #FFF1FF",
"e@	c #A4DE91",
"f@	c #B2B56E",
"g@	c #AE1F25",
"h@	c #AE2221",
"i@	c #AC2220",
"j@	c #AE1C1C",
"k@	c #BA2425",
"l@	c #AC2521",
"m@	c #B22124",
"n@	c #C0192A",
"o@	c #BC1F30",
"p@	c #B61D20",
"q@	c #BB2527",
"r@	c #B82A29",
"s@	c #C32227",
"t@	c #C02427",
"u@	c #D61D2B",
"v@	c #C12026",
"w@	c #B82224",
"x@	c #C3854C",
"y@	c #BBE289",
"z@	c #94DE93",
"A@	c #FCFFF6",
"B@	c #FEF2FE",
"C@	c #FFFBFB",
"D@	c #FFFBF5",
"E@	c #FFFBF8",
"F@	c #FDFEF0",
"G@	c #53A455",
"H@	c #69CA69",
"I@	c #D39969",
"J@	c #BB1E25",
"K@	c #A91E21",
"L@	c #B6232D",
"M@	c #AA1926",
"N@	c #A3212B",
"O@	c #B3232C",
"P@	c #C51B26",
"Q@	c #D41F28",
"R@	c #BB2622",
"S@	c #B5191D",
"T@	c #C72532",
"U@	c #AD1A24",
"V@	c #BA1E29",
"W@	c #C7181F",
"X@	c #D1221F",
"Y@	c #B69258",
"Z@	c #B9DC82",
"`@	c #63DA66",
" #	c #599D54",
".#	c #FFFDF5",
"+#	c #F9FFF9",
"@#	c #FFFEF8",
"##	c #F8FEFE",
"$#	c #FFFFFA",
"%#	c #6A7950",
"&#	c #427A1F",
"*#	c #7BAE69",
"=#	c #BCA66C",
"-#	c #AD271E",
";#	c #B51829",
">#	c #AB1737",
",#	c #471A1F",
"'#	c #620F19",
")#	c #B0222E",
"!#	c #C52527",
"~#	c #CF1B27",
"{#	c #CE2635",
"]#	c #C6122D",
"^#	c #942329",
"/#	c #7C1F1A",
"(#	c #A62D25",
"_#	c #B36E47",
":#	c #B5A363",
"<#	c #69B350",
"[#	c #40722D",
"}#	c #817E6B",
"|#	c #FFF8F4",
"1#	c #F8F8FF",
"2#	c #FFFEFA",
"3#	c #FFFCF1",
"4#	c #BFCBCB",
"5#	c #304A27",
"6#	c #487A35",
"7#	c #78CB63",
"8#	c #B8BC72",
"9#	c #AD7A4F",
"0#	c #A52524",
"a#	c #832325",
"b#	c #9E1728",
"c#	c #B51726",
"d#	c #BF1822",
"e#	c #AB1B1B",
"f#	c #B72727",
"g#	c #A82722",
"h#	c #A0211A",
"i#	c #8B2413",
"j#	c #B59366",
"k#	c #8BD681",
"l#	c #58CB66",
"m#	c #467936",
"n#	c #1A4622",
"o#	c #E0E0E2",
"p#	c #F5FFFA",
"q#	c #F3FAF2",
"r#	c #FFF9F7",
"s#	c #FCFFF8",
"t#	c #FAFDFF",
"u#	c #F8F5FF",
"v#	c #A0B8BC",
"w#	c #22511A",
"x#	c #497736",
"y#	c #70CB6B",
"z#	c #87D367",
"A#	c #9FD46A",
"B#	c #AAAC59",
"C#	c #BA7443",
"D#	c #B67348",
"E#	c #A97949",
"F#	c #BB7454",
"G#	c #B8744D",
"H#	c #B76E41",
"I#	c #BEBA70",
"J#	c #9FCC71",
"K#	c #80D06F",
"L#	c #52B354",
"M#	c #527731",
"N#	c #31613B",
"O#	c #ABB5AD",
"P#	c #FBF7F6",
"Q#	c #FAFFF3",
"R#	c #FAFAFA",
"S#	c #F7F7F7",
"T#	c #A0A0A0",
"U#	c #284912",
"V#	c #457132",
"W#	c #518D43",
"X#	c #529D48",
"Y#	c #6FC266",
"Z#	c #87DC7E",
"`#	c #8FE084",
" $	c #8FDB81",
".$	c #8FE385",
"+$	c #82D678",
"@$	c #8FE083",
"#$	c #73BF65",
"$$	c #539646",
"%$	c #4F8841",
"&$	c #3F6D2F",
"*$	c #204911",
"=$	c #B9B9B9",
"-$	c #F9F9F9",
";$	c #F4F4F4",
">$	c #A2B2A5",
",$	c #6B836D",
"'$	c #426640",
")$	c #35662F",
"!$	c #427D39",
"~$	c #468336",
"{$	c #548F3F",
"]$	c #599442",
"^$	c #589643",
"/$	c #569343",
"($	c #448134",
"_$	c #437A37",
":$	c #36622F",
"<$	c #50724F",
"[$	c #68816C",
"}$	c #AEC0B4",
"|$	c #F1F1F1",
"1$	c #FBF9FF",
"2$	c #CED7D2",
"3$	c #8FA08E",
"4$	c #294121",
"5$	c #304C23",
"6$	c #2F4F1E",
"7$	c #2E4E1C",
"8$	c #2A4717",
"9$	c #314E20",
"0$	c #37532B",
"a$	c #274022",
"b$	c #99AC99",
"c$	c #DBE6E2",
"d$	c #FCFAFF",
"e$	c #FBFBFB",
"f$	c #E4E5E0",
"g$	c #E2E7E1",
"h$	c #E0EAE2",
"i$	c #DEE9E1",
"j$	c #E5EBE9",
"k$	c #DAE0DC",
"l$	c #E7EDE9",
"m$	c #DEE3DF",
"n$	c #FBFCF7",
"o$	c #FDFCF8",
"p$	c #FFFCFB",
"q$	c #FCFCFF",
"r$	c #F8F8F8",
"s$	c #FFFCF7",
"t$	c #FBFAF8",
"u$	c #F8FDF9",
"v$	c #FBFCFF",
"w$	c #FAFCFB",
"x$	c #FDFFFA",
"y$	c #FEFFFA",
"z$	c #F9FCF3",
"A$	c #FDFFF7",
"B$	c #FAFAF8",
"C$	c #FAFAFC",
"                . + @ # $ % + & *   = # - ; > ,                 ",
"                ' ) > ! ~ { ] ^ / ; ( _ : < [ ^                 ",
"                : } | 1 /   2 3 , 4 > 1 { 5 5 6                 ",
"                7 # 8 9 0 + > + a , b c d e 5 f                 ",
"                g   h h i / j k l m n 9 o , ^ p                 ",
"                q r + a e s t u v w x y , . ' 9                 ",
"                z A c B C D E F G H I J { K L >                 ",
"                M N O P Q R S T U V W X Y + + Z                 ",
"> ` 9  .M e a z a o / ..+.@.#.$.%.&.*.=., -.9 ;.+ + + + +   >.,.",
"+ '.z - e + ).  + + !.~.{.].^./.(._.:.<.[.}.h |.>.    1.1.      ",
"9 z   2.% > , > 3.4.5.6.7.8.9.0.a.b.c.d.e.f.i y ,.a a ,.1.    >.",
"g.- 2.h.d +   & i.j.k.l.m.n.o.p.q.r.s.t.u.v.w.x.,.a a a a     d ",
"y.e % d a ; z.A.a B.C.D.E.F.G.H.I.J.K.L.M.N.O.i.  P.Q.a a ,.>.+ ",
"e d R.+ S.T.6 U.V.W.X.Y.Z.`. +.+++@+s.#+$+%+&+*+> +   a a =+>.+ ",
"a d .   -+;+>+,+'+)+!+~+{+]+^+/+(+_+:+<+[+}+|+1+2+. +   ,.,.  d ",
"9   >   A.U.3+4+5+6+7+8+9+0+a+b+c+d+e+f+g+h+i+j+k+l+>   =+a   g ",
", m+|.; n+a o+p+q+r+s+t+u+v+w+x+y+z+A+B+C+D+E+F+G+H+, # 3.I+` J+",
"z K+L+M+e N+O+P+Q+R+S+T+U+V+W+X+Y+Z+`+ @.@+@@@#@$@%@&@a *@=@-@, ",
";@4 ^ >@,@'@)@!@~@{@]@^@/@(@_@:@<@[@}@|@1@2@3@4@5@6@7@8@9@0@a@-.",
". b@c@d@z e@f@g@h@i@j@k@l@m@n@o@p@q@r@s@t@u@v@w@x@y@z@A@B@z C@h ",
"D@3.a E@F@G@H@I@J@K@L@M@N@O@P@Q@R@S@T@U@V@W@X@Y@Z@`@ #.#9 n +#/ ",
"I+@###3.$#%#&#*#=#-#;#>#,#'#)#!#~#{#]#^#/#(#_#:#<#[#}#-+e |#U.1#",
"S.2#@ 2#3#4#5#6#7#8#9#0#a#b#c#d#e#f#g#h#i#j#k#l#m#n#o#, p#q#R.9 ",
"|.r#s#t#, u#v#w#x#y#z#A#B#C#D#E#F#G#H#I#J#K#L#M#N#O#z P#a z o Q#",
"1.  1.  R#  S#T#U#V#W#X#Y#Z#`# $.$+$@$#$$$%$&$*$=$-$  >.>.1.  P.",
"1.  R#    >.  ;$>$,$'$)$!$~${$]$^$/$($_$:$<$[$}$|$  R#-$  >.    ",
"1.  1.1.>.R#    1$z 2$3$4$5$6$7$8$9$0$a$b$c$z d$    -$    R#    ",
"R#    -$    1.e$> . . e f$g$h$i$j$k$l$m$- + . , -$        e$  >.",
"  e$            n$o$p$+ , + z }.I+q$a a r$5 E@s$  >.1.  >.    e$",
"  R#    e$e$P.1.z a P.e t$e u$: a =+a =+a Q.,.    1.1.    >.    ",
"    >.        e$v$0 a w$- x$y$z$A$y$|.B$a 0 r c 1.P.      1.1.  ",
">.  1.1.  e$>.  5 e B$  C$  + >   g + + + >.  >.      e$>.      "};
