/* XPM */
static char * exit_xpm[] = {
"32 32 47 1",
" 	c None",
".	c #161616",
"+	c #181818",
"@	c #1D1D1D",
"#	c #1F1F1F",
"$	c #1B1B1B",
"%	c #191919",
"&	c #171717",
"*	c #151515",
"=	c #141414",
"-	c #232323",
";	c #212121",
">	c #121212",
",	c #131313",
"'	c #252525",
")	c #282828",
"!	c #2B2B2B",
"~	c #2E2E2E",
"{	c #727272",
"]	c #FDD17C",
"^	c #737373",
"/	c #FED27D",
"(	c #FFD37D",
"_	c #33312F",
":	c #74603B",
"<	c #7D683F",
"[	c #987E4B",
"}	c #7E693F",
"|	c #3B3731",
"1	c #373430",
"2	c #78643C",
"3	c #FED27C",
"4	c #FDD27C",
"5	c #937949",
"6	c #9A804C",
"7	c #977D4B",
"8	c #7D693F",
"9	c #B09257",
"0	c #997F4B",
"a	c #D3AF68",
"b	c #7F693F",
"c	c #9D824D",
"d	c #262525",
"e	c #75613B",
"f	c #6C5A37",
"g	c #645333",
"h	c #292828",
".+++@#$@@$$@%$#@$@$%++&+&*&===&&",
"&&&&@@@--;;-@#--#;;@%%+.&&..>>,*",
".++%;;#--')!'''-;;;#$%&..&..*>,*",
"%#@$;''!!!!!!~~~!-;@%%%+...=.*==",
"$;#;')!~~~~~~~~~~)';#@$$+&.**&,=",
"@;##')!~~{{]]]~~~))-#@$%++=,,.*=",
"$@@;-!~~^^/((((_~)'-;#@$$%&.&*&.",
"$@@;'!~{^^/((((/~));;##+%&+*=*=*",
"@##-)!~^^(((((((~));##@%%%%&*=,=",
"$@;;'!~^^(((((((~))';;;$&.&*.**=",
"@;--'!~^^(((((((~))';;;#$%++&&=*",
"@-'')~~^^(((((((!))';;##+$+&.&&,",
"$#;;)~~^^(((((((!))';;##%$+&&++*",
"#;--)~~^^((((((()))'-';;$%%=*..*",
";-''!~~^^((((((()))'-';##@@&.&.*",
";;-')!~^^((((((())'-;-@#@%$.****",
"##;-)!~^^(((((((!!)''-###%@&&*&.",
"--))!!~^^(((((((!)''';;;;$@.*=..",
"--))!!~^^(((((((!)''';#;#+$&&*%+",
"--))!!~^^(((((((!)'''-;;#$$&+.++",
"')!!~~~^^((((((()''----;;@@%+++&",
":<<~~~~^^((((((()''--''-;@$$.&+&",
"[}}}}}~^(((((((()))'')-;@%$@%%$+",
"[[[[[[}/((|(((((!!!)))-;@$$+.+%+",
"[[[[[[((((1(((((!!!)))'';#;$.&++",
"[[[[(((((23(((((~~~~~!))-;-@&...",
"[[4/((((53(((((6788~~!))'-';$&&&",
"(((((((9(((((((0[[}}}}~~~!!-@.&&",
"((((((a((((((([[[[[[[b}}}~~~)@%%",
"((((((/((((((c[[[[[[[[[}}<<<d-#$",
"(((((((((((([[[[[[[[[[[[[}}}efgh",
"(((((((((((0[[[[[[[[[[[[[[[}}}}}"};
