/* XPM */
static char * wall_xpm[] = {
"32 32 756 2",
"  	c #7F7F8B",
". 	c #70707A",
"+ 	c #92929A",
"@ 	c #828388",
"# 	c #7B7C81",
"$ 	c #818189",
"% 	c #83838D",
"& 	c #767682",
"* 	c #848391",
"= 	c #807F87",
"- 	c #838184",
"; 	c #807B82",
"> 	c #87818F",
", 	c #7B7788",
"' 	c #8B8994",
") 	c #7C7D81",
"! 	c #7F7D8A",
"~ 	c #5C5A65",
"{ 	c #96969E",
"] 	c #787B80",
"^ 	c #84878C",
"/ 	c #7D7D85",
"( 	c #85838E",
"_ 	c #72707D",
": 	c #858591",
"< 	c #7F7E84",
"[ 	c #858386",
"} 	c #827D83",
"| 	c #857F8D",
"1 	c #6C6879",
"2 	c #8A8895",
"3 	c #7F7E83",
"4 	c #797778",
"5 	c #656364",
"6 	c #81807E",
"7 	c #73726E",
"8 	c #7A7975",
"9 	c #777674",
"0 	c #696768",
"a 	c #77767B",
"b 	c #747472",
"c 	c #75746F",
"d 	c #7C7B77",
"e 	c #6C6A6D",
"f 	c #7B797E",
"g 	c #737373",
"h 	c #777872",
"i 	c #7C7879",
"j 	c #4E4C4D",
"k 	c #80807E",
"l 	c #72736E",
"m 	c #757671",
"n 	c #7B7B79",
"o 	c #666465",
"p 	c #787475",
"q 	c #77787A",
"r 	c #7A7A72",
"s 	c #706B6F",
"t 	c #6A686D",
"u 	c #747474",
"v 	c #787974",
"w 	c #736F70",
"x 	c #605C5D",
"y 	c #84807F",
"z 	c #787473",
"A 	c #7B7776",
"B 	c #74706F",
"C 	c #5E5A5B",
"D 	c #7A7A7C",
"E 	c #767674",
"F 	c #777672",
"G 	c #6C6A6B",
"H 	c #747275",
"I 	c #777777",
"J 	c #797A75",
"K 	c #777173",
"L 	c #524C4E",
"M 	c #837F7E",
"N 	c #7E7A79",
"O 	c #706C6B",
"P 	c #6A6466",
"Q 	c #746E70",
"R 	c #787878",
"S 	c #787772",
"T 	c #757470",
"U 	c #6E6C6F",
"V 	c #636166",
"W 	c #757573",
"X 	c #4B4551",
"Y 	c #39333D",
"Z 	c #5E5862",
"` 	c #524C56",
" .	c #48424C",
"..	c #4D4751",
"+.	c #423C46",
"@.	c #443E4A",
"#.	c #5A5762",
"$.	c #5A5760",
"%.	c #47444D",
"&.	c #434049",
"*.	c #423F4A",
"=.	c #403D48",
"-.	c #5E5B64",
";.	c #514E57",
">.	c #4E4854",
",.	c #241E28",
"'.	c #635D67",
").	c #4E4852",
"!.	c #443E48",
"~.	c #4C4650",
"{.	c #3D3741",
"].	c #3E3844",
"^.	c #47444B",
"/.	c #494651",
"(.	c #3A3742",
"_.	c #64626D",
":.	c #4E4C57",
"<.	c #86858D",
"[.	c #797880",
"}.	c #84838B",
"|.	c #797782",
"1.	c #76747F",
"2.	c #83828A",
"3.	c #828189",
"4.	c #76737C",
"5.	c #838089",
"6.	c #7D7A85",
"7.	c #8B8893",
"8.	c #85828B",
"9.	c #827F88",
"0.	c #65626D",
"a.	c #87868E",
"b.	c #87848F",
"c.	c #7B7883",
"d.	c #7A7981",
"e.	c #746F76",
"f.	c #857F89",
"g.	c #6F6975",
"h.	c #7E7B84",
"i.	c #817E89",
"j.	c #585462",
"k.	c #7A7A78",
"l.	c #757575",
"m.	c #6A6A6A",
"n.	c #7C7C7A",
"o.	c #7A7673",
"p.	c #706C6D",
"q.	c #79777A",
"r.	c #727071",
"s.	c #726E6D",
"t.	c #656064",
"u.	c #727471",
"v.	c #787876",
"w.	c #6A6869",
"x.	c #757374",
"y.	c #7C7C7C",
"z.	c #6A6A68",
"A.	c #7D7F7C",
"B.	c #7B7672",
"C.	c #777171",
"D.	c #6A6569",
"E.	c #787677",
"F.	c #737270",
"G.	c #7D7C78",
"H.	c #737172",
"I.	c #58565B",
"J.	c #787775",
"K.	c #686667",
"L.	c #7C7A7B",
"M.	c #706F6D",
"N.	c #797874",
"O.	c #7D7874",
"P.	c #656162",
"Q.	c #7C7A7F",
"R.	c #727073",
"S.	c #787773",
"T.	c #73726D",
"U.	c #6A6665",
"V.	c #6C656C",
"W.	c #747570",
"X.	c #7A7977",
"Y.	c #7A7677",
"Z.	c #696566",
"`.	c #7E7A7B",
" +	c #777374",
".+	c #7C756F",
"++	c #6C6666",
"@+	c #6D686E",
"#+	c #767477",
"$+	c #73746E",
"%+	c #6D6C6A",
"&+	c #5D5B60",
"*+	c #635C64",
"=+	c #4C444F",
"-+	c #49414E",
";+	c #3A3241",
">+	c #453D4C",
",+	c #665E6B",
"'+	c #544C57",
")+	c #463F47",
"!+	c #4A434A",
"~+	c #3F3945",
"{+	c #454152",
"]+	c #5A5664",
"^+	c #49464D",
"/+	c #454346",
"(+	c #3A343E",
"_+	c #463D4E",
":+	c #656067",
"<+	c #4A424D",
"[+	c #4D4250",
"}+	c #403545",
"|+	c #433848",
"1+	c #665B69",
"2+	c #574F5A",
"3+	c #443F46",
"4+	c #4D4248",
"5+	c #4B414C",
"6+	c #3B3444",
"7+	c #605C6A",
"8+	c #4A494F",
"9+	c #454449",
"0+	c #413E47",
"a+	c #393546",
"b+	c #7E7D85",
"c+	c #7F7E86",
"d+	c #79767D",
"e+	c #89848B",
"f+	c #807D84",
"g+	c #7F7F89",
"h+	c #787A86",
"i+	c #88898D",
"j+	c #7D7C81",
"k+	c #858388",
"l+	c #7E7B82",
"m+	c #858289",
"n+	c #7D7A81",
"o+	c #898890",
"p+	c #82828A",
"q+	c #818085",
"r+	c #817B89",
"s+	c #8A848E",
"t+	c #837E82",
"u+	c #828083",
"v+	c #747383",
"w+	c #828085",
"x+	c #88858C",
"y+	c #6A676E",
"z+	c #88878F",
"A+	c #808088",
"B+	c #79777C",
"C+	c #6D6B6E",
"D+	c #787679",
"E+	c #7D7B7E",
"F+	c #757479",
"G+	c #6E6D73",
"H+	c #706F77",
"I+	c #757776",
"J+	c #7B797C",
"K+	c #7E797D",
"L+	c #7D7B80",
"M+	c #6F6D72",
"N+	c #747378",
"O+	c #7B7778",
"P+	c #6C676D",
"Q+	c #78727C",
"R+	c #78757C",
"S+	c #767573",
"T+	c #726F76",
"U+	c #6F6D7A",
"V+	c #777978",
"W+	c #807E81",
"X+	c #7A7579",
"Y+	c #746F73",
"Z+	c #666469",
"`+	c #747277",
" @	c #80777C",
".@	c #645E60",
"+@	c #777576",
"@@	c #707070",
"#@	c #757577",
"$@	c #79747A",
"%@	c #6B6768",
"&@	c #7F7B7C",
"*@	c #7F7677",
"=@	c #696367",
"-@	c #7D787E",
";@	c #777779",
">@	c #70706E",
",@	c #7B7A78",
"'@	c #6D686C",
")@	c #746C77",
"!@	c #777775",
"~@	c #716F70",
"{@	c #6D696A",
"]@	c #72676D",
"^@	c #5A5156",
"/@	c #6B696C",
"(@	c #7F7F81",
"_@	c #696A6C",
":@	c #6D6D6F",
"<@	c #59545A",
"[@	c #746A72",
"}@	c #7F7D7E",
"|@	c #676568",
"1@	c #625D61",
"2@	c #6E686C",
"3@	c #7B7579",
"4@	c #655F63",
"5@	c #74686C",
"6@	c #5B5257",
"7@	c #6C676B",
"8@	c #818183",
"9@	c #6A6A6C",
"0@	c #716F72",
"a@	c #575057",
"b@	c #6E646D",
"c@	c #797979",
"d@	c #6E696D",
"e@	c #5C565A",
"f@	c #847E82",
"g@	c #666064",
"h@	c #6E636B",
"i@	c #6B646B",
"j@	c #58575D",
"k@	c #4E4D53",
"l@	c #76737A",
"m@	c #726D74",
"n@	c #69626A",
"o@	c #6E6B72",
"p@	c #625F66",
"q@	c #4B494E",
"r@	c #787379",
"s@	c #676268",
"t@	c #6F686F",
"u@	c #756E75",
"v@	c #6D626A",
"w@	c #6F656D",
"x@	c #69646A",
"y@	c #5E5D62",
"z@	c #49484E",
"A@	c #716E77",
"B@	c #6E676F",
"C@	c #726871",
"D@	c #68656C",
"E@	c #3F3D42",
"F@	c #807B81",
"G@	c #666167",
"H@	c #716A71",
"I@	c #777077",
"J@	c #726D73",
"K@	c #78737A",
"L@	c #75727B",
"M@	c #78757E",
"N@	c #757279",
"O@	c #7F7983",
"P@	c #7C7680",
"Q@	c #7B787F",
"R@	c #737077",
"S@	c #7C777E",
"T@	c #767178",
"U@	c #7A737B",
"V@	c #736C73",
"W@	c #777276",
"X@	c #837E85",
"Y@	c #807D88",
"Z@	c #797681",
"`@	c #7D7781",
" #	c #7B757F",
".#	c #77747B",
"+#	c #7F7A81",
"@#	c #676067",
"##	c #787179",
"$#	c #727075",
"%#	c #77787C",
"&#	c #737778",
"*#	c #68636A",
"=#	c #78777C",
"-#	c #767678",
";#	c #747476",
">#	c #76757A",
",#	c #747273",
"'#	c #757170",
")#	c #706A6E",
"!#	c #7C747F",
"~#	c #7E7884",
"{#	c #717370",
"]#	c #6E6970",
"^#	c #6D6B70",
"/#	c #7B7A7F",
"(#	c #78787A",
"_#	c #5B605A",
":#	c #5A5C59",
"<#	c #565253",
"[#	c #41383D",
"}#	c #595055",
"|#	c #6A686B",
"1#	c #616564",
"2#	c #59625D",
"3#	c #564D52",
"4#	c #484246",
"5#	c #4A484B",
"6#	c #6D6D6D",
"7#	c #636564",
"8#	c #5A5C5B",
"9#	c #4D4F4C",
"0#	c #535552",
"a#	c #5D6162",
"b#	c #63645F",
"c#	c #55504C",
"d#	c #42393A",
"e#	c #50464F",
"f#	c #6F6973",
"g#	c #626365",
"h#	c #5B625A",
"i#	c #574E53",
"j#	c #4B4549",
"k#	c #413F42",
"l#	c #666867",
"m#	c #555756",
"n#	c #525451",
"o#	c #50524F",
"p#	c #81818D",
"q#	c #686874",
"r#	c #92929C",
"s#	c #7D7D87",
"t#	c #878793",
"u#	c #777783",
"v#	c #8A858C",
"w#	c #83827E",
"x#	c #817F80",
"y#	c #848188",
"z#	c #777580",
"A#	c #8B8A90",
"B#	c #7E7E7E",
"C#	c #817E87",
"D#	c #615F6C",
"E#	c #9392A2",
"F#	c #7D7F8B",
"G#	c #7C8083",
"H#	c #7F8082",
"I#	c #86848F",
"J#	c #6A6579",
"K#	c #838385",
"L#	c #81827D",
"M#	c #808080",
"N#	c #6A6772",
"O#	c #8F8C93",
"P#	c #7E7C7D",
"Q#	c #615F60",
"R#	c #7D7B7C",
"S#	c #7B767D",
"T#	c #767273",
"U#	c #787580",
"V#	c #737278",
"W#	c #7D7978",
"X#	c #565155",
"Y#	c #807E83",
"Z#	c #79797B",
"`#	c #767772",
" $	c #7D7C77",
".$	c #6C676E",
"+$	c #7A797F",
"@$	c #727274",
"#$	c #6D6A73",
"$$	c #6B6873",
"%$	c #7A7879",
"&$	c #716B6D",
"*$	c #5B5557",
"=$	c #878183",
"-$	c #767070",
";$	c #797375",
">$	c #615B5D",
",$	c #7C7678",
"'$	c #7B767C",
")$	c #797574",
"!$	c #67646B",
"~$	c #78767B",
"{$	c #797373",
"]$	c #494345",
"^$	c #8A8589",
"/$	c #787471",
"($	c #76726F",
"_$	c #666062",
":$	c #7C7980",
"<$	c #737174",
"[$	c #6D6A71",
"}$	c #67646D",
"|$	c #7A787B",
"1$	c #36303C",
"2$	c #66606A",
"3$	c #514B55",
"4$	c #433D49",
"5$	c #48424E",
"6$	c #645F63",
"7$	c #635E62",
"8$	c #514D4E",
"9$	c #4A4549",
"0$	c #454348",
"a$	c #555358",
"b$	c #544E58",
"c$	c #2A2430",
"d$	c #67616D",
"e$	c #544E5A",
"f$	c #453F49",
"g$	c #49434D",
"h$	c #413B47",
"i$	c #5D5B5E",
"j$	c #474548",
"k$	c #4A484D",
"l$	c #3F3C43",
"m$	c #66636A",
"n$	c #535257",
"o$	c #8D8A93",
"p$	c #7D7A83",
"q$	c #87848D",
"r$	c #88858E",
"s$	c #807D86",
"t$	c #868185",
"u$	c #7F7A80",
"v$	c #8B868C",
"w$	c #858084",
"x$	c #838186",
"y$	c #5F5C63",
"z$	c #8D8A95",
"A$	c #86838C",
"B$	c #6D6A75",
"C$	c #908D98",
"D$	c #817E85",
"E$	c #797478",
"F$	c #888387",
"G$	c #6B666C",
"H$	c #8C8A8F",
"I$	c #868489",
"J$	c #59585E",
"K$	c #727270",
"L$	c #717171",
"M$	c #7D7E79",
"N$	c #7F7979",
"O$	c #746F75",
"P$	c #716F74",
"Q$	c #5D5A63",
"R$	c #7E7F7A",
"S$	c #72716F",
"T$	c #7C7A7D",
"U$	c #6D6D6B",
"V$	c #7E7F79",
"W$	c #625D64",
"X$	c #7A757C",
"Y$	c #54535B",
"Z$	c #797572",
"`$	c #777372",
" %	c #7D797A",
".%	c #7B7774",
"+%	c #7D7777",
"@%	c #635D61",
"#%	c #7E7882",
"$%	c #6A656B",
"%%	c #66636C",
"&%	c #7A7772",
"*%	c #6D6865",
"=%	c #777175",
"-%	c #787870",
";%	c #7C7676",
">%	c #6C646F",
",%	c #6C6B70",
"'%	c #5D5B66",
")%	c #6F656E",
"!%	c #5D535C",
"~%	c #4F4550",
"{%	c #473C4A",
"]%	c #524755",
"^%	c #6E646F",
"/%	c #695F68",
"(%	c #4E444D",
"_%	c #504B48",
":%	c #453E45",
"<%	c #514954",
"[%	c #6A656C",
"}%	c #555152",
"|%	c #4E4A49",
"1%	c #413C40",
"2%	c #4D4753",
"3%	c #726C78",
"4%	c #554E56",
"5%	c #51484D",
"6%	c #4C404A",
"7%	c #4D4052",
"8%	c #6D6273",
"9%	c #6A626D",
"0%	c #4D494A",
"a%	c #534D4D",
"b%	c #4D464D",
"c%	c #48404D",
"d%	c #6C6670",
"e%	c #535152",
"f%	c #4E4D4B",
"g%	c #424146",
"h%	c #44424D",
"i%	c #828387",
"j%	c #777381",
"k%	c #8D8791",
"l%	c #8B868A",
"m%	c #878588",
"n%	c #747182",
"o%	c #87888C",
"p%	c #8D8C91",
"q%	c #87848B",
"r%	c #93929A",
"s%	c #85858D",
"t%	c #88808B",
"u%	c #6F6C73",
"v%	c #8E8D93",
"w%	c #85848C",
"x%	c #64616C",
"y%	c #8F8D9A",
"z%	c #8A878E",
"A%	c #8A8687",
"B%	c #8B858F",
"C%	c #5E5A69",
"D%	c #9996A1",
"E%	c #848389",
"F%	c #68666B",
"G%	c #74717A",
"H%	c #7A777E",
"I%	c #757472",
"J%	c #787482",
"K%	c #787A79",
"L%	c #7A7A7A",
"M%	c #757376",
"N%	c #807B7F",
"O%	c #727176",
"P%	c #7D767D",
"Q%	c #6F6A70",
"R%	c #706E73",
"S%	c #7A797E",
"T%	c #747178",
"U%	c #69646B",
"V%	c #78777F",
"W%	c #7C7C7E",
"X%	c #7A7675",
"Y%	c #777278",
"Z%	c #6A646E",
"`%	c #777578",
" &	c #7E7576",
".&	c #676165",
"+&	c #7A727D",
"@&	c #6A6667",
"#&	c #747071",
"$&	c #7D7779",
"%&	c #696365",
"&&	c #726D71",
"*&	c #6B666A",
"=&	c #747579",
"-&	c #727272",
";&	c #736E72",
">&	c #686369",
",&	c #766B6F",
"'&	c #5D5459",
")&	c #808082",
"!&	c #6E6E70",
"~&	c #5D565D",
"{&	c #767676",
"]&	c #6F6D70",
"^&	c #7A7478",
"/&	c #6B6569",
"(&	c #5C5658",
"_&	c #6F6A6E",
":&	c #817C82",
"<&	c #767177",
"[&	c #615C60",
"}&	c #6E6C6D",
"|&	c #7F7A7E",
"1&	c #686367",
"2&	c #685D65",
"3&	c #675D65",
"4&	c #635E64",
"5&	c #47464C",
"6&	c #6C6972",
"7&	c #675D66",
"8&	c #5B585F",
"9&	c #444247",
"0&	c #716C72",
"a&	c #615C62",
"b&	c #696269",
"c&	c #6D666D",
"d&	c #656066",
"e&	c #605B62",
"f&	c #57515B",
"g&	c #46404A",
"h&	c #6F6A71",
"i&	c #605E63",
"j&	c #6B6A6F",
"k&	c #58575C",
"l&	c #3B3A40",
"m&	c #656368",
"n&	c #5D585E",
"o&	c #7C757D",
"p&	c #726B72",
"q&	c #7B767A",
"r&	c #7E7980",
"s&	c #827F8A",
"t&	c #75727D",
"u&	c #77747D",
"v&	c #7A787D",
"w&	c #807A84",
"x&	c #7F7C83",
"y&	c #757077",
"z&	c #817B85",
"A&	c #79737F",
"B&	c #75747A",
"C&	c #6E6B76",
"D&	c #7A7474",
"E&	c #6C666A",
"F&	c #7F7782",
"G&	c #76777B",
"H&	c #727773",
"I&	c #746D75",
"J&	c #6B666D",
"K&	c #7F7D82",
"L&	c #717173",
"M&	c #726F78",
"N&	c #78777D",
"O&	c #737476",
"P&	c #747577",
"Q&	c #726C6C",
"R&	c #716E79",
"S&	c #74737B",
"T&	c #737371",
"U&	c #5F6062",
"V&	c #5E5D59",
"W&	c #57524E",
"X&	c #3E3536",
"Y&	c #564C55",
"Z&	c #69666F",
"`&	c #626667",
" *	c #59635A",
".*	c #584F54",
"+*	c #6B6B6B",
"@*	c #656766",
"#*	c #606261",
"$*	c #4E504D",
"%*	c #61645D",
"&*	c #61625D",
"**	c #545454",
"=*	c #403E43",
"-*	c #6C6C6E",
";*	c #616362",
">*	c #5C615D",
",*	c #5D5552",
"'*	c #474143",
")*	c #6F6E74",
"!*	c #636361",
"~*	c #5C5F56",
"{*	c #565752",
"]*	c #505050",
"  . + @ # $ % & * = - ; > , ' ) ! ~ { ] ^ / ( _ : < [ } | 1 2 3 ",
"4 5 6 7 8 9 0 4 a b c d e f g h i j k l m n o p q l r d s t u v ",
"w x y z A B C p D E F F G H I J K L M N A O P Q R 7 S T U V R W ",
"X Y Z `  ...+.@.#.$.%.&.*.=.-.;.>.,.'.).!.~.{.].-.-.^.%./.(._.:.",
"<.[.}.|.1.2.3.[.4.5.6.7.8.5.9.0.a.3.= b.c.<.}.d.e.f.g.7.9.h.i.j.",
"E k.l.m.g I b n.o.p.q.r.T 8 s.t.u.v.I w.x.y.z.A.B.C.D.E.F.G.H.I.",
"T J.x.K.H.L.M.N.O.P.Q.R.S.T.U.V.W.X.Y.Z.`. +9 J .+++@+#+W.$+%+&+",
"*+=+-+;+>+,+'+)+!+~+{+]+^+/+(+_+:+<+[+}+|+1+2+3+4+5+6+7+8+9+0+a+",
"b+c+d+e+f+b+g+h+i+j+k+l+m+n+o+p+q+8.r+s+t+u+= v+i+j+w+l+x+y+z+A+",
"B+V C+D+E+F+G+H+I+l.J+K+D.L+M+N+O+P+Q+R+4 S+T+U+V+u W+X+Y+Z+`+N+",
" @.@+@I @@#@P+$@k.b H.O+%@i p &@*@=@-@;@>@,@'@)@!@b ~@Y.{@Z.p `.",
"]@^@/@(@_@:@<@[@I }@|@D.1@2@3@4@5@6@7@8@9@0@a@b@c@}@/@t.d@e@f@g@",
"h@i@Z+j@k@l@m@n@o@p@q@r@@+s@t@u@v@w@x@y@z@A@B@C@o@D@E@F@P+G@H@I@",
"-@J@K@L@h.M@d+N@O@P@f+Q@R@n+S@T@U@V@W@X@Y@Z@L@f `@ #T+R+N@.#+#m@",
"R H $@@###$#%#&###*#Q.F+=#-#;#-#>#,#'#)#!#~#F+{###]#^#/#a (#;@-#",
"_#:#<#[#}#|#1#2#3#4#5#6#7#8#9#0#a#b#c#d#e#f#g#h#i#j#k#6#l#m#n#o#",
"p#q#r#A+p+s#t#u#v#}@w#x#y#z#A#B#C#D#E#F#G#H#I#J#<.K#L#M#}.N#O#P#",
"D+Q#R#S+9 R#w.E+S#T#F P#y+U#V#R W#X#Y#Z#`# ${@.$+$@$k.L.#$$$N@%$",
"&$*$=$-$C.;$>$,$'$W@)$+@!$A@~$;@{$]$^$O+/$($_$i@:$0@L.<$[$}$.#|$",
">.1$2$`  .3$4$5$6$7$8$9$0$^.Z+a$b$c$d$e$f$3$g$h$V i$5#j$k$l$m$n$",
"o$p$q$r$L@o$s$s$O+t$u$v$w$[ x$y$z$p$r$A$B$C$C#D$E$F$G$H$I$Y#I$J$",
"v v.K$L$g E K$M$N$s S#O$W@`.P$Q$u R$c S$/@T$U$V$,$I@W$X$#+%$F+Y$",
"Z$Z$`$Z. %`$.%o.+%@%#%T@Y.B $%%%+@S.&%*%=%$@S+-%;%V.>%S#q.H.,%'%",
")%!%~%{%]%^%/%(%_%:%<%[%}%|%1%2%3%4%5%6%7%8%9%0%a%b%c%d%e%f%g%h%",
"i%c+j%k%l%m%c+n%o%p%w+q%q%[$r%s%t%v#u%v%w%o+Y@x%y%z%y A%B%C%D%E%",
"%$F%G%H%%$I%R@J%K%L%M%N%d@B+`+O%P%Q%R%f S%`+T%U%V%W%S.X%Y%Z%T+`%",
" &.&f #@U$9 d@+&!@>@H.Y.@&O+#&&@$&%& %<$R.<$&&*&=&-&S.B ;&>&;&x#",
",&'&d@)&!&M%~&)%{&P#]&'@1@)#^&/&Q (&_&:&O$<&[&6$D D L$}&t.[&|&1&",
"2&3&4&n$5&6&U%7&!$8&9&0&s@a&b&c&6$d&e&f&g&h&y+i&j&k&l&R@m&n&@+>&",
"o&p&q&r&s&t&u&v&`@w&x&:$T+d+r&y&D+R%y&z&A&M@B&S%q&D$C&V%N+E+B+y&",
"~$#&D&E&F&t&G&H&I&J&K&a >#L&#@;@!@g `+o@M&N&O&P&Q&H@R&S&Z#T&g v&",
"U&V&W&X&Y&Z&`& *.*4#5#+*@*#*$*o#%*&***=*k$-*;*>*,*'*g&)*!*~*{*]*"};
