/* XPM */
static char *avatar[] = {
/* columns rows colors chars-per-pixel */
"27 27 173 2 ",
"   c #1A3E1A",
".  c #1B5733",
"X  c #234827",
"o  c #264B29",
"O  c #334D31",
"+  c #2A5736",
"@  c #335E3B",
"#  c #3D593C",
"$  c #276B38",
"%  c #2E6846",
"&  c #3D644D",
"*  c #3B6B4B",
"=  c #387046",
"-  c #37764C",
";  c #3D7D49",
":  c #3D6A51",
">  c #3F7353",
",  c #397C55",
"<  c #495845",
"1  c #496448",
"2  c #426A4E",
"3  c #44754A",
"4  c #4B754D",
"5  c #426D50",
"6  c #4D6E51",
"7  c #546854",
"8  c #596855",
"9  c #4C7556",
"0  c #457A52",
"q  c #457F5C",
"w  c #48795A",
"e  c #55725A",
"r  c #527C59",
"t  c #5F7762",
"y  c #5D7F65",
"u  c #2C884C",
"i  c #3C864B",
"p  c #328753",
"a  c #3B8052",
"s  c #3D8C58",
"d  c #3A9054",
"f  c #3D955D",
"g  c #3B9B5E",
"h  c #3E9C63",
"j  c #438156",
"k  c #478C57",
"l  c #488959",
"z  c #51815E",
"x  c #518B5A",
"c  c #42945F",
"v  c #498361",
"b  c #418E61",
"n  c #4B8B64",
"m  c #538261",
"M  c #558C66",
"N  c #5E8C62",
"B  c #548C6A",
"V  c #5E8969",
"C  c #479364",
"Z  c #4D9265",
"A  c #449B65",
"S  c #4B9963",
"D  c #4C9B6C",
"F  c #55926E",
"G  c #5E9170",
"H  c #549971",
"J  c #5C9D73",
"K  c #5D9F78",
"L  c #66946F",
"P  c #669A6D",
"I  c #648B74",
"U  c #6D8C74",
"Y  c #629176",
"T  c #699471",
"R  c #689678",
"E  c #6B9C7A",
"W  c #73907A",
"Q  c #719A7A",
"!  c #42A063",
"~  c #4DA46C",
"^  c #49AA6C",
"/  c #4EA872",
"(  c #56A572",
")  c #5CA276",
"_  c #51AF73",
"`  c #59A977",
"'  c #5EA57D",
"]  c #5BAC7C",
"[  c #53B276",
"{  c #59B177",
"}  c #55B47A",
"|  c #5BB37D",
" . c #5CBB7E",
".. c #63A57C",
"X. c #6C9D81",
"o. c #799786",
"O. c #5EB581",
"+. c #5EBC82",
"@. c #74A283",
"#. c #7CA889",
"$. c #68B783",
"%. c #64BC85",
"&. c #6FB58D",
"*. c #66BB89",
"=. c #72BC8C",
"-. c #7DB792",
";. c #62C285",
":. c #67C488",
">. c #6ACA8E",
",. c #6DC391",
"<. c #829E87",
"1. c #87998E",
"2. c #87A18E",
"3. c #8AA894",
"4. c #8AAE9A",
"5. c #97A998",
"6. c #9AAD9C",
"7. c #8DB09B",
"8. c #97ABA0",
"9. c #9DB5A4",
"0. c #98B8A1",
"q. c #9FBDA8",
"w. c #A7ADA3",
"e. c #A7B9A8",
"r. c #A6BAAB",
"t. c #A8BEB1",
"y. c #BCB7B9",
"u. c #A3C0AE",
"i. c #A8C2B1",
"p. c #B5C8BC",
"a. c #BAC8B9",
"s. c #AFD2BC",
"d. c #AED4C1",
"f. c #B4D9C7",
"g. c #BCDAC6",
"h. c #CAC0C5",
"j. c #CCC7CC",
"k. c #C5C9CC",
"l. c #C3D3C4",
"z. c #C1D6C9",
"x. c #C6DDC9",
"c. c #CACED1",
"v. c #D3CAD1",
"b. c #CBDBD1",
"n. c #D5DCD2",
"m. c #D5D3D8",
"M. c #C7E1D1",
"N. c #CBE4D3",
"B. c #D2E5D7",
"V. c #D6E7DA",
"C. c #E5DAE1",
"Z. c #DBE7E0",
"A. c #D8ECE2",
"S. c #DEF1E5",
"D. c #E4E3E2",
"F. c #E3EBE4",
"G. c #EEE7E8",
"H. c #E3F1E4",
"J. c #E6F3ED",
"K. c #E9F4EB",
"L. c #EAFEEF",
"P. c #F2EAF0",
"I. c #F9EFF6",
"U. c #EBF6F4",
"Y. c #EEF9F3",
"T. c #F5F5F4",
"R. c #F9F7F6",
"E. c #F4FDF6",
"W. c #FBFDF5",
"Q. c #F5F6FA",
"!. c #FDF7FB",
"~. c #F6FDFB",
"^. c #FDFDFD",
/* pixels */
"^.^.^.^.~.~.^.^.^.^.^.^.^.^.^.^.^.^.^.~.~.W.W.W.W.W.W.",
"^.^.^.^.^.^.~.^.^.^.^.^.^.^.^.^.^.^.^.^.^.^.^.^.^.^.^.",
"^.^.^.^.^.^.^.^.^.^.^.^.^.^.^.^.!.^.^.^.^.^.^.^.^.^.^.",
"^.^.^.^.^.^.^.!.^.^.^.R.W.^.^.^.^.^.^.!.^.^.^.^.^.^.^.",
"^.^.^.^.^.^.!.^.^.W.W.W.R.E.E.Y.E.~.^.^.^.^.^.^.^.^.^.",
"~.^.^.^.^.^.^.^.^.~.E.H.x.q.4.4.8.r.N.E.^.^.^.^.^.^.^.",
"~.^.^.^.!.!.^.~.T.S.u.Q m v G B q * T 0.V.~.~.^.^.^.^.",
"~.^.^.^.^.!.^.E.g.@.n K ) D %.,.$.C J M @.M.E.~.^.^.!.",
"Q.^.P.I.^.^.~.M.Y , ] ,.%.h / >.} g ] =.) E M.E.W.^.!.",
"m.P.v.C.^.^.Y.7.F ] h [ ;.h ! _ ^ g ;.%.( j #.L.^.!.^.",
"k.c.v.v.!.^.A.X.' ,.O.g [ f s A d u | +.c ) L g.E.^.^.",
"C.d.m.h.G.^.N.V C O.:.! d k = 0 a f ~ D ~ =.B o.E.!.^.",
"^.v.j.y.D.~.s.q H A { ~ i 0 6 4 : , p h *.' v I Y.^.!.",
"U.d.1.y 9.g.-.c *.| S Z 0 U a.l.3.& v H ~ D K I b.^.!.",
"d.I W I z - h h } :.) 0 y l.W.^.Z.o.: , D O.*.q u.^.^.",
"R 2 V T 0 $ ] } h O...* W E.^.W.Q.d.& b O._ h C X.t.K.",
"+ R Q T P ; c %.c ` J 9 9.E.R.W.^.z.5 , p h [ :.C w 7.",
"@ r N 4 N x x  .Z c M 9 B.W.W.W.~.b.9 - f } +.+.D ) % ",
"X o     4 3 x P n * 9 <.K.W.W.W.~.J.o.> Z c ~ A ` &.. ",
"e 1 O # # 1 r z & 2 2.V.W.W.~.~.^.~.i.& * j l ) X.n > ",
"l.t < 8 7 7 t U 9.b.J.^.^.^.^.^.^.^.J.8.e 2 2 5 5 I f.",
"^.n.w.e.n.F.F.F.~.^.^.^.^.^.^.^.^.Q.^.U.b.r.5.6.p.V.~.",
"^.^.T.T.^.^.^.^.^.^.!.^.!.^.^.^.^.!.^.!.R.T.W.W.^.^.^.",
"^.^.^.^.^.^.^.!.!.^.^.!.^.^.^.^.^.^.^.!.^.^.W.^.^.^.^.",
"^.^.^.^.^.^.^.^.^.^.^.^.^.^.W.^.^.^.^.^.^.W.^.^.R.!.^.",
"W.^.~.^.~.^.^.^.^.^.^.W.W.W.W.W.^.^.~.~.~.W.R.W.^.^.^.",
"~.^.W.^.^.^.^.W.^.W.W.~.W.W.W.W.^.~.~.~.E.W.W.~.~.^.^."
};
