/* XPM */
static char *avatar_right[] = {
/* columns rows colors chars-per-pixel */
"27 27 178 2 ",
"   c #1A3E1A",
".  c #1B5733",
"X  c #264B29",
"o  c #334D31",
"O  c #2A5736",
"+  c #335E3B",
"@  c #3D593C",
"#  c #276B38",
"$  c #2E6846",
"%  c #3C6344",
"&  c #3D644D",
"*  c #3B6B4B",
"=  c #387046",
"-  c #37764C",
";  c #3B714C",
":  c #3D7D49",
">  c #3D6A51",
",  c #3F7353",
"<  c #397C55",
"1  c #495845",
"2  c #496448",
"3  c #426A4E",
"4  c #44754A",
"5  c #4B754D",
"6  c #4D6E51",
"7  c #546854",
"8  c #596855",
"9  c #487157",
"0  c #4C7556",
"q  c #457A52",
"w  c #457F5C",
"e  c #48795A",
"r  c #55725A",
"t  c #527C59",
"y  c #5F7762",
"u  c #5D7F65",
"i  c #2C884C",
"p  c #3C864B",
"a  c #328753",
"s  c #3B8052",
"d  c #3E805A",
"f  c #3D8C58",
"g  c #3A9054",
"h  c #3D955D",
"j  c #3B9B5E",
"k  c #3E9C63",
"l  c #438156",
"z  c #478C57",
"x  c #488959",
"c  c #51815E",
"v  c #518B5A",
"b  c #42945F",
"n  c #498361",
"m  c #4B8B64",
"M  c #538261",
"N  c #558C66",
"B  c #5E8C62",
"V  c #548C6A",
"C  c #5E8969",
"Z  c #479364",
"A  c #4D9265",
"S  c #449B65",
"D  c #4B9963",
"F  c #4C9B6C",
"G  c #55926E",
"H  c #5A8D70",
"J  c #5E9170",
"K  c #549971",
"L  c #5C9D73",
"P  c #5D9F78",
"I  c #66946F",
"U  c #669A6D",
"Y  c #6E8072",
"T  c #648B74",
"R  c #6D8C74",
"E  c #629176",
"W  c #699471",
"Q  c #689678",
"!  c #6B9C7A",
"~  c #73907A",
"^  c #719A7A",
"/  c #42A063",
"(  c #46A368",
")  c #4DA46C",
"_  c #49AA6C",
"`  c #4EA872",
"'  c #56A572",
"]  c #5CA276",
"[  c #51AF73",
"{  c #59A977",
"}  c #5EA57D",
"|  c #53B276",
" . c #59B177",
".. c #55B47A",
"X. c #5CBB7E",
"o. c #61A174",
"O. c #6C9D81",
"+. c #799786",
"@. c #5EB581",
"#. c #5EBC82",
"$. c #74A283",
"%. c #7CA889",
"&. c #68B783",
"*. c #64BC85",
"=. c #6FB58D",
"-. c #66BB89",
";. c #6ABF8B",
":. c #72BC8C",
">. c #7DB792",
",. c #62C285",
"<. c #67C488",
"1. c #6ACA8E",
"2. c #6DC391",
"3. c #87998E",
"4. c #87A18E",
"5. c #8AA894",
"6. c #8AAE9A",
"7. c #97A998",
"8. c #9AAD9C",
"9. c #8DB09B",
"0. c #97ABA0",
"q. c #9DB5A4",
"w. c #98B8A1",
"e. c #9FBDA8",
"r. c #A7ADA3",
"t. c #A7B9A8",
"y. c #A6BAAB",
"u. c #A8BEB1",
"i. c #BCB7B9",
"p. c #A4C7B0",
"a. c #A8C2B1",
"s. c #B1C7BD",
"d. c #BAC8B9",
"f. c #AFD2BC",
"g. c #BEBFC3",
"h. c #AED4C1",
"j. c #B4D9C7",
"k. c #BCDAC6",
"l. c #BBE0C6",
"z. c #CAC0C5",
"x. c #CCC7CC",
"c. c #C5C9CC",
"v. c #D1C5CD",
"b. c #C3D3C4",
"n. c #C1D6C9",
"m. c #C6DDC9",
"M. c #CACED1",
"N. c #D3CAD1",
"B. c #CBDBD1",
"V. c #D5DCD2",
"C. c #D5D3D8",
"Z. c #C7E1D1",
"A. c #CBE4D3",
"S. c #D2E5D7",
"D. c #D6E7DA",
"F. c #E5DAE1",
"G. c #DBE7E0",
"H. c #D8ECE2",
"J. c #DEF1E5",
"K. c #E4E3E2",
"L. c #E3EBE4",
"P. c #EEE7E8",
"I. c #E3F1E4",
"U. c #E6F3ED",
"Y. c #E9F4EB",
"T. c #EAFEEF",
"R. c #F2EAF0",
"E. c #F9EFF6",
"W. c #EBF6F4",
"Q. c #EEF9F3",
"!. c #F5F5F4",
"~. c #F9F7F6",
"^. c #F4FDF6",
"/. c #FBFDF5",
"(. c #F5F6FA",
"). c #FDF7FB",
"_. c #F6FDFB",
"`. c #FDFDFD",
/* pixels */
"/./././.`.`.`./._.`.`.`.`.`._.`.`.`.`.`._._.`.`.`.`.`.",
"`.`.`.`.`.`.`.`.`.`.`.`.`.`.`.`.`.`.`.`._.`.`.`.`.`.`.",
"`.`.`.`.`.`.`.`.`.`.`.).`.`.`.`.`.).`.`.`.`.`.`.`.`.`.",
"`.`.`.`.`.`.`.`.`.`.`.`.`.`.`.~.`.`.).`.`.`.`.`.`.`.`.",
"`.`.`.`.`.`.`.`.`._.^.^.^.Q././.`.~.`.).).`.`.`.`.`.`.",
"`.`.`.`.`.`.`.Q.A.y.0.6.7.e.m.I.^.^.`.`.`.).`.`.`.`._.",
"`.`.`.`.`._.S.w.E * w V G n M ! p.J./._.`.).`.`.`.`._.",
").`.`._.^.Z.$.N L A &.:.-.F ] ] m $.k.^.`.).).).`.`._.",
"`.`._.^.Z.! ] =.{ j ..1.[ j *.;.} < H B._._.`.E.R.(.^.",
"`././.Q.%.l ' -.,.j _ [ ( k ,...k @.G 6.W.`.`.F.N.!.C.",
").`./.k.J ] k @.X.i g D f b [ j @.2.O.O.H.`.`.v.v.C.c.",
").)._.+.V :.` F ) h : l = z g S <.@.k H A.`.P.z.C.g.K.",
").).^.T w @.@.k a s ; r 6 q p ) [ S K w f._.K.i.x.M._.",
").`.B.E O.Z F F n > 5.b.d.R q v F @.-.h >.l.q.Y 3.s.W.",
"`.`.u.w -.@.F < > +.D.`./.b.C q ] <...S b - c W T T h.",
"U.a.O.Z k | @.m & s.^./.`.T.~ * } @./  . .# q I C > Q ",
"9.e A ;.| / a d > n.`.`./.^.e.5 L { S X.D : U U ^ ^ O ",
"$ P F #.X.| h - e B.^._././.S.9 N z b &.v v I 5 B c + ",
". =.' ( ) b A , +.U._.`././.Y.4.0 ; m o.x 4 5     X X ",
", m O.' x < * & a._.`._./.`./.D.4.3 % c t @ @ @ o 2 8 ",
"j.T 9 3 3 3 r 0.U.`.`.).).`.`.`.U.B.q.R y 8 7 8 1 u b.",
"_.S.d.8.7.t.B.W.`.(.`.`.`.`.).`.`.`.).L.G.L.V.t.r.V./.",
"`.`.`.~./.!.~.`.).`.`.`.`.`.`.`.).).`.`.`.`.`.~.!.`./.",
"`.`.`.~.`.`.`.).`.`.`.`.`.`.`.`.`.`.`.).`.`./.`.`.`.`.",
"`.`.`.`./.`.~.`.`.`._.`././.`.`.`.`.`.`.`.`.`.`.`.`.`.",
"`.`./.`././.~._.`.`._.`././._.`.`.`.`.`.`.`._.`._.`.`.",
"`.`.`./././.^._._._.`././././.`./.`.`./.`.`._.`.`.`./."
};
