/* XPM */
static char *collectible[] = {
/* columns rows colors chars-per-pixel */
"27 27 159 2 ",
"   c #7A1E1E",
".  c #6C1822",
"X  c #376527",
"o  c #3C6C2D",
"O  c #3D6A34",
"+  c #3F753C",
"@  c #446D2E",
"#  c #417B39",
"$  c #44723F",
"%  c #497444",
"&  c #577249",
"*  c #58724C",
"=  c #5C7553",
"-  c #60755B",
";  c #617F5F",
":  c #98171E",
">  c #A81F1F",
",  c #B61D1D",
"<  c #8E1E28",
"1  c #831321",
"2  c #9A1E2A",
"3  c #A01D27",
"4  c #AC1E23",
"5  c #AE1C2C",
"6  c #B11D23",
"7  c #BE1F24",
"8  c #B41C2A",
"9  c #BB1D29",
"0  c #8E2027",
"q  c #8F2C20",
"w  c #922521",
"e  c #A02020",
"r  c #AC2329",
"t  c #A92227",
"y  c #B42526",
"u  c #BA2226",
"i  c #BB2529",
"p  c #B72A29",
"a  c #BE282E",
"s  c #B62828",
"d  c #B5322E",
"f  c #A92330",
"g  c #BD2730",
"h  c #C41E25",
"j  c #C41D2B",
"k  c #CA1E29",
"l  c #D51D2B",
"z  c #C4222A",
"x  c #CA232C",
"c  c #C82527",
"v  c #D4232B",
"b  c #DC232C",
"n  c #D72A2E",
"m  c #C92931",
"M  c #C92834",
"N  c #D42632",
"B  c #D32938",
"V  c #DD2E3B",
"C  c #D82B32",
"Z  c #D7363D",
"A  c #E1252E",
"S  c #E22A2D",
"D  c #E9282D",
"F  c #E12433",
"G  c #E32B33",
"H  c #EA2A34",
"J  c #E92A39",
"K  c #F9303B",
"L  c #B54E39",
"P  c #B3503B",
"I  c #B25437",
"U  c #DF3F48",
"Y  c #EC3847",
"T  c #F43649",
"R  c #9F7444",
"E  c #AE7949",
"W  c #AA7650",
"Q  c #CA5355",
"!  c #C54548",
"~  c #ED4046",
"^  c #E44955",
"/  c #F34752",
"(  c #C06D46",
")  c #C3784B",
"_  c #F35860",
"`  c #DA6366",
"'  c #F4726E",
"]  c #EF6D73",
"[  c #E37076",
"{  c #F27275",
"}  c #4A8A3D",
"|  c #508F45",
" . c #569544",
".. c #579749",
"X. c #649F4B",
"o. c #5AAC54",
"O. c #6FAF59",
"+. c #65AA52",
"@. c #71A158",
"#. c #64BB59",
"$. c #708169",
"%. c #758D7C",
"&. c #7F917C",
"*. c #668466",
"=. c #7CBC61",
"-. c #7FB077",
";. c #9C9753",
":. c #B8885D",
">. c #A89A5B",
",. c #A69F62",
"<. c #96AF66",
"1. c #83BC66",
"2. c #94BE68",
"3. c #86AD7D",
"4. c #83C16D",
"5. c #94C16E",
"6. c #95C373",
"7. c #A6C26D",
"8. c #B1CC7A",
"9. c #F47682",
"0. c #8C9F8C",
"q. c #8FA492",
"w. c #A4AF99",
"e. c #AFBBAE",
"r. c #B7B7AF",
"t. c #EB8185",
"y. c #FA8A94",
"u. c #F69C9F",
"i. c #F49490",
"p. c #ED96A1",
"a. c #F49DA3",
"s. c #FD9EA5",
"d. c #F4AAAE",
"f. c #F5BDBE",
"g. c #F9BAB7",
"h. c #B4DDA5",
"j. c #B7C5B8",
"k. c #ADE0A7",
"l. c #D9DCD9",
"z. c #F1C6C7",
"x. c #F7D2CF",
"c. c #EFD7D3",
"v. c #F4DFD7",
"b. c #F7DBDB",
"n. c #DCE0DD",
"m. c #FAE1DE",
"M. c #DBE1E2",
"N. c #E9EEEC",
"B. c #E3E7E7",
"V. c #FAE7E3",
"C. c #F4EBE2",
"Z. c #FBEBEC",
"A. c #ECF1EE",
"S. c #F1F0EF",
"D. c #FCF3F4",
"F. c #FCFCF7",
"G. c #F6FEFC",
"H. c #FDFEFE",
"J. c #F5F6F4",
/* pixels */
"H.H.H.H.H.H.H.H.H.H.H.H.H.H.H.D.H.H.H.G.H.H.H.H.H.H.H.",
"H.H.H.H.H.H.H.H.H.H.G.G.H.H.G.G.G.H.H.F.H.H.H.H.H.H.H.",
"H.H.H.H.H.H.H.H.H.G.G.H.D.H.H.D.G.H.H.H.H.H.H.H.H.H.H.",
"H.H.H.H.H.H.H.H.H.H.H.G.G.F.H.H.H.H.H.G.H.H.H.H.H.H.H.",
"H.H.H.H.H.H.H.H.H.H.H.m.d.s.d.V.G.H.G.H.H.H.H.H.H.H.H.",
"H.H.H.H.H.H.H.H.H.G.m.9.Y J T y.C.H.H.H.H.H.H.H.H.H.H.",
"H.H.H.H.H.H.H.H.H.J.a.J D p v / f.G.H.H.H.H.H.H.H.H.H.",
"H.H.H.H.H.H.H.H.G.m.T A D 3 4 D ] Z.H.H.H.H.H.H.H.H.H.",
"H.H.H.H.H.H.H.H.m.t.V b A b v H ~ d.Z.H.H.H.H.H.H.H.H.",
"G.H.H.H.H.H.H.G.g.~ l N b S A G H _ x.H.H.H.H.H.H.H.H.",
"H.H.H.H.H.H.H.Z.[ m z 7 b b b A c Z i.Z.H.H.H.H.H.H.H.",
"H.H.H.H.G.H.D.p.M h e 0 F b F F r , / f.H.H.H.H.H.H.H.",
"H.H.H.H.F.D.z.Q i x z x l x N V C b J { b.H.H.H.H.H.H.",
"H.H.H.G.G.Z.` j a M p i B M M Z n S G K p.D.H.H.H.H.H.",
"H.F.H.D.N.a.h 5 2 5 g i m w r N N N z j ^ f.D.H.G.H.H.",
"H.H.H.G.c.U 9 5   2 j h x r 8 x x x f w G ' V.G.F.F.H.",
"H.G.F.H.h.>.d 4 > 6 y 7 h 9 u s u c l i ) 8.k.F.H.H.H.",
"F.G.H.F.3.+.:.d 6 5 < 2 h h 9 j 4 6 h E 7.#.3.F.G.F.G.",
"H.H.G.F.w.@ @.>.I t . 1 9 h j 9 : q W <.X.O r.H.F.H.H.",
"H.F.H.H.B.%.o O.5.;.R I L P P I E ;.4.o.+ %.A.F.F.H.G.",
"H.D.H.H.H.M.$.o  .+.=.5.6.6.5.5.1.+.| X &.B.H.H.H.H.H.",
"H.H.H.H.H.H.l.0.*.$ + }  . . .} # % *.q.l.H.F.H.H.H.H.",
"H.H.H.H.H.H.H.G.B.e.- * * * * = = j.N.D.H.H.H.H.H.H.H.",
"H.H.H.H.H.H.H.H.H.H.S.A.A.A.N.A.S.H.H.H.H.H.H.H.H.H.H.",
"H.H.H.H.H.H.H.H.H.H.H.H.G.H.H.H.H.H.H.H.H.H.H.H.H.H.H.",
"H.H.H.H.H.H.H.H.H.G.H.H.F.F.H.H.G.H.H.H.H.H.H.H.H.H.H.",
"H.H.H.H.H.H.H.H.F.H.H.H.H.H.H.H.H.H.H.H.H.H.H.H.H.H.H."
};
