/* XPM */
static char *exit[] = {
/* columns rows colors chars-per-pixel */
"27 27 185 2 ",
"   c #121212",
".  c #131313",
"X  c #141414",
"o  c #151515",
"O  c #161616",
"+  c #171717",
"@  c #181818",
"#  c #191919",
"$  c #1A1A1A",
"%  c #1B1B1B",
"&  c #1C1C1C",
"*  c #1C1C1D",
"=  c #1D1D1D",
"-  c #1E1E1E",
";  c #1F1F1F",
":  c #1F2123",
">  c #202020",
",  c #212121",
"<  c #212123",
"1  c #222222",
"2  c #222223",
"3  c #232323",
"4  c #202224",
"5  c #212325",
"6  c #222325",
"7  c #222326",
"8  c #232425",
"9  c #222426",
"0  c #232426",
"q  c #232427",
"w  c #232527",
"e  c #242424",
"r  c #242425",
"t  c #252525",
"y  c #252627",
"u  c #262626",
"i  c #272727",
"p  c #2E2B26",
"a  c #242528",
"s  c #242629",
"d  c #272729",
"f  c #282828",
"g  c #282929",
"h  c #292929",
"j  c #29292A",
"k  c #28292B",
"l  c #2A2A2A",
"z  c #2B2B2B",
"x  c #2A2B2C",
"c  c #2B2C2C",
"v  c #2B2C2D",
"b  c #2C2C2C",
"n  c #2D2D2D",
"m  c #2E2E2D",
"M  c #2D2E2E",
"N  c #2E2E2E",
"B  c #32302E",
"V  c #34322D",
"C  c #37342E",
"Z  c #36342F",
"A  c #3C362B",
"S  c #353431",
"D  c #363636",
"F  c #373737",
"G  c #3B3833",
"H  c #383838",
"J  c #423B2F",
"K  c #403B31",
"L  c #463E31",
"P  c #453F33",
"I  c #50442E",
"U  c #4A4334",
"Y  c #4B4334",
"T  c #4E4534",
"R  c #4F4635",
"E  c #584B32",
"W  c #594E38",
"Q  c #5D5138",
"!  c #67583A",
"~  c #68593A",
"^  c #705E3B",
"/  c #73603B",
"(  c #76643E",
")  c #7B663D",
"_  c #7D683E",
"`  c #7E693F",
"'  c #7F6A3F",
"]  c #444444",
"[  c #454545",
"{  c #6F6042",
"}  c #666564",
"|  c #6A6C6F",
" . c #6D6E6E",
".. c #6B6D70",
"X. c #6D6E70",
"o. c #7B7871",
"O. c #7F7B74",
"+. c #816B40",
"@. c #836D41",
"#. c #836D42",
"$. c #856F42",
"%. c #867042",
"&. c #867044",
"*. c #887143",
"=. c #8B7445",
"-. c #8D7545",
";. c #8D7546",
":. c #8E7646",
">. c #8F7646",
",. c #8F7747",
"<. c #907747",
"1. c #937A49",
"2. c #947B49",
"3. c #957C4A",
"4. c #967C4A",
"5. c #977D4A",
"6. c #977D4B",
"7. c #987E4B",
"8. c #997E4B",
"9. c #997F4B",
"0. c #8B7750",
"q. c #937D52",
"w. c #947E53",
"e. c #927D54",
"r. c #957F54",
"t. c #9A804C",
"y. c #9B804C",
"u. c #968054",
"i. c #968055",
"p. c #978156",
"a. c #A0844F",
"s. c #A28650",
"d. c #AE9056",
"f. c #AF935F",
"g. c #B49760",
"h. c #BC9E63",
"j. c #B19868",
"k. c #A99877",
"l. c #AC9A77",
"z. c #B8A379",
"x. c #C09F5E",
"c. c #C0A060",
"v. c #C3A160",
"b. c #C3A260",
"n. c #C4A260",
"m. c #C7A562",
"M. c #C1A265",
"N. c #CBA864",
"B. c #CDA965",
"V. c #D1AF6B",
"C. c #D4B068",
"Z. c #DAB56B",
"A. c #DBB66C",
"S. c #DAB66F",
"D. c #DDB76C",
"F. c #DEB96E",
"G. c #D0B378",
"H. c #D1B37A",
"J. c #D3B47A",
"K. c #EAC273",
"L. c #EEC575",
"P. c #F4CA78",
"I. c #F9CF7B",
"U. c #FACF7B",
"Y. c #F9D07B",
"T. c #FBD17C",
"R. c #FCD17C",
"E. c #FDD27C",
"W. c #FDD27D",
"Q. c #FED27C",
"!. c #FED27D",
"~. c #FED37D",
"^. c #FFD37D",
"/. c #FED47D",
"(. c #FFD47D",
"). c #FFD57D",
"_. c #FFD67D",
"`. c #FED47E",
"'. c #FFD47E",
"]. c #FFD57E",
"[. c #FFD67E",
"{. c #FFD77E",
"}. c #FFD67F",
"|. c #FFD87F",
" X c #FFD880",
/* pixels */
"+ @ @ % - & - = & = $ & ; = = * $ @ @ + + O O X X o + ",
"+ + + & - - 3 1 3 t > , 3 , > , = $ # + O + O o   . o ",
"@ % $ - 3 3 u i h z g j h i 3 , - $ # + O O O o X . X ",
"& > - 1 u j n n n n n N N N g e ; * % $ @ + O o O X X ",
"= > ; 3 f z n [ } j.V.f.S M l i 3 ; & $ # @ o X o o X ",
"& = ; 3 h M ] | z.`.[.`.g.G j u 3 > - % $ # + O O O O ",
"& = ; e l D  .O.J.).^.^.}.e.a i 1 > ; % # @ @ o o X o ",
"* - , t l F X.l._.^.^.^.|.p.a f 3 > ; & @ @ @ O o X X ",
"* > 1 e j F X.l._.^.^.^.|.p.a f t , , ; $ @ + + O o o ",
"- 3 e u z F X.l._.^.^.^.|.i.q f t , > ; % $ @ + + O X ",
"* > 1 u b F X.l._.^.^.^. Xr.9 f t , > ; % $ @ + + @ o ",
"> 1 3 i b F X.l._.^.^.^. Xw.6 f t e 3 , = $ # o O O o ",
", 3 t f b F X.l._.^.^.^. Xq.5 i e 3 1 ; - & % O O O o ",
"> > 3 u l F X.l._.^.^.^. Xw.q i e 3 , - - $ % O o O O ",
", 3 u g z F X.l._.^.^.^.|.r.w i t e , > > & % O o O O ",
"3 t f l z F X.l._.^.^.^. Xr.0 t t e > > > $ $ + O + @ ",
"2 8 f l z F X.l._.^.^.^. Xr.7 t t e 1 , > & $ @ + + @ ",
"A J C x v F ..k._.^.^.^. Xw.: t 3 3 e 3 , = & # + @ + ",
"#.' ~ R T H o.H.{.'.^.^. Xq.4 u e t t 3 > & % $ @ # @ ",
"5.:.>.<.-.{ G.|.h.S.].^. Xw.w l i i u 1 - $ % # @ $ # ",
"7.8.7.y.a.D./.[.0.M.}.^. Xr.s z g g i e , - - # + @ @ ",
"4.t.s.C.P./.~.N.c.I.^.^.'.u.B Z n c g f e , 1 % + O O ",
"d.m.U.E.(.W.Z.B.E.(.^.[.F.6.&.( P K V d y t t ; # + + ",
"^.^.^.^.!.K.A.^.^.^.(.Y.v.5.7.=.*.%.! U Y m k r * @ @ ",
"^.^.^.^.Q.L.~.^.^.^.T.b.5.7.7.8.9.3.;.$.` Q W L < * $ ",
"^.^.^.^.^.(.^.^.^.R.x.8.7.7.7.7.7.7.9.1.,.@.+./ E I p ",
"^.^.^.^.^.^.^.^.(.n.7.7.7.7.7.7.7.7.7.8.8.2.:.` _ ) ^ "
};
