/* XPM */
static char *npxfess[] = {
/* columns rows colors chars-per-pixel */
"27 27 48 1 ",
"  c #181818",
". c #1B1B1B",
"X c #1B1C1E",
"o c #1C1C1C",
"O c #1D1D1D",
"+ c #1C1C1E",
"@ c #1C1D1E",
"# c #1D1D1E",
"$ c #1E1E1E",
"% c #1F1F1E",
"& c #1F1F1F",
"* c #24221E",
"= c #29271D",
"- c #2A281D",
"; c #2F2C1D",
": c #202020",
"> c #232323",
", c #2D2D2D",
"< c #4D451B",
"1 c #756618",
"2 c #414141",
"3 c #4A4A4A",
"4 c #4E4E4E",
"5 c #646464",
"6 c #696969",
"7 c #8F7B17",
"8 c #9B8615",
"9 c #A38D15",
"0 c #A68F14",
"q c #A78F14",
"w c #B09714",
"e c #F0CC0F",
"r c #F1CD0F",
"t c #F1CE0F",
"y c #F2CE0F",
"u c #E4C210",
"i c #888888",
"p c #898989",
"a c #A1A1A1",
"s c #A7A7A7",
"d c #C9C9C9",
"f c #CFCFCF",
"g c #D0D0D0",
"h c #ECECEC",
"j c #EDEDED",
"k c #FDFDFD",
"l c #FEFEFE",
"z c #FFFFFF",
/* pixels */
"zzzzzzzzzzzzzzzzzzzzzzzzzzz",
"zzzzzzzzzzzzlllzzzzzzzzzzzz",
"zzzzzzzzzjdapipadjzzzzzzzzz",
"zzzzzzzhs52>   >25shzzzzzzz",
"zzzzzkg6,..O$$$O..,6gkzzzzz",
"zzzzkd4:o$$$$$$$$$o:4dkzzzz",
"zzzzf3&%#@$$$$$$$@#%&3fzzzz",
"zzzh6:%<1;X$$$$$X;1<%:6hzzz",
"zzzs,o#1e9-#$$$#-9e1#o,szzz",
"zzj5.$@;9t0=$$$=0t9;@$.5jzz",
"zzd2.$$X-0rq-+-qr0-X$$.2dzz",
"zza>O$$$#=qy8*8yq=#$$$O>azz",
"zlp $$$$$$-8w7w8-$$$$$$ plz",
"zli $$$$$$+*7u7*+$$$$$$ ilz",
"zlp $$$$$$-8w7w8-$$$$$$ plz",
"zza>O$$$#=qy8*8yq=#$$$O>azz",
"zzd2.$$X-0rq-+-qr0-X$$.2dzz",
"zzj5.$@;9t0=$$$=0t9;@$.5jzz",
"zzzs,o#1e9-#$$$#-9e1#o,szzz",
"zzzh6:%<1;X$$$$$X;1<%:6hzzz",
"zzzzg4&%#@$$$$$$$@#%&4gzzzz",
"zzzzkd3:o$$$$$$$$$o:3dkzzzz",
"zzzzzkf6,..O$$$O..,6fkzzzzz",
"zzzzzzzhs52>   >25shzzzzzzz",
"zzzzzzzzzjdapipadjzzzzzzzzz",
"zzzzzzzzzzzzlllzzzzzzzzzzzz",
"zzzzzzzzzzzzzzzzzzzzzzzzzzz"
};
