/* XPM */
static char *test[] = {
/* columns rows colors chars-per-pixel */
"27 27 36 1 ",
"  c #564F4E",
". c #544F55",
"X c #565155",
"o c #575358",
"O c #5A555C",
"+ c #5E5B5E",
"@ c #625E5E",
"# c #64625E",
"$ c #5E5B62",
"% c #625E64",
"& c #645F69",
"* c #656165",
"= c #686567",
"- c #666867",
"; c #676369",
": c #6A656C",
"> c #67686A",
", c #6C6A6D",
"< c #70676E",
"1 c #706C6F",
"2 c #74706F",
"3 c #6C6770",
"4 c #6E6B71",
"5 c #726D73",
"6 c #6F7173",
"7 c #757275",
"8 c #787676",
"9 c #797877",
"0 c #757379",
"q c #79767B",
"w c #7B797C",
"e c #7B7780",
"r c #7D7B82",
"t c #807F85",
"y c #808085",
"u c #828288",
/* pixels */
"wruwrrrrrrrrue4qyrtweryrqer",
"74w98,0q9770e7>4w771889q37q",
"OO=&$o&;*OO$>$XO>%Oo>,$$o&-",
"437:43364666334454<:4,:436$",
"9w57qq87qwq84,987ww8974q0q$",
"4,**5>,;>,=*%>,>&34:=**,>%O",
"4*%%3;;$%:&%$3,*&&5**%;;%$$",
"044qq75000000000077508qq466",
"7,q9q7qww758wq80wq870qq8,7q",
"3>4,3;47,,:55<=:54=;77,,*46",
"3:3>4355:4555<&<3;4354&4,57",
"754400075077q82770e0053q8qq",
"4:%*,4,*>463:<<=*4743**76,>",
"44,:776:=763<<,,>,74,=>8,,,",
"q7rwwqwwwwwew847tqq7qeww5qw",
"&#11,*521,=:7,$;8,*$464;&37",
"%%<&:%&,:=%*:&@&3&&%&:@&$3;",
"w7w50800qq8q44q875w708,qq0$",
"q01788825575:,88<5088<:884$",
"1=%=1<=%:5,*%,5%%:5<*&&5*%O",
"q3:5q7<,<74=375:300::5<8*34",
"95erqqqtwrqqeew8ee07qywq5qr",
"5=075<5871<57755q75,788<,49",
"=*,=,&<5:::35,**3>,*,1=,*4,",
"5<::5554:<3<5,,>::544,$544>",
"5718w7040w0787276500744q089",
":@ X::%Xo>,*+@#+.$3>+XO3*++"
};
