/* XPM */
static char *wall[] = {
/* columns rows colors chars-per-pixel */
"27 27 52 1 ",
"  c #48424A",
". c #4B494E",
"X c #514B4C",
"o c #4F4D57",
"O c #4F4C59",
"+ c #534D54",
"@ c #544D59",
"# c #555256",
"$ c #5A5456",
"% c #565856",
"& c #56525A",
"* c #5A545C",
"= c #5C5B5C",
"- c #615C5D",
"; c #5E625D",
": c #5C5662",
"> c #5E5B62",
", c #635D63",
"< c #685F63",
"1 c #635E69",
"2 c #685F68",
"3 c #656365",
"4 c #696565",
"5 c #6B6966",
"6 c #66636B",
"7 c #6B656C",
"8 c #67696B",
"9 c #6C6A6C",
"0 c #71666C",
"q c #716C6E",
"w c #72706E",
"e c #6F6772",
"r c #6D6B72",
"t c #726D73",
"y c #726E78",
"u c #6E7072",
"i c #757374",
"p c #787575",
"a c #7A7975",
"s c #76737A",
"d c #79767B",
"f c #7C7A7C",
"g c #757480",
"h c #7A7680",
"j c #7D7B82",
"k c #7E7B88",
"l c #807D83",
"z c #807F89",
"x c #7F8185",
"c c #828085",
"v c #838289",
"b c #88888D",
/* pixels */
"jjbfxjjxjjzkcj7vjxjhjxclskl",
"i9fpp8ddpardpa>paatqdiap8ia",
"*&9,:+,83=&=83 36-$#46=>&64",
"r7r6r76rrrrrr66rr6r66s6r6r:",
"ffpifdfpdfafrqffifdfpptffd>",
"ww46i9w58rw5,7ww<etwq46t58=",
"6:@@6>*&&1:#@1,:@,7*$*@6%&O",
"fsdjjgjxjlfjjjhjzfjdlfllssj",
"i4ipiripid0dpa0sdpirspdi8td",
"7,pu93yfq94ti0<9f953pd873iq",
"046>rt7t=7t7t0776:r7r7*i40t",
"dyysddsdfhsddpyphjdddssdsfd",
"99,,ru8,3ri84995-es98>3ir88",
"r874isr83ii87r8r,8sr763f895",
"drcfldjfafdhjf4kjfftffffydl",
"84att<piii6tpi$iaw7,siir6ra",
"@@4&:+*4<$@*8- ,,@*@,3#*#,>",
"cfzdljhfhlflttzlhszffftlfj>",
"aaqippfppspde8aaqyiaat7ffi>",
"0<**00-$*73$+17-$,t,-*:7=&O",
"dyydadedsfs7hhf7dhk7sspl7ys",
"dthfdsjfdfpsdfpyjdstdlpptyf",
"t7dii7sptp7ppp7isit8iapq8ta",
"0-939,8r644707,3767,r830,09",
"0077rttt6rrtir8772yrt9>yrur",
"spyhgddthjsipppiydddiisdpid",
"4-XX78;$o483%;4%.=83=.&r;=="
};
