/* XPM */
static char *avatar_right[] = {
/* columns rows colors chars-per-pixel */
"11 11 112 2 ",
"   c #3A5E3D",
".  c #3E633F",
"X  c #3E8756",
"o  c #4C8256",
"O  c #408759",
"+  c #438F59",
"@  c #4B885E",
"#  c #49935E",
"$  c #4A8663",
"%  c #4A8B65",
"&  c #5B8666",
"*  c #5B8A63",
"=  c #459C68",
"-  c #4F9868",
";  c #59916C",
":  c #6A947C",
">  c #48A168",
",  c #50A36E",
"<  c #4EA770",
"1  c #50A172",
"2  c #54A271",
"3  c #53A670",
"4  c #53A775",
"5  c #56A676",
"6  c #58A776",
"7  c #52AA73",
"8  c #50AC70",
"9  c #52AD73",
"0  c #5DA47A",
"q  c #7D9F83",
"w  c #7A9D84",
"e  c #75AE87",
"r  c #76A68A",
"t  c #7BAA8D",
"y  c #839181",
"u  c #81A38A",
"i  c #89A390",
"p  c #8DAC99",
"a  c #92A697",
"s  c #97AA99",
"d  c #9FAB9D",
"f  c #82B092",
"g  c #81B296",
"h  c #82B594",
"j  c #8FB49C",
"k  c #97B19E",
"l  c #95B6A0",
"z  c #9CBDA8",
"x  c #9EBDAC",
"c  c #ADCBB5",
"v  c #ADC1B8",
"b  c #B4C6BB",
"n  c #D3D2D7",
"m  c #D1DED0",
"M  c #E0D9DE",
"N  c #CEE1D6",
"B  c #D9EBDE",
"V  c #DCE4E2",
"C  c #DCEAE0",
"Z  c #E9EFEC",
"A  c #E7F2EA",
"S  c #F1F8EF",
"D  c #EEEDF0",
"F  c #F7EFF5",
"G  c #EEF1F0",
"H  c #EFF5F1",
"J  c #F3F5F5",
"K  c #F8F6F3",
"L  c #F3F8F3",
"P  c #F5F8F5",
"I  c #FAF9F7",
"U  c #FCFEF7",
"Y  c #F8F9F8",
"T  c #FBFAFB",
"R  c #FBFBFB",
"E  c #FDFAFB",
"W  c #FAFCF8",
"Q  c #F9FEFA",
"!  c #FEFDF9",
"~  c #FEFCFA",
"^  c #FEFCFB",
"/  c #FCFEFA",
"(  c #FCFEFB",
")  c #FEFFFA",
"_  c #FEFFFB",
"`  c #FFFBFE",
"'  c #FFFBFF",
"]  c #F8FEFD",
"[  c #FBFEFD",
"{  c #FBFEFF",
"}  c #FAFFFF",
"|  c #FDFDFC",
" . c #FCFCFD",
".. c #FDFCFD",
"X. c #FDFDFD",
"o. c #FFFCFD",
"O. c #FFFDFD",
"+. c #FCFEFC",
"@. c #FDFEFC",
"#. c #FDFCFE",
"$. c #FDFDFF",
"%. c #FEFCFE",
"&. c #FFFCFE",
"*. c #FEFDFE",
"=. c #FEFCFF",
"-. c #FFFCFF",
";. c #FFFDFF",
":. c #FDFEFE",
">. c #FDFFFE",
",. c #FDFEFF",
"<. c #FCFFFF",
"1. c #FEFEFF",
/* pixels */
") _ @.X.*.X.*.$.} <.O.",
";.;.;.T J P ~ &.-.1.>.",
"' :.C l t f c A ` -.{ ",
"o.B e 3 9 < 5 g H F D ",
"E z 2 > X + 8 0 N M n ",
"G r 1 $ k q - 4 h a v ",
"j 6 = : L m ; 7 # * & ",
"% , O p Q S u @ o .   ",
"x w i V ,.*.Z b s y d ",
"..K I =.#.%.-.;.*.Y R ",
" .! W ] / U ( ^ | [ +."
};
