/* XPM */
static char *npxfess[] = {
/* columns rows colors chars-per-pixel */
"11 11 18 1 ",
"  c #1A1A1B",
". c #1A1B1E",
"X c #1C1C1C",
"o c #27251C",
"O c #3A3A3A",
"+ c #48411B",
"@ c #5A501A",
"# c #4D4D4D",
"$ c #646461",
"% c #867516",
"& c #978315",
"* c #A68F15",
"= c #8F8F8F",
"- c #E0E0E0",
"; c #E8E8E8",
": c #EDEDED",
"> c #FDFDFD",
", c white",
/* pixels */
",,,>:-:>,,,",
",,;=#O#=;,,",
",;$o X o$;,",
",=o%+.+%o=,",
":# +&@&+ #:",
"-OX.@*@.XO-",
":# +&@&+ #:",
",=o%+.+%o=,",
",;$o X o$;,",
",,;=#O#=;,,",
",,,>:-:>,,,"
};
