/* XPM */
static char *test[] = {
/* columns rows colors chars-per-pixel */
"11 11 79 1 ",
"  c #646268",
". c #686469",
"X c #69666A",
"o c #6C676A",
"O c #68666C",
"+ c #6A676C",
"@ c #6C676C",
"# c #6C6A6B",
"$ c #6B686C",
"% c #6B686D",
"& c #6B686E",
"* c #6B696E",
"= c #6C686D",
"- c #6C6B6C",
"; c #6D6A6D",
": c #6C686E",
"> c #6C696E",
", c #6C696F",
"< c #6D696F",
"1 c #6E696E",
"2 c #6D6A6E",
"3 c #6D6B6E",
"4 c #6D6A6F",
"5 c #6D6B6F",
"6 c #6F6A6E",
"7 c #6E6A6F",
"8 c #6F6B6F",
"9 c #6E6C6F",
"0 c #6C6970",
"q c #6D6A70",
"w c #6D6B70",
"e c #6E6A70",
"r c #6E6B70",
"t c #6F6B70",
"y c #6E6B71",
"u c #6E6C70",
"i c #6F6C70",
"p c #6E6C71",
"a c #6F6C71",
"s c #6F6C72",
"d c #706B71",
"f c #716B71",
"g c #706C70",
"h c #706D70",
"j c #706C71",
"k c #706D71",
"l c #716D71",
"z c #706E70",
"x c #716E70",
"c c #706E71",
"v c #716E71",
"b c #726E71",
"n c #726F71",
"m c #706D72",
"M c #716D72",
"N c #706D73",
"B c #716D73",
"V c #706E72",
"C c #716E72",
"Z c #706F72",
"A c #716F73",
"S c #726E73",
"D c #726F73",
"F c #736F73",
"G c #716F74",
"H c #716F75",
"J c #726F74",
"K c #736F74",
"L c #736F75",
"P c #736F76",
"I c #746F75",
"U c #727074",
"Y c #737174",
"T c #727075",
"R c #737075",
"E c #737176",
"W c #747075",
"Q c #747275",
"! c #747276",
/* pixels */
"GQG!EmZDQTH",
"2<,u5+3>;*O",
",:4>%:,t@> ",
"yUJYFILSRbC",
"1<NaSf6NswD",
"iVJcThyUpAV",
"=i7x4$e%9>0",
"SlnMt7gS8jO",
"BWKRMLBPSSr",
"1aMvdlwyz8k",
"o@q%u#.qX&-"
};
