/* XPM */
static char *wall[] = {
/* columns rows colors chars-per-pixel */
"11 11 84 1 ",
"  c #646267",
". c #68656A",
"X c #6A666A",
"o c #6B676B",
"O c #6C676A",
"+ c #68666C",
"@ c #68676C",
"# c #6A676C",
"$ c #6B676C",
"% c #6B676D",
"& c #6C676E",
"* c #6A686B",
"= c #6B686D",
"- c #6B696D",
"; c #6B686E",
": c #6B6A6F",
"> c #6F686D",
", c #6C6B6C",
"< c #6C696E",
"1 c #6E696E",
"2 c #6E696F",
"3 c #6C6A6E",
"4 c #6D6A6E",
"5 c #6D6B6E",
"6 c #6C6A6F",
"7 c #6D6A6F",
"8 c #6E6A6F",
"9 c #6F6B6F",
"0 c #706B6F",
"q c #706C6F",
"w c #6C6970",
"e c #6C6A70",
"r c #6D6B70",
"t c #6E6A70",
"y c #6F6A70",
"u c #6E6B70",
"i c #6F6B70",
"p c #6E6B71",
"a c #6F6B71",
"s c #6E6C70",
"d c #6E6D70",
"f c #6E6C71",
"g c #6F6E71",
"h c #6F6E72",
"j c #706C70",
"k c #716C70",
"l c #706D70",
"z c #716D70",
"x c #706C71",
"c c #716C71",
"v c #706D71",
"b c #716D71",
"n c #706E71",
"m c #736F71",
"M c #706C72",
"N c #716E72",
"B c #716F72",
"V c #716E73",
"C c #726E72",
"Z c #726F72",
"A c #726E73",
"S c #726F73",
"D c #736F73",
"F c #706C74",
"G c #726D74",
"H c #716F74",
"J c #736F74",
"K c #736F75",
"L c #736F77",
"P c #717072",
"I c #717073",
"U c #727073",
"Y c #717075",
"T c #727174",
"R c #727075",
"E c #727175",
"W c #737176",
"Q c #757074",
"! c #747075",
"~ c #747175",
"^ c #747275",
"/ c #757375",
"( c #747076",
") c #747276",
/* pixels */
"S/H/WnPB^UY",
"7<3p7#7<4<+",
"<%3;*=&io; ",
"iTR^JQ!S)CC",
"1eVaNc8FxuA",
"sNRlEguRuIh",
"%92z6=t$u-w",
"Zbmcj6qA0M@",
"G!K~N(ALVDp",
">fMvjkyug5x",
"O%r=d,.rX:,"
};
