/* XPM */
static char *avatar_right[] = {
/* columns rows colors chars-per-pixel */
"20 20 126 2 ",
"   c #2B512D",
".  c #2F5431",
"X  c #3B5439",
"o  c #3C5A3C",
"O  c #3D734E",
"+  c #3E794C",
"@  c #367450",
"#  c #3C7D52",
"$  c #406C4A",
"%  c #486D4D",
"&  c #427E4D",
"*  c #447555",
"=  c #487155",
"-  c #467C52",
";  c #4D7A51",
":  c #4A725B",
">  c #467A58",
",  c #5B765C",
"<  c #537F5E",
"1  c #597E6A",
"2  c #398553",
"3  c #369357",
"4  c #3C945B",
"5  c #418356",
"6  c #438B55",
"7  c #45865A",
"8  c #48825B",
"9  c #439458",
"0  c #4C8263",
"q  c #458963",
"w  c #498A61",
"e  c #4E8D69",
"r  c #558061",
"t  c #548E6D",
"y  c #5C886C",
"u  c #459B65",
"i  c #4C9A65",
"p  c #4B976A",
"a  c #4A9D6C",
"s  c #53936B",
"d  c #58976C",
"f  c #549B6D",
"g  c #5F8F72",
"h  c #5D9372",
"j  c #5C9D73",
"k  c #64846A",
"l  c #67936C",
"z  c #658973",
"x  c #6D8E74",
"c  c #778373",
"v  c #6B9773",
"b  c #639875",
"n  c #659579",
"m  c #66997B",
"M  c #719177",
"N  c #72927E",
"B  c #44A265",
"V  c #47A66B",
"C  c #4CA46C",
"Z  c #4CA170",
"A  c #4BA870",
"S  c #53A575",
"D  c #5DA071",
"F  c #52AD73",
"G  c #5CAC7C",
"H  c #53B174",
"J  c #56B37A",
"K  c #5EB97D",
"L  c #799280",
"P  c #7B9981",
"I  c #7F9F8C",
"U  c #5FAF81",
"Y  c #5CBA84",
"T  c #61AA81",
"R  c #79A184",
"E  c #7EA08D",
"W  c #63BD85",
"Q  c #69B986",
"!  c #65BD88",
"~  c #62C285",
"^  c #8C9A8A",
"/  c #82A38D",
"(  c #84AD94",
")  c #8EAC9A",
"_  c #94A596",
"`  c #96B2A1",
"'  c #9EB4A7",
"]  c #ADAFAD",
"[  c #A1B4A6",
"{  c #A3BAA6",
"}  c #B7BEBD",
"|  c #9BC1A7",
" . c #9FC3AA",
".. c #ABCDB8",
"X. c #BBC9C2",
"o. c #B2D2C3",
"O. c #B9D4C5",
"+. c #CDC9CF",
"@. c #D0C6CC",
"#. c #C5D9CC",
"$. c #D4C9D0",
"%. c #CDD0D3",
"&. c #C2DED1",
"*. c #D0DFD6",
"=. c #DBD6DC",
"-. c #D5D9DC",
";. c #C7E7D2",
":. c #CFE2D1",
">. c #D9E2D9",
",. c #D3EAD9",
"<. c #D9ECDE",
"1. c #DBE9E1",
"2. c #E4EAE3",
"3. c #E2EFE8",
"4. c #EDEEEB",
"5. c #F1E7EE",
"6. c #F3EEEF",
"7. c #ECF4EB",
"8. c #E9F9EF",
"9. c #EDF3F4",
"0. c #EEF8F2",
"q. c #F1F7F3",
"w. c #F2FBF5",
"e. c #FCFDF6",
"r. c #F5FBFA",
"t. c #FDFDFD",
/* pixels */
"e.e.e.t.t.t.e.t.t.t.e.t.t.t.t.r.t.t.t.t.",
"t.t.t.t.t.t.t.t.t.t.t.t.t.t.t.t.t.t.t.t.",
"t.t.t.t.t.t.t.t.t.t.t.t.t.t.t.t.t.t.t.t.",
"t.t.t.t.t.t.w.1.1.1.7.e.t.t.t.t.t.t.t.t.",
"t.t.t.t.w.#./ k n n R { <.r.t.t.t.t.t.r.",
"t.t.e.8. .b i f Q G a j n ..q.e.t.t.t.t.",
"t.t.q.| d Q F V ~ u J ! p t O.e.t.5.6.9.",
"t.t.,.b i K H 3 C 4 F V J T ( w.t.$.=.%.",
"t.t.` h G V u 2 # + 9 B ~ f m 8.6.@.+.-.",
"t.r.E e U a 2 > M k & i C S s ;.>.] } 9.",
"t.1.g U Z q : ' 7.>.x 8 G Y u j z k N o.",
"-.( p V F q 1 3.t.e.{ * T A H 6 & v < y ",
"z w W H 4 @ z 0.e.e.:.r f i K 6 l l l $ ",
"@ G C F u * ) w.e.e.8.P > 7 D - ;   .   ",
"0 s d 5 O : &.t.t.e.e.>.N = < % o X X , ",
"&.I k k L X.r.r.t.t.t.t.q.*.[ _ ^ c N %.",
"t.q.2.2.4.t.t.t.t.t.t.t.t.t.t.t.q.2.4.e.",
"t.t.t.t.t.t.t.t.t.t.t.t.t.t.t.t.t.t.t.t.",
"t.t.t.e.e.r.t.t.e.e.t.t.t.t.t.t.t.t.t.t.",
"t.t.e.e.r.r.r.t.e.e.r.e.t.t.t.t.t.e.t.e."
};
