/* XPM */
static char *avatar[] = {
/* columns rows colors chars-per-pixel */
"20 20 124 2 ",
"   c #2B512D",
".  c #395337",
"X  c #3C5A3C",
"o  c #3D734E",
"O  c #3E794C",
"+  c #367450",
"@  c #3F7753",
"#  c #367950",
"$  c #486D4D",
"%  c #427E4D",
"&  c #487155",
"*  c #467C52",
"=  c #4D7A51",
"-  c #4A725B",
";  c #467A58",
":  c #5B765C",
">  c #537F5E",
",  c #547F60",
"<  c #597E6A",
"1  c #398553",
"2  c #369357",
"3  c #3C945B",
"4  c #418356",
"5  c #438B55",
"6  c #45865A",
"7  c #48825B",
"8  c #439458",
"9  c #458963",
"0  c #498A61",
"q  c #558061",
"w  c #548E6D",
"e  c #5C886C",
"r  c #459B65",
"t  c #4C9A65",
"y  c #4B976A",
"u  c #4A9D6C",
"i  c #5C9263",
"p  c #53936B",
"a  c #58976C",
"s  c #589B6F",
"d  c #5D9372",
"f  c #509E70",
"g  c #5C9D73",
"h  c #64846A",
"j  c #67936C",
"k  c #658973",
"l  c #6D8E74",
"z  c #778373",
"x  c #639471",
"c  c #6B9773",
"v  c #639875",
"b  c #659579",
"n  c #66997B",
"m  c #719177",
"M  c #44A265",
"N  c #47A66B",
"B  c #4CA46C",
"V  c #50AB6F",
"C  c #4CA170",
"Z  c #4BA870",
"A  c #53A575",
"S  c #52AD73",
"D  c #5CAC7C",
"F  c #53B174",
"G  c #56B37A",
"H  c #5EB97D",
"J  c #60AB7E",
"K  c #61B47B",
"L  c #808B7C",
"P  c #779581",
"I  c #799280",
"U  c #7B9981",
"Y  c #5CBA84",
"T  c #61AA81",
"R  c #79A184",
"E  c #7EA08D",
"W  c #63BD85",
"Q  c #69B986",
"!  c #65BD88",
"~  c #62C285",
"^  c #8C9A8A",
"/  c #82A38D",
"(  c #84AD94",
")  c #8EAC9A",
"_  c #94A596",
"`  c #96B2A1",
"'  c #9EB4A7",
"]  c #ADAFAD",
"[  c #A3BAA6",
"{  c #B7BEBD",
"}  c #A3C1AA",
"|  c #ABCDB8",
" . c #BBC9C2",
".. c #B2D2C3",
"X. c #B9D4C5",
"o. c #CDC9CF",
"O. c #D0C6CC",
"+. c #C5D9CC",
"@. c #CFDACD",
"#. c #D4C9D0",
"$. c #CDD0D3",
"%. c #C2DED1",
"&. c #D0DFD6",
"*. c #DBD6DC",
"=. c #D5D9DC",
"-. c #C7E7D2",
";. c #CFE2D1",
":. c #D5E2D8",
">. c #D9E2D9",
",. c #D9ECDE",
"<. c #DBE9E1",
"1. c #E4EAE3",
"2. c #EDEEEB",
"3. c #F1E7EE",
"4. c #E4F5EB",
"5. c #ECF4EB",
"6. c #E9F9EF",
"7. c #F1ECF1",
"8. c #EDF3F4",
"9. c #F1F7F3",
"0. c #F2FBF5",
"q. c #FCFDF6",
"w. c #F5FBFA",
"e. c #FDFDFD",
/* pixels */
"e.e.e.e.e.e.e.e.e.e.e.e.e.e.q.e.e.q.q.q.",
"e.e.e.e.e.e.e.e.e.e.e.e.e.e.e.e.e.e.e.e.",
"e.e.e.e.e.e.e.e.w.e.e.e.e.e.e.e.e.e.e.e.",
"e.e.e.e.e.e.e.q.q.5.<.,.1.9.e.e.e.e.e.e.",
"w.e.e.e.e.e.w.<.} R n b e / +.9.e.e.e.e.",
"w.e.e.e.e.9.| g g a A Q f w v } 6.w.e.e.",
"9.7.3.e.e.X.w y ! G M ~ N V Q a ' 0.e.e.",
"$.*.#.e.9.( T D N S 3 M 2 F H t x &.e.e.",
"=.o.O.7.6.n f ~ M 8 % @ 1 r B D d ` q.e.",
"8.{ ] >.-.w A B t % h m ; 1 u D y E w.e.",
"..P h x g r Y D 7 l >.5.' - 9 C T d <.e.",
"e , c O 5 S Z J * [ q.q.4.< 9 S N y ( :.",
"o c j i 5 K t s q ;.q.w.8.k # 3 G W 0 k ",
"      = % g 6 * U 5.q.w.0.) @ r A Z D + ",
": . . X $ > & P >.q.e.w.e.+.- @ 4 p w > ",
"@.L z ^ _ ' :.0.e.e.e.e.e.w. .I h h E %.",
"e.2.1.w.e.e.e.e.e.e.e.e.e.e.e.2.1.1.9.e.",
"e.e.e.e.e.e.e.e.e.e.e.e.e.e.e.e.q.e.e.e.",
"e.e.e.e.e.e.e.e.q.q.q.q.e.e.e.w.q.e.e.e.",
"q.q.e.e.e.e.e.e.q.q.q.q.e.w.w.w.q.q.e.w."
};
