/* XPM */
static char *exit[] = {
/* columns rows colors chars-per-pixel */
"20 20 141 2 ",
"   c #131313",
".  c #141414",
"X  c #151515",
"o  c #161616",
"O  c #171717",
"+  c #171718",
"@  c #181818",
"#  c #191919",
"$  c #191A1A",
"%  c #1A1A1A",
"&  c #1B1B1B",
"*  c #1C1C1C",
"=  c #1D1D1D",
"-  c #1E1E1E",
";  c #1F1F1F",
":  c #202020",
">  c #212121",
",  c #222222",
"<  c #232323",
"1  c #262420",
"2  c #242424",
"3  c #242425",
"4  c #252525",
"5  c #262625",
"6  c #272725",
"7  c #252626",
"8  c #262626",
"9  c #262627",
"0  c #262727",
"q  c #272727",
"w  c #272829",
"e  c #282828",
"r  c #282829",
"t  c #292929",
"y  c #2B2A29",
"u  c #292A2A",
"i  c #2A2A2A",
"p  c #2A2A2B",
"a  c #2A2B2B",
"s  c #2B2B2B",
"d  c #2B2B2C",
"f  c #2C2C2C",
"g  c #2C2C2D",
"h  c #2D2D2D",
"j  c #2E2E2C",
"k  c #2E2E2E",
"l  c #2F2F2F",
"z  c #353027",
"x  c #32312F",
"c  c #35332D",
"v  c #343330",
"b  c #373530",
"n  c #3C3830",
"m  c #3D3931",
"M  c #3E3931",
"N  c #3E3A31",
"B  c #3F3B32",
"V  c #403C33",
"C  c #463F33",
"Z  c #413D34",
"A  c #443F36",
"S  c #474033",
"D  c #564A34",
"F  c #574C36",
"G  c #645537",
"H  c #605339",
"J  c #665739",
"K  c #705E3B",
"L  c #705E3C",
"P  c #76623B",
"I  c #74623E",
"U  c #7D683E",
"Y  c #4A4A4B",
"T  c #4C4D4D",
"R  c #555658",
"E  c #575759",
"W  c #595958",
"Q  c #7A6742",
"!  c #7D6940",
"~  c #777572",
"^  c #816C43",
"/  c #887144",
"(  c #8B7445",
")  c #8D7545",
"_  c #8D7546",
"`  c #8F7747",
"'  c #947B49",
"]  c #957B49",
"[  c #967D4A",
"{  c #977D4A",
"}  c #987E4B",
"|  c #AB8D54",
" . c #AB8E54",
".. c #AC8E54",
"X. c #AB8F5B",
"o. c #B09256",
"O. c #B19257",
"+. c #90836A",
"@. c #AB9263",
"#. c #BA9C63",
"$. c #BB9D63",
"%. c #A59678",
"&. c #A99878",
"*. c #AA9978",
"=. c #AA9A78",
"-. c #BEA77A",
";. c #C1A266",
":. c #CCAA65",
">. c #CFAB66",
",. c #D0AC66",
"<. c #D2AE67",
"1. c #D8B56F",
"2. c #DDBC7C",
"3. c #E4BC70",
"4. c #E9C173",
"5. c #EAC275",
"6. c #EAC375",
"7. c #EAC576",
"8. c #EFC675",
"9. c #F0C776",
"0. c #F1C876",
"q. c #F2C977",
"w. c #F4CB78",
"e. c #F5CB78",
"r. c #F8CD7A",
"t. c #F8CE7A",
"y. c #F9CE7A",
"u. c #F9CE7B",
"i. c #FBD07B",
"p. c #FBD17C",
"a. c #F9D07E",
"s. c #FCD17C",
"d. c #FDD17D",
"f. c #FCD27C",
"g. c #FED37D",
"h. c #FFD37D",
"j. c #FFD47D",
"k. c #FFD47E",
"l. c #FFD57E",
"z. c #FFD67E",
"x. c #FFD77E",
/* pixels */
"O O % = - ; - = = : - = % @ O O o . . o ",
"@ # * : , 4 0 8 4 4 , > * # O o o X   . ",
"* - > 8 i h l v x g i < - & # O o X X . ",
"- ; , t k T +.1.#.A a 8 > = % # o . X X ",
"* - < i Y ~ 2.x.z.;.b 7 > ; & # O X X X ",
"= ; 2 i E %.d.h.j.7.Z 9 > : & @ @ o . . ",
"- , 3 i R =.j.h.j.6.V 0 < > ; # @ O o . ",
"- , 7 f R *.j.h.j.5.B 0 < > ; % # O O X ",
": , 8 f R *.j.h.j.5.M 0 2 < : * # o o o ",
"> < q s R *.j.h.j.5.M 7 < , ; = % o o X ",
"> < q s R *.j.h.j.5.B 9 4 , : = & o X o ",
"< 0 u s R *.j.h.j.5.B 4 4 , > = % O o @ ",
"6 y p d R &.j.h.j.5.m 3 2 < > ; & @ O @ ",
"K J C n W -.l.h.j.5.n 3 2 4 < ; * # @ @ ",
"] ` _ ^ @.a.$.r.j.5.B r q 0 , = & # @ # ",
"{ } ..>.f.4.X.u.j.5.Z s u e 7 > : # O O ",
"| <.q.l.0.,.w.j.l.:.Q H N c w 4 2 = O O ",
"i.g.k.y.3.t.j.k.9. .} ` / I F S j 5 $ + ",
"h.h.h.s.p.h.j.8.o.{ } } } ] ) ! L D z 1 ",
"h.h.h.h.h.j.e.O.[ } } } } } } ' ( U P G "
};
