/* XPM */
static char *npxfess[] = {
/* columns rows colors chars-per-pixel */
"20 20 31 1 ",
"  c #1B1B1B",
". c #1B1B1C",
"X c #1B1B1D",
"o c #1C1C1C",
"O c #1D1D1D",
"+ c #1D1E1E",
"@ c #1E1E1E",
"# c #1F1E1E",
"$ c #201F1E",
"% c #252525",
"& c #363636",
"* c #47401B",
"= c #605419",
"- c #665919",
"; c #786918",
": c #4C4C4C",
"> c #606060",
", c #646464",
"< c #AB9215",
"1 c #DABA11",
"2 c #DBBB11",
"3 c #E0BF10",
"4 c #A4A4A4",
"5 c #CACACA",
"6 c #CFCFCF",
"7 c #D0D0D0",
"8 c #DADADA",
"9 c #EBEBEB",
"0 c #F1F1F1",
"q c #FEFEFE",
"w c white",
/* pixels */
"wwwwwwwwwwwwwwwwwwww",
"wwwwwwq085580qwwwwww",
"wwwww94,&%%&,49wwwww",
"wwww7>% O@@O %>7wwww",
"www6:oX@@@@@@Xo:6www",
"ww9>.*=$+@@+$=*.>9ww",
"ww4%X=1;$++$;1=X%4ww",
"w0, @$;3;##;3;$@ ,0w",
"w8&O@+$;2--2;$+@O&8w",
"w5%@@@+#-<<-#+@@@%5w",
"w5%@@@+#-<<-#+@@@%5w",
"w8&O@+$;2--2;$+@O&8w",
"w0, @$;3;##;3;$@ ,0w",
"ww4%X=1;$++$;1=X%4ww",
"ww9>o*=$+@@+$=*o>9ww",
"www7:.X@@@@@@X.:7www",
"wwww6>% O@@O %>6wwww",
"wwwww94,&%%&,49wwwww",
"wwwwwwq085580qwwwwww",
"wwwwwwwwwwwwwwwwwwww"
};
