/* XPM */
static char *test[] = {
/* columns rows colors chars-per-pixel */
"20 20 19 1 ",
"  c #59565D",
". c #615D5E",
"X c #5E5A61",
"o c #635E64",
"O c #656266",
"+ c #686466",
"@ c #666369",
"# c #6A666B",
"$ c #6D6A6E",
"% c #716D6F",
"& c #6E6B71",
"* c #726E73",
"= c #736F78",
"- c #747175",
"; c #787676",
": c #767379",
"> c #79767A",
", c #7B7A7E",
"< c #7D7C81",
/* pixels */
"><<,,<<<<<-:<<,,<<,,",
"O#$+@*#O#$oO$OO%$@@$",
"#$$#@&$$&#@#$#@$@##@",
";-*::%=--#---;--&:=o",
"$XX&@OO#XX$Oo##OO#. ",
"-&--&&:-==:=--**--&*",
"&&:-::;%-:*-:-*:-%%:",
"##$#&*#$&&##$##-##$*",
"***=::*:::*%-::=&:-:",
"#oo**oo*$#$OO*$OO%$O",
":>;>>>;>:>-->:=:>>:>",
"o#%#+*%##&O#%+O&&@@&",
"#*#%$*&$&#@*&&#&##&@",
">:*-;;;==@>>&:;;$>-o",
"*o#*$o#&o+*oo=$O@&OX",
";*>>==:>*:>*:>&-:-&:",
"**>**;;-::-*>**;;*&;",
"o####%###%+####$+#$$",
";%*==**-*;%%***%#=-%",
"#..&#oo%+o+o &$oo$+O"
};
