/* XPM */
static char *wall[] = {
/* columns rows colors chars-per-pixel */
"20 20 28 1 ",
"  c #55535B",
". c #5B555D",
"X c #5D5A5D",
"o c #615B5D",
"O c #5E5A62",
"+ c #625D63",
"@ c #625F69",
"# c #646365",
"$ c #696466",
"% c #696A67",
"& c #66636A",
"* c #6A656B",
"= c #676A69",
"- c #6C6A6D",
"; c #716C6E",
": c #6E6B71",
"> c #726E73",
", c #716E78",
"< c #747275",
"1 c #787576",
"2 c #797877",
"3 c #76737A",
"4 c #79767B",
"5 c #77787B",
"6 c #7B797C",
"7 c #7D7780",
"8 c #7C7B81",
"9 c #807F83",
/* pixels */
"5968786888>689589636",
"+;;$#<-=-<o=;##>-*#<",
"&*&&#:*&*&@*&&@-#&&@",
"52<66<342-<6<621<36#",
"#O.*+.O&.+@+.*+o.&X ",
"3:553343,44344,444:3",
";-2>:6<;<1;<4<><<;-<",
"**&-->#--;$-&**<#-*<",
"<>>433<433,>434,:533",
"=@+:-+#;*$-#o,-+O>%#",
">444541444>446,426,5",
"+>;-*<;**<+->-+>:*&<",
"&:*&@;;*-*@:&*&-+**&",
"62<441444*41<424>86&",
";++>*o@-o+:++,$++*O.",
"4,963864<77>78>666:6",
";>4>>41;>2><1>-32;*4",
"$@*@@;$*--$@@-$;#*&-",
">1>3,,<3<3>>>,3,:<<<",
"*oo:=o+>%o%#.;=oO:%#"
};
