/* XPM */
static char *avatar_right[] = {
/* columns rows colors chars-per-pixel */
"17 17 248 2 ",
"   c #2E5532",
".  c #315632",
"X  c #3B633C",
"o  c #40563D",
"O  c #387B4B",
"+  c #3F7450",
"@  c #3C7E52",
"#  c #3F7B54",
"$  c #3D7D57",
"%  c #435B41",
"&  c #48674A",
"*  c #42734E",
"=  c #477351",
"-  c #4A7D51",
";  c #417A59",
":  c #4A7958",
">  c #517B5E",
",  c #567963",
"<  c #597F62",
"1  c #567D69",
"2  c #398255",
"3  c #3A9459",
"4  c #3F925E",
"5  c #448251",
"6  c #488855",
"7  c #45855A",
"8  c #4A875A",
"9  c #49855C",
"0  c #43995B",
"q  c #5A8964",
"w  c #5F876A",
"e  c #558F68",
"r  c #558E6B",
"t  c #459660",
"y  c #479066",
"u  c #449960",
"i  c #4A9E67",
"p  c #4F966A",
"a  c #4B9969",
"s  c #4B9A6D",
"d  c #4C9A6C",
"f  c #4C9C6E",
"g  c #519669",
"h  c #52976B",
"j  c #54956B",
"k  c #52966C",
"l  c #589869",
"z  c #5C9473",
"x  c #5D9575",
"c  c #569C72",
"v  c #5D9972",
"b  c #63876E",
"n  c #6D856C",
"m  c #619167",
"M  c #628C74",
"N  c #688D77",
"B  c #619377",
"V  c #699470",
"C  c #6C987D",
"Z  c #6D987E",
"A  c #73977B",
"S  c #78977C",
"D  c #46A36A",
"F  c #44A468",
"G  c #4BA06A",
"H  c #4DA66D",
"J  c #4DA46F",
"K  c #4BAA6C",
"L  c #4FAD71",
"P  c #4FAE71",
"I  c #52A471",
"U  c #53A375",
"Y  c #51AB71",
"T  c #54AC73",
"R  c #56AF75",
"E  c #5BAD74",
"W  c #5BA478",
"Q  c #5DA77D",
"!  c #53AF7A",
"~  c #5AA878",
"^  c #51B077",
"/  c #56B27B",
"(  c #5BB57B",
")  c #59B07D",
"_  c #5BB87E",
"`  c #5BBA7F",
"'  c #6BA07B",
"]  c #60AB7E",
"[  c #62AB7F",
"{  c #64B07D",
"}  c #7B9C87",
"|  c #78A88A",
" . c #7DA88A",
".. c #7AA88D",
"X. c #64BC87",
"o. c #8A9E8E",
"O. c #8CAA98",
"+. c #90A297",
"@. c #93A896",
"#. c #91AE9C",
"$. c #8CB39B",
"%. c #8FB29E",
"&. c #97BCA3",
"*. c #9CBBA5",
"=. c #99BEAA",
"-. c #A8AFA4",
";. c #A1B2A3",
":. c #A2B9A9",
">. c #A8BFAB",
",. c #AABEB0",
"<. c #B2BAB0",
"1. c #A6CDB2",
"2. c #B7C7B9",
"3. c #B5C9BB",
"4. c #CBC7CC",
"5. c #C3D8C6",
"6. c #C7D1C8",
"7. c #CCD7CF",
"8. c #C1DDCB",
"9. c #CFDDCF",
"0. c #D3CCD2",
"q. c #D6CFD2",
"w. c #CBDAD3",
"e. c #CCDBD3",
"r. c #D0D2D6",
"t. c #D3DCD7",
"y. c #CEE3D7",
"u. c #CFE6D6",
"i. c #CCE1DA",
"p. c #D9E5DE",
"a. c #D5EBDB",
"s. c #E0E7DE",
"d. c #DADEE1",
"f. c #E9DFE5",
"g. c #DAEBE4",
"h. c #E4ECE6",
"j. c #EEE7ED",
"k. c #E7EFEA",
"l. c #EAF5EA",
"z. c #EDF7EB",
"x. c #E9F3EC",
"c. c #EBF3EF",
"v. c #EFF4EF",
"b. c #F0F2F4",
"n. c #F9F1F7",
"m. c #F0F9F2",
"M. c #F5FBF5",
"N. c #F3FCF6",
"B. c #F4FDF7",
"V. c #FBFEF4",
"C. c #FAFDF6",
"Z. c #F8FFF6",
"A. c #FEFEF4",
"S. c #FDFDF6",
"D. c #FCFDF7",
"F. c #FEFFF7",
"G. c #F6FDF9",
"H. c #F7FEF8",
"J. c #F6FFFD",
"K. c #FDFBF8",
"L. c #FEFBF8",
"P. c #FFFBF8",
"I. c #FEFBF9",
"U. c #FCFBFB",
"Y. c #FAFDF9",
"T. c #F9FFF9",
"R. c #FBFFF9",
"E. c #F9FCFB",
"W. c #FAFDFB",
"Q. c #F8FFFB",
"!. c #FAFFFB",
"~. c #FDFCF9",
"^. c #FEFDF8",
"/. c #FDFFF8",
"(. c #FCFDFA",
"). c #FDFDFA",
"_. c #FCFDFB",
"`. c #FEFDFB",
"'. c #FFFDFB",
"]. c #FDFEFA",
"[. c #FCFFFA",
"{. c #FDFFFA",
"}. c #FCFEFB",
"|. c #FDFFFB",
" X c #FEFEFB",
".X c #F9FAFD",
"XX c #FFF9FC",
"oX c #FFF8FD",
"OX c #FEFAFC",
"+X c #FFFAFC",
"@X c #FEFAFD",
"#X c #FFFAFD",
"$X c #FEFBFD",
"%X c #FCFBFE",
"&X c #FDFBFE",
"*X c #FDFBFF",
"=X c #FFFAFE",
"-X c #FEFBFE",
";X c #FEFAFF",
":X c #FFFAFF",
">X c #FEFBFF",
",X c #FFFBFF",
"<X c #FBFCFC",
"1X c #FBFDFC",
"2X c #FBFDFD",
"3X c #FBFEFC",
"4X c #FAFFFD",
"5X c #FBFDFE",
"6X c #F9FEFE",
"7X c #F8FFFF",
"8X c #F9FFFF",
"9X c #FBFEFF",
"0X c #FBFFFF",
"qX c #FCFCFC",
"wX c #FDFCFC",
"eX c #FCFDFC",
"rX c #FCFDFD",
"tX c #FDFDFD",
"yX c #FFFCFC",
"uX c #FEFCFD",
"iX c #FEFDFD",
"pX c #FCFEFC",
"aX c #FDFEFC",
"sX c #FCFEFD",
"dX c #FCFFFD",
"fX c #FFFFFC",
"gX c #FFFEFD",
"hX c #FFFFFD",
"jX c #FCFCFE",
"kX c #FCFDFE",
"lX c #FDFDFF",
"zX c #FEFCFE",
"xX c #FFFCFE",
"cX c #FEFDFE",
"vX c #FEFCFF",
"bX c #FFFCFF",
"nX c #FEFDFF",
"mX c #FFFDFF",
"MX c #FDFFFE",
"NX c #FCFEFF",
"BX c #FDFEFF",
"VX c #FCFFFF",
"CX c #FDFFFF",
"ZX c #FEFEFE",
"AX c #FFFEFE",
"SX c #FEFEFF",
"DX c #FFFEFF",
"FX c #FEFFFF",
/* pixels */
"F./.{.|.pX1XrXtX1XsXlXNX8X7X0XSXyX",
"hXhXAXAX$XzX@X-XwXiXxXbXnXCXCXFXgX",
"mXbXbXbX-XZX1XE.Y.^.I.#X:XbXDXCXdX",
",XbXDXMXx.3.#.%.*.5.l.(.$X:XbXBX8X",
"=XqXQ.u. .e h ] p v | 8.H.XX:X&X6X",
"+X[.a.' { T L ` D X.f x y.AXn.j.b.",
"+XM.&.g R P 3 t u K / Q =.dXf.0.r.",
"oXk.M [ J 4 @ * 5 0 ( d ..N.q.4.d.",
",Xe.z U s ; } 2.S 8 I ) c 1.o.+.i.",
"h.$.a ! y 1 p.fX9.> W ^ H O q w Z ",
"C k _ F 2 N m.D.z.A j G E 6 m V = ",
"$ ~ Y i # O.B.R.Z.>.: 7 l - X .   ",
"B r 9 + , w.VXW.aXv.:.b < & % o n ",
"g.,.@.;.t..X%XjXvXbX5Xc.7.6.<.-.s.",
"mXgXL.~.&X*XvX*XbX:X;XbXmXSXeXU.iX",
">XOXP.K.<X9XkX X).cXxXOXuXtXrXeXiX",
"2X_.S.C.G.J.!.A.V.T.].'.`.pX4X3X}."
};
