/* XPM */
static char *collectible[] = {
/* columns rows colors chars-per-pixel */
"17 17 172 2 ",
"   c #891F28",
".  c #931B25",
"X  c #A71C20",
"o  c #A11A25",
"O  c #AD1F26",
"+  c #B21826",
"@  c #B91F2B",
"#  c #BC1E29",
"$  c #BE1F29",
"%  c #9F2223",
"&  c #A82426",
"*  c #B62226",
"=  c #B92326",
"-  c #BC2028",
";  c #BD2228",
":  c #BD232C",
">  c #BB242D",
",  c #BE272C",
"<  c #BD262E",
"1  c #B42E2C",
"2  c #C31F25",
"3  c #C41D26",
"4  c #C02028",
"5  c #C32129",
"6  c #C1222B",
"7  c #C42228",
"8  c #C52429",
"9  c #C0222E",
"0  c #C6262E",
"q  c #CC212D",
"w  c #CE232E",
"e  c #C4282F",
"r  c #D3272F",
"t  c #DA252D",
"y  c #D8242F",
"u  c #DD242D",
"i  c #DF252F",
"p  c #DF282F",
"a  c #C82632",
"s  c #D72A30",
"d  c #D02C37",
"f  c #D92C31",
"g  c #DC2834",
"h  c #E0232E",
"j  c #E1262C",
"k  c #E6242F",
"l  c #B24138",
"z  c #A9563C",
"x  c #BB563C",
"c  c #C93D43",
"v  c #DF3844",
"b  c #E43A41",
"n  c #E83A42",
"m  c #A67C4F",
"M  c #A97E4F",
"N  c #AA7D51",
"B  c #F14D54",
"V  c #EF5A63",
"C  c #D86D72",
"Z  c #E2696E",
"A  c #F0616C",
"S  c #F56C76",
"D  c #4E8746",
"F  c #4E8846",
"G  c #548743",
"H  c #518648",
"J  c #589448",
"K  c #5D994B",
"L  c #5D9251",
"P  c #618D4D",
"I  c #71A556",
"U  c #7DA655",
"Y  c #698F66",
"T  c #6D926A",
"R  c #90904E",
"E  c #9B8750",
"W  c #9F8F5A",
"Q  c #979152",
"!  c #8FA158",
"~  c #A8B56D",
"^  c #95A999",
"/  c #9CAE9E",
"(  c #A2B09F",
")  c #A6B4A1",
"_  c #A6B5A1",
"`  c #A6B4A2",
"'  c #A5B4A4",
"]  c #EE8085",
"[  c #EE8585",
"{  c #F3918F",
"}  c #F59FA1",
"|  c #E7A0A4",
" . c #F7BBBB",
".. c #F5BFBD",
"X. c #B9C1B5",
"o. c #B9C3B7",
"O. c #CEDAC8",
"+. c #D4DCD1",
"@. c #F5CCCE",
"#. c #FBD1D1",
"$. c #F9D1D3",
"%. c #F9DCDA",
"&. c #D6E8CE",
"*. c #D5E9D0",
"=. c #F9DFE3",
"-. c #EBEDEC",
";. c #F6E6E2",
":. c #F7E6E5",
">. c #F9E6E5",
",. c #FBEEEF",
"<. c #EEF1EF",
"1. c #F9F1EF",
"2. c #F3F3F4",
"3. c #F5F5F5",
"4. c #FCF3F5",
"5. c #F9F9F6",
"6. c #F7F6F8",
"7. c #F9F9F9",
"8. c #FAFAF8",
"9. c #FCFBF8",
"0. c #FBFCFB",
"q. c #FDFDFA",
"w. c #FDFCFB",
"e. c #FCFDFB",
"r. c #FDFDFB",
"t. c #FDFEFB",
"y. c #FBFCFC",
"u. c #FAFDFC",
"i. c #FBFCFD",
"p. c #FBFDFD",
"a. c #FAFFFC",
"s. c #FBFEFD",
"d. c #FAFDFF",
"f. c #F9FEFE",
"g. c #FBFEFE",
"h. c #FBFFFE",
"j. c #FBFEFF",
"k. c #FCFCFC",
"l. c #FDFDFC",
"z. c #FCFCFD",
"x. c #FCFDFD",
"c. c #FDFDFD",
"v. c #FFFCFC",
"b. c #FEFDFD",
"n. c #FFFDFD",
"m. c #FCFEFC",
"M. c #FDFEFC",
"N. c #FCFEFD",
"B. c #FDFEFD",
"V. c #FEFEFC",
"C. c #FEFEFD",
"Z. c #FDFCFE",
"A. c #FDFDFE",
"S. c #FCFCFF",
"D. c #FDFDFF",
"F. c #FEFCFE",
"G. c #FEFDFE",
"H. c #FEFCFF",
"J. c #FEFDFF",
"K. c #FFFDFF",
"L. c #FCFEFE",
"P. c #FDFFFE",
"I. c #FDFEFF",
"U. c #FCFFFF",
"Y. c #FDFFFF",
"T. c #FEFEFE",
"R. c #FFFEFE",
"E. c #FEFFFE",
"W. c #FEFEFF",
"Q. c #FFFEFF",
"!. c #FEFFFF",
"~. c #FFFFFF",
/* pixels */
"~.~.~.~.j.A.0.s.d.z.m.s.D.~.~.~.~.",
"~.~.~.~.l.c.f.D.I.Z.s.V.r.~.~.~.~.",
"~.~.~.~.A.H.Z.:.#.>.i.S.N.~.~.~.~.",
"~.~.~.~.A.L.%.A n S ;.U.D.~.~.~.~.",
"J.L.M.T.J.8.] k = s } g.b.Q.Q.Q.!.",
"L.C.n.G.Y...v u t i B $.h.!.E.W.Q.",
"M.v.L.U.,.Z 5 q j h r [ 4.E.E.!.R.",
"T.K.a.9.| a * 6 y g 8 b  .F.!.P.R.",
"N.c.B.@.c > , 0 e d f p V =.W.L.l.",
"e.0.1.C + . @ 7 & 9 w : < { 5.q.k.",
"u.A.&.W 1 X O # 4 ; - 3 x ~ *.G.p.",
"m.E.O.P E l   o 2 $ % z ! L +.t.y.",
"r.M.6.^ G U R m N M Q I F / 7.x.w.",
"C.c.Q.2.( Y D J K J H T ' 3.c.T.R.",
"c.c.T.T.Z.-.X.) _ ` o.<.F.T.T.c.T.",
"c.T.C.c.l.C.R.E.Y.~.!.C.C.C.R.R.T.",
"R.T.T.C.B.l.l.V.t.V.C.I.I.T.T.T.Q."
};
