/* XPM */
static char *npxfess[] = {
/* columns rows colors chars-per-pixel */
"17 17 28 1 ",
"  c #19191B",
". c #1B1B1B",
"X c #1C1C1C",
"o c #1C1D1E",
"O c #1D1D1E",
"+ c #1E1E1E",
"@ c #302D1A",
"# c #323232",
"$ c #353536",
"% c #363637",
"& c #48411B",
"* c #665A19",
"= c #675A19",
"- c #6C5F19",
"; c #646464",
": c #B99F13",
"> c #C0A413",
", c #C8AB12",
"< c #CDB012",
"1 c #979797",
"2 c #A3A3A3",
"3 c #AEAEAE",
"4 c #C4C4C4",
"5 c #CDCDCD",
"6 c #F4F4F4",
"7 c gray99",
"8 c #FDFDFD",
"9 c white",
/* pixels */
"99999999999999999",
"99999652125699999",
"99974;#+.+#;47999",
"9983% X+++X %3899",
"994$@&+++++&@$499",
"96; &,*oOo*,& ;69",
"95#X+*<=+=<*+X#59",
"92+++o=:-:=o+++29",
"91.++O+->-+O++.19",
"92+++o=:-:=o+++29",
"95#X+*<=+=<*+X#59",
"96; &,*oOo*,& ;69",
"994%@&+++++&@%499",
"9983$ X+++X $3899",
"99974;#+.+#;47999",
"99999652125699999",
"99999999999999999"
};
