/* XPM */
static char *test[] = {
/* columns rows colors chars-per-pixel */
"17 17 228 2 ",
"   c #645F5F",
".  c #5D5A60",
"X  c #605C61",
"o  c #615D62",
"O  c #625F63",
"+  c #625E64",
"@  c #625F64",
"#  c #625E66",
"$  c #625F66",
"%  c #645F64",
"&  c #636066",
"*  c #646265",
"=  c #646066",
"-  c #666266",
";  c #666367",
":  c #686366",
">  c #686666",
",  c #686667",
"<  c #696767",
"1  c #646269",
"2  c #666368",
"3  c #676369",
"4  c #67626B",
"5  c #676469",
"6  c #676569",
"7  c #67646A",
"8  c #67646C",
"9  c #67656D",
"0  c #686169",
"q  c #686369",
"w  c #69636A",
"e  c #686469",
"r  c #696668",
"t  c #68646A",
"y  c #69646A",
"u  c #68646B",
"i  c #69656B",
"p  c #69666A",
"a  c #68676A",
"s  c #6B666A",
"d  c #6A666B",
"f  c #6B666B",
"g  c #6A676B",
"h  c #6B676B",
"j  c #6C656B",
"k  c #6C676B",
"l  c #69666C",
"z  c #69676C",
"x  c #6B666C",
"c  c #6A676C",
"v  c #6A666D",
"b  c #6A676D",
"n  c #69666E",
"m  c #6A676E",
"M  c #6B676E",
"N  c #6C666D",
"B  c #6C676D",
"V  c #6C676E",
"C  c #68686A",
"Z  c #6B6A6B",
"A  c #6B6B6B",
"S  c #6E6A6B",
"D  c #6A686C",
"F  c #6B686C",
"G  c #6B696C",
"H  c #6B686D",
"J  c #6B696D",
"K  c #6B6A6D",
"L  c #6B6B6D",
"P  c #69686E",
"I  c #6C686C",
"U  c #6D696C",
"Y  c #6C686D",
"T  c #6C696D",
"R  c #6D696D",
"E  c #6C6A6C",
"W  c #6C6B6C",
"Q  c #6E6A6D",
"!  c #6C696E",
"~  c #6C686F",
"^  c #6C696F",
"/  c #6D696F",
"(  c #6E696F",
")  c #6F696F",
"_  c #6C6A6E",
"`  c #6D6A6F",
"'  c #6D6B6F",
"]  c #6E6B6E",
"[  c #6F6B6E",
"{  c #6E6A6F",
"}  c #6E6C6D",
"|  c #6F6C6D",
" . c #6D6C6F",
".. c #6F6C6E",
"X. c #6E6C6F",
"o. c #716A6F",
"O. c #706C6F",
"+. c #706D6F",
"@. c #716D6F",
"#. c #716E6F",
"$. c #6B6970",
"%. c #6C6870",
"&. c #6C6970",
"*. c #6D6970",
"=. c #6D6971",
"-. c #6E6970",
";. c #6C6A70",
":. c #6D6A70",
">. c #6E6A70",
",. c #6E6B70",
"<. c #6F6B70",
"1. c #6E6A71",
"2. c #6E6A72",
"3. c #6F6A72",
"4. c #6E6B72",
"5. c #6F6B72",
"6. c #6F6C70",
"7. c #6E6C71",
"8. c #6F6C71",
"9. c #6F6E70",
"0. c #6F6C72",
"q. c #6E6D72",
"w. c #6F6D72",
"e. c #6F6C73",
"r. c #706B71",
"t. c #716B71",
"y. c #706B72",
"u. c #706C70",
"i. c #716C70",
"p. c #716D70",
"a. c #706C71",
"s. c #716C71",
"d. c #706D71",
"f. c #716D71",
"g. c #716E71",
"h. c #716F71",
"j. c #706C72",
"k. c #706D72",
"l. c #716D72",
"z. c #706C73",
"x. c #716C73",
"c. c #706D73",
"v. c #716D73",
"b. c #706E72",
"n. c #706E73",
"m. c #716E73",
"M. c #716F73",
"N. c #736E72",
"B. c #736F72",
"V. c #726E73",
"C. c #726F73",
"Z. c #706C74",
"A. c #716C74",
"S. c #716D75",
"D. c #716E74",
"F. c #716F74",
"G. c #716E75",
"H. c #716F75",
"J. c #726E74",
"K. c #726E75",
"L. c #726F75",
"P. c #736F75",
"I. c #736E76",
"U. c #746E74",
"Y. c #727070",
"T. c #737073",
"R. c #737173",
"E. c #747172",
"W. c #747173",
"Q. c #757373",
"!. c #767273",
"~. c #727174",
"^. c #727175",
"/. c #737175",
"(. c #727275",
"). c #737275",
"_. c #717076",
"`. c #717176",
"'. c #737076",
"]. c #727176",
"[. c #737277",
"{. c #747074",
"}. c #747174",
"|. c #757274",
" X c #747275",
".X c #777375",
"XX c #757176",
"oX c #757177",
"OX c #757276",
"+X c #757277",
"@X c #757377",
"#X c #767376",
"$X c #767277",
"%X c #777377",
"&X c #757477",
"*X c #757577",
"=X c #767476",
"-X c #777576",
";X c #777577",
":X c #787475",
">X c #757278",
",X c #747279",
"<X c #757279",
"1X c #75727A",
"2X c #77737B",
"3X c #777478",
"4X c #777578",
"5X c #777479",
"6X c #777579",
"7X c #76767A",
"8X c #797578",
"9X c #78757B",
"0X c #79767B",
"qX c #79777B",
"wX c #7A777B",
"eX c #78767C",
"rX c #7A777C",
"tX c #7A787C",
"yX c #7B787D",
"uX c #7B7A7C",
"iX c #7B7A7D",
"pX c #7A797E",
"aX c #7B797E",
"sX c #7A7A7F",
"dX c #7C7B7E",
"fX c #7B7A81",
"gX c #7C7B80",
"hX c #7D7C80",
/* pixels */
"9XgXuX7XsXaXyXfX6XF.hXtX0XiXdX1XpX",
"@ g p O ~ p & D ; X Z % - L 6 # z ",
"R.D.k.n.V.^.[.m./ C.^.D.d.g.5._.9 ",
"6.2 F ' r c E * i U t <.S : h a . ",
"4.m c.0.&.0.z.$.A.Z.2.m.=.>.J.c P ",
"<.~.@XC.6X=XB.%X$XU.5XE.K.;X|.| &X",
"N x J / P.T [ x.) j ( ~ y.6.c R {.",
"l.B 5.[.0.5.+XH.N.@.<.<X`.~ w.(.M.",
"7._ d.].` } ).w.+.! ^ /.7.F h.b.] ",
"F W.W.u.#XQ.k.'.#.c 6X| ^ *X~.%.+X",
"7 -.b y ,.X.p ~ 3 i / l u W 5 n 8 ",
"4XT.}.-X!.XXoXr.>.:Xf.oX.XO.V.@X1 ",
"i.0 t.i.q V { - 3.x 4 I.f w 1.e $ ",
"OX,XwX%XeXqX3X>XrX XeX2XL.tX8Xv.6X",
"s :. .I B...Y s.i.H q.` G Y.Q B g.",
"o.Q j.S.G.8.a.x.p.T M e.n.R *.n.9.",
"k   d <.= 3 9.C < > + ;.A o v K , "
};
