/* XPM */
static char *wall[] = {
/* columns rows colors chars-per-pixel */
"17 17 22 1 ",
"  c #5D595E",
". c #645E5E",
"X c #5F5D63",
"o c #635E63",
"O c #645F68",
"+ c #656265",
"@ c #686466",
"# c #696867",
"$ c #666369",
"% c #6A666B",
"& c #6C696D",
"* c #716C6F",
"= c #6C6770",
"- c #6D6B71",
"; c #716D73",
": c #747275",
"> c #787676",
", c #7A7876",
"< c #757379",
"1 c #78767A",
"2 c #7B7A7C",
"3 c #7D7C81",
/* pixels */
"<22232231:32122<3",
"o%@X%$+%+ %o+#+O&",
"::-:::::-::::;::$",
"&+%&@$%+$%+-%+$# ",
"-=;--<;&<;;;--:%=",
"&:<-<<*<:;<::<<%:",
"%%%-:%&;*%%%;-%&:",
":&;<-;<:;*;<:%:::",
"-%;:&&:-;&%<-%*--",
"%>;;1>;<;%,*-<:-<",
"+=$O&%O%$$%$$%+$%",
",:>1>>1;-,;1,;:1$",
";O*=o%*o=%O<@$-+X",
":11>21>>1<11:21;2",
"%-;%;*%*;%;&&-&%-",
"*=;;;;;;;*%-:-&;:",
"%.%;++;@##X-#o%##"
};
