/* XPM */
static char *avatar_right[] = {
/* columns rows colors chars-per-pixel */
"21 21 142 2 ",
"   c #1F411E",
".  c #274927",
"X  c #2B4F2E",
"o  c #40583F",
"O  c #396542",
"+  c #306D49",
"@  c #396D4A",
"#  c #3F704E",
"$  c #367C4C",
"%  c #3D6C53",
"&  c #446B45",
"*  c #48664B",
"=  c #456D4D",
"-  c #42754D",
";  c #4C6E59",
":  c #447255",
">  c #437C56",
",  c #497B57",
"<  c #487458",
"1  c #457D5C",
"2  c #557A5E",
"3  c #597D64",
"4  c #3C8254",
"5  c #348B53",
"6  c #3E8E52",
"7  c #398C59",
"8  c #3B9C5D",
"9  c #478252",
"0  c #498257",
"q  c #4B875E",
"w  c #418D5A",
"e  c #488C5E",
"r  c #5A845C",
"t  c #53895C",
"y  c #44915C",
"u  c #4D8363",
"i  c #4F8B65",
"p  c #538D68",
"a  c #5D8B6B",
"s  c #469164",
"d  c #4E9467",
"f  c #439E63",
"g  c #4B9B67",
"h  c #479168",
"j  c #4D9369",
"k  c #4E9D68",
"l  c #53936B",
"z  c #5C946C",
"x  c #4D9E70",
"c  c #599674",
"v  c #559972",
"b  c #67896F",
"n  c #629675",
"m  c #6B9573",
"M  c #67987D",
"N  c #739276",
"B  c #71937E",
"V  c #79917B",
"C  c #46A369",
"Z  c #4BA36B",
"A  c #4CAA6D",
"S  c #4FA671",
"D  c #4BAD73",
"F  c #50AF72",
"G  c #5DA872",
"H  c #5CA678",
"J  c #57AC79",
"K  c #5BAB7A",
"L  c #56B378",
"P  c #5BB37D",
"I  c #5CBE7F",
"U  c #6EA27D",
"Y  c #61AC7F",
"T  c #68AD7E",
"R  c #61B77D",
"E  c #7C9682",
"W  c #759A84",
"Q  c #7D9C88",
"!  c #5CB280",
"~  c #5DBC80",
"^  c #67AF84",
"/  c #72A085",
"(  c #79A285",
")  c #77A088",
"_  c #7EA38E",
"`  c #7EAA8E",
"'  c #64B284",
"]  c #63BB85",
"[  c #65C288",
"{  c #69C28D",
"}  c #8B9488",
"|  c #819D8A",
" . c #82A78E",
".. c #8DA291",
"X. c #9DA69A",
"o. c #88B19A",
"O. c #97ADA2",
"+. c #97B2A3",
"@. c #9AB2A0",
"#. c #93BAA4",
"$. c #ABB6A9",
"%. c #A3BBAC",
"&. c #99C0A8",
"*. c #A6C1AB",
"=. c #A9C3B2",
"-. c #B9C7BC",
";. c #B2C9B8",
":. c #BCCABC",
">. c #ABD6B9",
",. c #B4D1C1",
"<. c #BCD4C4",
"1. c #C3C3C7",
"2. c #CCC4C9",
"3. c #C2CFC8",
"4. c #C7DACE",
"5. c #CCDACC",
"6. c #CACED1",
"7. c #D4CDD4",
"8. c #CDDFD3",
"9. c #D7DADD",
"0. c #E1DEDE",
"q. c #CBE4D3",
"w. c #D4E3D5",
"e. c #D5E7D8",
"r. c #DBEBE4",
"t. c #DDF1EB",
"y. c #E6E1E7",
"u. c #E3ECE2",
"i. c #E6F6EC",
"p. c #EBF6EE",
"a. c #EBFCEF",
"s. c #F3F4EE",
"d. c #F0FBEE",
"f. c #E8EFF0",
"g. c #F6EEF2",
"h. c #EBF4F0",
"j. c #F4F6F3",
"k. c #F5FCF4",
"l. c #FCFDF6",
"z. c #FEF6FD",
"x. c #F6FDFA",
"c. c #FDFDFD",
/* pixels */
"l.l.c.l.c.c.c.c.c.c.c.c.c.c.c.c.x.c.c.c.c.",
"c.c.c.c.c.c.c.c.c.c.z.c.c.c.c.c.c.c.c.c.c.",
"c.c.c.c.c.z.c.c.c.c.c.c.z.c.c.c.c.c.c.c.c.",
"c.c.c.c.c.c.c.k.p.h.p.l.l.z.c.c.c.c.c.c.c.",
"c.c.c.c.c.i.;.Q W ) ` =.e.k.c.c.c.z.c.c.x.",
"c.c.c.k.q.( z q H Y j a n &.u.x.c.z.c.c.x.",
"z.c.x.q.U T R f [ ~ f ] ^ s ` i.c.c.g.j.x.",
"c.z.a. .e P R 8 A Z 8 I C J c ,.c.z.7.y.9.",
"c.c.<.n H Z L 5 w 4 y y F { v #.x.g.2.7.6.",
"z.c.+.u ' S 7 4 - = 9 6 L A g / k.0.2.1.f.",
"z.j._ v x x u 1 %.:.N 0 g J ! j >.+.V @.t.",
"x.8.i J ! h % O.j.c.5.2 p ] D Z $ , m r o.",
"=.a H C C s : 4.c.l.d.N i K C R 9 t m b : ",
"1 l P ~ C $ < 8.x.l.k.*.< d k G 9 r t r O ",
"+ ^ Z Z s > B i.l.c.x.w.b @ q z - &   . X ",
"M i p > # ; ;.c.c.x.c.k.w.| 3 2 * o o * V ",
"r.+.E V ..3.x.x.c.c.c.c.c.x.r.-.$.$.} X.u.",
"c.c.s.s.j.c.c.c.c.c.c.c.z.c.c.c.c.c.j.k.z.",
"c.c.c.z.c.c.c.c.c.c.c.c.c.c.z.c.c.c.c.c.c.",
"c.c.z.l.l.c.c.c.c.l.l.l.c.c.c.c.c.c.c.c.c.",
"c.c.c.z.k.x.x.x.c.l.l.l.l.l.c.x.c.x.c.c.c."
};
