/* XPM */
static char *npxfess[] = {
/* columns rows colors chars-per-pixel */
"21 21 37 1 ",
"  c #1A1A1C",
". c #1C1C1C",
"X c #1D1D1D",
"o c #1D1D1E",
"O c #1E1E1E",
"+ c #1F1F1E",
"@ c #21201E",
"# c #22221E",
"$ c #28261D",
"% c #252525",
"& c #262627",
"* c #2C2C2C",
"= c #313131",
"- c #3C3C3C",
"; c #423C1C",
": c #7E6E17",
"> c #7F6E17",
", c #7F6F17",
"< c #766619",
"1 c #545454",
"2 c #BCA113",
"3 c #D0B212",
"4 c #D4B512",
"5 c #E0BF10",
"6 c #E4C310",
"7 c #818181",
"8 c #8C8C8C",
"9 c #969696",
"0 c #CFCFCF",
"q c #D8D8D8",
"w c #DCDCDC",
"e c #EFEFEF",
"r c #F0F0F0",
"t c #F1F1F1",
"y c #FBFBFB",
"u c #FCFCFC",
"i c white",
/* pixels */
"iiiiiiiiiiiiiiiiiiiii",
"iiiiiiiyewqweyiiiiiii",
"iiiiiy081=*=180yiiiii",
"iiiit9-O.XXX.O-9tiiii",
"iiir7& oOOOOOo &7riii",
"iiy9%$;#oOOOo#;$%9yii",
"ii0- ;3,+oOo+,3; -0ii",
"iu8Oo#,5:@o@:5,#oO8ui",
"ie1.Oo+:6>+>6:+oO.1ei",
"iw=XOOo@>2<2>@oOOX=wi",
"iq*XOOOo+<4<+oOOOX*qi",
"iw=XOOo@>2<2>@oOOX=wi",
"ie1.Oo+:6>+>6:+oO.1ei",
"iu8Oo#,5:@o@:5,#oO8ui",
"ii0- ;3,+oOo+,3; -0ii",
"iiy9&$;#oOOOo#;$&9yii",
"iiit7% oOOOOOo %7tiii",
"iiiir9-O.XXX.O-9riiii",
"iiiiiy081=*=180yiiiii",
"iiiiiiiyewqweyiiiiiii",
"iiiiiiiiiiiiiiiiiiiii"
};
