/* XPM */
static char *test[] = {
/* columns rows colors chars-per-pixel */
"21 21 26 1 ",
"  c #5A565B",
". c #5E5A5D",
"X c #635D5D",
"o c #5E5B61",
"O c #615D64",
"+ c #635F68",
"@ c #656265",
"# c #6A6667",
"$ c #686866",
"% c #66636A",
"& c #6A666B",
"* c #6C696D",
"= c #706C6F",
"- c #6C6770",
"; c #6E6B71",
": c #716E73",
"> c #726F78",
", c #6F7074",
"< c #757275",
"1 c #797777",
"2 c #7A7877",
"3 c #757379",
"4 c #79767B",
"5 c #7A797D",
"6 c #7D7C81",
"7 c #807F81",
/* pixels */
"56656666663;765557566",
"%&:*@,;$%,*.,*@*:*$%;",
"@&*%@%*%%*%@*%@%*%%%@",
"1<:13<344;;1133<<;31+",
"*@o;%@@&+O&&@%&&@@#O ",
";&*<;*;;*&::;;:-**:%*",
"3:53<451<44<54<<15<*4",
"&%;*%3***:*%:*&;<*&*<",
":*&>::*::<:==*::;&<;3",
":=&:>:*<>::==:3:*&<,;",
"**&<:-#<::=*&*>;&*<**",
":<54<422>4<&64::553:5",
"X+&#X&&+O&OX*@OO*@.+&",
">>>><<1<::-<3:3:>*33%",
"1==:<=:::&&<=*><**1;o",
":+#:=+&:#+:&+*>#%&;OO",
"1>553445<34<343:65<:5",
"=:<:=<<<=<<:3<;;<<*:<",
"#&&*-:&&&=&$*%&&=@***",
":==3<>:<:<<=::><:*><<",
"+XX-&OX&&+@@XO*#.O*@O"
};
