/* XPM */
static char *wall[] = {
/* columns rows colors chars-per-pixel */
"21 21 31 1 ",
"  c #524D54",
". c #5A5257",
"X c #535158",
"o c #5A555B",
"O c #5D5A5E",
"+ c #625C5C",
"@ c #5E5B63",
"# c #625D63",
"$ c #615E68",
"% c #646264",
"& c #696166",
"* c #676865",
"= c #66646A",
"- c #6A666B",
"; c #6C6A6D",
": c #716C6D",
"> c #72706E",
", c #6B6770",
"< c #6E6B72",
"1 c #726D74",
"2 c #726F78",
"3 c #747275",
"4 c #787575",
"5 c #787877",
"6 c #75737A",
"7 c #79767B",
"8 c #7B7A7C",
"9 c #807E7E",
"0 c #7E7C82",
"q c #807E83",
"w c #808183",
/* pixels */
"7w080088008<w98008050",
"&;3;&31;-3;o3:%->:--3",
"@=&#@$=$@*$@,@@@-$@%@",
"85388560851858885688*",
"-#o-=#@*#.#&@#-&+@&@X",
"2,<3<<<21161112,111=<",
"3<85358535918536553:8",
"&*<;-3;--1:#1;--5---3",
"1<=211;1113;1<161=2<3",
":<-131-331<>-131,,63<",
"-<-13,&3<-<---6-**6--",
"15855048688-055288528",
"X=##+-&#@-& <#O@;#O@-",
"7716136631<67<716-56*",
"41:543:63--5:1341-52@",
"1##1-+$<%O,-+=1#%=-@@",
"66q87q9q60078q71q882q",
":141,61:;53-411-53;-4",
"##&-&,&-*,-%-$---#-=-",
"41766666363>12766<566",
"-+o,;+o;*%**o@;*.#;*#"
};
