/* XPM */
static char *avatar[] = {
/* columns rows colors chars-per-pixel */
"31 31 196 2 ",
"   c #183917",
".  c #0B431F",
"X  c #195733",
"o  c #284B29",
"O  c #27512B",
"+  c #275431",
"@  c #335334",
"#  c #3D563A",
"$  c #355D39",
"%  c #206633",
"&  c #2F5C43",
"*  c #365B43",
"=  c #346344",
"-  c #3A6B44",
";  c #3A6449",
":  c #3C6A4C",
">  c #2C7F4B",
",  c #347343",
"<  c #3A724C",
"1  c #3A7352",
"2  c #377C51",
"3  c #485945",
"4  c #456345",
"5  c #466E46",
"6  c #506A4F",
"7  c #45764E",
"8  c #436E53",
"9  c #536752",
"0  c #516E5A",
"q  c #457353",
"w  c #497554",
"e  c #427559",
"r  c #427B59",
"t  c #497D5B",
"y  c #557857",
"u  c #5A745C",
"i  c #517B5C",
"p  c #497E60",
"a  c #537C63",
"s  c #5B7D64",
"d  c #6A7D6E",
"f  c #2C814C",
"g  c #3C824A",
"h  c #308F51",
"j  c #398852",
"k  c #3E845B",
"l  c #3E8D5B",
"z  c #3A9659",
"x  c #3D945C",
"c  c #3B9A5C",
"v  c #3B9760",
"b  c #3D9C62",
"n  c #43834E",
"m  c #428353",
"M  c #4B8857",
"N  c #46835B",
"B  c #4F835B",
"V  c #41895A",
"C  c #528A5B",
"Z  c #43925C",
"A  c #499A5F",
"S  c #468863",
"D  c #508767",
"F  c #5B8365",
"G  c #538D66",
"H  c #5E8D64",
"J  c #538D6B",
"K  c #419462",
"L  c #4B9464",
"P  c #449B64",
"I  c #4E9169",
"U  c #469869",
"Y  c #4D9D6B",
"T  c #53956B",
"R  c #549A6D",
"E  c #599571",
"W  c #539D73",
"Q  c #5C9972",
"!  c #628269",
"~  c #608A69",
"^  c #619269",
"/  c #668673",
"(  c #6B8C73",
")  c #7C8C79",
"_  c #669C76",
"`  c #6C937B",
"'  c #729979",
"]  c #42A266",
"[  c #49A266",
"{  c #49A26A",
"}  c #4AAA6D",
"|  c #50A56D",
" . c #4BA870",
".. c #54A373",
"X. c #5DA475",
"o. c #54AB77",
"O. c #59AB73",
"+. c #5EA57B",
"@. c #53B175",
"#. c #5BB076",
"$. c #54B47A",
"%. c #5AB47F",
"&. c #5CBC7E",
"*. c #68A174",
"=. c #65AE7D",
"-. c #76A47F",
";. c #61B17C",
":. c #6D9D82",
">. c #739B81",
",. c #7E9984",
"<. c #5CB180",
"1. c #5DBC81",
"2. c #6CAE86",
"3. c #74A280",
"4. c #7CA18B",
"5. c #63B584",
"6. c #6BB586",
"7. c #62BE82",
"8. c #6CB389",
"9. c #68BC88",
"0. c #6CBE8D",
"q. c #73BC8E",
"w. c #7EB893",
"e. c #63C184",
"r. c #64C38A",
"t. c #6CC58B",
"y. c #69C68C",
"u. c #6BC890",
"i. c #72C395",
"p. c #819585",
"a. c #859D8B",
"s. c #88998F",
"d. c #929A8E",
"f. c #84A18F",
"g. c #89A093",
"h. c #80AB93",
"j. c #8DAF97",
"k. c #8EAC99",
"l. c #99A99A",
"z. c #84B296",
"x. c #8BB39A",
"c. c #9CBBA5",
"v. c #A8A6A7",
"b. c #B2A7AF",
"n. c #A2B9AB",
"m. c #AFB9AC",
"M. c #A8BFB1",
"N. c #BBB1B7",
"B. c #B5B7BB",
"V. c #ADC4B5",
"C. c #B3CBB7",
"Z. c #B3C9B9",
"A. c #BACBBD",
"S. c #AED3BB",
"D. c #B6D0BD",
"F. c #B9D4C3",
"G. c #BCE2D0",
"H. c #C6C1C7",
"J. c #C1C5C8",
"K. c #C3D0C6",
"L. c #C3DBCC",
"P. c #CBDACB",
"I. c #D1DACF",
"U. c #D9CED6",
"Y. c #D5DED5",
"T. c #C5E1CF",
"R. c #C3E6D6",
"E. c #CEE2D3",
"W. c #D2E2D7",
"Q. c #D6ECDF",
"!. c #DEDEE3",
"~. c #E3DCE0",
"^. c #DCE4E4",
"/. c #DDECE4",
"(. c #DBF1E4",
"). c #DCF2E4",
"_. c #E4E8E5",
"`. c #E9E3E9",
"'. c #EDEFEA",
"]. c #E3F3E6",
"[. c #E5F1EA",
"{. c #EBF6EB",
"}. c #ECF4EB",
"|. c #F0F7EE",
" X c #F7EDF3",
".X c #EDF6F1",
"XX c #EEFCF3",
"oX c #EEFDFB",
"OX c #F3F5F3",
"+X c #FAF6F5",
"@X c #F4FCF5",
"#X c #FCFDF5",
"$X c #F7F6FB",
"%X c #FCF6FA",
"&X c #F6FEFB",
"*X c #FDFDFD",
/* pixels */
"*X*X*X*X&X&X&X&X&X*X*X*X*X*X*X&X*X*X*X*X*X*X&X*X*X#X#X*X#X#X#X",
"*X*X*X*X*X*X*X*X&X*X*X*X*X*X*X*X*X*X*X*X&X*X*X*X*X*X*X#X*X*X#X",
"*X*X*X*X*X*X*X*X*X*X*X*X*X*X*X$X*X%X%X*X*X*X*X*X*X*X*X*X*X*X*X",
"*X*X*X*X*X*X*X*X*X*X*X*X*X*X*X*X*X*X*X*X*X*X%X*X*X*X*X*X*X*X*X",
"*X*X*X*X*X*X*X%X*X*X*X*X+X+X#X#X*X*X*X*X*X*X*X*X*X*X*X*X*X*X*X",
"&X*X*X*X*X*X*X*X%X*X+X#X*X#X|.{.[./.].[.OX#X*X*X*X*X*X*X*X*X*X",
"*X*X*X*X*X*X%X%X*X*X#X@X{.E.C.j.4.4.4.f.n.E.{.&X*X*X*X*X*X*X*X",
"&X&X*X*X*X*X*X*X$X@X{.T.x.~ t N G T S = : ` c.W.@X*X*X*X*X*X%X",
"&X$X%X*X*X%X*X*X@X(.c.J S _ W Y 9.t.0...T Q t -.T.XX&X*X*X*X%X",
"$X*X%X X%X*X+X&X).x.1 I 0.0.5.v } u.y.{ P ;.q.*.-.T.XX@X*X*X%X",
"^.*X`.U.%X*X*X&XS.p W v  .y.7.z ] e.$.c } e.7.X.j >.).@X*X%X*X",
"F.!.~.b.%X%X*X).h.J i.<.b } 7.v x [ [ h [ e.7.Y L t D.@X#X+X%X",
"!.B.~.N.~.*X*XQ.3.I 0.u.@.z [ Z g L Z f v 1.o.v 6.E >./.*X*X*X",
" XJ.H.!.N.+X@XT.J k ..7.e.z h C - - < V K U b o.q.*.; L.$X%X*X",
"$X!.b.!.v.*XoXF.1 <.P { #.A g 7 0 u w < 2 f U 0.+.E & F.*X%X%X",
"oXG.s.,./ S.F.w.2 9.%.#.L C 7 ( Z.P.V.a e S W Y U <.J k..X%X*X",
"R.>./ ( F B m K c @.r.9.I q ! A.#X*X@Xn.0 1 p U  .i.R a ).*X*X",
"z.; i -.^ , % O.$.b <.<.T = ' {.*X*X@X[./ : S <.&.} l I c.W.&X",
"& F ~ _ ~ C , O.7.[ { 6.D 8 c.#X#X#X&X&X4.1 I v b ] o.=.r ` L.",
"+ >.' 3.H *.n Z 0.| l X.r ! E.#X#X#X#X&Xs.; 2 > } $.r.9.k J a ",
"O $ @ 5 O ^ M n =.L M G w ' ].@X#X*X@X&XM.e 1 U } &.&.Y Y 2.X ",
"o $     o y 5 M _ G < = d C.#X#X#X&X&X&X(.s e D l Z P Y 8.8.. ",
"u 6 # # 3 @ 4 y t = $ / C.}.*X*X&X&X*X&XXXg.* ; r M T 2.E r p ",
"P.) 3 3 9 3 6 y d k.F./.@X*X*X*X$X*X*X*X*X/.g.0 ; : : ; 8 :.G.",
"#XY.l.d.m.I.Y.Y.W..X*X*X*X*X*X*X*X*X*X*X*X*X^.K.l.a.p.g.V.W.oX",
"#X#X'._.|.*X*X&X*X*X*X*X%X*X*X*X*X*X*X*X%X*X*XOX}.}.'.|.@X*X*X",
"*X*X*X*X*X$X$X*X%X%X*X*X*X%X*X*X*X%X*X*X*X*X%X*X*X*X#X*X*X*X*X",
"%X*X*X+X*X*X*X*X*X*X*X*X*X*X*X*X*X*X%X*X*X*X*X*X*X+X+X*X*X*X*X",
"*X*X*X*X*X*X*X*X*X%X+X*X*X*X*X*X*X*X*X&X*X*X*XOX#X#X#X*X+X*X*X",
"*X*X@X*X*X&X&X*X*X*X*X*X*X*X@X#X#X#X*X*X*X&X@X&X#X+X#X*X*X*X*X",
"*X*X&X*X*X*X*X*X*X*X*X#X#X#X@X#X#X#X#X#X&X&X&X@X#X#X*X#X&X*X$X"
};
