/* XPM */
static char *avatar_right[] = {
/* columns rows colors chars-per-pixel */
"31 31 194 2 ",
"   c #183917",
".  c #0B431F",
"X  c #195733",
"o  c #284B29",
"O  c #275431",
"+  c #335334",
"@  c #3D563A",
"#  c #355D39",
"$  c #206633",
"%  c #2F5C43",
"&  c #365B43",
"*  c #346344",
"=  c #3A6B44",
"-  c #3A6449",
";  c #3C6A4C",
":  c #2C7F4B",
">  c #3A724C",
",  c #3A7B4D",
"<  c #3A7352",
"1  c #377C51",
"2  c #485945",
"3  c #466E46",
"4  c #506A4F",
"5  c #45764E",
"6  c #436E53",
"7  c #536752",
"8  c #516E5A",
"9  c #457353",
"0  c #497554",
"q  c #437D55",
"w  c #427559",
"e  c #427B59",
"r  c #497D5B",
"t  c #557857",
"y  c #5A745C",
"u  c #517B5C",
"i  c #4F7060",
"p  c #497E60",
"a  c #537C63",
"s  c #5B7D64",
"d  c #6A7D6E",
"f  c #2C814C",
"g  c #3C824A",
"h  c #308F51",
"j  c #398852",
"k  c #3E845B",
"l  c #3E8D5B",
"z  c #3A9659",
"x  c #3D945C",
"c  c #3B9A5C",
"v  c #3B9760",
"b  c #3D9C62",
"n  c #43834E",
"m  c #428353",
"M  c #4B8857",
"N  c #46835B",
"B  c #41895A",
"V  c #528A5B",
"C  c #43925C",
"Z  c #499A5F",
"A  c #4D8162",
"S  c #468863",
"D  c #4C8D63",
"F  c #508767",
"G  c #5B8365",
"H  c #538D66",
"J  c #5E8D64",
"K  c #538D6B",
"L  c #419462",
"P  c #4B9464",
"I  c #449B64",
"U  c #4E9169",
"Y  c #469869",
"T  c #4D9D6B",
"R  c #53956B",
"E  c #599571",
"W  c #539D73",
"Q  c #5C9972",
"!  c #628269",
"~  c #608A69",
"^  c #619269",
"/  c #6B8C73",
"(  c #7C8C79",
")  c #669C76",
"_  c #6C937B",
"`  c #729979",
"'  c #42A266",
"]  c #49A266",
"[  c #47A369",
"{  c #49A26A",
"}  c #4AAA6D",
"|  c #50A56D",
" . c #4DA471",
".. c #4BA870",
"X. c #54A373",
"o. c #5DA475",
"O. c #54AB77",
"+. c #59AB73",
"@. c #5CA87C",
"#. c #53B175",
"$. c #5BB076",
"%. c #54B47A",
"&. c #5CBC7E",
"*. c #68A174",
"=. c #65AE7D",
"-. c #76A47F",
";. c #61B17C",
":. c #6D9D82",
">. c #739B81",
",. c #5CB180",
"<. c #5DBC81",
"1. c #6CAE86",
"2. c #74A280",
"3. c #7CA18B",
"4. c #63B584",
"5. c #6BB586",
"6. c #62BE82",
"7. c #6CB389",
"8. c #68BC88",
"9. c #6CBE8D",
"0. c #73BC8E",
"q. c #7EB893",
"w. c #63C184",
"e. c #64C38A",
"r. c #6CC58B",
"t. c #69C68C",
"y. c #6BC890",
"u. c #72C395",
"i. c #819585",
"p. c #859D8B",
"a. c #88998F",
"s. c #929A8E",
"d. c #84A18F",
"f. c #89A093",
"g. c #8EAC99",
"h. c #99A99A",
"j. c #84B296",
"k. c #8BB39A",
"l. c #9CBBA5",
"z. c #A8A6A7",
"x. c #B2A7AF",
"c. c #A2B9AB",
"v. c #AFB9AC",
"b. c #A8BFB1",
"n. c #BBB1B7",
"m. c #B5B7BB",
"M. c #99C2A8",
"N. c #ADC4B5",
"B. c #B3CBB7",
"V. c #B3C9B9",
"C. c #BACBBD",
"Z. c #AED3BB",
"A. c #B6D0BD",
"S. c #B9D4C3",
"D. c #BAE1C6",
"F. c #BCE2D0",
"G. c #C6C1C7",
"H. c #C1C5C8",
"J. c #C3D0C6",
"K. c #C3DBCC",
"L. c #CBDACB",
"P. c #D9CED6",
"I. c #D5DED5",
"U. c #C5E1CF",
"Y. c #C3E6D6",
"T. c #CEE2D3",
"R. c #D2E2D7",
"E. c #D6ECDF",
"W. c #DEDEE3",
"Q. c #E3DCE0",
"!. c #DCE4E4",
"~. c #DDECE4",
"^. c #DBF1E4",
"/. c #DCF2E4",
"(. c #E4E8E5",
"). c #E9E3E9",
"_. c #EDEFEA",
"`. c #E3F3E6",
"'. c #E5F1EA",
"]. c #EBF6EB",
"[. c #ECF4EB",
"{. c #F0F7EE",
"}. c #F7EDF3",
"|. c #EDF6F1",
" X c #EEFCF3",
".X c #EEFDFB",
"XX c #F3F5F3",
"oX c #FAF6F5",
"OX c #F4FCF5",
"+X c #FCFDF5",
"@X c #F7F6FB",
"#X c #FCF6FA",
"$X c #F6FEFB",
"%X c #FDFDFD",
/* pixels */
"+X+X+X%X%X+X%X%X+X%X%X%X%X%X%X$X%X%X%X%X%X%X$X$X$X%X%X%X%X%X%X",
"%X+X+X%X%X%X%X%X%X%X#X%X%X%X%X%X%X%X%X%X%X%X%X%X%X$X$X%X%X%X%X",
"%X%X%X%X%X%X%X%X%X%X%X%X#X%X%X%X#X%X%X%X%X%X%X%X%X%X%X%X%X%X%X",
"%X%X%X%X%X%X%X%XoX%X%X%X#X%X%X%X%X%X%X%X%X%X%X%X%X%X%X%X%X%X%X",
"%X%X%X%X%X#X%X%X%X%X%X%X%X%X%X%X+XoXoX+X%X#X#X%X%X%X%X%X%X%X%X",
"%X%X%X%X%X%X%X%X#X%XOX].'.~.'.`. X+X+XoX#X%X%X%X%X%X%X%X%X%X%X",
"%X%X%X%X%X%X%X%X|.T.c.d.3.3.3.k.B.T.]. X%X%X%X%X%X%X%X%X%X%X$X",
"%X%X%X%X%X%XOXR.l._ ; * N U K r r J k.U. XXX%X%X%X#X#X%X%X$X$X",
"#X%X%X%X$X XU.2.m Q R X.r.r.9.T T ) N K M.^.$X%X#X#X%X#X#X%X@X",
"%X%X%XOX XU.2.Q 0.;.I ] r.r.} L 4.r.9.U < k./.$X%X%X#X}.@X@X@X",
"%X#X+X$X/.-.q o.8.w.} c %.<.' z 6.t...v W p S..X%X%X#XP.Q.%XW.",
"%X#XOX XA.N P T 6.w.[ h ] T x v w.} b &.0.U 3.'.%X#X#Xx.Q.W.S.",
"%X%X#XE.:.E 7.l #.6.c f C P , C ] c #.y.9.U :.~.%X%XQ.n.).m.W.",
"#X#X%XK.- :.9.O.I I C B , = = M j z 6.;. .k F U.$X#Xn.Q.G.H.|.",
"#X#X%XS.% E @.8.{ : 1 > 0 y t 5 g Z $.[ Y @.< Z.OX%Xz.Q.z.!.$X",
"#X%X|.k.a ,.Y  .W S w a N.L.B./ 5 P P O.,.9.j q.D.A.d i.a.F..X",
"%X%X'.a T u. .Y k < i c.@X%XOXC.! 9 K 4.e.%.v L M V V / / >.Y.",
"%XI.l.F l ..<.,.S ; :.!.XX%X+X].i.* K 4.,.b %.+.$ # ^ 2.u ; j.",
"K._ e =.%.' b b P ; d.$X%XOX+X%Xl.3 H 7.] I w.+.# Z J ` J G * ",
"A K k 8.e.%...: 1 - p.$XOX#X+XOXT.~ q o.B | r.C n *.J -.` ` O ",
"X 1.T T &.&.} P e 9 b.$XOX+X+XOX`.( 0 D B P =.n n ^ o 3 # # O ",
". 7.5.T I x l D < s /.$X$X%X%X+XOXV.G * > H *.V 3 t o   . + o ",
"r < Q 1.R B q - & f..X$X%X$X#X%X+X{.C./ % # u u 3 + 2 @ @ 4 y ",
"F.:.6 - ; 3 - 8 f.~.%X%X%X%X%X%X%X%XXX~.S.g.d y 7 2 7 2 2 ( L.",
"$XI.N.g.i.p.h.J.(.%X%X@X%X%X%X%X%X%X%X%X%X|.R.R.R.I.v.s.h.I.oX",
"%X$X@X|._._.[.{.%X%X%X%X%X%X%X%X%X%X#X%X%X%X%X#X%X%X{.(.[.+X#X",
"%X%X%X#X%X+X%X#X#X#X%X%X%X%X%X%X%X#X%X%X%X#X%X%X@X#X%X%X%X%X%X",
"%X%X%X%XoX+X%X%X%X%X%X%X%X%X%X+X%X#X%X%X%X%X%X%X%X%X%XoX#X%X%X",
"%X#XoX%X%X%X+X@X%X%X%X%X%X%X+X+X%X%X%X%X+X#X%X#X%X%X%X%X%X%X%X",
"%X%X+X%X+X+X+X+X$X$X$X$X%X+X+X+XOX%X%X%X%X%X%X%X%X%X%X$X$X%X%X",
"$X%X%X%X+X+X+XOX$X$X$X$X%X+X+X+X%X+XOX%X%X+X+X%X%X$X%X%X%X%XOX"
};
