/* XPM */
static char *collectible[] = {
/* columns rows colors chars-per-pixel */
"31 31 186 2 ",
"   c #77151B",
".  c #691921",
"X  c #751821",
"o  c #2E5B1B",
"O  c #2D4D24",
"+  c #355A22",
"@  c #385D28",
"#  c #295925",
"$  c #326524",
"%  c #3C6D38",
"&  c #3F7B39",
"*  c #407637",
"=  c #467141",
"-  c #587857",
";  c #5B7757",
":  c #637D5F",
">  c #697A62",
",  c #8B1C14",
"<  c #971B1A",
"1  c #AB1D1E",
"2  c #BC191F",
"3  c #A5201F",
"4  c #B6201F",
"5  c #8D1B2A",
"6  c #931C24",
"7  c #9A1B25",
"8  c #A21E23",
"9  c #AE1D2A",
"0  c #A71D29",
"q  c #B21D23",
"w  c #BA1D25",
"e  c #B21B2C",
"r  c #BD1C28",
"t  c #BE142C",
"y  c #8E2524",
"u  c #9C2321",
"i  c #972525",
"p  c #AD2025",
"a  c #AE2329",
"s  c #A4222A",
"d  c #B22325",
"f  c #BB2326",
"g  c #BC232A",
"h  c #B82927",
"j  c #C31E25",
"k  c #CA1C24",
"l  c #CA1C2B",
"z  c #C51A28",
"x  c #D31E2D",
"c  c #DB1E29",
"v  c #CB1F30",
"b  c #E61D2D",
"n  c #CB2226",
"m  c #C3232B",
"M  c #CB232B",
"N  c #C2262A",
"B  c #D4222E",
"V  c #DD252C",
"C  c #DE292D",
"Z  c #CA2831",
"A  c #C42533",
"S  c #D32532",
"D  c #DC2531",
"F  c #D42832",
"G  c #D92B31",
"H  c #D92F3A",
"J  c #D42A3A",
"K  c #D63339",
"L  c #E3242C",
"P  c #E4282C",
"I  c #E22527",
"U  c #E42432",
"Y  c #ED2632",
"T  c #E52A36",
"R  c #ED2D3F",
"E  c #F12A3B",
"W  c #F6323C",
"Q  c #EA363C",
"!  c #AF4339",
"~  c #BB4130",
"^  c #A2543C",
"/  c #B4593C",
"(  c #BA543A",
")  c #D24F37",
"_  c #CB3641",
"`  c #B95D44",
"'  c #B35B40",
"]  c #B26144",
"[  c #A97344",
"{  c #B67E52",
"}  c #B7794B",
"|  c #CD4F51",
" . c #D95D5F",
".. c #C55644",
"X. c #E7444B",
"o. c #E54E59",
"O. c #F04B5C",
"+. c #F4525A",
"@. c #EA5F68",
"#. c #FB5C6E",
"$. c #F36569",
"%. c #EF6671",
"&. c #E36A74",
"*. c #F46F71",
"=. c #EB7277",
"-. c #4A873E",
";. c #4F9245",
":. c #519044",
">. c #5B9B45",
",. c #5B9E4C",
"<. c #569E4A",
"1. c #5A8748",
"2. c #649B4F",
"3. c #688758",
"4. c #56A147",
"5. c #60A54E",
"6. c #62A451",
"7. c #64A852",
"8. c #6EB559",
"9. c #72B15B",
"0. c #6D8975",
"q. c #7B9178",
"w. c #7A8C77",
"e. c #6EBF6B",
"r. c #71BF6B",
"t. c #77C269",
"y. c #A49A55",
"u. c #BB8A56",
"i. c #98B65E",
"p. c #95B966",
"a. c #A3A369",
"s. c #BCAB66",
"d. c #D79766",
"f. c #89C66B",
"g. c #90C56F",
"h. c #98C775",
"j. c #96C675",
"k. c #90DE76",
"l. c #F37D84",
"z. c #F97884",
"x. c #7F9880",
"c. c #8E9E8A",
"v. c #A4AA9F",
"b. c #A2B3A4",
"n. c #F58A8D",
"m. c #F49798",
"M. c #E6989D",
"N. c #F299A1",
"B. c #EDBCBE",
"V. c #F4BDBA",
"C. c #F9BCBF",
"Z. c #F8B3B6",
"A. c #AEC0B2",
"S. c #C2C799",
"D. c #C5DBA8",
"F. c #F0BCC1",
"G. c #C4CCC2",
"H. c #C3D0C2",
"J. c #CDD1CD",
"K. c #CFD6D5",
"L. c #D5DAD6",
"P. c #F4C6C2",
"I. c #F7D3CC",
"U. c #FBDADB",
"Y. c #F5D7D4",
"T. c #DCE2DC",
"R. c #E4EADB",
"E. c #FDE2DB",
"W. c #E5F2DE",
"Q. c #D7DCE2",
"!. c #F9DDE0",
"~. c #EAEDEE",
"^. c #E2E8E2",
"/. c #F7EEE8",
"(. c #FCEDED",
"). c #FAEAE6",
"_. c #EEFCEF",
"`. c #F3F4EC",
"'. c #F2FAEF",
"]. c #F6F6F4",
"[. c #FCF2F4",
"{. c #F5FAF4",
"}. c #FCFCF6",
"|. c #FDF6FB",
" X c #F6FEFD",
".X c #FDFEFE",
/* pixels */
".X.X.X.X.X.X.X.X.X.X.X|.|..X.X.X.X.X|..X X.X.X.X.X.X.X.X.X.X.X",
".X.X.X.X.X.X.X.X X.X.X X X}. X X X.X.X}.}..X X.X.X.X.X.X.X.X.X",
".X.X.X.X.X.X.X.X.X.X.X X.X.X.X.X.X|..X X.X.X.X.X.X.X.X.X.X.X.X",
".X.X.X.X.X.X.X.X|..X.X.X.X.X.X.X.X|..X.X.X.X}..X.X.X.X.X.X.X.X",
".X.X.X.X.X.X.X.X.X.X.X.X.X]./.)./.]. X.X.X X.X.X.X.X.X.X.X.X.X",
".X.X.X.X.X.X.X.X.X.X.X.X(.Z.l.z.z.C.`. X.X X X.X.X.X.X.X.X.X.X",
".X.X.X.X.X.X.X.X.X|. X].Z.O.Y b E #.P.{..X.X.X.X.X.X.X.X.X.X.X",
".X.X.X.X.X.X.X.X.X|.}.Y.$.L P h n R n.)..X.X|..X.X.X.X.X.X.X.X",
".X.X.X}..X.X.X.X.X.X{.m.b P U i 7 I X.F.|.|.|..X.X.X.X.X.X.X.X",
".X X.X.X.X.X.X.X.X|.P.@.c V U S l C Q d.!.|. X.X.X.X.X.X.X.X.X",
".X.X.X|..X.X.X.X XE.=.V V B C Y P T Y Q N.[..X.X.X.X.X.X.X.X.X",
" X.X.X|..X.X.X.X|.V.X.Z l B V C V U U T $.I.|..X.X.X.X.X.X.X.X",
".X.X.X.X X}. X.XU.&.M h 8 e Y V V U j p H m.)..X.X.X.X.X.X.X.X",
".X.X.X.X X X.X(.M.A k f i a U B D T Z 1 c O.V.[..X.X.X.X.X.X.X",
".X.X.X.X}..X[.F.| r N Z m B M M S H K C P E *.Y.|..X.X.X.X.X.X",
".X X.X.X|..X!. .j g Z A d N J Z M K K C C Y W N.(..X.X X.X.X.X",
".X}. X|.|.(.N.k 9 0 s g g g Z i s F F S F g B o.Z.[..X X.X|..X",
".X.X}.}.}.F.K t 9 5   t A m n i 7 M x m D y 7 P $.U. X.X}..X X",
".X.X X|.'.S.] 0 q u < w f r l g g N N f c d 0 ) d.D.{.|.}..X.X",
"}. X.X|.W.e.p...q q q 9 a r z m q g g w z k ( s.k.e.W..X X.X}.",
".X.X X}.R.1.>.a.` q e 5 . 7 m M m l 9 6 8 ~ u.p.4.3.^..X}..X X",
"}..X.X.X`.c.+ 2.p.{ ! 6   7 w w w g 8 , ^ a.t.>.# v.].}.]..X X",
".X.X.X.X|.Q.0.$ 6.f.i.y.[ ( ' ' ` / } y.p.t.,.% 0.^.|..X.X.X}.",
".X.X X.X}..XK.> $ ;.<.8.p.j.h.h.j.j.g.9.4.-.o w.L.|..X.X.X.X.X",
".X.X.X.X.X.X|.J.q.- % & ;.2.6.7.6.,.:.% = ; c.K.}. X.X.X.X.X.X",
".X.X.X.X.X.X.X}.~.L.b.; O O @ O + @ O : b.T.~. X.X}..X.X.X.X.X",
".X.X.X}..X.X.X|..X.X].^.D.G.H.H.G.G.G.T.}..X.X.X.X.X.X.X.X.X.X",
".X|..X.X.X.X.X.X|.|..X.X.X.X X X.X X.X}..X.X|..X.X.X.X.X.X.X.X",
".X}..X.X.X.X.X.X.X.X.X}..X.X}..X.X.X.X.X.X}..X.X.X.X.X.X.X.X.X",
".X.X.X.X.X.X.X.X X.X.X.X.X}.}.}..X.X.X.X.X X.X.X.X.X.X.X.X.X.X",
".X.X.X.X.X.X.X.X.X.X.X.X.X.X.X.X.X.X.X.X.X.X.X.X.X.X.X.X.X.X.X"
};
