/* XPM */
static char *npxfess[] = {
/* columns rows colors chars-per-pixel */
"31 31 56 1 ",
"  c #16181E",
". c #18191E",
"X c #191A1E",
"o c #1A1A1E",
"O c #1B1C1E",
"+ c #1D1D1D",
"@ c #1E1E1E",
"# c #1F1F1E",
"$ c #1F1F1F",
"% c #20201E",
"& c #2F2C1D",
"* c #3A351C",
"= c #3B361C",
"- c #3C371C",
"; c #3D381C",
": c #3E381C",
"> c #212121",
", c #222222",
"< c #2F2F2F",
"1 c #313131",
"2 c #323232",
"3 c #363636",
"4 c #403A1C",
"5 c #645819",
"6 c #474747",
"7 c #5F5F5F",
"8 c #9A8516",
"9 c #A08A16",
"0 c #AC9315",
"q c #B69C13",
"w c #B79D13",
"e c #B89E13",
"r c #BA9F13",
"t c #F8D30E",
"y c #F9D40E",
"u c #FAD50E",
"i c #EBC810",
"p c #ECC910",
"a c #808080",
"s c #999999",
"d c #A8A8A8",
"f c #AEAEAE",
"g c #AFAFAF",
"h c #CECECE",
"j c #CFCFCF",
"k c #D0D0D0",
"l c #DEDEDE",
"z c #EDEDED",
"x c #EEEEEE",
"c c #F0F0F0",
"v c #F3F3F3",
"b c #F6F6F6",
"n c #F7F7F7",
"m c #FDFDFD",
"M c #FEFEFE",
"N c #FFFFFF",
/* pixels */
"NNNNNNNNNNNNNNNNNNNNNNNNNNNNNNN",
"NNNNNNNNNNNNNMmmmMNNNNNNNNNNNNN",
"NNNNNNNNNNmbxljkjlxbmNNNNNNNNNN",
"NNNNNNNNmchs7<>,><7shcmNNNNNNNN",
"NNNNNNNnka2$$@@@@@$$2aknNNNNNNN",
"NNNNNNvg6+@@@@@@@@@@@+6gvNNNNNN",
"NNNNNvd3+@@@@@@@@@@@@@+3dvNNNNN",
"NNNNnf1+#%O@@@@@@@@@O%#+1fnNNNN",
"NNNmk6+#*5:o@@@@@@@o:5*#+6kmNNN",
"NNNca+@%5pr=X@@@@@X=rp5%@+acNNN",
"NNmh2@@O:rte-X@@@X-etr:O@@2hmNN",
"NNbs$@@@o=etw;.@.;wte=o@@@$sbNN",
"NNz7$@@@@X-wyq4 4qyw-X@@@@$7zNN",
"NNl<@@@@@@X;qu8&8uq;X@@@@@@<lNN",
"Nmj>@@@@@@@.4809084.@@@@@@@>jmN",
"Nmk,@@@@@@@@ &9i9& @@@@@@@@,kmN",
"Nmj>@@@@@@@.4809084.@@@@@@@>jmN",
"NNl<@@@@@@X;qu8&8uq;X@@@@@@<lNN",
"NNz7$@@@@X-wyq4 4qyw-X@@@@$7zNN",
"NNbs$@@@o=etw;.@.;wte=o@@@$sbNN",
"NNmh2@@O:rte-X@@@X-etr:O@@2hmNN",
"NNNca+@%5pr=X@@@@@X=rp5%@+acNNN",
"NNNmk6+#*5:o@@@@@@@o:5*#+6kmNNN",
"NNNNng3+#%O@@@@@@@@@O%#+3gnNNNN",
"NNNNNvd1+@@@@@@@@@@@@@+1dvNNNNN",
"NNNNNNvf6+@@@@@@@@@@@+6fvNNNNNN",
"NNNNNNNnka2$$@@@@@$$2aknNNNNNNN",
"NNNNNNNNmchs7<>,><7shcmNNNNNNNN",
"NNNNNNNNNNmbxljkjlxbmNNNNNNNNNN",
"NNNNNNNNNNNNNMmmmMNNNNNNNNNNNNN",
"NNNNNNNNNNNNNNNNNNNNNNNNNNNNNNN"
};
