/* XPM */
static char *test[] = {
/* columns rows colors chars-per-pixel */
"31 31 40 1 ",
"  c #534D4E",
". c #544E55",
"X c #565257",
"o c #5A5352",
"O c #575258",
"+ c #5A565C",
"@ c #5E5A5E",
"# c #605D5E",
"$ c #63615E",
"% c #5E5B62",
"& c #625E64",
"* c #645F68",
"= c #656266",
"- c #696567",
"; c #6C6867",
": c #67636A",
"> c #6A666C",
", c #676969",
"< c #6C6A6D",
"1 c #70676E",
"2 c #706C6E",
"3 c #6F706F",
"4 c #72706F",
"5 c #6C6770",
"6 c #6E6B71",
"7 c #726E73",
"8 c #726F78",
"9 c #6F7071",
"0 c #747275",
"q c #787676",
"w c #757379",
"e c #79767B",
"r c #77787D",
"t c #7B797C",
"y c #7B7780",
"u c #7D7B82",
"i c #807F81",
"p c #807F88",
"a c #808085",
"s c #818288",
/* pixels */
"yupptuutuuuuuuuu00supuyuuaaeruy",
"q7ttrq9rtrrtwttw<<ttq00tett08rr",
"&%-<:=+:6,=%&,<:++<-=@%,<,:%%:6",
"&%-,==%*5:==*,:=%%<:=%%-<==&%,*",
"q0077w06w0wrw0,670w7q777q,7ww8%",
"qt770qwq00rwq0>7qq0wwqqq7<00w6%",
",>&%:7:-=%>-=&%:<;&*<1;-=&;>=+O",
"6:&&=6:*==*>:%&>1**&><**&*;:%%%",
"w660ww8860e0788wq88807887qq7697",
"w6wttw0errtqwttee8iteq8eett07wt",
"6:6w76<0q0221787218772<8027<,7w",
">=><-,:60,=<;771-*7<;:>80->--27",
"71<:>w7876607777122-77786&6770q",
"w077wwww87weweew000eyywww7wrwew",
"-:*#:66,*&,0<:-1<=%&67,-&@<9,-:",
"76<:,w07--<w9<2165,:7w6<,=7062,",
"w0titteytttteutt77pttq0wtttwweu",
"5-7q40;qq0447702==t00-:wqqw550w",
"++::&*O*,-&&+:-&X+6*&++&,=&+%::",
"7687<71700076755760>78677:1766%",
"teqq0eqtqqewwe51qte7weeeq<0trw&",
"0011704012707<*<021>7704<*706:+",
"21**172-&=57-#*<7-&*77;=*&7<=%+",
"q<*17e7>5578>-180>55e8>>7<86:,6",
"t7euiewtiutiwetitqeyuw7wpttq7wu",
"q<wew77qwqq770qw72eew77qqq0777q",
";->6<<*272;<:77<,:7<7>:<0;<->73",
">:>::1;77>-5:12<-::=,5,,2&<<<<,",
"77127q88777077047<6,78077*78703",
"72;;0e7757w00704276<7w03<<78074",
"*&# #*1#OO&>:%@#$$X.*5,@..:<&@@"
};
