/* XPM */
static char *avatar_right[] = {
/* columns rows colors chars-per-pixel */
"26 26 164 2 ",
"   c #1F461F",
".  c #254123",
"X  c #254C29",
"o  c #2C512C",
"O  c #24663B",
"+  c #34613E",
"@  c #40553F",
"#  c #2B6241",
"$  c #366542",
"%  c #346F4B",
"&  c #3B6C4C",
"*  c #3D754A",
"=  c #3E7451",
"-  c #3D7C57",
";  c #436443",
":  c #406844",
">  c #43774C",
",  c #436753",
"<  c #486E55",
"1  c #526550",
"2  c #447652",
"3  c #4C775C",
"4  c #447C5A",
"5  c #4A7C5A",
"6  c #52745B",
"7  c #5F715C",
"8  c #4F7D63",
"9  c #5B7E6A",
"0  c #2C824A",
"q  c #3A8250",
"w  c #3E8957",
"e  c #3D8F5B",
"r  c #349457",
"t  c #399154",
"y  c #3D9C5D",
"u  c #3F8D61",
"i  c #3F9761",
"p  c #3E9E64",
"a  c #428353",
"s  c #48815B",
"d  c #448A5B",
"f  c #548158",
"g  c #52895B",
"h  c #45905A",
"j  c #49915B",
"k  c #468764",
"l  c #4D8B63",
"z  c #4F8E6B",
"x  c #558662",
"c  c #5B816B",
"v  c #538D6B",
"b  c #5A8D6A",
"n  c #449366",
"m  c #439A64",
"M  c #499F65",
"N  c #479D68",
"B  c #499C6B",
"V  c #519060",
"C  c #54956D",
"Z  c #58916F",
"A  c #529D6A",
"S  c #5A9E74",
"D  c #5D9E78",
"F  c #638269",
"G  c #60896F",
"H  c #6A896F",
"J  c #64906C",
"K  c #679C6D",
"L  c #678471",
"P  c #678C71",
"I  c #6B9575",
"U  c #659B75",
"Y  c #77987B",
"T  c #719C7C",
"R  c #41A267",
"E  c #4BA56C",
"W  c #4DA86E",
"Q  c #53A46D",
"!  c #52A272",
"~  c #53AB74",
"^  c #5CA178",
"/  c #59AD7A",
"(  c #54B175",
")  c #54B579",
"_  c #59B17D",
"`  c #59BA7C",
"'  c #62A377",
"]  c #63AD7C",
"[  c #63B57D",
"{  c #7B9684",
"}  c #7B9E86",
"|  c #5FB382",
" . c #5CBB83",
".. c #63AE82",
"X. c #72AB84",
"o. c #79A089",
"O. c #7BA88D",
"+. c #64B283",
"@. c #69B188",
"#. c #66BB8A",
"$. c #6BB88A",
"%. c #64C286",
"&. c #6CC48E",
"*. c #6BC690",
"=. c #879989",
"-. c #89A18B",
";. c #86A695",
":. c #8DA693",
">. c #93A797",
",. c #9EA49C",
"<. c #94AA9C",
"1. c #87B099",
"2. c #93B29E",
"3. c #99BAA1",
"4. c #94BFA9",
"5. c #A4BAA5",
"6. c #A4BDAD",
"7. c #A9BDAB",
"8. c #B6BBB8",
"9. c #C1B7BC",
"0. c #9CC3A7",
"q. c #ADCDB9",
"w. c #BAC2B7",
"e. c #BFC9BD",
"r. c #BCD3BF",
"t. c #C8BFC6",
"y. c #B7D0C0",
"u. c #BAD4C5",
"i. c #C6CCCD",
"p. c #D3C9CF",
"a. c #C5D0C6",
"s. c #C7D7CF",
"d. c #C9CCD0",
"f. c #D8D2D7",
"g. c #D4DFD3",
"h. c #CEE5D9",
"j. c #D0E3D1",
"k. c #D6E4DB",
"l. c #D5EFDC",
"z. c #D8E9DC",
"x. c #E6DBE2",
"c. c #E8DFE6",
"v. c #CFEBE1",
"b. c #DCEDE5",
"n. c #DDF4E6",
"m. c #E2ECE3",
"M. c #ECEBEC",
"N. c #F2EEEE",
"B. c #E1F1E3",
"V. c #E6F2EC",
"C. c #E9F5ED",
"Z. c #E5FAEC",
"A. c #ECF8EF",
"S. c #F0F3ED",
"D. c #F7EDF4",
"F. c #ECF3F1",
"G. c #ECFBF4",
"H. c #F1F6F2",
"J. c #FBF6F7",
"K. c #F5FCF5",
"L. c #FBFDF6",
"P. c #FBF7FB",
"I. c #F6FEFB",
"U. c #FDFDFD",
/* pixels */
"L.L.L.L.U.U.L.I.U.U.U.U.U.P.I.U.U.U.I.I.I.I.U.U.U.U.",
"U.U.U.U.U.U.U.U.U.U.U.U.U.U.U.U.U.U.U.U.I.U.U.U.U.U.",
"U.U.U.U.U.U.U.U.U.U.U.U.U.U.U.U.U.U.U.U.U.U.U.U.U.U.",
"U.U.U.U.P.U.U.U.U.U.U.U.U.U.J.L.U.P.U.U.U.U.U.U.U.U.",
"U.U.U.U.U.U.U.U.L.F.V.V.C.H.L.L.K.L.U.P.P.U.U.U.U.I.",
"U.U.U.U.U.U.K.z.6.} } o.o.2.r.B.K.U.U.P.U.U.U.U.U.I.",
"U.U.U.U.I.A.6.T x = Z S C s b T q.Z.K.U.P.U.U.U.U.I.",
"P.U.U.K.Z.0.U ' C E &.&.~ ! +.^ v O.n.L.P.P.U.P.I.I.",
"L.U.L.G.0.l ] #.~ y ` %.r ( &._ u k 1.I.I.U.D.c.J.C.",
"U.U.K.l.b l ~ %.) r E E r ) ` p _ @.P h.U.U.x.t.M.d.",
"P.U.G.2.J +.i  .E 0 h d q M y ( *...z u.I.P.p.p.i.d.",
"P.P.A.9 Z $./ i e d * $ > h t ` / B k 0.I.N.9.f.t.F.",
"P.U.b.c z ! | u - & P =.F > h Q N / C O.Z.m.,.8.i.I.",
"P.U.6.v $.B n k 3 { B.C.g.H 5 j %. .E n X.I 6 L ;.v.",
"K.k.O.w ~  .! - , s.G.U.K.7.: v +.) R Q O * T I = 1.",
"y.P Z / R p B - c C.L.L.L.j.6 v +.m ( [ q g J G c & ",
"4 z ! %.` E 0 % 9 V.K.L.L.Z.-.> A e [ A a K J Y I + ",
"O @.E W ( E C & 3.G.K.U.L.K.5.3 4 d S V > f   o X X ",
"# D ..C w a * , j.I.I.I.L.U.m.:.: $ x x ; ; o . @ ; ",
"4.8 3 3 2 , < <.F.U.U.P.I.U.U.C.y.=.G 6 1 @ 1 @ 7 5.",
"F.u.<.Y { >.a.C.U.P.U.P.U.U.U.U.U.K.g.a.a.e.,.=.w.H.",
"U.U.L.S.M.S.J.U.U.P.U.U.U.P.U.U.U.U.U.U.U.U.S.S.K.U.",
"U.U.U.J.U.U.U.P.U.U.U.U.U.U.U.U.U.U.U.U.L.U.U.U.U.U.",
"U.U.U.U.J.U.P.U.U.U.U.U.U.U.U.U.U.P.U.U.U.U.U.J.U.U.",
"U.U.U.L.L.L.K.I.I.U.U.L.L.L.L.U.U.U.U.U.U.L.I.U.U.U.",
"I.U.U.U.L.L.K.L.I.I.U.L.L.L.L.L.L.U.U.L.U.U.U.I.U.L."
};
