/* XPM */
static char *avatar[] = {
/* columns rows colors chars-per-pixel */
"26 26 175 2 ",
"   c #1F461F",
".  c #254123",
"X  c #254C29",
"o  c #2C512C",
"O  c #395738",
"+  c #24663B",
"@  c #40553F",
"#  c #2B6241",
"$  c #366542",
"%  c #3E674B",
"&  c #346F4B",
"*  c #3B6C4C",
"=  c #3D754A",
"-  c #387D48",
";  c #3E7451",
":  c #3D7C57",
">  c #435B42",
",  c #436443",
"<  c #406844",
"1  c #4D674F",
"2  c #43774C",
"3  c #436753",
"4  c #486E55",
"5  c #526550",
"6  c #447652",
"7  c #4C775C",
"8  c #447C5A",
"9  c #4A7C5A",
"0  c #52745B",
"q  c #5F715C",
"w  c #4F7D63",
"e  c #5B7E6A",
"r  c #2C824A",
"t  c #3A8250",
"y  c #388354",
"u  c #3E8957",
"i  c #3D8F5B",
"p  c #349457",
"a  c #399154",
"s  c #3F8D61",
"d  c #3F9761",
"f  c #3E9E64",
"g  c #428353",
"h  c #45845D",
"j  c #448A5B",
"k  c #548158",
"l  c #52895B",
"z  c #45905A",
"x  c #49915B",
"c  c #408F61",
"v  c #4D8B63",
"b  c #4F8E6B",
"n  c #558662",
"m  c #588964",
"M  c #5B816B",
"N  c #538D6B",
"B  c #5A8D6A",
"V  c #449366",
"C  c #439A64",
"Z  c #499F65",
"A  c #479D68",
"S  c #499C6B",
"D  c #519060",
"F  c #54956D",
"G  c #58916F",
"H  c #529D6A",
"J  c #5E9374",
"K  c #5A9E74",
"L  c #5D9E78",
"P  c #638269",
"I  c #60896F",
"U  c #6A896F",
"Y  c #64906C",
"T  c #679C6D",
"R  c #678471",
"E  c #6B9575",
"W  c #659B75",
"Q  c #6F9C7F",
"!  c #77987B",
"~  c #719C7C",
"^  c #42A468",
"/  c #4BA56C",
"(  c #4DA86E",
")  c #53A46D",
"_  c #52A272",
"`  c #5BA071",
"'  c #53AB74",
"]  c #5CA178",
"[  c #59AD7A",
"{  c #54B175",
"}  c #54B579",
"|  c #59B17D",
" . c #59BA7C",
".. c #62A377",
"X. c #63AD7C",
"o. c #63B57D",
"O. c #7B9684",
"+. c #7B9E86",
"@. c #5FB382",
"#. c #5CBB83",
"$. c #63AE82",
"%. c #72AB84",
"&. c #79A089",
"*. c #7BA88D",
"=. c #64B283",
"-. c #69B188",
";. c #66BB8A",
":. c #6BB88A",
">. c #64C286",
",. c #67C58B",
"<. c #6CC48E",
"1. c #6BC690",
"2. c #879989",
"3. c #89A18B",
"4. c #86A695",
"5. c #8DA693",
"6. c #93A797",
"7. c #9EA49C",
"8. c #94AA9C",
"9. c #87B099",
"0. c #93B29E",
"q. c #94BFA9",
"w. c #A4BAA5",
"e. c #A4BDAD",
"r. c #A9BDAB",
"t. c #B6BBB8",
"y. c #C1B7BC",
"u. c #9CC3A7",
"i. c #A2C0AA",
"p. c #ADCDB9",
"a. c #BAC2B7",
"s. c #B6CBBE",
"d. c #BFC9BD",
"f. c #C8BFC6",
"g. c #BFCCC4",
"h. c #B7D0C0",
"j. c #BAD4C5",
"k. c #C0C1C6",
"l. c #C6CCCD",
"z. c #D3C9CF",
"x. c #C5D0C6",
"c. c #C7D7CF",
"v. c #C9CCD0",
"b. c #CBD7D3",
"n. c #D8D2D7",
"m. c #D4DFD3",
"M. c #CEE5D9",
"N. c #D0E3D1",
"B. c #D6E4DB",
"V. c #D5EFDC",
"C. c #D8E9DC",
"Z. c #E6DBE2",
"A. c #E8DFE6",
"S. c #CFEBE1",
"D. c #DCEDE5",
"F. c #DDF4E6",
"G. c #E2ECE3",
"H. c #ECEBEC",
"J. c #F2EEEE",
"K. c #E1F1E3",
"L. c #E6F2EC",
"P. c #E9F5ED",
"I. c #E5FAEC",
"U. c #ECF8EF",
"Y. c #F0F3ED",
"T. c #F7EDF4",
"R. c #ECF3F1",
"E. c #ECFBF4",
"W. c #F1F6F2",
"Q. c #FBF6F7",
"!. c #F5FCF5",
"~. c #FBFDF6",
"^. c #FBF7FB",
"/. c #F6FEFB",
"(. c #FDFDFD",
/* pixels */
"(.(.(.(././.(.(.(.(.(.(.(.(.(.(.(.(.(.(.(.!.(.~.~.~.",
"(.(.(.(.(.(.(./.(.(.(.(.(.(.(.(.(.(.(.(.(.(.(.(.(.~.",
"(.(.(.(.(.(.(.(.(.(.(.(.(.(./.^.^.(.(.(.(.(.(.(.(.(.",
"(.(.(.(.(.(.(.^.(.(.(.Q.(.(.(.(.(.(.(.(.(.(.(.(.(.(.",
"(.(.(.(.(.(.^.(.(.~.~.(.U.P.P.L.R.(.(.(.(.(.(.(.(.(.",
"/.(.(.(.(.(.(.(.~.!.K.h.0.3.&.+.+.e.C./.(.(.(.(.(.(.",
"/.(.(.(.^.(.(.!.I.p.~ B h F K F ; n ~ i.I.(.(.(.(.(.",
"/./.^.^.^.^.(.F.*.N ] =._ _ ,.<./ F ..W u.I.!.(.(.^.",
"R.Q.A.T.(.(./.9.v c  .1.' p >.#.d ' >.X.n u.E.!.(.^.",
"l.H.f.Z.(.(.M.J -.[ f  .{ p / ( p } >.' v B V.!.(.^.",
"v.v.z.z.^.(.j.N $.1.{ z Z t j z r / #.A o.J 0.E.(.^.",
"R.k.n.y.J./.u.h V |  .a z 2 $ = u i d _ :.G e P.^.^.",
"/.l.t.7.G.I.*.F [ A ) x = P 3.U & : s @._ b M D.(.^.",
"S.4.R 0 E %.V / #.;.v 9 U m.P.D.O.w s s S :.N e.(.^.",
"9.6 E Q = + ' ^ } @.F % r.!.~.W.b.3 : _ #.[ y *.C.!.",
"% m Y I l - o.{ C =.D 0 N.~.~.(.R.e : A f ^ | F R g.",
"O W ~ l T g ` o.i K 6 &.P.~.!.!.U.P & y ^  .,._ b 8 ",
"X X o   k 2 D ` j 8 7 w.!.~.(.!.E.0.* F A { ( S -.+ ",
"> O . O , < l m $ % 5.G.~.(.!.(.(.c.3 ; g g H $.L # ",
"w.q > 5 @ 1 q P 2.s.P.(.~.(.(.(.(.P.0.4 * 6 9 9 w q.",
"W.a.2.7.d.x.x.B./.(.(.(.(.(.(.(.^.(.R.x.8.O.! 6.j.R.",
"!.Q.J.J.(.(.(.(.(.^.(.^.(.(.(.(./.^.(.^.Y.Y.Y.Q.(.(.",
"(.(.(.(./.(.(.(.(.(.(.^.(.(.(.(.(.(.^.(.(.(.(.(.(.(.",
"(.(.(.^.(.(.(.(.^.(.(.(.(.(.(.(.(.(.(.(.~.~.Q.(.(.(.",
"(.(.(.(.(.(.!.(.~.(.(.(.~.~.~.~./.(././.~.~.~.(.(.(.",
"(.(.(././.(.(.(.(.~.~.!.!.~.~.~.(././.!.(.!.~.(.(.(."
};
