/* XPM */
static char *collectible[] = {
/* columns rows colors chars-per-pixel */
"26 26 164 2 ",
"   c #64151F",
".  c #78191F",
"X  c #435F39",
"o  c #476937",
"O  c #46643A",
"+  c #49683C",
"@  c #466635",
"#  c #437B3C",
"$  c #417F33",
"%  c #476C48",
"&  c #4B6D49",
"*  c #4B7445",
"=  c #51784C",
"-  c #54734A",
";  c #861F1E",
":  c #8B1D1C",
">  c #901D1A",
",  c #A0251F",
"<  c #991829",
"1  c #A21E24",
"2  c #AC1D25",
"3  c #A71B2E",
"4  c #B51D26",
"5  c #B91728",
"6  c #B71F28",
"7  c #B9192A",
"8  c #8B2123",
"9  c #9E2124",
"0  c #A72427",
"q  c #A52228",
"w  c #AD2628",
"e  c #AA2024",
"r  c #BB2124",
"t  c #B22827",
"y  c #B92827",
"u  c #BD242A",
"i  c #B5252A",
"p  c #B3332E",
"a  c #B7372E",
"s  c #B12831",
"d  c #A93E30",
"f  c #C61E25",
"g  c #C51D2A",
"h  c #C91C25",
"j  c #D11E2E",
"k  c #E11F2D",
"l  c #C3232C",
"z  c #CB242D",
"x  c #C4282F",
"c  c #D72127",
"v  c #D2232F",
"b  c #DB242D",
"n  c #D52B2E",
"m  c #DD292C",
"M  c #C73B2E",
"N  c #CB2131",
"B  c #C22A34",
"V  c #D52532",
"C  c #D32B34",
"Z  c #D42D3C",
"A  c #C83F33",
"S  c #D53035",
"D  c #D1313C",
"F  c #E4242D",
"G  c #E8242E",
"H  c #E3282D",
"J  c #E12631",
"K  c #E82630",
"L  c #E32833",
"P  c #EC2934",
"I  c #EB353E",
"U  c #994132",
"Y  c #9D5D39",
"T  c #AD4731",
"R  c #B25B3E",
"E  c #C04F3F",
"W  c #DF3F4B",
"Q  c #EF3F4F",
"!  c #F53745",
"~  c #B25A42",
"^  c #D54752",
"/  c #CD505B",
"(  c #EB4045",
")  c #EB4F5B",
"_  c #FA4B5E",
"`  c #EB5054",
"'  c #F3575F",
"]  c #EF5461",
"[  c #DE7A7E",
"{  c #F56F73",
"}  c #ED7377",
"|  c #F37277",
" . c #4B883C",
".. c #528B3C",
"X. c #4A9044",
"o. c #529749",
"O. c #5FA652",
"+. c #65AC56",
"@. c #6BB156",
"#. c #7DBC5C",
"$. c #678363",
"%. c #799368",
"&. c #7B9078",
"*. c #79BE74",
"=. c #72C46A",
"-. c #B08654",
";. c #B89F5F",
":. c #A59658",
">. c #8AB05C",
",. c #80967E",
"<. c #89967C",
"1. c #9FAD68",
"2. c #98A864",
"3. c #81B861",
"4. c #9FB669",
"5. c #94B865",
"6. c #A1A764",
"7. c #A3AC68",
"8. c #D88F62",
"9. c #8AD570",
"0. c #F17E81",
"q. c #ADB6AB",
"w. c #ADBBB5",
"e. c #B3BEB2",
"r. c #F98790",
"t. c #F19799",
"y. c #F39897",
"u. c #F59FA2",
"i. c #F2A7AF",
"p. c #F8ABAE",
"a. c #F2ABB0",
"s. c #F3B3B3",
"d. c #F7B6B9",
"f. c #F8B7B9",
"g. c #F4BFBD",
"h. c #B8C3BC",
"j. c #C9CDA6",
"k. c #CCDFB3",
"l. c #BFCAC2",
"z. c #C1C9C7",
"x. c #C9D5CD",
"c. c #D0D5D2",
"v. c #F8C8C5",
"b. c #F7CDCF",
"n. c #F4D6CF",
"m. c #F4CFD2",
"M. c #F7D3D3",
"N. c #E1E3DF",
"B. c #DEE5E0",
"V. c #E9ECEC",
"C. c #E0E5E1",
"Z. c #FAE4E3",
"A. c #FAE8E7",
"S. c #F9E6E8",
"D. c #FEEFEE",
"F. c #F6F8EF",
"G. c #FBF1EB",
"H. c #F5F5F3",
"J. c #F9F2F3",
"K. c #F6FAF4",
"L. c #FAFAF5",
"P. c #F7F7FC",
"I. c #F7FEFB",
"U. c #FDFEFE",
/* pixels */
"U.U.U.U.U.U.U.U.U.U.P.U.U.U.U.P.U.U.U.U.U.U.U.U.U.U.",
"U.U.U.U.U.U.U.U.U.I.I.U.U.P.U.U.I.U.P.U.U.U.U.U.U.U.",
"U.U.U.U.U.U.U.U.U.U.U.U.U.U.U.U.U.U.U.U.U.U.U.U.U.U.",
"U.U.U.U.U.U.U.U.U.P.U.I.L.K.K.P.U.U.I.U.U.U.U.U.U.U.",
"U.U.U.U.U.U.U.U.U.U.D.s.r.r.d.J.U.U.I.U.U.U.U.U.U.U.",
"U.U.U.U.U.U.U.U.U.K.p.Q G K _ g.I.U.U.U.U.U.U.U.U.U.",
"U.U.U.U.U.U.U.U.U.n.) F n , P | Z.U.U.U.U.U.U.U.U.U.",
"U.U.U.U.U.U.U.U.K.t.F F V 1 c ( d.U.U.U.U.U.U.U.U.U.",
"U.U.U.U.U.U.U.L.s.W b b H F m P ' b.U.U.U.U.U.U.U.U.",
"I.U.U.U.U.U.U.G.} C j V m H J L I y.J.U.U.U.U.U.U.U.",
"U.U.U.U.U.U.P.i.D u 1 g F b J g t ` v.U.U.U.U.U.U.U.",
"U.U.U.I.I.I.n./ g f 0 l b V L C r P 0.Z.U.U.U.U.U.U.",
"U.U.U.U.U.Z.[ x u z u z V N Z S H L ! t.J.U.U.U.U.U.",
"U.I.P.U.U.a.l r s B t l B w D S C m b ' b.U.U.U.U.U.",
"L.U.L.U.m.^ 5 3 . 5 l g y ; g V z N 8 V { Z.U.P.U.U.",
"U.P.U.L.j.~ 4 2 > 4 i g g 6 u l r v < A 8.k.K.U.L.U.",
"U.I.U.F.*.2.R 4 4 3 q 7 h l r u 6 h M ;.9.=.K.U.I.U.",
"U.U.I.K.%...6.R i <   < l f g 0 : d -.>. .<.K.P.L.U.",
"I.U.U.L.l.& ..5.:.Y U p y a a T Y 6.*. .& c.U.I.U.U.",
"U.L.U.U.P.w.+  .@.#.5.6.1.7.6.4.#.+.$ & h.P.U.U.U.U.",
"U.U.U.U.U.P.q.= * $ o.O.+.+.O.o.# = $.e.L.U.U.U.U.U.",
"U.U.U.U.U.U.P.J.z.&.X + o @ + O ,.x.V.P.U.P.U.U.U.U.",
"U.U.U.U.U.U.U.U.U.H.B.B.B.C.B.N.H.U.U.U.U.U.U.U.U.U.",
"U.U.U.U.U.U.U.U.U.U.U.U.U.U.U.U.U.U.U.U.U.U.U.U.U.U.",
"U.U.U.U.U.U.U.U.U.I.U.U.L.L.U.U.U.U.U.U.U.U.U.U.U.U.",
"U.U.U.U.U.U.U.U.U.U.U.U.U.U.U.U.U.U.U.U.U.U.U.U.U.U."
};
