/* XPM */
static char *exit[] = {
/* columns rows colors chars-per-pixel */
"26 26 176 2 ",
"   c #131313",
".  c #141414",
"X  c #151515",
"o  c #161616",
"O  c #171717",
"+  c #181818",
"@  c #191919",
"#  c #1A1A1A",
"$  c #1B1B1B",
"%  c #1B1C1C",
"&  c #1C1C1C",
"*  c #1D1D1D",
"=  c #1E1E1E",
"-  c #1F1F1F",
";  c #202020",
":  c #212121",
">  c #222222",
",  c #222223",
"<  c #232323",
"1  c #232424",
"2  c #242424",
"3  c #252525",
"4  c #262626",
"5  c #262627",
"6  c #262727",
"7  c #272727",
"8  c #292826",
"9  c #2D2A25",
"0  c #282828",
"q  c #282829",
"w  c #292929",
"e  c #28292A",
"r  c #292A2A",
"t  c #2A2A2A",
"y  c #2B2B2B",
"u  c #2C2B29",
"i  c #2C2B2B",
"p  c #2B2B2C",
"a  c #2B2C2C",
"s  c #2C2C2C",
"d  c #2D2D2D",
"f  c #2F2E2D",
"g  c #2E2E2E",
"h  c #2F2F2F",
"j  c #31302D",
"k  c #33312D",
"l  c #30302E",
"z  c #31302F",
"x  c #35332F",
"c  c #36342E",
"v  c #38352E",
"b  c #39352F",
"n  c #39362F",
"m  c #313131",
"M  c #323232",
"N  c #333333",
"B  c #373531",
"V  c #393630",
"C  c #3A3630",
"Z  c #3A3730",
"A  c #383632",
"S  c #3B3831",
"D  c #3C3831",
"F  c #3D3A33",
"G  c #433D32",
"H  c #443E32",
"J  c #453F32",
"K  c #403C34",
"L  c #4C422D",
"P  c #504735",
"I  c #504736",
"U  c #554831",
"Y  c #534936",
"T  c #5F5238",
"R  c #6E5D3B",
"E  c #715F3B",
"W  c #71603C",
"Q  c #75623C",
"!  c #74623D",
"~  c #74623E",
"^  c #7B663D",
"/  c #78643E",
"(  c #7D683E",
")  c #7E693F",
"_  c #7F6A3F",
"`  c #414244",
"'  c #444444",
"]  c #5B5B5B",
"[  c #6B5E44",
"{  c #605848",
"}  c #717274",
"|  c #727374",
" . c #737474",
".. c #757574",
"X. c #7C7975",
"o. c #816B40",
"O. c #816C41",
"+. c #826D42",
"@. c #856E42",
"#. c #856E43",
"$. c #856F43",
"%. c #866F43",
"&. c #846F45",
"*. c #877043",
"=. c #8C7445",
"-. c #8E7647",
";. c #907747",
":. c #917847",
">. c #947A49",
",. c #947B49",
"<. c #957C4A",
"1. c #967C4A",
"2. c #967D4A",
"3. c #977D4A",
"4. c #977D4B",
"5. c #987E4B",
"6. c #997F4B",
"7. c #877550",
"8. c #8A7650",
"9. c #9B804C",
"0. c #9C814D",
"q. c #A28650",
"w. c #A78A52",
"e. c #AD8F55",
"r. c #AD9055",
"t. c #B99A5C",
"y. c #BF9F5E",
"u. c #8A806E",
"i. c #A59577",
"p. c #C2A160",
"a. c #C0A163",
"s. c #CCA964",
"d. c #D2AD67",
"f. c #D3AF68",
"g. c #D2AF6C",
"h. c #CEB27A",
"j. c #D2B47A",
"k. c #D2B67A",
"l. c #DABA7A",
"z. c #E0B96E",
"x. c #E1BB73",
"c. c #E4BD70",
"v. c #E5BE71",
"b. c #E9C174",
"n. c #EDC575",
"m. c #EEC575",
"M. c #EEC675",
"N. c #EFC675",
"B. c #EDC476",
"V. c #EEC576",
"C. c #EEC676",
"Z. c #EEC677",
"A. c #EFC677",
"S. c #E5C17C",
"D. c #EFC778",
"F. c #F3C978",
"G. c #F6CC79",
"H. c #F5CC7C",
"J. c #F8CF7B",
"K. c #FACF7A",
"L. c #FACF7B",
"P. c #FBD07C",
"I. c #FBD17C",
"U. c #FCD17C",
"Y. c #FCD37D",
"T. c #FED27C",
"R. c #FED27D",
"E. c #FED37D",
"W. c #FFD37D",
"Q. c #FFD47D",
"!. c #FFD57D",
"~. c #FFD67D",
"^. c #FFD47E",
"/. c #FED57E",
"(. c #FFD57E",
"). c #FFD87E",
/* pixels */
"O + + & = & = * & * # = - & * $ @ + O O o o .   X O ",
"O O O * = - < > 2 2 ; < < ; : - $ @ O o O o X     . ",
"@ $ # - < 2 0 0 t t w t w 4 > - $ @ + O o o X X . . ",
"& ; - < 7 y d h m B A z g s 4 > = & # @ O o X o . . ",
"* ; - 2 w y M ] u.x.b.7.g s 0 3 ; * $ @ + X . X X . ",
"$ * - < t N ] ..S.^.Q.L.8.l 7 2 : - & # @ O o X o o ",
"& = ; 4 r '  .i.H.W.W.W.D.F 0 2 ; - & @ + + o . . . ",
"& - : 3 r ' | k.~.W.W.W.A.F 0 4 : ; = @ O O o X . . ",
"* : < 3 r ' | j.!.W.W.W.A.F 0 6 > : ; & @ + O O X . ",
"* < 2 7 s ' | j.!.W.W.W.Z.S 0 6 > ; - & # @ O O O . ",
"* ; > 6 s ' | j.!.W.W.W.C.Z 0 6 < > ; * # + o O O X ",
": < 2 w s ' | j.!.W.W.W.V.b 0 4 2 2 : - & $ o o o X ",
": > 2 0 t ' | j.!.W.W.W.V.n 7 3 > > = = $ $ o X X X ",
"; : 2 0 r ' | j.!.W.W.W.Z.D w 4 3 > - - $ $ O o o o ",
"< 3 0 t t ' | j.!.W.W.W.Z.S 6 3 3 : ; : & $ O X o O ",
"< 3 0 t t ' | j.!.W.W.W.Z.S 6 3 3 > ; ; $ # O O O + ",
"8 u i s p ' } j.!.W.W.W.C.n 3 2 < < > : = & @ + + O ",
"E ! Y V c ` X.l.).W.W.W.V.v 3 2 < 3 2 : * $ # O + O ",
">.*.$.#./ { h.T.g.P.W.W.C.C w 7 4 7 < - $ $ # + # @ ",
"5.5.5.3.0.f.^.J.[ F.W.W.Z.D y w 0 7 2 : * * @ O + + ",
"4.6.9.s.v./.E.p.a.U.W.W.B.K f d a r 7 3 : > $ O O O ",
"q.y.N.I.(.R.d.f.Y.W.W.E.t.&.~ P x k q 5 2 3 - @ O O ",
"K.U.Q.W.T.c.z.E.W.W.(.n.w.5.:.+.O.W H G j e 1 & O O ",
"W.W.W.W.L.m.W.W.W.(.M.r.2.5.5.5.4.=.%.) T I J , % # ",
"W.W.W.W.W.W.W.W.Q.m.e.3.5.5.5.5.5.6.<.-.@.o.Q U L 9 ",
"W.W.W.W.W.W.W.W.G.e.1.5.5.5.5.5.5.5.5.6.,.;._ ( ^ R "
};
