/* XPM */
static char *npxfess[] = {
/* columns rows colors chars-per-pixel */
"26 26 44 1 ",
"  c #181818",
". c #1B1B1B",
"X c #1B1C1E",
"o c #1C1C1D",
"O c #1C1D1D",
"+ c #1D1D1D",
"@ c #1C1C1E",
"# c #1D1D1E",
"$ c #1E1E1E",
"% c #1F1F1F",
"& c #26251D",
"* c #27261D",
"= c #28261D",
"- c #29271D",
"; c #2C2C2C",
": c #2F2F2F",
"> c #3F3F3F",
", c #6D6019",
"< c #444444",
"1 c #757575",
"2 c #787878",
"3 c #7F7F7F",
"4 c #857317",
"5 c #958116",
"6 c #9C8715",
"7 c #9E8815",
"8 c #9F8915",
"9 c #BCA014",
"0 c #F0CC0F",
"q c #F1CD0F",
"w c #EAC710",
"e c #939393",
"r c #9F9F9F",
"t c #A0A0A0",
"y c #A9A9A9",
"u c #CFCFCF",
"i c #D7D7D7",
"p c #F3F3F3",
"a c #F4F4F4",
"s c #F9F9F9",
"d c #FAFAFA",
"f c #FBFBFB",
"g c #FDFDFD",
"h c #FFFFFF",
/* pixels */
"hhhhhhhhhhhhhhhhhhhhhhhhhh",
"hhhhhhhhhhhgffghhhhhhhhhhh",
"hhhhhhhhsiy3113yishhhhhhhh",
"hhhhhhdu2<;.  .;<2udhhhhhh",
"hhhhhat>%.+$$$$+.%>tahhhhh",
"hhhhpe:o#$$$$$$$$#o:ephhhh",
"hhhdr;+&$$$$$$$$$$&+;rdhhh",
"hhhu>O&45*#$$$$#*54&O>uhhh",
"hhs2%#$5q8=@$$@=8q5$#%2shh",
"hhi<.$$*8q7-XX-7q8*$$.<ihh",
"hhy;+$$#=706--607=#$$+;yhh",
"hh3.$$$$@-6w,,w6-@$$$$.3hh",
"hf1 $$$$$X-,99,-X$$$$$ 1fh",
"hf1 $$$$$X-,99,-X$$$$$ 1fh",
"hh3.$$$$@-6w,,w6-@$$$$.3hh",
"hhy;+$$#=706--607=#$$+;yhh",
"hhi<.$$*8q7-XX-7q8*$$.<ihh",
"hhs2%#$5q8=@$$@=8q5$#%2shh",
"hhhu>o&45*#$$$$#*54&o>uhhh",
"hhhdt:+&$$$$$$$$$$&+:tdhhh",
"hhhhae;O#$$$$$$$$#O;eahhhh",
"hhhhhpr>%.+$$$$+.%>rphhhhh",
"hhhhhhdu2<;.  .;<2udhhhhhh",
"hhhhhhhhsiy3113yishhhhhhhh",
"hhhhhhhhhhhgffghhhhhhhhhhh",
"hhhhhhhhhhhhhhhhhhhhhhhhhh"
};
