/* XPM */
static char *avatar[] = {
/* columns rows colors chars-per-pixel */
"12 12 127 2 ",
"   c #375636",
".  c #446244",
"X  c #49724E",
"o  c #497451",
"O  c #418458",
"+  c #4A855E",
"@  c #488F5A",
"#  c #4C8C59",
"$  c #59865E",
"%  c #478462",
"&  c #4C8361",
"*  c #4D8E63",
"=  c #548662",
"-  c #5E8867",
";  c #508D69",
":  c #439760",
">  c #459766",
",  c #419C61",
"<  c #58956A",
"1  c #50986A",
"2  c #5A9D71",
"3  c #698E72",
"4  c #639877",
"5  c #6E9578",
"6  c #72967C",
"7  c #47A36A",
"8  c #4CA96D",
"9  c #51A26F",
"0  c #52A56E",
"q  c #4FA573",
"w  c #56A175",
"e  c #55A374",
"r  c #57A474",
"t  c #50AA73",
"y  c #53AB76",
"u  c #54AB74",
"i  c #55AB77",
"p  c #56AB76",
"a  c #5EA07A",
"s  c #56B176",
"d  c #62A377",
"f  c #749781",
"g  c #68A480",
"h  c #6CA583",
"j  c #7BAE91",
"k  c #81A590",
"l  c #99B09E",
"z  c #93B3A1",
"x  c #96B5A2",
"c  c #9EB1A2",
"v  c #94B9A3",
"b  c #A4ACA1",
"n  c #A1BCA6",
"m  c #AABEB2",
"M  c #BEBFBE",
"N  c #A1C7AD",
"B  c #AEC9B4",
"V  c #B6C2B7",
"C  c #BFD9C9",
"Z  c #C3CBC1",
"A  c #C0D5CA",
"S  c #C6D7CB",
"D  c #C9D5CD",
"F  c #C3DACA",
"G  c #CFD6D6",
"H  c #CBDFD1",
"J  c #D8D7DC",
"K  c #D7E4DB",
"L  c #DAE4DD",
"P  c #DEE8DE",
"I  c #E3DAE0",
"U  c #DBE2E0",
"Y  c #DFEBE0",
"T  c #E1E9E0",
"R  c #EDF2F0",
"E  c #EEF7F2",
"W  c #F0F6F2",
"Q  c #F2FAF4",
"!  c #FBFCF7",
"~  c #FEFEF6",
"^  c #FAF4F9",
"/  c #F6F8F9",
"(  c #F6FAF8",
")  c #F7FEFC",
"_  c #FBFEF9",
"`  c #FDFDF8",
"'  c #FEFFF9",
"]  c #FCFCFB",
"[  c #FEFCFA",
"{  c #FFFCFA",
"}  c #FEFCFB",
"|  c #FEFDFB",
" . c #FCFFFB",
".. c #FEFFFA",
"X. c #FDF9FD",
"o. c #FFFBFD",
"O. c #FFFAFE",
"+. c #FFFBFF",
"@. c #FBFCFC",
"#. c #FAFEFC",
"$. c #FBFEFD",
"%. c #FAFFFF",
"&. c #FCFDFC",
"*. c #FCFCFD",
"=. c #FDFCFD",
"-. c #FCFDFD",
";. c #FDFDFD",
":. c #FEFCFD",
">. c #FFFCFD",
",. c #FEFDFD",
"<. c #FFFDFD",
"1. c #FCFEFC",
"2. c #FDFEFC",
"3. c #FDFCFE",
"4. c #FCFCFF",
"5. c #FDFCFF",
"6. c #FFFCFE",
"7. c #FEFDFE",
"8. c #FEFCFF",
"9. c #FFFCFF",
"0. c #FEFDFF",
"q. c #FFFDFF",
"w. c #FDFFFE",
"e. c #FCFEFF",
"r. c #FDFFFF",
"t. c #FFFEFF",
"y. c #FEFFFF",
/* pixels */
"<.r.%.e.0.-.=.=.&.2...' ",
"w.y.0.+.>.| @.=.q.q.q.t.",
"%.0.O.] Y B v x S ( t.+.",
"/ ^ :.C g r i 9 d N Q o.",
"J I W j y 8 : , s 2 F >.",
"G M H a u @ - + > w z X.",
"k 3 < t e 5 T m % q h L ",
"o $ # 0 * n ..K & 7 p 4 ",
".   X = 6 P  .E f O 1 ; ",
"Z b V D R 6.3.4.U c l A ",
"7.;.t.q.9.6.,.5.8.[ { q.",
"1.$.1.} | _ ~ #.) ! ` *."
};
