/* XPM */
static char *exit[] = {
/* columns rows colors chars-per-pixel */
"12 12 88 1 ",
"  c #141414",
". c #151515",
"X c #161616",
"o c #171717",
"O c #181818",
"+ c #191919",
"@ c #1A1A1A",
"# c #1B1B1B",
"$ c #1C1C1C",
"% c #1D1D1D",
"& c #1E1E1E",
"* c #1F1F1F",
"= c #1F1F20",
"- c #202020",
"; c #202121",
": c #212121",
"> c #212122",
", c #222222",
"< c #222223",
"1 c #222323",
"2 c #232323",
"3 c #232324",
"4 c #252525",
"5 c #242526",
"6 c #262626",
"7 c #262727",
"8 c #272727",
"9 c #2C2A26",
"0 c #282828",
"q c #2D2C2B",
"w c #35312A",
"e c #32302D",
"r c #373530",
"t c #353434",
"y c #383839",
"u c #403B31",
"i c #403B32",
"p c #413C32",
"a c #423D33",
"s c #453E31",
"d c #50452F",
"f c #4E473A",
"g c #574D39",
"h c #605339",
"j c #6C5B3A",
"k c #71603E",
"l c #464748",
"z c #474748",
"x c #474848",
"c c #7D6942",
"v c #836D43",
"b c #877144",
"n c #907848",
"m c #967C4A",
"M c #987E4B",
"N c #997F4B",
"B c #867554",
"V c #8A7F69",
"C c #9A804C",
"Z c #A58951",
"A c #AE935E",
"S c #C2A15F",
"D c #C7A562",
"F c #CDAA65",
"G c #D8B36C",
"H c #C4AC7A",
"J c #C9AE7A",
"K c #C9AF7A",
"L c #D9B775",
"P c #E4BE72",
"I c #E7C073",
"U c #E7C074",
"Y c #E7C174",
"T c #E7C275",
"R c #EDC474",
"E c #EEC679",
"W c #F1C876",
"Q c #F2C977",
"! c #F2C978",
"~ c #F4CA78",
"^ c #F5CC79",
"/ c #FBD17C",
"( c #FED27D",
") c #FED37D",
"_ c #FFD37D",
"` c #FFD47D",
"' c #FFD67E",
"] c #FFD77E",
/* pixels */
"o#-;=;-#oX  ",
"$;0tfr6&+o. ",
"%1yVEAe:$O..",
"&2zH]Ta>&OX.",
"-4xJ'Up1*@oX",
":6xJ'Ii3-$oX",
"<7zJ'Up3;$oX",
"wqlK]Iu1,%Oo",
"vkBL~Yi52%+O",
"ZDRG!Pge8>#o",
"W)Q^/Snchs9@",
"`_()FCMNmbjd"
};
