/* XPM */
static char *npxfess[] = {
/* columns rows colors chars-per-pixel */
"12 12 17 1 ",
"  c #19191B",
". c #1B1B1B",
"X c #1B1C1E",
"o c #2F2F2E",
"O c #2F2F2F",
"+ c #4A421B",
"@ c #4C441B",
"# c #655817",
"$ c #4A4A4A",
"% c #747474",
"& c #947F16",
"* c #A79014",
"= c #9E9E9E",
"- c #C2C2C2",
"; c #EDEDED",
": c #FBFBFB",
"> c white",
/* pixels */
">>>>:;;:>>>>",
">>:-%$$%-:>>",
">:=O .. O=:>",
">-o#@XX@#o->",
":% @*++*@ %:",
";$.X+&&+X.$;",
";$.X+&&+X.$;",
":% @*++*@ %:",
">-O#@XX@#O->",
">:=o .. o=:>",
">>:-%$$%-:>>",
">>>>:;;:>>>>"
};
