/* XPM */
static char *test[] = {
/* columns rows colors chars-per-pixel */
"12 12 100 2 ",
"   c #626166",
".  c #676368",
"X  c #666369",
"o  c #6A6669",
"O  c #68646A",
"+  c #68656A",
"@  c #69656B",
"#  c #69666B",
"$  c #6B666A",
"%  c #6C676A",
"&  c #68666C",
"*  c #6A666C",
"=  c #6A676C",
"-  c #6B676C",
";  c #6A676D",
":  c #6A676E",
">  c #6A6869",
",  c #6B686C",
"<  c #6B696D",
"1  c #6B686E",
"2  c #6C686C",
"3  c #6C686D",
"4  c #6D686D",
"5  c #6D696D",
"6  c #6C6A6C",
"7  c #6C6A6D",
"8  c #6C686E",
"9  c #6D686E",
"0  c #6C696E",
"q  c #6D696E",
"w  c #6D696F",
"e  c #6F696E",
"r  c #6E696F",
"t  c #6D6A6E",
"y  c #6D6B6E",
"u  c #6C6A6F",
"i  c #6D6A6F",
"p  c #6D6B6F",
"a  c #6E6A6E",
"s  c #6F6A6E",
"d  c #6E6B6E",
"f  c #6F6B6E",
"g  c #6E6A6F",
"h  c #6E6B6F",
"j  c #6F6B6F",
"k  c #6F6C6F",
"l  c #6D6A70",
"z  c #6C6B70",
"x  c #6E6A70",
"c  c #6F6B70",
"v  c #6E6B71",
"b  c #6F6B71",
"n  c #6F6B72",
"m  c #6F6C70",
"M  c #6F6D70",
"N  c #6E6C71",
"B  c #6E6D71",
"V  c #6F6D71",
"C  c #6F6C72",
"Z  c #706C70",
"A  c #706C71",
"S  c #716C71",
"D  c #716D71",
"F  c #706D72",
"G  c #716D72",
"H  c #706E72",
"J  c #706F72",
"K  c #716F72",
"L  c #716E73",
"P  c #716F73",
"I  c #726E72",
"U  c #736F72",
"Y  c #736E73",
"T  c #726F73",
"R  c #736F73",
"E  c #716F75",
"W  c #726E74",
"Q  c #726F74",
"!  c #726E75",
"~  c #726F75",
"^  c #736F76",
"/  c #737172",
"(  c #727073",
")  c #737073",
"_  c #717074",
"`  c #727074",
"'  c #727075",
"]  c #737075",
"[  c #737076",
"{  c #737176",
"}  c #747175",
"|  c #757175",
" . c #747076",
".. c #757277",
"X. c #757377",
"o. c #767577",
"O. c #747178",
"+. c #757378",
"@. c #757479",
"#. c #767578",
/* pixels */
"~ o._ @.{ +.p X.T #.' [ ",
"< w ; v u < # p * y ; & ",
"p = h , p + a 8 k $ 0   ",
"N ` Q ' Q ~ ^ [ L ] I V ",
"9 p C L Z Y e A n F t T ",
"g 8 E w Q F f x ' 1 J V ",
"h ) T / P T 0 ` h ( H L ",
"i c g K h 8 3 c q d 8 : ",
"G j U s G - Z r Y 2 A X ",
"W ..| ..}  .} O.! ..R L ",
"4 p c D g S 5 z p k q M ",
"% o b @ m 7 > O B . l 6 "
};
