/* XPM */
static char *wall[] = {
/* columns rows colors chars-per-pixel */
"12 12 116 2 ",
"   c #626165",
".  c #676467",
"X  c #656369",
"o  c #67646B",
"O  c #67656C",
"+  c #686469",
"@  c #6A6569",
"#  c #68656B",
"$  c #6A656B",
"%  c #69666B",
"&  c #6A666B",
"*  c #6A676B",
"=  c #69676C",
"-  c #6B676C",
";  c #6A676D",
":  c #6D676C",
">  c #6C676D",
",  c #6E676C",
"<  c #6E676D",
"1  c #6B6A6B",
"2  c #6D686B",
"3  c #6A686D",
"4  c #6B686D",
"5  c #6B696D",
"6  c #6B6B6C",
"7  c #6B686E",
"8  c #6B696E",
"9  c #6D686C",
"0  c #6C686D",
"q  c #6E696D",
"w  c #6C6B6C",
"e  c #6C686E",
"r  c #6C696E",
"t  c #6D696E",
"y  c #6E696E",
"u  c #6C6A6E",
"i  c #6D6A6E",
"p  c #6D6B6E",
"a  c #6C6A6F",
"s  c #6D6A6F",
"d  c #6D6B6F",
"f  c #6E6A6E",
"g  c #6E6B6E",
"h  c #6F6A6F",
"j  c #6E6B6F",
"k  c #6F6B6F",
"l  c #6E6C6F",
"z  c #6F6C6F",
"x  c #70696E",
"c  c #6E6970",
"v  c #6D6B70",
"b  c #6E6A70",
"n  c #6E6B70",
"m  c #6E6B71",
"M  c #6F6B71",
"N  c #6D6C70",
"B  c #6E6D70",
"V  c #6F6C71",
"C  c #6F6D71",
"Z  c #6F6E71",
"A  c #6E6D72",
"S  c #6F6D72",
"D  c #706B70",
"F  c #706B71",
"G  c #706D70",
"H  c #706C71",
"J  c #726C71",
"K  c #726E71",
"L  c #706C72",
"P  c #726D72",
"I  c #716E72",
"U  c #706F72",
"Y  c #716E73",
"T  c #706F73",
"R  c #736E72",
"E  c #726F72",
"W  c #726F73",
"Q  c #746F72",
"!  c #746E73",
"~  c #716E74",
"^  c #716F74",
"/  c #716E75",
"(  c #736F74",
")  c #726E75",
"_  c #726F75",
"`  c #736F75",
"'  c #716F76",
"]  c #746F75",
"[  c #727073",
"{  c #747073",
"}  c #747173",
"|  c #717074",
" . c #717075",
".. c #727074",
"X. c #737074",
"o. c #737075",
"O. c #727175",
"+. c #737175",
"@. c #737275",
"#. c #737277",
"$. c #747174",
"%. c #757175",
"&. c #757076",
"*. c #747176",
"=. c #757176",
"-. c #757177",
";. c #757276",
":. c #757277",
">. c #767377",
",. c #767477",
"<. c #777677",
"1. c #787677",
"2. c #767378",
"3. c #767379",
"4. c #767579",
"5. c #777678",
/* pixels */
"..1...5.;.4.p <.W <.X.#.",
"4 r = m 8 7 # s % t ; O ",
"p % z * p . s > z @ u   ",
"M o.' @.( *.] =.~ @.I S ",
"< v L Y k ! x V F I f R ",
"l e  .r | Z g c _ - T B ",
"d $...} W O.i +.V [ U ^ ",
"r n e K t a ; b 0 j 4 3 ",
"K h Q q P % G y E : L X ",
"` 2.-.,.%.:.&.3.) >.{ / ",
", d b H t J 9 c s N 5 D ",
"2 $ A & C 6 1 o B + N w "
};
