/* XPM */
static char *avatar[] = {
/* columns rows colors chars-per-pixel */
"9 9 76 1 ",
"  c #537254",
". c #577156",
"X c #527C5B",
"o c #4E8458",
"O c #42955F",
"+ c #4E8D67",
"@ c #459860",
"# c #4D9E67",
"$ c #499368",
"% c #529067",
"& c #58946D",
"* c #509F6D",
"= c #689273",
"- c #629978",
"; c #4FA66E",
": c #4FA871",
"> c #5BA476",
", c #5EA779",
"< c #63A37E",
"1 c #63AB80",
"2 c #72A786",
"3 c #7EA385",
"4 c #7EA18B",
"5 c #7DB28E",
"6 c #7DB392",
"7 c #83A58F",
"8 c #87B597",
"9 c #94B09C",
"0 c #91BEA4",
"q c #9FB9A6",
"w c #A4B8AD",
"e c #D3DAD2",
"r c #D0DDD6",
"t c #D9D6DB",
"y c #D3E0D3",
"u c #D4E2D8",
"i c #D7E1DB",
"p c #D5E6DB",
"a c #DEE1DD",
"s c #DAE5DD",
"d c #D6E8DC",
"f c #E3E5E1",
"g c #E2E9E5",
"h c #ECE8EB",
"j c #EBEEED",
"k c #ECEFEE",
"l c #EDF1EE",
"z c #F1F4EF",
"x c #F0F7F3",
"c c #F5F6F4",
"v c #F5F9F5",
"b c #F7F7F9",
"n c #FDFEF8",
"m c #FEFEFA",
"M c #FEFFFB",
"N c #FEF9FD",
"B c #FCFAFC",
"V c #FAFEFC",
"C c #FEFDFC",
"Z c #FFFDFD",
"A c #FCFEFC",
"S c #FEFEFC",
"D c #FDFCFF",
"F c #FFFCFE",
"G c #FEFDFE",
"H c #FFFDFE",
"J c #FEFCFF",
"K c #FFFCFF",
"L c #FFFDFF",
"P c #FCFFFE",
"I c #FCFEFF",
"U c #FCFFFF",
"Y c #FEFEFE",
"T c #FEFFFE",
"R c #FFFEFF",
"E c #FEFFFF",
/* pixels */
"YUIHYRGSM",
"PLFzurlRK",
"bNp6,>5dH",
"th0:@O;8c",
"w91*37$<i",
"Xo#&ys+:2",
". =qvx4%-",
"fajBJDkeg",
"TEZCnAVmG"
};
