/* XPM */
static char *collectible[] = {
/* columns rows colors chars-per-pixel */
"9 9 59 1 ",
"  c #AD1C26",
". c #BC1E27",
"X c #BB2129",
"o c #BE2028",
"O c #A7382F",
"+ c #C6262E",
"@ c #D6222A",
"# c #D2262E",
"$ c #D9222C",
"% c #CB2D35",
"& c #DD373E",
"* c #B44F3A",
"= c #A25E3E",
"- c #89663E",
"; c #91693F",
": c #C84C54",
"> c #E45E65",
", c #EB747A",
"< c #7E8856",
"1 c #79915A",
"2 c #92B288",
"3 c #9CB795",
"4 c #9CB897",
"5 c #EE8488",
"6 c #C9BFA7",
"7 c #F3A3A6",
"8 c #EFB7B9",
"9 c #CECDB1",
"0 c #C6D4C3",
"q c #C8D7C7",
"w c #CFDBCF",
"e c #D1DCD1",
"r c #F6C4C5",
"t c #FADFE0",
"y c #F7E1E1",
"u c #F9E3E3",
"i c #FCEAEB",
"p c #FCF7F6",
"a c #FDFAFA",
"s c #FBFCFB",
"d c #FBFBFC",
"f c #FCFBFC",
"g c #FBFEFE",
"h c #FDFDFD",
"j c #FDFEFD",
"k c #FEFEFD",
"l c #FDFDFE",
"z c #FCFEFE",
"x c #FDFEFE",
"c c #FCFFFE",
"v c #FDFFFE",
"b c #FCFFFF",
"n c #FDFFFF",
"m c #FEFEFE",
"M c #FEFFFE",
"N c #FFFFFE",
"B c #FEFEFF",
"V c #FEFFFF",
"C c #FFFFFF",
/* pixels */
"CClgbzjCC",
"CCnt7unCC",
"xMp,@5aVB",
"kn8%$&rVB",
"vy:X+#>iv",
"c6O .o*9z",
"N0<-=;1qm",
"kdw324efm",
"mmChshCMM"
};
