/* XPM */
static char *exit[] = {
/* columns rows colors chars-per-pixel */
"9 9 62 1 ",
"  c #141414",
". c #151515",
"X c #161616",
"o c #171717",
"O c #181818",
"+ c #191919",
"@ c #1A1A1A",
"# c #1B1B1B",
"$ c #1C1C1C",
"% c #1D1D1D",
"& c #1E1E1E",
"* c #1F1F1F",
"= c #202020",
"- c #202121",
"; c #212121",
": c #212123",
"> c #212222",
", c #212223",
"< c #222222",
"1 c #222223",
"2 c #222224",
"3 c #232426",
"4 c #282724",
"5 c #272728",
"6 c #322F29",
"7 c #3D382E",
"8 c #2F3031",
"9 c #313233",
"0 c #313234",
"q c #343535",
"w c #463D2C",
"e c #494337",
"r c #594E37",
"t c #6B5A3B",
"y c #565148",
"u c #836D43",
"i c #897245",
"p c #89754D",
"a c #977D4A",
"s c #907B52",
"d c #947E53",
"f c #957F54",
"g c #9B804C",
"h c #978158",
"j c #A48954",
"k c #A49270",
"l c #AE9971",
"z c #AE9A71",
"x c #AF9A71",
"c c #CFAB66",
"v c #CCAD6F",
"b c #D2AE67",
"n c #EBC273",
"m c #EFC675",
"M c #F5CB79",
"N c #F8CD7A",
"B c #FCD17C",
"V c #FDD27C",
"C c #FFD47E",
"Z c #FFD77F",
"A c #FFD87F",
"S c #FFD780",
/* pixels */
"+*1,>%OX ",
"&5yhe-@X.",
"*8kSs:$o.",
";9zAd2*OX",
"<0lZd2=+X",
"6qxAd,;@o",
"upvNf31#O",
"bmnMjr74+",
"CVBcgaitw"
};
