/* XPM */
static char *wall[] = {
/* columns rows colors chars-per-pixel */
"9 9 54 1 ",
"  c #67666B",
". c #6C666A",
"X c #69666C",
"o c #6A676C",
"O c #6A686E",
"+ c #6B696F",
"@ c #6C686D",
"# c #6C6A6C",
"$ c #6C696E",
"% c #6C696F",
"& c #6E696E",
"* c #6C6A6E",
"= c #6D6A6E",
"- c #6D6B6E",
"; c #6D6A6F",
": c #6D6B6F",
"> c #6E6A6F",
", c #6E6B6F",
"< c #6E6B70",
"1 c #6F6B70",
"2 c #6F6B71",
"3 c #6E6C70",
"4 c #6F6C70",
"5 c #6F6C71",
"6 c #6F6D71",
"7 c #6F6C72",
"8 c #6F6D72",
"9 c #6F6D73",
"0 c #706C71",
"q c #716C71",
"w c #706D71",
"e c #716D71",
"r c #726C71",
"t c #706E71",
"y c #716C72",
"u c #706D72",
"i c #716D72",
"p c #716C73",
"a c #706D73",
"s c #716D73",
"d c #726D72",
"f c #706E72",
"g c #716E72",
"h c #716F72",
"j c #716E73",
"k c #726E72",
"l c #726E73",
"z c #736E73",
"x c #716F74",
"c c #726F74",
"v c #717073",
"b c #727072",
"n c #727074",
"m c #737074",
/* pixels */
"gfnc3t6b8",
"**;*o;=@ ",
">9uwypuw$",
"&7jir5s4d",
"3xfv6wa6f",
">,e1$<=,+",
"ize02qi0O",
"qcmkzlahy",
".%$:#X*o-"
};
