/* XPM */
static char *exit[] = {
/* columns rows colors chars-per-pixel */
"18 18 132 2 ",
"   c #131313",
".  c #141414",
"X  c #151515",
"o  c #161616",
"O  c #171717",
"+  c #181818",
"@  c #191919",
"#  c #191A1A",
"$  c #1A1A1A",
"%  c #1B1B1B",
"&  c #1C1C1C",
"*  c #1D1D1D",
"=  c #1E1E1E",
"-  c #1F1F1F",
";  c #23211F",
":  c #202020",
">  c #212121",
",  c #222222",
"<  c #222223",
"1  c #232323",
"2  c #232324",
"3  c #242424",
"4  c #242425",
"5  c #242525",
"6  c #252525",
"7  c #242426",
"8  c #252526",
"9  c #252626",
"0  c #252627",
"q  c #262626",
"w  c #262627",
"e  c #272727",
"r  c #282828",
"t  c #282829",
"y  c #292929",
"u  c #2A2A2A",
"i  c #2D2D2B",
"p  c #2B2B2C",
"a  c #2D2C2C",
"s  c #2D2D2D",
"d  c #2E2E2D",
"f  c #2E2E2E",
"g  c #302D26",
"h  c #36332D",
"j  c #38342B",
"k  c #363636",
"l  c #363637",
"z  c #373737",
"x  c #3E3A30",
"c  c #3F3A30",
"v  c #3F3A31",
"b  c #3F3B31",
"n  c #373738",
"m  c #373838",
"M  c #3B3A3A",
"N  c #403B32",
"B  c #403B33",
"V  c #413C31",
"C  c #403C33",
"Z  c #413C33",
"A  c #423D34",
"S  c #524835",
"D  c #574B35",
"F  c #524B3D",
"G  c #544C3C",
"H  c #564E3F",
"J  c #5F533C",
"K  c #615236",
"L  c #63553A",
"P  c #69593B",
"I  c #725F3A",
"U  c #71603E",
"Y  c #76643E",
"T  c #474849",
"R  c #79694A",
"E  c #706F6D",
"W  c #77746F",
"Q  c #78756F",
"!  c #806A40",
"~  c #816C41",
"^  c #826D42",
"/  c #856E43",
"(  c #8E7646",
")  c #947B49",
"_  c #957C49",
"`  c #967C4A",
"'  c #977D4A",
"]  c #977D4B",
"[  c #987E4B",
"{  c #997E4B",
"}  c #997F4B",
"|  c #9C814C",
" . c #9C814D",
".. c #B8995B",
"X. c #BA9A5B",
"o. c #B8995C",
"O. c #8F8571",
"+. c #BD9F63",
"@. c #A69472",
"#. c #C5A361",
"$. c #CAA863",
"%. c #CFAC67",
"&. c #D6B36D",
"*. c #DCB76E",
"=. c #CAB07A",
"-. c #E2BB6F",
";. c #E3BC6F",
":. c #E2BD73",
">. c #E8C072",
",. c #E9C172",
"<. c #E8C174",
"1. c #E9C174",
"2. c #E8C275",
"3. c #E9C275",
"4. c #EFC677",
"5. c #EFC779",
"6. c #EBC67C",
"7. c #F3CA78",
"8. c #F0C87B",
"9. c #F8CD7A",
"0. c #F8CE7A",
"q. c #F9CE7A",
"w. c #F8CF7C",
"e. c #FAD07B",
"r. c #FBD07B",
"t. c #FBD17C",
"y. c #FDD27C",
"u. c #FFD37D",
"i. c #FFD47D",
"p. c #FFD47E",
"a. c #FFD57E",
"s. c #FFD67F",
/* pixels */
"O + & * - - = * : = * @ + O o X   X ",
"@ $ - , 6 q 0 7 e 1 : % + o o X . . ",
"= - 1 y s M H G f u 1 = % @ o X X . ",
"* - 3 a T O.8.4.R a 6 > * $ + X X X ",
"* - 6 k E =.i.a.:.B 5 : = @ + o . . ",
"= > 6 l Q 6.i.p.3.A 9 , : % + O X . ",
"- 1 e n Q 6.i.p.1.Z q , : & @ O O X ",
": < r m Q 6.i.p.<.b q 1 , * $ o o o ",
"> 1 r z Q 6.i.p.<.v 8 1 > = % O X X ",
"> 3 r l Q 6.i.p.1.Z 8 3 > - % + X o ",
"< w u l Q 6.i.p.1.N 4 3 > : % + o + ",
"j h p l W 6.i.p.<.x 2 1 1 > * @ O + ",
"/ Y L F @.5.q.a.<.v 8 6 5 : % $ + @ ",
"] _ | o.w.+.&.s.2.C t r q > = $ O + ",
" ...;.t.>.%.0.a.*.J V d y 4 < = O O ",
",.r.a.7.-.t.p.r.X.) ^ U S c i 5 # O ",
"p.u.u.9.y.i.e.#.} [ { ' ( ~ P D g ; ",
"u.u.u.u.u.u.$.[ [ [ [ [ { ` ( ! I K "
};
