/* XPM */
static char *npxfess[] = {
/* columns rows colors chars-per-pixel */
"18 18 27 1 ",
"  c #1B1B1B",
". c #1D1D1D",
"X c #1C1D1E",
"o c #1D1D1E",
"O c #1E1E1E",
"+ c #1F1F1E",
"@ c #21201D",
"# c #2F2C1C",
"$ c #202021",
"% c #2A2A2A",
"& c #615519",
"* c #6D5F18",
"= c #6C5E19",
"- c #4D4D4D",
"; c #616161",
": c #636363",
"> c #A68E15",
", c #AF9714",
"< c #D3B511",
"1 c #D4B511",
"2 c #979797",
"3 c #ABABAB",
"4 c #C3C3C3",
"5 c #DCDCDC",
"6 c #E9E9E9",
"7 c #FEFEFE",
"8 c white",
/* pixels */
"888888888888888888",
"888887643346788888",
"888862-%..%-268888",
"8885:$ .OO. $:5888",
"886;@#+OOOO+#@;688",
"882$#,*XOOX*,#$288",
"86- +*1=oo=1*+ -68",
"84%.OX=<&&<=XO.%48",
"83.OOOo&>>&oOOO.38",
"83.OOOo&>>&oOOO.38",
"84%.OX=<&&<=XO.%48",
"86- +*1=oo=1*+ -68",
"882$#,*XOOX*,#$288",
"886:@#+OOOO+#@:688",
"8885;$ .OO. $;5888",
"888862-%..%-268888",
"888887643346788888",
"888888888888888888"
};
