/* XPM */
static char *wall[] = {
/* columns rows colors chars-per-pixel */
"18 18 26 1 ",
"  c #5C575B",
". c #5E595E",
"X c #625D5E",
"o c #5F5D63",
"O c #625E63",
"+ c #645F68",
"@ c #656365",
"# c #6A6367",
"$ c #666369",
"% c #6A656A",
"& c #676868",
"* c #6C6A6D",
"= c #716D6D",
"- c #74706F",
"; c #6E6B72",
": c #726E74",
"> c #736E78",
", c #6F7073",
"< c #747175",
"1 c #797676",
"2 c #767379",
"3 c #79767B",
"4 c #777879",
"5 c #7B7A7C",
"6 c #7C7B81",
"7 c #807F82",
/* pixels */
"265565567;57556726",
"O*%X%*@$* %%.%&@o;",
";<;;;:;:;*;;;=:;;$",
"<%*<-%:*@<*;<-&**o",
"*@$;$$;$+:%%*#$;@+",
";<5233125>33<252*5",
"#**%:;%*:#=*%:**$<",
"<;;22;222::>>2;:<2",
"*@$,%O:*%*@%:$O;*&",
"<33551523:323245>2",
"o%#O**#$:.*#@#*$$;",
";2:::<:<%;2;;<*;<$",
"1*:<:*>=#<=*<<#:,o",
":%::%*>#;>+:>%*<$*",
">21133113225:251;5",
"#**%:=#%:#*;%***#*",
":=:>>:::<*:;:<;;,<",
"%X+:@O,%&&@O*@.;*@"
};
