/* XPM */
static char *avatar[] = {
/* columns rows colors chars-per-pixel */
"25 25 165 2 ",
"   c #193918",
".  c #2C4D2C",
"X  c #285936",
"o  c #325133",
"O  c #325F3D",
"+  c #3A633F",
"@  c #2C6946",
"#  c #356845",
"$  c #3A6C4B",
"%  c #3A7548",
"&  c #3F6E50",
"*  c #3C7353",
"=  c #435840",
"-  c #496C4C",
";  c #52674F",
":  c #417048",
">  c #49704B",
",  c #427E4C",
"<  c #436650",
"1  c #466D51",
"2  c #457454",
"3  c #4F7457",
"4  c #437A53",
"5  c #487D51",
"6  c #48705A",
"7  c #467C5B",
"8  c #597A65",
"9  c #3C844C",
"0  c #358453",
"q  c #3F8F5A",
"w  c #359054",
"e  c #3C9455",
"r  c #37945A",
"t  c #3B9A5F",
"y  c #3D9D60",
"u  c #448759",
"i  c #49845D",
"p  c #448A5B",
"a  c #4A8C5F",
"s  c #448660",
"d  c #458B63",
"f  c #528B64",
"g  c #5E8E65",
"h  c #5A856A",
"j  c #558D69",
"k  c #588C6E",
"l  c #409760",
"z  c #4D9265",
"x  c #459B66",
"c  c #489B65",
"v  c #4F946C",
"b  c #4B9C6A",
"n  c #5E9666",
"m  c #52986B",
"M  c #5B8C71",
"N  c #569471",
"B  c #539C72",
"V  c #5E9974",
"C  c #65826A",
"Z  c #648F6E",
"A  c #67956C",
"S  c #648A73",
"D  c #6A8874",
"F  c #718475",
"G  c #708F75",
"H  c #718F7A",
"J  c #639174",
"K  c #6C9277",
"L  c #67957A",
"P  c #6C9A7C",
"I  c #71937E",
"U  c #729C7C",
"Y  c #42A266",
"T  c #48A666",
"R  c #47A76A",
"E  c #4BA66C",
"W  c #54A96D",
"Q  c #48A970",
"!  c #53A272",
"~  c #5DA172",
"^  c #53AD75",
"/  c #5CA57A",
"(  c #5DA97A",
")  c #4FB374",
"_  c #57B078",
"`  c #59B67C",
"'  c #59BA7C",
"]  c #66A27C",
"[  c #62AB7E",
"{  c #69A87D",
"}  c #769680",
"|  c #709D82",
" . c #5DB280",
".. c #63AD81",
"X. c #6AAE86",
"o. c #73A682",
"O. c #71A188",
"+. c #64B584",
"@. c #66BE84",
"#. c #69B789",
"$. c #64BE89",
"%. c #6EBF91",
"&. c #65C288",
"*. c #68C58B",
"=. c #6ECA91",
"-. c #869885",
";. c #86978C",
":. c #84A491",
">. c #8DAE96",
",. c #8FAA99",
"<. c #9EAA9C",
"1. c #99AEA3",
"2. c #91B8A2",
"3. c #9DB8A9",
"4. c #A4B2A5",
"5. c #A5B6A9",
"6. c #A8BDB3",
"7. c #B8B2B5",
"8. c #A6C1AB",
"9. c #ACC3B5",
"0. c #A6CAB6",
"q. c #B7C5BA",
"w. c #B3CCBB",
"e. c #AFD0B9",
"r. c #ABD9BA",
"t. c #B8D0BD",
"y. c #C3BAC1",
"u. c #BED0C2",
"i. c #C3C4C8",
"p. c #C4C8CC",
"a. c #D0C5CB",
"s. c #C5D3C6",
"d. c #D7CFD5",
"f. c #CAD9D1",
"g. c #C6E2CF",
"h. c #CAE2D1",
"j. c #D0E5D2",
"k. c #D5E5DC",
"l. c #D4EADE",
"z. c #DBE9DF",
"x. c #E1E5DD",
"c. c #DCDDE1",
"v. c #E9DDE4",
"b. c #DDECE2",
"n. c #DEF2E5",
"m. c #DBF2E9",
"M. c #E1E5E7",
"N. c #E9EDE7",
"B. c #EAEDE8",
"V. c #E7F1E6",
"C. c #E7F6EA",
"Z. c #ECF3ED",
"A. c #ECFAEF",
"S. c #F0FCEF",
"D. c #F6EDF3",
"F. c #EFF6F4",
"G. c #E6F8F4",
"H. c #EDFBF2",
"J. c #F3F3F3",
"K. c #FAF5F5",
"L. c #F4FEF5",
"P. c #FCFCF6",
"I. c #FEF7FD",
"U. c #F6FDFB",
"Y. c #FDFDFD",
/* pixels */
"Y.Y.Y.Y.U.U.Y.U.Y.Y.Y.Y.Y.Y.Y.Y.Y.Y.Y.Y.Y.P.P.P.P.",
"Y.Y.Y.Y.Y.Y.Y.Y.Y.Y.Y.Y.Y.Y.Y.Y.Y.Y.Y.Y.Y.Y.Y.Y.Y.",
"Y.Y.Y.Y.Y.Y.Y.Y.Y.I.Y.Y.Y.Y.Y.I.Y.I.I.Y.Y.Y.Y.Y.Y.",
"Y.Y.Y.Y.Y.Y.Y.I.Y.Y.P.Y.Y.Y.Y.Y.Y.Y.Y.Y.Y.Y.Y.Y.Y.",
"Y.Y.Y.Y.Y.I.Y.Y.P.P.Y.S.z.l.k.b.Z.P.Y.Y.Y.Y.Y.I.Y.",
"U.Y.Y.Y.Y.Y.Y.P.L.C.t.>.U L L C I e.C.Y.Y.Y.Y.Y.Y.",
"U.U.I.I.I.I.Y.H.g.| k f z ../ v i J U h.U.Y.Y.Y.I.",
"U.U.K.I.I.Y.L.0.i B #.+.x ` =._ x [ { o.g.L.P.Y.I.",
"M.J.d.D.I.U.b.M B x ` &.y E ' R Q $.` a P V.P.Y.Y.",
"p.c.y.v.Y.L.0.N %._ y ` t q c w y $.^ b f e.L.Y.Y.",
"c.i.d.a.Y.L.2.s  .*.T e a % u 0 y ) x +.] S C.I.I.",
"U.i.d.7.U.C.L v b ^ W 9 u 1 > * * 0  . .B 6 b.I.I.",
"G.6.;.F w.r.d  .` W z 5 G q.u.I * d B x / k w.I.I.",
"0.h K S , 9 l E $.[ 7 8 s.P.P.f.8 * d  .$.d :.U.Y.",
"h 4 Z g + e @.x ^ ..4 G S.P.P.U.:.& B ^ Y x V >.b.",
"O U U A n u _ ^ x V 2 8.L.L.P.Y.,.$ 0 r ) &.! 7 P ",
"o + > + g , ~ m p f 3 j.L.P.Y.L.9.& u E ` ` b [ @ ",
"o o   . > : A f # 1 <.H.P.Y.U.U.n.8 2 q q x ( X.X ",
"} ; = = o - 3 3 D 9.A.Y.Y.U.Y.Y.H.1.< 1 4 f j 7 O.",
"V.<.F -.<.4.5.f.H.Y.Y.Y.Y.Y.Y.Y.U.F.6.;.C 8 H 3.m.",
"Y.J.x.B.Y.Y.Y.Y.Y.I.Y.Y.Y.Y.Y.Y.U.I.U.N.x.x.Z.P.Y.",
"Y.Y.I.Y.Y.Y.Y.Y.Y.Y.I.I.Y.Y.I.Y.I.I.Y.Y.Y.Y.Y.Y.Y.",
"Y.Y.P.U.Y.Y.Y.Y.I.Y.Y.Y.Y.Y.Y.Y.Y.Y.I.Y.P.Y.I.Y.Y.",
"Y.Y.Y.Y.Y.Y.Y.Y.Y.Y.Y.Y.P.P.P.Y.Y.Y.P.P.P.P.Y.I.Y.",
"P.Y.Y.U.Y.Y.Y.Y.P.P.P.U.P.P.P.P.U.U.U.U.P.P.Y.Y.U."
};
