/* XPM */
static char *avatar_right[] = {
/* columns rows colors chars-per-pixel */
"25 25 162 2 ",
"   c #193918",
".  c #2C4D2C",
"X  c #285936",
"o  c #325133",
"O  c #335E36",
"+  c #3A633F",
"@  c #2C6946",
"#  c #356845",
"$  c #3A6C4B",
"%  c #3A7548",
"&  c #3F6E50",
"*  c #3C7353",
"=  c #435840",
"-  c #496C4C",
";  c #52674F",
":  c #417048",
">  c #49704B",
",  c #427E4C",
"<  c #436650",
"1  c #457454",
"2  c #4F7457",
"3  c #437A53",
"4  c #487D51",
"5  c #48705A",
"6  c #467C5B",
"7  c #52755B",
"8  c #597A65",
"9  c #737D6F",
"0  c #3C844C",
"q  c #358453",
"w  c #3B8453",
"e  c #3F8F5A",
"r  c #359054",
"t  c #3C9455",
"y  c #37945A",
"u  c #3D9D60",
"i  c #448759",
"p  c #49845D",
"a  c #448A5B",
"s  c #40935C",
"d  c #4A8160",
"f  c #458B63",
"g  c #4C8B62",
"h  c #528B64",
"j  c #5E8E65",
"k  c #5A856A",
"l  c #558D69",
"z  c #588C6E",
"x  c #409760",
"c  c #4D9265",
"v  c #459B66",
"b  c #489B65",
"n  c #4F946C",
"m  c #4B9C6A",
"M  c #5E9666",
"N  c #5B926C",
"B  c #5B8C71",
"V  c #569471",
"C  c #539C72",
"Z  c #5E9974",
"A  c #65826A",
"S  c #648F6E",
"D  c #67956C",
"F  c #648A73",
"G  c #718475",
"H  c #708F75",
"J  c #718F7A",
"K  c #639174",
"L  c #6C9277",
"P  c #67957A",
"I  c #6C9A7C",
"U  c #71937E",
"Y  c #729C7C",
"T  c #42A266",
"R  c #48A666",
"E  c #54A96D",
"W  c #48A970",
"Q  c #53A272",
"!  c #5DA172",
"~  c #53AD75",
"^  c #5CA57A",
"/  c #54AB79",
"(  c #5DA97A",
")  c #4FB374",
"_  c #57B078",
"`  c #59B67C",
"'  c #59BA7C",
"]  c #66A27C",
"[  c #62AB7E",
"{  c #69A87D",
"}  c #62B27D",
"|  c #709D82",
" . c #5DB280",
".. c #63AD81",
"X. c #6AAE86",
"o. c #73A682",
"O. c #71A188",
"+. c #64B584",
"@. c #66BE84",
"#. c #69B789",
"$. c #64BE89",
"%. c #6EBF91",
"&. c #65C288",
"*. c #68C58B",
"=. c #6ECA91",
"-. c #869885",
";. c #86978C",
":. c #84A491",
">. c #8DAE96",
",. c #8FAA99",
"<. c #9EAA9C",
"1. c #98B09C",
"2. c #99AEA3",
"3. c #91B8A2",
"4. c #9DB8A9",
"5. c #A4B2A5",
"6. c #A5B6A9",
"7. c #A8BDB3",
"8. c #B8B2B5",
"9. c #A6C1AB",
"0. c #ACC3B5",
"q. c #A6CAB6",
"w. c #B3CCBB",
"e. c #AFD0B9",
"r. c #ABD9BA",
"t. c #B8D0BD",
"y. c #C3BAC1",
"u. c #BED0C2",
"i. c #C4C8CC",
"p. c #D0C5CB",
"a. c #C5D3C6",
"s. c #D7CFD5",
"d. c #CAD9D1",
"f. c #DAD0D8",
"g. c #C6E2CF",
"h. c #CAE2D1",
"j. c #D0E5D2",
"k. c #D5E5DC",
"l. c #DBE9DF",
"z. c #E1E5DD",
"x. c #DCDDE1",
"c. c #E9DDE4",
"v. c #DDECE2",
"b. c #DEF2E5",
"n. c #DBF2E9",
"m. c #E1E5E7",
"M. c #E9EDE7",
"N. c #E7F1E6",
"B. c #E7F6EA",
"V. c #ECF3ED",
"C. c #ECFAEF",
"Z. c #F0FCEF",
"A. c #F6EDF3",
"S. c #EFF6F4",
"D. c #E6F8F4",
"F. c #F3F3F3",
"G. c #FAF5F5",
"H. c #F4FEF5",
"J. c #FCFCF6",
"K. c #FEF7FD",
"L. c #F6FDFB",
"P. c #FDFDFD",
/* pixels */
"J.J.J.J.P.P.P.P.P.P.P.P.P.P.P.P.P.P.P.L.P.P.P.P.P.",
"P.P.P.P.P.P.P.P.P.P.P.P.P.P.P.P.P.P.P.L.L.P.P.P.P.",
"P.P.P.P.P.P.P.K.P.K.P.P.P.P.P.P.P.P.P.P.P.P.P.P.P.",
"P.P.P.P.P.P.K.P.P.P.P.P.P.J.G.P.P.P.K.P.P.P.P.P.P.",
"P.P.P.P.P.P.P.P.V.v.k.k.l.Z.P.J.J.K.P.P.P.P.P.P.P.",
"P.P.P.P.P.P.N.w.U F K P Y >.t.B.L.J.P.K.K.P.P.L.L.",
"K.P.P.P.L.h.Y Z p n ( ..c h N | g.C.P.P.K.P.P.P.P.",
"K.P.P.H.g.o.{ [ b _ =.` v +.#.C d q.H.P.K.K.G.K.L.",
"P.G.P.b.I f  .$.R T ' W u &.` v C B v.L.K.A.f.A.m.",
"P.P.H.e.l m _  .x r m s s ' u ` %.V q.L.K.c.y.x.i.",
"K.P.B.F ] } u  .x q a % a t R *. .p 3.H.J.p.s.y.f.",
"K.K.b.5 V +. .q w * > > 4 0 E ~ v n P D.L.8.s.u.L.",
"K.P.w.z ^ m Q f * U a.w.H i c Q `  .g r.w.G ;.7.D.",
"P.H.:.g $./ e * 8 d.J.P.a.8 4 [ &.W v q , S L k q.",
"v.>.Z v u / C & :.L.P.J.Z.H 1 [ ~ x @.w % j S 1 l ",
"I 6 Q &.) y q $ ,.L.J.J.H.9.1 ! b ~ } 0 M D Y I + ",
"@ [ m ' ' R a & 0.H.P.P.H.j.2 h i C ! , j O > + X ",
"X X.( b a i 3 8 n.L.L.J.J.C.1.> # h N : > .   . o ",
"O.6 z h 3 & < 2.L.P.L.P.P.P.V.0.F 7 7 - o = = ; -.",
"n.4.J 8 A ;.7.S.L.P.P.L.P.P.P.P.H.d.6.5.5.-.9 <.N.",
"P.J.V.z.z.M.P.P.K.P.P.P.P.P.P.K.P.P.P.P.P.M.z.F.J.",
"P.P.P.P.P.P.K.K.P.P.K.P.P.K.K.P.K.P.P.P.K.P.P.P.P.",
"P.K.P.G.G.P.P.P.P.P.P.P.P.P.P.P.P.K.P.P.P.P.P.P.P.",
"P.P.P.J.J.P.L.L.P.P.P.J.J.P.P.P.P.P.P.P.P.P.P.P.P.",
"L.P.P.J.J.J.L.L.L.L.J.J.J.J.J.J.P.P.J.P.P.P.P.H.P."
};
