/* XPM */
static char *collectible[] = {
/* columns rows colors chars-per-pixel */
"25 25 157 2 ",
"   c #3A5F2D",
".  c #3F6E2F",
"X  c #3C6130",
"o  c #396B32",
"O  c #40672E",
"+  c #40682E",
"@  c #426E35",
"#  c #447739",
"$  c #4E6D48",
"%  c #506E4A",
"&  c #497C41",
"*  c #517649",
"=  c #87171A",
"-  c #A71F1F",
";  c #8F211F",
":  c #841A28",
">  c #841922",
",  c #9C1D27",
"<  c #AC1F20",
"1  c #A21C2B",
"2  c #B11F23",
"3  c #B51C2B",
"4  c #BE1C2A",
"5  c #B41725",
"6  c #8B2F2B",
"7  c #932225",
"8  c #983022",
"9  c #A72222",
"0  c #AF2225",
"q  c #A22826",
"w  c #B42127",
"e  c #BA2225",
"r  c #B02A27",
"t  c #B42329",
"y  c #BC232A",
"u  c #BB2A2C",
"i  c #BF2331",
"p  c #BB2A31",
"a  c #C61E2A",
"s  c #C81E28",
"d  c #CA1D27",
"f  c #DD1D27",
"g  c #D31E30",
"h  c #C42126",
"j  c #C92126",
"k  c #C4222B",
"l  c #CA232C",
"z  c #DB2726",
"x  c #D1242C",
"c  c #DD242C",
"v  c #DA292D",
"b  c #D4282D",
"n  c #C92931",
"m  c #C22C32",
"M  c #D42632",
"N  c #DB2431",
"B  c #D32833",
"V  c #DD2C30",
"C  c #DC2F3C",
"Z  c #CB3439",
"A  c #D2343B",
"S  c #E1242E",
"D  c #E8242F",
"F  c #E5292C",
"G  c #E42630",
"H  c #EB2732",
"J  c #E82A33",
"K  c #E32A34",
"L  c #F02938",
"P  c #F0303A",
"I  c #BD4F37",
"U  c #D93C43",
"Y  c #EE3A40",
"T  c #AB5840",
"R  c #BC5F40",
"E  c #9E6542",
"W  c #B57A54",
"Q  c #DE545F",
"!  c #F0414E",
"~  c #EE5649",
"^  c #E84C58",
"/  c #EB5A5D",
"(  c #DE5062",
")  c #F85862",
"_  c #F0606E",
"`  c #EA6F74",
"'  c #F06F72",
"]  c #F96B78",
"[  c #539548",
"{  c #5F9450",
"}  c #68935D",
"|  c #55A34C",
" . c #68AF57",
".. c #64AE58",
"X. c #77AE59",
"o. c #7AA154",
"O. c #69B25C",
"+. c #6CB255",
"@. c #7A8C72",
"#. c #75907A",
"$. c #7E947A",
"%. c #73BB64",
"&. c #7EB861",
"*. c #AB8D5A",
"=. c #AB8755",
"-. c #AC9256",
";. c #AB9C5D",
":. c #82BD5D",
">. c #95B15B",
",. c #92B66E",
"<. c #9EB365",
"1. c #ABA660",
"2. c #8FC97C",
"3. c #B0C06D",
"4. c #F37B85",
"5. c #F67D89",
"6. c #819885",
"7. c #909F8D",
"8. c #97A797",
"9. c #9CB19E",
"0. c #EF8086",
"q. c #F68486",
"w. c #F2868C",
"e. c #E19191",
"r. c #F59296",
"t. c #D9A99D",
"y. c #F4AFAC",
"u. c #F6AEB1",
"i. c #EEB1B3",
"p. c #F2BEBB",
"a. c #8CD281",
"s. c #ECC9B6",
"d. c #CBD4CC",
"f. c #DADDD8",
"g. c #F5CECA",
"h. c #FBCACB",
"j. c #F8D1CB",
"k. c #FADBDE",
"l. c #F7D5D6",
"z. c #F9E0DB",
"x. c #FBDEE0",
"c. c #E3E3E3",
"v. c #E7EEE0",
"b. c #E9EDE6",
"n. c #E3E7EE",
"m. c #E9ECEC",
"M. c #FAECEC",
"N. c #FAE9E6",
"B. c #EBF5E7",
"V. c #F7F3EE",
"C. c #FAF0EB",
"Z. c #F7F6F0",
"A. c #FAF3F5",
"S. c #F5FCF6",
"D. c #F6FEFC",
"F. c #FDFEFE",
"G. c #F8FCF6",
/* pixels */
"F.F.F.F.F.F.F.F.F.F.F.F.F.F.A.F.F.F.F.F.F.F.F.F.F.",
"F.F.F.F.F.F.F.F.F.D.D.F.D.F.F.D.G.F.F.F.F.F.F.F.F.",
"F.F.F.F.F.F.A.F.F.D.F.F.F.F.F.F.F.F.F.F.F.F.F.F.F.",
"F.F.F.F.F.F.F.F.F.F.D.M.M.M.S.F.F.F.F.F.F.F.F.F.F.",
"F.F.F.F.F.F.F.F.F.G.h.4.] 5.l.S.F.D.F.F.F.F.F.F.F.",
"F.F.F.F.F.F.F.F.F.z._ J z L 4.N.F.F.F.F.F.F.F.F.F.",
"F.F.F.F.F.F.F.F.S.w.K D q e P u.F.F.F.F.F.F.F.F.F.",
"F.F.F.F.F.F.F.F.g.^ f D l k J ' x.F.F.F.F.F.F.F.F.",
"F.F.F.F.F.F.F.N.` M N N F G J P r.A.F.F.F.F.F.F.F.",
"G.F.F.F.F.F.F.p.U l s N c S N b / j.F.F.F.F.F.F.F.",
"F.F.F.F.D.F.k.( j 0 ; g c S N - B q.M.F.F.F.F.F.F.",
"F.F.F.D.F.M.e.p l k k x l B C b N Y y.A.F.F.F.F.F.",
"F.F.F.F.F.u.Z y m u t B n n A v v H ) l.F.F.F.F.F.",
"F.F.A.G.k.Q 5 1 , i e l 8 3 M M B t B q.N.F.F.F.F.",
"F.G.F.G.t.u 5 , = 4 a s t 3 k k g 7 m ~ s.D.A.F.F.",
"F.D.F.B.2.=.r - w t w a e e y e d j R <.a.b.F.S.F.",
"F.G.F.v.{ o.W r 3 : > y s a 4 , 9 I 1.+.} b.F.F.F.",
"F.F.F.V.7.@ X.;.T 6 7 w e u r 8 E ,...o 9.A.F.G.F.",
"F.F.F.F.n.#..  .:.>.-.-.*.*.-.<.&.| @ 6.b.F.F.F.F.",
"F.F.F.F.F.f.@.* # [  .%.%.%.O.[ & * $.c.F.F.F.F.F.",
"F.F.F.F.F.F.m.d.7.% X O O O X % 9.d.m.F.F.F.F.F.F.",
"F.F.F.F.F.F.F.F.G.f.d.d.d.d.d.f.F.F.F.F.F.F.F.F.F.",
"F.F.F.F.F.F.F.F.F.F.F.F.F.F.F.F.F.F.F.F.F.F.F.F.F.",
"F.F.F.F.F.F.F.F.F.F.F.G.F.F.G.F.F.F.F.F.F.F.F.F.F.",
"F.F.F.F.F.F.F.F.F.F.F.F.F.F.F.F.F.F.F.F.F.F.F.F.F."
};
