/* XPM */
static char *exit[] = {
/* columns rows colors chars-per-pixel */
"25 25 169 2 ",
"   c #131313",
".  c #141414",
"X  c #151515",
"o  c #161616",
"O  c #171717",
"+  c #181818",
"@  c #191919",
"#  c #19191A",
"$  c #1A1A1A",
"%  c #1B1B1B",
"&  c #1B1B1C",
"*  c #1C1C1C",
"=  c #1D1D1D",
"-  c #1E1E1E",
";  c #1F1F1F",
":  c #202020",
">  c #212121",
",  c #202123",
"<  c #222222",
"1  c #222323",
"2  c #232323",
"3  c #232324",
"4  c #222325",
"5  c #222326",
"6  c #232426",
"7  c #232427",
"8  c #232527",
"9  c #242424",
"0  c #252525",
"q  c #252526",
"w  c #242527",
"e  c #262626",
"r  c #262727",
"t  c #272727",
"y  c #2C2924",
"u  c #242528",
"i  c #252628",
"p  c #272729",
"a  c #25272A",
"s  c #282828",
"d  c #282929",
"f  c #292929",
"g  c #28292A",
"h  c #29292A",
"j  c #2A2A2A",
"k  c #2B2B2B",
"l  c #2B2C2C",
"z  c #2C2C2C",
"x  c #2D2D2C",
"c  c #2C2C2D",
"v  c #2D2D2D",
"b  c #2F2F2D",
"n  c #2C2D2E",
"m  c #2E2E2E",
"M  c #32302D",
"N  c #32312F",
"B  c #353536",
"V  c #3A3630",
"C  c #3E3931",
"Z  c #3D3B38",
"A  c #483F2C",
"S  c #443E32",
"D  c #453F32",
"F  c #474237",
"G  c #494234",
"H  c #4B4539",
"J  c #524631",
"K  c #564A33",
"L  c #5A4E36",
"P  c #5B4F36",
"I  c #5A4F37",
"U  c #645639",
"Y  c #6D5C3A",
"T  c #685A3C",
"R  c #715F3D",
"E  c #73613D",
"W  c #76643E",
"Q  c #77643F",
"!  c #78643D",
"~  c #7A663D",
"^  c #7D683E",
"/  c #7D683F",
"(  c #7F6A3F",
")  c #404041",
"_  c #414141",
"`  c #525253",
"'  c #535353",
"]  c #5C5953",
"[  c #635842",
"{  c #665A43",
"}  c #6A6A6C",
"|  c #73716C",
" . c #7C7A76",
".. c #7E7B76",
"X. c #7F7C76",
"o. c #816B40",
"O. c #836D41",
"+. c #846E42",
"@. c #867043",
"#. c #8E7646",
"$. c #8F7646",
"%. c #907847",
"&. c #947B49",
"*. c #957B49",
"=. c #957C4A",
"-. c #967D4A",
";. c #977D4A",
":. c #977D4B",
">. c #977E4B",
",. c #987E4B",
"<. c #997F4B",
"1. c #987F4F",
"2. c #917C53",
"3. c #937D52",
"4. c #947E53",
"5. c #957F54",
"6. c #9A804C",
"7. c #9D824D",
"8. c #9F844E",
"9. c #958055",
"0. c #968055",
"q. c #978156",
"w. c #978357",
"e. c #B8995B",
"r. c #B99A5E",
"t. c #BF9E5E",
"y. c #918876",
"u. c #C0A165",
"i. c #CBA967",
"p. c #CCA864",
"a. c #D5B169",
"s. c #D6B269",
"d. c #D2B16D",
"f. c #DAB46B",
"g. c #DBB56B",
"h. c #DBB66C",
"j. c #DEB86D",
"k. c #C1A776",
"l. c #CCB17B",
"z. c #D7B87A",
"x. c #E0B96E",
"c. c #E1BA6E",
"v. c #E3BC70",
"b. c #E6C074",
"n. c #E7C074",
"m. c #EDC574",
"M. c #F0C776",
"N. c #F5CB78",
"B. c #F4CA79",
"V. c #F7CD79",
"C. c #F1C97C",
"Z. c #F1CA7C",
"A. c #F1CB7C",
"S. c #F8CD7A",
"D. c #F9CF7B",
"F. c #FBD17B",
"G. c #FAD07C",
"H. c #FDD17C",
"J. c #FDD27D",
"K. c #FED27C",
"L. c #FFD37D",
"P. c #FED47D",
"I. c #FFD47D",
"U. c #FFD47E",
"Y. c #FFD57E",
"T. c #FFD67F",
"R. c #FFD77F",
"E. c #FFD87F",
"W. c #FFD980",
/* pixels */
"O + + * = = - = = * * ; = = * # + + O o o X   X o ",
"O O + - - > 2 2 0 2 < 2 > > > * # + o O o o     X ",
"@ * % > 2 e s f j d h k f 9 > * # + O o o X X . . ",
"= : ; 9 s z v B Z H F n m f 9 : = % $ O o X o X . ",
"= ; ; 9 j z ) | k.S.n.[ c j e < - * $ @ o . X o X ",
"% = : 0 k _ } y.J.L.Y.b.{ p e < : - $ @ + o X X o ",
"= - > t j '  .z.L.L.L.W.w.u r > ; - @ + + o X . . ",
"* ; < 0 j ` ..A.L.L.L.E.q.u t 2 > : % + O o o X . ",
"- 2 9 r k ` ..C.L.L.L.E.0.w t 9 > : - $ @ O O o . ",
"= < 2 s z ` ..C.L.L.L.E.5.7 t 9 > : = $ @ O O + X ",
"; < 2 s z ` ..C.L.L.L.E.4.5 s 9 9 < ; % # o o o X ",
"> 2 0 j k ` ..C.L.L.L.E.3.5 r 9 2 > ; = * O o o X ",
": > 2 s j ` ..C.L.L.L.E.4.8 e 9 2 ; ; * % O o o o ",
"< 9 e j j ` ..C.L.L.L.E.5.w e 0 2 > > = * O X o o ",
"2 0 s j j ` ..C.L.L.L.E.5.6 0 0 2 : > * $ + o O + ",
"1 q f z k ` ..C.L.L.L.E.4.4 0 9 2 < > - % + + O + ",
"K P C m x ` X.Z.I.L.L.E.3., 0 2 9 9 < ; * $ O + O ",
"#.O.W R L ] l.D.B.L.L.E.4.5 t 0 e 9 > * % % + # + ",
",.-.;.*.&.i.R.d.2.T.L.E.5.i j s s 9 > = * @ O @ + ",
",.,.,.t.g.I.F.r.u.Y.L.E.9.a l k j t 0 > > * O O O ",
"6.e.x.G.Y.H.p.s.Y.L.U.m.1.T I N b f r 3 9 : @ O O ",
"M.V.Y.L.K.j.v.P.L.L.U.a.,.;.+.Q E D V M g 3 * O O ",
"I.L.L.I.N.M.L.L.L.U.h.7.,.,.>.,.$.+./ U G S 3 & # ",
"L.L.L.L.L.L.L.L.I.f.8.>.,.,.,.,.,.:.#.@.( ! J A y ",
"L.L.L.L.L.L.L.Y.c.8.-.,.,.,.,.,.,.,.<.=.%.o.^ ~ Y "
};
