/* XPM */
static char *npxfess[] = {
/* columns rows colors chars-per-pixel */
"25 25 42 1 ",
"  c #191919",
". c #1D1D1D",
"X c #1C1C1E",
"o c #1D1D1E",
"O c #1E1E1E",
"+ c #1F1F1F",
"@ c #22211D",
"# c #23221E",
"$ c #24231E",
"% c #26251D",
"& c #27251D",
"* c #25241E",
"= c #38331C",
"- c #202020",
"; c #252525",
": c #2F2F2F",
"> c #4D4D4D",
", c #5D5D5D",
"< c #646464",
"1 c #656565",
"2 c #6A6A6A",
"3 c #877418",
"4 c #937F16",
"5 c #978216",
"6 c #988315",
"7 c #B59C14",
"8 c #C4A812",
"9 c #DDBD11",
"0 c #EDCA0F",
"q c #EECB0F",
"w c #F0CC0F",
"e c #848484",
"r c #A2A2A2",
"t c #B9B9B9",
"y c #D6D6D6",
"u c #D8D8D8",
"i c #E8E8E8",
"p c #EAEAEA",
"a c #F8F8F8",
"s c #FDFDFD",
"d c #FEFEFE",
"f c white",
/* pixels */
"fffffffffffffffffffffffff",
"ffffffffffdaaadffffffffff",
"fffffffsite1<1etisfffffff",
"ffffffpr>:-   -:>rpffffff",
"fffffu2;..OOOOO..;2ufffff",
"ffffy,-oOOOOOOOOOo-,yffff",
"fffp2+@=$oOOOOOo$=@+2pfff",
"ffsr;o=86&XOOOX&68=o;rsff",
"ffi>.O$605%oOo%506$O.>iff",
"fft:.Oo&5q6*o*6q5&oO.:tff",
"ffe-OOOX%6w4#4w6%XOOO-eff",
"fa1 OOOOo*47374*oOOOO 1af",
"fa< OOOOOo#393#oOOOOO <af",
"fa1 OOOOo*47374*oOOOO 1af",
"ffe-OOOX%6w4#4w6%XOOO-eff",
"fft:.Oo&5q6*o*6q5&oO.:tff",
"ffi>.O$605%oOo%506$O.>iff",
"ffsr;o=86&XOOOX&68=o;rsff",
"fffp2-@=$oOOOOOo$=@-2pfff",
"ffffu,+oOOOOOOOOOo+,uffff",
"fffffy2;..OOOOO..;2yfffff",
"ffffffpr>:-   -:>rpffffff",
"fffffffsite1<1etisfffffff",
"ffffffffffdaaadffffffffff",
"fffffffffffffffffffffffff"
};
