/* XPM */
static char *wall[] = {
/* columns rows colors chars-per-pixel */
"25 25 44 1 ",
"  c #464047",
". c #524A4B",
"X c #4E4B53",
"o c #534D54",
"O c #564F59",
"+ c #555057",
"@ c #5A5354",
"# c #555259",
"$ c #5B565C",
"% c #5D5A5C",
"& c #625D5E",
"* c #5F615B",
"= c #60625F",
"- c #5C5760",
"; c #5E5B62",
": c #5F5C68",
"> c #625E64",
", c #635F69",
"< c #656265",
"1 c #696366",
"2 c #656965",
"3 c #66636A",
"4 c #6A656B",
"5 c #6D6A6D",
"6 c #716C6E",
"7 c #75716F",
"8 c #6C6672",
"9 c #6E6B72",
"0 c #726D73",
"q c #736E79",
"w c #6D7173",
"e c #757274",
"r c #787573",
"t c #797876",
"y c #75737A",
"u c #79757B",
"i c #7C7B7C",
"p c #817E7E",
"a c #777581",
"s c #797781",
"d c #7D7B82",
"f c #807E82",
"g c #828085",
"h c #848489",
/* pixels */
"sdhifsgddddgd3hddsigfgasg",
"67tt65uttwytt;ttr4eerr5wt",
"+$3$#+<<%##3; <;$o$4%$#;:",
"yyy9yqqyyyuw9yyyyy9u9yyy;",
"tt5ettteyrr55tyeirt76yte<",
"3;O-5;;+<>%o<<%+,3%&+3*#X",
"y990y9w9qe00yqq0yq8e9y55w",
"y5yiyyuti0uuiquutyytiu9ey",
"6<ee55ur057ee1rue40ue616e",
"4<4;9404>5405>5,3450%5450",
"uq0yuyuyyyyyu07uuyuu9yyuy",
"65>4095>0e55661>q953>e955",
"5539yw5>5y95640>0y35<ew35",
"eediiufuiuysi,fiieqddiyyi",
"><e41<e6623e0oy65&3w55<3e",
",>5;,;45<%<4>#8,>>;5;=;3;",
"ptpupppyppf09fpquipu0ppi:",
"e010077,q06>5e640e76,q05;",
"0>$,q>&&44$$84$>88$>&8>$-",
"iyffpyffdpuffiuffiqhppyyg",
"e5ye0qp6y6eeu6eee09ty666t",
"1>e54,0041666<50533e55145",
"454>04643946543<4959$9559",
"urqduuquiuyuyeeyyyyeqyuyt",
",&.&41&o>5<%*=%X35<@X52*%"
};
