/* XPM */
static char *avatar_right[] = {
/* columns rows colors chars-per-pixel */
"28 28 180 2 ",
"   c #193A18",
".  c #174F2C",
"X  c #1D5D2F",
"o  c #2A4D2D",
"O  c #2A5532",
"+  c #215F3B",
"@  c #3C553A",
"#  c #375A38",
"$  c #355F3C",
"%  c #3B5E48",
"&  c #356749",
"*  c #3C6648",
"=  c #376A4F",
"-  c #3A6D49",
";  c #3A7646",
":  c #3D6E50",
">  c #397650",
",  c #377E52",
"<  c #3E7B56",
"1  c #535F4F",
"2  c #446B46",
"3  c #436A4D",
"4  c #51694F",
"5  c #47764D",
"6  c #446D51",
"7  c #4A6D53",
"8  c #506E58",
"9  c #447253",
"0  c #4B7455",
"q  c #467B55",
"w  c #447659",
"e  c #4D755D",
"r  c #437C5C",
"t  c #4D7C5A",
"y  c #50755D",
"u  c #587B65",
"i  c #617D6C",
"p  c #6B7B6A",
"a  c #34874D",
"s  c #3F864F",
"d  c #2E8750",
"f  c #3B8254",
"g  c #368B53",
"h  c #378C58",
"j  c #3E8D59",
"k  c #329155",
"l  c #3C995D",
"z  c #3C9861",
"x  c #3FA062",
"c  c #418356",
"v  c #42835A",
"b  c #4B835D",
"n  c #458A5A",
"m  c #4D8A5C",
"M  c #568B5E",
"N  c #42955E",
"B  c #49915C",
"V  c #4C8362",
"C  c #458C64",
"Z  c #498B62",
"A  c #528563",
"S  c #548E66",
"D  c #5F8569",
"F  c #568D6C",
"G  c #59896B",
"H  c #439563",
"J  c #439C64",
"K  c #4A9B64",
"L  c #499768",
"P  c #4A9C69",
"I  c #509066",
"U  c #54926F",
"Y  c #52996C",
"T  c #5D8E72",
"R  c #5D9471",
"E  c #539B72",
"W  c #5B9D73",
"Q  c #688469",
"!  c #66966D",
"~  c #678A72",
"^  c #738775",
"/  c #6C9674",
"(  c #639C73",
")  c #75957C",
"_  c #749F7B",
"`  c #41A265",
"'  c #48A167",
"]  c #4AA46D",
"[  c #4AAA6C",
"{  c #54A26B",
"}  c #4FA671",
"|  c #4EAB70",
" . c #50A471",
".. c #51AB72",
"X. c #5AA877",
"o. c #54AB79",
"O. c #56B578",
"+. c #56B678",
"@. c #5CB57D",
"#. c #5CBB7F",
"$. c #61A077",
"%. c #64AB7D",
"&. c #63B07D",
"*. c #7A9683",
"=. c #7B9C8A",
"-. c #5AB481",
";. c #5DBC83",
":. c #64AD81",
">. c #69AF85",
",. c #78A786",
"<. c #65B284",
"1. c #69B286",
"2. c #66B987",
"3. c #68BA83",
"4. c #6EB18A",
"5. c #6CBB8B",
"6. c #72B68A",
"7. c #7CA990",
"8. c #64C184",
"9. c #68C186",
"0. c #69C68C",
"q. c #6BC68E",
"w. c #71C194",
"e. c #889585",
"r. c #82A38A",
"t. c #88A692",
"y. c #8CA593",
"u. c #93AB9D",
"i. c #9BAEA4",
"p. c #8FB7A0",
"a. c #94BEA3",
"s. c #9CBFA8",
"d. c #A8ADA8",
"f. c #ACBDAD",
"g. c #AEB3B1",
"h. c #A5BFB0",
"j. c #A5C1AC",
"k. c #A6C6B2",
"l. c #ABC3B4",
"z. c #B7C6B7",
"x. c #BDC5BB",
"c. c #B1C8BA",
"v. c #ADD2BB",
"b. c #C9BEC5",
"n. c #C5CCC6",
"m. c #C4C7CB",
"M. c #CCC4C9",
"N. c #C0D2C7",
"B. c #C6DDCB",
"V. c #D3CBD2",
"C. c #C3DDD0",
"Z. c #CCDAD3",
"A. c #D1DFD3",
"S. c #D9D6D9",
"D. c #C2E8CF",
"F. c #CFE3D6",
"G. c #CEEDDF",
"H. c #D6E4DB",
"J. c #D9E5DA",
"K. c #D8E9D8",
"L. c #DEDEE2",
"P. c #E7DCE4",
"I. c #DDE7E4",
"U. c #DCF2E3",
"Y. c #D6F1E8",
"T. c #E4E9E1",
"R. c #EFE7EA",
"E. c #E6F6E6",
"W. c #E6F1EB",
"Q. c #EAF4EB",
"!. c #E5F8EC",
"~. c #E8F9EF",
"^. c #EEF6F2",
"/. c #EEFBF3",
"(. c #F5FCF5",
"). c #FBFDF6",
"_. c #F1F7F8",
"`. c #FDF6FA",
"'. c #F6FEFB",
"]. c #FDFDFD",
/* pixels */
").).).].].].].).].].].].].].'.].].].].].].'.'.].].].].].",
"].).).].].].].].].).].].].].].].].].].].'.].].].].].].].",
"].].].].].].].].].].].`.`.].].].].].].].].].].].].].].].",
"].].].].].].].`.].].].].].).].).`.].].`.].].].].].].].].",
"].].].].].].].].].].].].].'.).).).).`.].].].].].].].].].",
"].].].].].].].).Q.C.c.h.k.l.B.!.(.(.).).`.`.].].].].'.].",
"].].].].].]./.B.t.e : V F A G / s.U.(.(.].].].`.].].].'.",
"].].`.].'.!.s.b R I W 1.5.@.Z R Z T v.!.].].`.].].].].'.",
"].].].(.!.a.( 6.&.N | q.0.z ..5.5.E < s./.].`.].`.`._.'.",
"].).].(.k.b Y 2.9.[ x +.#.k | 0.o.z E A C.'.].`.P.L.`.I.",
"`.).).U.,.I H -.8.` k ' J g ..+.z @.w.U p./.].].b.V.L.m.",
"`.].'.j.G 6.P ] #.l a m c s K l [ q.2.Z 7.~.].R.b.S.b.A.",
"`.`.'.=.w >.;.C h j v - $ 5 n a @.&.' C G U.].V.b.M.m._.",
"].].^.=.r E -.-.f > 6 ) y.Q ; B  .J } 2.q D.~.n.d.g.Z.'.",
"`.].N.G 4.o.L C V e u.Q.Q.A.Q b Z <.0.-.h %.7.D 8 ~ p.Y.",
"].W.s.<  .;.-.j = i A.(.).(.f.2 V -.-.x | j X A ,.~ e p.",
"H.*.F X.` x | L : t.'.(.).).K.0 b &.} J 9.{ ; M ! Q t 9 ",
"T V Z q.#.| d , & t.'.].).).E.r.5 $.B ..3.s m ! ! _ _ O ",
"+ >.P ..;.O.P v 6 l.'.'.].(./.j.3 S n L %.s M 5 # 2 $ O ",
". 1.:.P N j n w u U.'.'.(.].(.K.) * - S ( 5 2 2     # o ",
"T r R ( m q - % y._.].].].].].`.H.y.6 * t 4 @ @ 1 @ 4 Q ",
"G.r.y 3 6 7 i i.W.'.].].'.].].].]./.I.l.) ^ p Q 8 1 e.T.",
"'.W.F.z.f.z.J.^.].`.`.].].].].].].].].].^.(.).T.x.x.T.(.",
"].].].].].).`.`.].].].].].].].].].`.].].].).].].).].].].",
"].].].`.`.].].].`.].].].].].].].].].].].].].).].].].].].",
"].].).].).).).].].].].].].).].].].].`.`.].].].].].].].].",
"].].].).).).).'.].'.].].).).(.].].].].].].].].].].'.].].",
"'.].].].).).(.'.'.'.'.).).).(.'.).).].].).].'.].].].].)."
};
