/* XPM */
static char *avatar[] = {
/* columns rows colors chars-per-pixel */
"28 28 180 2 ",
"   c #193A18",
".  c #174F2C",
"X  c #1D5D2F",
"o  c #2A4D2D",
"O  c #2A5532",
"+  c #215F3B",
"@  c #3C553A",
"#  c #375A38",
"$  c #355F3C",
"%  c #356749",
"&  c #3C6648",
"*  c #376A4F",
"=  c #3A6D49",
"-  c #3A7646",
";  c #3D6E50",
":  c #397650",
">  c #377E52",
",  c #3E7B56",
"<  c #535F4F",
"1  c #446B46",
"2  c #4A6248",
"3  c #436A4D",
"4  c #51694F",
"5  c #47764D",
"6  c #446D51",
"7  c #4A6D53",
"8  c #506E58",
"9  c #4B7455",
"0  c #467B55",
"q  c #447659",
"w  c #4D755D",
"e  c #437C5C",
"r  c #4D7C5A",
"t  c #50755D",
"y  c #606D5C",
"u  c #587B65",
"i  c #617D6C",
"p  c #6B7B6A",
"a  c #34874D",
"s  c #3F864F",
"d  c #2E8750",
"f  c #3B8254",
"g  c #378C58",
"h  c #3E8D59",
"j  c #329155",
"k  c #3C995D",
"l  c #3C9861",
"z  c #3FA062",
"x  c #42835A",
"c  c #4B835D",
"v  c #458A5A",
"b  c #4D8A5C",
"n  c #568B5E",
"m  c #49915C",
"M  c #4C8362",
"N  c #458C64",
"B  c #498B62",
"V  c #528563",
"C  c #548E66",
"Z  c #5E8867",
"A  c #5F8569",
"S  c #568D6C",
"D  c #59896B",
"F  c #439563",
"G  c #439C64",
"H  c #4A9B64",
"J  c #4A9C69",
"K  c #509066",
"L  c #54926F",
"P  c #52996C",
"I  c #5D8E72",
"U  c #5D9471",
"Y  c #539B72",
"T  c #5B9D73",
"R  c #688469",
"E  c #69886E",
"W  c #66966D",
"Q  c #678A72",
"!  c #738775",
"~  c #6C9674",
"^  c #639C73",
"/  c #75957C",
"(  c #749F7B",
")  c #48A167",
"_  c #41A368",
"`  c #4AA46D",
"'  c #4AAA6C",
"]  c #54A26B",
"[  c #4FA671",
"{  c #4EAB70",
"}  c #5FA377",
"|  c #51AB72",
" . c #5AA877",
".. c #54AB79",
"X. c #56B578",
"o. c #56B678",
"O. c #5CB57D",
"+. c #5CBB7F",
"@. c #61A077",
"#. c #64AB7D",
"$. c #63B07D",
"%. c #7A9683",
"&. c #7B9C8A",
"*. c #5AB481",
"=. c #5DBC83",
"-. c #64AD81",
";. c #69AF85",
":. c #78A786",
">. c #7FA18F",
",. c #65B284",
"<. c #69B286",
"1. c #66B987",
"2. c #68BA83",
"3. c #6EB18A",
"4. c #64BC89",
"5. c #6CBB8B",
"6. c #72B68A",
"7. c #7CA990",
"8. c #64C184",
"9. c #69C68C",
"0. c #6BC68E",
"q. c #71C194",
"w. c #889585",
"e. c #82A38A",
"r. c #88A692",
"t. c #8CA593",
"y. c #93AB9D",
"u. c #8FB09E",
"i. c #9BAEA4",
"p. c #8FB7A0",
"a. c #94BEA3",
"s. c #9CBFA8",
"d. c #A8ADA8",
"f. c #ACBDAD",
"g. c #AEB3B1",
"h. c #9DC0A9",
"j. c #A5C1AC",
"k. c #A6C6B2",
"l. c #ABC3B4",
"z. c #B7C6B7",
"x. c #BDC5BB",
"c. c #B1C8BA",
"v. c #ADD2BB",
"b. c #BEBFC3",
"n. c #C9BEC5",
"m. c #C4C7CB",
"M. c #CCC4C9",
"N. c #C0D2C7",
"B. c #C6DDCB",
"V. c #D3CBD2",
"C. c #CCDAD3",
"Z. c #D1DFD3",
"A. c #D9D6D9",
"S. c #E0D7DE",
"D. c #C2E8CF",
"F. c #CFE3D6",
"G. c #CEEDDF",
"H. c #D6E4DB",
"J. c #D9E5DA",
"K. c #D8E9D8",
"L. c #DEDEE2",
"P. c #E7DCE4",
"I. c #DDE7E4",
"U. c #DCF2E3",
"Y. c #D6F1E8",
"T. c #E4E9E1",
"R. c #EFE7EA",
"E. c #E6F6E6",
"W. c #E6F1EB",
"Q. c #EAF4EB",
"!. c #E5F8EC",
"~. c #E8F9EF",
"^. c #EEF6F2",
"/. c #EEFBF3",
"(. c #F5FCF5",
"). c #FBFDF6",
"_. c #F1F7F8",
"`. c #FDF6FA",
"'. c #F6FEFB",
"]. c #FDFDFD",
/* pixels */
"].].].].'.'.].'.].].].].].'.].].].].].'.'.].].].).).).).",
"].].].].].].'.].].].].].].].].].].].].].].].].].].).).].",
"].].].].].].].].].].].].].].].].`.].].].].].].].].].].].",
"].].].].].].].].].].].`.).].].].].].].].].].].].].].].].",
"].].].].].].].].].`.].).).(.'.].'.].].].].].].].].].].].",
"'.].].].].].`.].].).(.(.Q.B.l.j.j.c.C.!.'.].].].].].].`.",
"'.].].].].`.].].(.(.U.s.~ A V S M 6 r r.B.(.].].].].].].",
"'.].].].].`.].'.E.v.I M T B O.5.<.T K U r s.!.(.].].].].",
"`._.`.`.].`.'.^.h., Y 5.5...l 9.0.| G $.6.^ a.E.(.].].`.",
"I.`.S.P.].].'.D.V Y l X.9.| j +.o.l ' 8.$.P c k.(.].].`.",
"m.L.V.M.`.]./.p.L 5.*.l o.| d J ) j z 8.$.H K :.U.).].].",
"A.b.A.n.R.].~.7.N 1.q.{ k H f f B d l =.' ) 6.S j.'.`.].",
"_.m.m.M.A.).K.D N J O.O.a m 5 # = f h g G 1.;.q &.'.`.`.",
"'.C.g.d.N.~.D.e 1.[ H ] m - R t.%.; : f ..*.Y e &.^.].].",
"Y.u.Q 8 Z 7.#.g O.4.*.B r R Z.E.^.y.w e N F ..;.A N.].].",
"a.q Q >.V X h [ _ =.$.M 1 f.(.)._.I.i * N *.=.[ , s.W.].",
"9 r R W n - ) 2.G [ ,.c 7 K.(.).).].r.; L ` z l  .S &.F.",
"O ( ( ~ W m v $.| F } 5 :.E.).).).'.t.% > d { =.0.N c I ",
"O $ 1 # 5 n s #.H x C 3 f./.(.].(.'.l.= x J o.=.{ J ;.+ ",
"o O     1 - 5 W C = & / J.).).'.'.'.E.u q v h k J -.3.. ",
"E 4 @ 2 @ @ 9 n & 7 r.H.).].].'.].'._.t.& = 0 b @.U q U ",
"T.w.< y p p ! / l.I./.].].].].`.].].].W.i.i 7 6 3 t e.G.",
"(.T.x.x.T.(.).^.].].].].].].].].].'.`.].^.J.x.f.z.F.W.'.",
"].].].).].).`.`.].].`.`.].].].].].].`.].].`.).].].].].].",
"].].`.].].].].].].].].].].].].].].].].`.].].].`.).].].].",
"].].].].].].].].`.`.].].].).].].].`.].].].(.].).].`.`.].",
"].].(.].].).].].].].].].(.).).).'.].'.'.(.).).).].'.].].",
").'.].].'.].].].].].).'.).).).).].].'.'.'.(.).).).].].`."
};
