/* XPM */
static char *collectible[] = {
/* columns rows colors chars-per-pixel */
"28 28 169 2 ",
"   c #7B1F1C",
".  c #741921",
"X  c #3B6F2D",
"o  c #3A702D",
"O  c #3F683A",
"+  c #406E39",
"@  c #436535",
"#  c #457B33",
"$  c #497B39",
"%  c #4F6F4E",
"&  c #526E47",
"*  c #4B734D",
"=  c #5B7D59",
"-  c #6E7F66",
";  c #8C1C1B",
":  c #A51F1F",
">  c #902419",
",  c #851925",
"<  c #961D27",
"1  c #AC1B29",
"2  c #B41E26",
"3  c #BB1E25",
"4  c #B41C2C",
"5  c #BC1C2A",
"6  c #8B2327",
"7  c #972323",
"8  c #9D2326",
"9  c #A62121",
"0  c #AD2324",
"q  c #AD2329",
"w  c #B32225",
"e  c #BA2123",
"r  c #B72A27",
"t  c #B22429",
"y  c #BC2429",
"u  c #BF292F",
"i  c #BA2833",
"p  c #CB1E24",
"a  c #C61E2B",
"s  c #CC1E2B",
"d  c #C51C21",
"f  c #D61D2F",
"g  c #DC1E28",
"h  c #C01C30",
"j  c #C02527",
"k  c #C92323",
"l  c #C2242C",
"z  c #CC232C",
"x  c #D4222C",
"c  c #DD252D",
"v  c #D8292E",
"b  c #D6292A",
"n  c #C82031",
"m  c #CC2933",
"M  c #C52B39",
"N  c #D52231",
"B  c #DC2632",
"V  c #D42B33",
"C  c #DA2C37",
"Z  c #D33138",
"A  c #E5252D",
"S  c #E8252D",
"D  c #E02B2E",
"F  c #E42430",
"G  c #EE2130",
"H  c #E02A32",
"J  c #EC2937",
"K  c #F32D3B",
"L  c #EB3238",
"P  c #F1323C",
"I  c #9F5B3E",
"U  c #AD4B3C",
"Y  c #BC4733",
"T  c #BB573C",
"R  c #E4513B",
"E  c #D13B43",
"W  c #EB3E44",
"Q  c #F03746",
"!  c #F03949",
"~  c #B46D47",
"^  c #B9694B",
"/  c #AD7148",
"(  c #AD7D49",
")  c #B4704E",
"_  c #BC735B",
"`  c #DD4048",
"'  c #DB4E51",
"]  c #F24A55",
"[  c #E95761",
"{  c #EF5A69",
"}  c #E35A6A",
"|  c #F95C62",
" . c #ED6169",
".. c #F96172",
"X. c #EB7176",
"o. c #F2787A",
"O. c #498034",
"+. c #468038",
"@. c #4E853D",
"#. c #50913C",
"$. c #508D43",
"%. c #529246",
"&. c #5FA852",
"*. c #62A452",
"=. c #63B85D",
"-. c #6E8564",
";. c #658564",
":. c #708767",
">. c #718469",
",. c #72BC64",
"<. c #7BC368",
"1. c #B4814E",
"2. c #B28C58",
"3. c #B5985B",
"4. c #9EA958",
"5. c #80BD5F",
"6. c #97AA67",
"7. c #8DBC63",
"8. c #A6AA61",
"9. c #B7B669",
"0. c #DF9E7D",
"q. c #83C36C",
"w. c #83C870",
"e. c #89CD75",
"r. c #85D874",
"t. c #879D89",
"y. c #939F8E",
"u. c #9AB38D",
"i. c #93A292",
"p. c #A4B399",
"a. c #A7ACA6",
"s. c #AABBBB",
"d. c #B4BCB5",
"f. c #E8848C",
"g. c #F1878D",
"h. c #F5878A",
"j. c #E09B98",
"k. c #F3949A",
"l. c #F9A7AC",
"z. c #EBB7BA",
"x. c #F6B1B6",
"c. c #FBB7B9",
"v. c #F1B9B3",
"b. c #A8D7A3",
"n. c #B5C1B8",
"m. c #BBC8BF",
"M. c #F3C1BB",
"N. c #CCD1C8",
"B. c #DADBD9",
"V. c #F6C7C5",
"C. c #F5CCC7",
"Z. c #F3CFCE",
"A. c #F7D3CC",
"S. c #FADCDC",
"D. c #F1D5DA",
"F. c #E4E6D2",
"G. c #E3F3DB",
"H. c #DDE5E0",
"J. c #FDE7E0",
"K. c #F8EEE6",
"L. c #FCECED",
"P. c #F4F5F4",
"I. c #FCF5F5",
"U. c #F4FAF6",
"Y. c #FBFCF6",
"T. c #F7F5FB",
"R. c #F6FDFC",
"E. c #FDFEFE",
"W. c #FCF5F8",
/* pixels */
"E.E.E.E.E.E.E.E.E.E.W.E.E.E.R.E.W.E.E.E.E.E.E.E.E.E.E.E.",
"E.E.E.E.E.E.E.R.E.E.R.R.R.E.R.E.E.R.E.R.R.E.E.E.E.E.E.E.",
"E.E.E.E.E.E.E.E.E.E.R.E.W.E.E.W.E.E.E.E.E.E.E.E.E.E.E.E.",
"E.E.E.E.E.E.E.E.E.E.E.R.R.E.R.E.R.E.E.E.W.E.E.E.E.E.E.E.",
"E.E.E.E.E.E.E.R.E.E.E.Y.Z.c.c.Z.R.E.E.R.E.E.E.E.E.E.E.E.",
"E.E.E.E.E.E.E.E.W.R.Y.c.{ ! ! ..V.P.E.R.E.E.E.E.E.E.E.E.",
"E.E.E.E.E.E.E.E.E.R.S. .S b k K h.K.E.E.E.E.E.E.E.E.E.E.",
"E.E.E.R.E.E.E.E.E.Y.g.F G m ; b W x.R.E.E.E.E.E.E.E.E.E.",
"E.E.E.E.E.E.E.E.W.C.[ g A B a f L o.S.E.Y.E.E.E.E.E.E.E.",
"R.E.E.W.E.E.E.R.J.X.B N v D S H J P k.I.R.E.E.E.E.E.E.E.",
"E.E.E.E.E.E.E.W.M.` z z f c c A c C  .A.E.E.E.E.E.E.E.E.",
"E.E.E.E.R.R.E.S.} z w ; z A c A z 9 v h.L.E.E.E.E.E.E.E.",
"E.E.E.E.R.W.L.j.u z l q s x z H C y c ] v.W.E.E.E.E.E.E.",
"E.E.E.E.E.W.z.E l l l y z V m C Z A D J | D.W.E.E.E.E.E.",
"E.R.E.R.E.L.' 3 t i u w M M q V Z V v v K k.L.E.E.R.E.E.",
"E.E.W.W.L.f.a 1 < , h l d r   a N n N 7 4 W l.R.E.Y.W.E.",
"E.R.Y.E.F._ e 2 > ; 5 y a l 4 y l e f 9 1 R j.G.E.W.E.E.",
"E.R.E.E.b.q.^ w 1 2 2 0 d a e e y 3 a k T 9.r.b.E.R.R.E.",
"Y.E.R.E.u.#.6.^ w 4 , . 1 a p a 5 7 9 Y 3.<.#.p.E.E.W.R.",
"E.E.E.Y.N.& $ 7.2.U 6   1 3 3 r q > I 6.,.+.& B.E.Y.E.R.",
"E.W.R.E.T.s.@ $.<.7.4.1.~ / ) ~ ( 8.7.=.O.* d.E.E.E.E.Y.",
"E.E.E.E.E.P.a.@ $ $.&.<.e.e.e.w.q.*.$.$ @ n.P.E.E.E.E.E.",
"E.E.E.E.E.E.P.d.t.= + X # # # # X + ;.t.m.P.E.Y.E.E.E.E.",
"E.E.E.E.E.E.E.E.T.B.y.-.:.:.-.>.>.i.H.R.E.E.E.E.E.E.E.E.",
"E.E.E.E.E.E.E.E.E.E.E.P.U.U.U.U.T.T.E.E.E.E.E.E.E.E.E.E.",
"E.W.E.E.E.E.E.E.E.W.E.E.E.E.E.E.E.E.E.E.E.E.E.E.E.E.E.E.",
"E.E.E.E.E.E.E.E.E.E.E.Y.Y.Y.E.Y.E.E.E.R.E.E.E.E.E.E.E.E.",
"E.E.E.E.E.E.E.E.E.E.E.E.E.E.E.E.E.E.E.E.E.E.E.E.E.E.E.E."
};
