/* XPM */
static char *exit[] = {
/* columns rows colors chars-per-pixel */
"28 28 184 2 ",
"   c #121212",
".  c #131313",
"X  c #141414",
"o  c #151515",
"O  c #161616",
"+  c #171717",
"@  c #181818",
"#  c #191919",
"$  c #1A1A1A",
"%  c #1A1A1B",
"&  c #1B1B1B",
"*  c #1C1C1C",
"=  c #1D1D1D",
"-  c #1E1E1E",
";  c #1F1F1F",
":  c #202020",
">  c #212121",
",  c #212122",
"<  c #222222",
"1  c #232323",
"2  c #222324",
"3  c #242424",
"4  c #252525",
"5  c #242526",
"6  c #252526",
"7  c #262626",
"8  c #272727",
"9  c #2F2B27",
"0  c #262728",
"q  c #272728",
"w  c #272829",
"e  c #27282A",
"r  c #282828",
"t  c #282829",
"y  c #292929",
"u  c #29292A",
"i  c #292A2B",
"p  c #2A2A2A",
"a  c #2A2A2B",
"s  c #2B2B2B",
"d  c #28292C",
"f  c #2A2A2C",
"g  c #2B2C2D",
"h  c #2C2C2C",
"j  c #2C2C2D",
"k  c #2D2D2D",
"l  c #2D2D2E",
"z  c #2D2E2E",
"x  c #2E2E2E",
"c  c #2F2F2F",
"v  c #302F2C",
"b  c #37342E",
"n  c #38342E",
"m  c #38352E",
"M  c #39352F",
"N  c #2F2F30",
"B  c #303030",
"V  c #333333",
"C  c #343434",
"Z  c #393731",
"A  c #3A3730",
"S  c #3A3731",
"D  c #3A3732",
"F  c #3B3832",
"G  c #3C3933",
"H  c #433C30",
"J  c #403C33",
"K  c #423D32",
"L  c #54472F",
"P  c #4B4333",
"I  c #4A4234",
"U  c #4C4434",
"Y  c #4B4539",
"T  c #4E473A",
"R  c #504735",
"E  c #574B33",
"W  c #564B37",
"Q  c #5C4E33",
"!  c #534A39",
"~  c #5F5137",
"^  c #605338",
"/  c #605339",
"(  c #625439",
")  c #6A5A3B",
"_  c #6A5B3B",
"`  c #6B5B3B",
"'  c #715E3B",
"]  c #72603C",
"[  c #78653E",
"{  c #7B663E",
"}  c #7B673E",
"|  c #7D683E",
" . c #7D683F",
".. c #555658",
"X. c #786E5B",
"o. c #5F5F61",
"O. c #606060",
"+. c #676868",
"@. c #686869",
"#. c #716F69",
"$. c #737374",
"%. c #816B40",
"&. c #826C40",
"*. c #836D41",
"=. c #856F42",
"-. c #846F44",
";. c #877143",
":. c #8C7445",
">. c #8E7546",
",. c #8E7646",
"<. c #8F7647",
"1. c #907747",
"2. c #927948",
"3. c #937A49",
"4. c #947B49",
"5. c #957B49",
"6. c #957C49",
"7. c #957C4A",
"8. c #967C4A",
"9. c #977D4A",
"0. c #987E4B",
"q. c #997E4B",
"w. c #997F4B",
"e. c #997F4C",
"r. c #927D53",
"t. c #947E54",
"y. c #9C824D",
"u. c #9E834D",
"i. c #9F834E",
"p. c #9F844E",
"a. c #A88B53",
"s. c #A88C53",
"d. c #B09257",
"f. c #B6975A",
"g. c #B1955F",
"h. c #B2965F",
"j. c #BD9D5D",
"k. c #878175",
"l. c #888175",
"z. c #898275",
"x. c #8E8576",
"c. c #9E9176",
"v. c #BE9F62",
"b. c #C7A562",
"n. c #CFAB66",
"m. c #D0AE6B",
"M. c #D7B26A",
"N. c #D7B36A",
"B. c #D4B26D",
"V. c #D7B46E",
"C. c #D8B36A",
"Z. c #D9B46B",
"A. c #DBB56C",
"S. c #DEB86E",
"D. c #D9B673",
"F. c #DABA7B",
"G. c #E0B96E",
"H. c #E1BA6F",
"J. c #E2BB6F",
"K. c #EDC475",
"L. c #EFC677",
"P. c #EFC777",
"I. c #EAC67D",
"U. c #EFC878",
"Y. c #F0C777",
"T. c #F2C877",
"R. c #F0C878",
"E. c #F4CC7C",
"W. c #FCD17C",
"Q. c #FDD17C",
"!. c #FCD17D",
"~. c #FCD27C",
"^. c #FDD27C",
"/. c #FCD27D",
"(. c #FDD37D",
"). c #FED37D",
"_. c #FFD37D",
"`. c #FED47D",
"'. c #FFD47D",
"]. c #FFD47E",
"[. c #FED57E",
"{. c #FFD57E",
"}. c #FFD77F",
"|. c #FFD87F",
/* pixels */
"O @ @ % - * - - * = * % ; - * = & # @ + @ + O O X X O + ",
"+ + + & - - < 1 < 3 < ; < < : > : & # @ O + + O X   . o ",
"@ % # = < < 4 7 r p y r r 8 3 < : * # @ + O O O o X . X ",
"& : - : 4 r h k s i e d l x h 4 < = & % # + O o o O X X ",
"= : ; 1 8 a l C ..X.h.g.T g k r 4 > - & $ @ + X X o o X ",
"* - - < r k V o.x.I.|.}.B.Y k r 4 < ; = % $ @ O o o O O ",
"& = - 1 y c O.$.c.]._._.[.V.D r 4 > : - # # @ + o o X o ",
"= - : 4 p c @.k.E._._._._.R.G r 7 : ; - $ # @ @ O X X X ",
"* ; > 1 y c +.z.!._._._._.Y.G r 8 1 > > * @ + + O O o X ",
"- < 3 4 p c +.z.!._._._._.Y.F r 8 1 > : ; % # @ + + o X ",
"= > 1 4 h B +.z.!._._._._.Y.S r 8 1 > ; - # % @ + + @ X ",
"- > < 4 h B +.z.!._._._._.P.M r 8 3 1 > : % # + o O + o ",
"> 1 3 8 k B +.z.!._._._._.L.n r 8 3 3 < : - * $ O O O o ",
"> < 3 8 a c +.z.!._._._._.L.m q 4 < 1 ; ; = % $ O o o o ",
": : 1 7 p c +.z.!._._._._.P.S u 7 4 1 : ; - % % + o O O ",
"1 3 r u s c +.z.!._._._._.Y.S 8 4 4 1 : > ; & $ O o O + ",
"1 3 r u s c +.z.!._._._._.Y.S 8 4 4 1 : > - $ # + O @ @ ",
"2 5 t s k c +.z.!._._._._.P.M 7 4 3 1 < > ; * % @ + @ @ ",
"E ~ U g z N +.l.!._._._._.L.b 4 3 1 3 3 1 > = & @ + @ + ",
",.&.[ ) ` J #.F.^.W._._._.L.n 8 7 3 7 4 < - % * % @ $ @ ",
"0.4.5.6.5.-.D.}.m.t.}._._.P.S a u 8 r 3 > = & % @ + # @ ",
"0.0.8.p.a.J.'.`.v.r.}._._.U.Z a p y y 7 4 > : ; @ O @ @ ",
"5.y.d.M._.).(.M.f.Q._._.).S.! K A g f r 8 1 < < & + O O ",
"j.n.'._._.).H.b.^._._._.(.s.7.;._ I P v w 0 7 4 - @ + + ",
"{.{._._._.K.A./._._._.{.N.p.0.7.:.>.=.^ W R j i 6 = @ @ ",
"_._._._._.T.~._._._.{.Z.i.9.0.0.w.e.2.1.*.} / ( H , = % ",
"_._._._._.'._._._.].C.i.9.0.0.0.0.0.q.q.3.<.%.%.' Q L 9 ",
"_._._._._._._._.{.G.u.9.0.0.0.0.0.0.0.0.q.0.4.:. .| { ] "
};
