/* XPM */
static char *npxfess[] = {
/* columns rows colors chars-per-pixel */
"28 28 44 1 ",
"  c #181818",
". c #191919",
"X c #1B1B1B",
"o c #1A1B1E",
"O c #1B1C1E",
"+ c #1C1C1C",
"@ c #1D1D1D",
"# c #1D1D1E",
"$ c #1E1E1E",
"% c #2B281D",
"& c #2D2A1D",
"* c #2E2B1D",
"= c #2F2C1D",
"- c #302D1D",
"; c #212121",
": c #282828",
"> c #2E2E2E",
", c #353535",
"< c #4C441B",
"1 c #6F6119",
"2 c #4B4B4B",
"3 c #5E5E5E",
"4 c #7A7A7A",
"5 c #7F7F7F",
"6 c #A89014",
"7 c #AA9214",
"8 c #C1A513",
"9 c #DCBC11",
"0 c #F5D00F",
"q c #F6D10F",
"w c #E8C610",
"e c #8C8C8C",
"r c #9A9A9A",
"t c #9B9B9B",
"y c #A2A2A2",
"u c #C2C2C2",
"i c #D1D1D1",
"p c #E1E1E1",
"a c #ECECEC",
"s c #EEEEEE",
"d c #F9F9F9",
"f c #FBFBFB",
"g c #FEFEFE",
"h c #FFFFFF",
/* pixels */
"hhhhhhhhhhhhhhhhhhhhhhhhhhhh",
"hhhhhhhhhhhhgggghhhhhhhhhhhh",
"hhhhhhhhhdpuyttyupdhhhhhhhhh",
"hhhhhhhfie3,+  +,3eifhhhhhhh",
"hhhhhhsr2;.+$$$$+.;2rshhhhhh",
"hhhhha5>X@$$$$$$$$@X>5ahhhhh",
"hhhhs4:@$#$$$$$$$$#$@:4shhhh",
"hhhfr>@%<*O$$$$$$O*<%@>rfhhh",
"hhhi2X$<97=o$$$$o=79<$X2ihhh",
"hhfe;@#*706-o$$o-607*#@;efhh",
"hhp3.$$O=6q6=OO=6q6=O$$.3phh",
"hhu,+$$$o-607&&706-o$$$+,uhh",
"hhy+$$$$$o=7w11w7=o$$$$$+yhh",
"hgt $$$$$$O&1881&O$$$$$$ tgh",
"hgt $$$$$$O&1881&O$$$$$$ tgh",
"hhy+$$$$$o=7w11w7=o$$$$$+yhh",
"hhu,+$$$o-607&&706-o$$$+,uhh",
"hhp3.$$O=6q6=OO=6q6=O$$.3phh",
"hhfe;@#*706-o$$o-607*#@;efhh",
"hhhi2X$<97=o$$$$o=79<$X2ihhh",
"hhhfr>@%<*O$$$$$$O*<%@>rfhhh",
"hhhhs5:@$#$$$$$$$$#$@:5shhhh",
"hhhhha4>X@$$$$$$$$@X>4ahhhhh",
"hhhhhhsr2;.+$$$$+.;2rshhhhhh",
"hhhhhhhfie3,+  +,3eifhhhhhhh",
"hhhhhhhhhdpuyttyupdhhhhhhhhh",
"hhhhhhhhhhhhgggghhhhhhhhhhhh",
"hhhhhhhhhhhhhhhhhhhhhhhhhhhh"
};
