/* XPM */
static char *test[] = {
/* columns rows colors chars-per-pixel */
"28 28 34 1 ",
"  c #56504F",
". c #534E54",
"X c #565156",
"o c #5A565C",
"O c #5D5A5E",
"+ c #63615E",
"@ c #5F5B61",
"# c #625D63",
"$ c #635F68",
"% c #656265",
"& c #696567",
"* c #666369",
"= c #6A656B",
"- c #67686A",
"; c #6C6A6D",
": c #70676F",
"> c #716D6F",
", c #74706F",
"< c #6C6770",
"1 c #6E6B72",
"2 c #726E73",
"3 c #726E78",
"4 c #747275",
"5 c #787676",
"6 c #797877",
"7 c #757379",
"8 c #79767A",
"9 c #77797D",
"0 c #7B797C",
"q c #7B7780",
"w c #7D7B82",
"e c #807E88",
"r c #818083",
"t c #818288",
/* pixels */
"qqt0wwwwwwrwew71twrw9wwr99qq",
"420051299572961-755146507170",
"oo&&#o@--@o@*-oX&%Oo#=-%@o%&",
"=-2=<==<1-111*-*3;<=*;;=<=1@",
"0043577550964=4777845622997@",
"4;&-41;;-2;;&%>>==12::&*1--o",
"=*@@==%#@**#O#;-##*=+##$-@oo",
"7=<141111331<23322422>243=<1",
"7179048909440q88q08478005470",
"1&442;374>>>44>:424:244;;&>7",
";$<=;*=4;&;;2:&$>==*=4>*&=22",
"3>==3443114347::2<2333==4437",
"34>27773347778,,278974317774",
"&%oo&;=@o&2=##&*oO<1-#o#,-%@",
"45000q0856q70872q96944686756",
"3;056246664776>*w67;199q4179",
"oO&&$O#=&%O@==o.;*#oO*=+@@$<",
"2=3<2==332>;2*>:3=22=2;=111@",
"6674668856777*400248502;887@",
"43&>2,,>:22>*&3>>&22,;&=71-o",
"4$#*22&#$:2%#*3*#$22=&$*2##@",
"8<2467234471230>:3q7=3444-14",
"838w848q000480058w0320e6047r",
">&442:242>2:4,2=444&>45>;->4",
"&$:==*=>:&=*2=&%<*<--;;%=*2=",
":>:&2333;;2:>4>*=*<32;-%411;",
"42>677323647554213377,114455",
"$+  &&%o.#;-OO++o.*-&o.@1%OO"
};
