/* XPM */
static char *wall[] = {
/* columns rows colors chars-per-pixel */
"28 28 59 1 ",
"  c #45424F",
". c #4C464C",
"X c #4D494E",
"o c #50474C",
"O c #534D4B",
"+ c #4C4551",
"@ c #4D4A53",
"# c #534C54",
"$ c #584F54",
"% c #554D5A",
"& c #545255",
"* c #595455",
"= c #575956",
"- c #56515A",
"; c #5B555B",
": c #5C5B5C",
"> c #615D5D",
", c #5E655F",
"< c #62635F",
"1 c #5A5661",
"2 c #5E5B63",
"3 c #625D63",
"4 c #625E69",
"5 c #685E6D",
"6 c #646364",
"7 c #696367",
"8 c #6D6967",
"9 c #65626A",
"0 c #6A656B",
"q c #67696B",
"w c #6C6A6D",
"e c #706C6E",
"r c #74736E",
"t c #79736E",
"y c #6B6671",
"u c #6D6A72",
"i c #6E6B79",
"p c #726D73",
"a c #726F79",
"s c #6F7070",
"d c #757374",
"f c #787575",
"g c #797975",
"h c #76747A",
"j c #79767B",
"k c #77787C",
"l c #7C7A7C",
"z c #807E7E",
"x c #757580",
"c c #7B7682",
"v c #7D7C82",
"b c #7E7B88",
"n c #817E84",
"m c #807F8B",
"M c #7F8085",
"N c #828083",
"B c #83818A",
"V c #898A8F",
"C c #848490",
/* pixels */
"vkVvvMvbMnvbBvxuVlNvxBvNnamn",
"dwlgg8hkdgdhjgd:lggwdkggg0dg",
":;e73&2u86:208:Xp63;:y062-00",
"92y49920w492u491p4932002q2y1",
"vljdlcljjlllh0lvjhnlzfdhvvg2",
"dfwwfdgr8hdr80rgepgpgt0ydds2",
"6-@.22##@11& #6-#+34#$@%2&@ ",
"chjvcvxMjvvjvvvccnjchvklvskx",
"d0dkhpdfhlphfjgpcjfdigfld8pj",
"p3gdd9agdp8egpe5ghd7ygfpe6dd",
"03q4000a8287pe73y606wpw3p3ay",
"ppuydhahuahapatppuaahhy0hpdd",
"jdpphhhhalhkjdhpehnjdhudjhhf",
"6<*#08,:O2u6>;76&#5w,:#=d6::",
"caBlvmcnglvkNljyVklvivllvivl",
"d0lglwjjggdakgd3Nlgeycgldidg",
";&p36;3e77>>ww3.a76;;p062;0w",
"04a9094ey556p302a4504w82w6u2",
"Nllhzlzzzzzzj4vzldllzzhpvvc2",
"dderdtfpyjddw9dgeeddddwykfu2",
"y3%%00;$#30*#-u>$%5u*>#39*&@",
"njcnnnannnnpnnnjjnmn0mnzNynn",
"dwkjgpjjdjddahhehjhpwjdfgyuk",
"t5jfpwpgdd8pfdd7hhd80jfpe9dg",
"5>53095w0306w07303006u62w2w0",
"eeeeuaapypdyadewe0uaudu9asdp",
"jppjjkdpdvhfdhfddajhfdadhgdh",
"6>Oo90<>.28q==6,@.90<;.1w<:="
};
