/* XPM */
static char *avatar_right[] = {
/* columns rows colors chars-per-pixel */
"23 23 154 2 ",
"   c #274E2C",
".  c #2C4C2A",
"X  c #2A512D",
"o  c #3D5A3C",
"O  c #376039",
"+  c #2C6A46",
"@  c #3B6444",
"#  c #357344",
"$  c #35744D",
"%  c #3D724F",
"&  c #3C7C4E",
"*  c #3C7251",
"=  c #3E7D53",
"-  c #3F7F5C",
";  c #476C4D",
":  c #43724F",
">  c #476B54",
",  c #486F53",
"<  c #466C58",
"1  c #546350",
"2  c #5E6F5C",
"3  c #437354",
"4  c #487354",
"5  c #477D56",
"6  c #487E52",
"7  c #4C765A",
"8  c #4A7C5B",
"9  c #5F735F",
"0  c #517C5B",
"q  c #577A61",
"w  c #5B7C64",
"e  c #5B7F6A",
"r  c #687764",
"t  c #33854F",
"y  c #3C8A4E",
"u  c #378654",
"i  c #358954",
"p  c #349355",
"a  c #3F9562",
"s  c #3C9A60",
"d  c #408356",
"f  c #498555",
"g  c #44855D",
"h  c #458D5A",
"j  c #508256",
"k  c #538E5C",
"l  c #43945F",
"z  c #49925B",
"x  c #409A5A",
"c  c #4A8661",
"v  c #4D8A64",
"b  c #598067",
"n  c #528966",
"m  c #598A63",
"M  c #5F8B6D",
"N  c #449362",
"B  c #429A60",
"V  c #49936A",
"C  c #4B9D6A",
"Z  c #56916F",
"A  c #529B6D",
"S  c #5A9371",
"D  c #5B9C73",
"F  c #61846E",
"G  c #619166",
"H  c #618B72",
"J  c #6F8F76",
"K  c #659377",
"L  c #6A9471",
"P  c #6E9578",
"I  c #699B78",
"U  c #729075",
"Y  c #709A73",
"T  c #41A165",
"R  c #45A269",
"E  c #4BA46C",
"W  c #4CAB6D",
"Q  c #57A76F",
"!  c #4EA172",
"~  c #5DA172",
"^  c #53AD73",
"/  c #5BA679",
"(  c #4EB072",
")  c #53B376",
"_  c #5BB17D",
"`  c #5BBA7D",
"'  c #61A77D",
"]  c #64B87F",
"[  c #6F9E84",
"{  c #7B9582",
"}  c #5FB683",
"|  c #5BB882",
" . c #65AE84",
".. c #6BAE84",
"X. c #76A584",
"o. c #62B383",
"O. c #63BB85",
"+. c #6CBE88",
"@. c #7DB692",
"#. c #60C184",
"$. c #67C189",
"%. c #6BC28C",
"&. c #819286",
"*. c #839888",
"=. c #87AE93",
"-. c #91AE9C",
";. c #96B69F",
":. c #9AB7A7",
">. c #95BDA3",
",. c #96BEA8",
"<. c #A3B6AD",
"1. c #B2BFB1",
"2. c #A7C2AC",
"3. c #A3C3B2",
"4. c #A9C2B4",
"5. c #AACEBD",
"6. c #B2C6B7",
"7. c #B5C6BE",
"8. c #BBC3B9",
"9. c #BBCABA",
"0. c #C5BAC2",
"q. c #B4D4C0",
"w. c #B9DAC3",
"e. c #BFD3C9",
"r. c #C0C1C5",
"t. c #C8C3C5",
"y. c #CFC5CC",
"u. c #CCCBCF",
"i. c #C9D6C9",
"p. c #C4DACC",
"a. c #CBCED1",
"s. c #D0D4D7",
"d. c #D7DCD4",
"f. c #CCE3D1",
"g. c #D3E4D8",
"h. c #D9E5DD",
"j. c #D0E8D9",
"k. c #DAEBDB",
"l. c #E9DFE7",
"z. c #DCE9E2",
"x. c #E5E2E7",
"c. c #E3F1E9",
"v. c #ECF4EE",
"b. c #EAF8EF",
"n. c #F0FCEF",
"m. c #EFF4F5",
"M. c #EFFCF3",
"N. c #F2F4F4",
"B. c #F9F0F6",
"V. c #F4FCF4",
"C. c #FCFDF6",
"Z. c #FEF7FC",
"A. c #F6FDFA",
"S. c #FDFDFD",
/* pixels */
"C.C.C.S.S.S.S.A.S.S.S.S.A.S.S.S.A.A.A.S.S.S.S.",
"S.S.S.S.S.S.S.S.S.S.S.S.S.S.S.S.S.S.S.S.S.S.S.",
"S.S.S.S.S.S.S.S.S.S.S.S.S.Z.S.S.S.S.S.S.S.S.S.",
"S.S.S.S.S.S.S.S.S.S.S.A.C.C.S.S.Z.S.S.S.S.S.S.",
"S.S.S.S.S.S.V.g.5.1.4.q.k.n.C.S.S.S.Z.S.S.S.A.",
"S.S.S.S.A.g.;.F 3 Z S n F =.p.V.A.S.S.S.S.S.A.",
"Z.S.S.V.f.X.D A A %.O.C / D Z >.b.A.Z.S.S.S.A.",
"S.S.A.j.I ~ +.^ R #.) s $.O.N v 3.A.S.Z.l.B.m.",
"S.S.M.,.v C O.( p E B B ` T _  .[ c.S.B.0.x.a.",
"Z.S.g.H ..C ) C t h & h x W %./ S j.S.l.y.u.s.",
"Z.S.e.3 ' O.a u = : ; 6 y ^ ( C c q.S.t.u.r.m.",
"S.Z.:.Z A E V - e 6.9.U 6 V ^ } C @.w.*.&.<.c.",
"Z.c.K A } ! g < 7.V.S.i.q c o.| T z # m P b ,.",
"p.P D E R E c e b.C.C.n.J 8  .R ^ Q # m L 0 8 ",
"n c _ #.( i $ M b.A.C.V.2.4 D l ] z k G Y L @ ",
"+  .C ) E V * -.V.C.C.C.f.q 5 h ' f j O X X   ",
"* D ' z d % > p.A.S.S.S.V.6.q @ c 7 o o . o > ",
"5.H 7 4 , w <.N.A.S.A.S.S.A.z.1.{ r 9 2 1 r 9.",
"A.z.e.1.8.h.A.Z.Z.S.S.S.S.S.S.S.A.v.v.d.1.d.C.",
"S.S.Z.S.S.S.Z.S.S.S.S.S.S.Z.S.S.S.S.S.S.S.S.S.",
"S.Z.S.C.S.S.S.S.S.S.S.S.S.S.S.S.S.S.S.S.Z.S.S.",
"S.S.S.C.C.B.A.A.A.S.C.C.S.S.S.S.S.S.S.S.S.S.S.",
"Z.A.S.C.S.A.A.A.A.C.C.C.C.C.S.S.S.S.S.A.A.C.S."
};
