/* XPM */
static char *collectible[] = {
/* columns rows colors chars-per-pixel */
"23 23 142 2 ",
"   c #731520",
".  c #3E7232",
"X  c #447637",
"o  c #487F36",
"O  c #437A3E",
"+  c #4A7544",
"@  c #881C1B",
"#  c #901D1D",
"$  c #8D182A",
"%  c #911C28",
"&  c #AB1F27",
"*  c #AB1B2B",
"=  c #B31B25",
"-  c #BB1F25",
";  c #B21A28",
":  c #BA1E2F",
">  c #962321",
",  c #992125",
"<  c #AC2124",
"1  c #B32226",
"2  c #BA2125",
"3  c #BF2922",
"4  c #B3222B",
"5  c #BC232A",
"6  c #B42D30",
"7  c #BE2930",
"8  c #C41E29",
"9  c #CB1F2E",
"0  c #C71C23",
"q  c #C22026",
"w  c #C5222B",
"e  c #CC252B",
"r  c #C1292E",
"t  c #D0242E",
"y  c #DC242E",
"u  c #DC292D",
"i  c #CB2833",
"p  c #CF2D39",
"a  c #D62432",
"s  c #DD2530",
"d  c #D02935",
"f  c #DD2B31",
"g  c #DA2E39",
"h  c #D23238",
"j  c #E1242D",
"k  c #E0282A",
"l  c #EA222C",
"z  c #E32531",
"x  c #EA2934",
"c  c #E43038",
"v  c #EB383D",
"b  c #F3303B",
"n  c #A24E38",
"m  c #AA4534",
"M  c #B44536",
"N  c #B64937",
"B  c #B05538",
"V  c #C34332",
"C  c #D94337",
"Z  c #DF3E4A",
"A  c #9D7243",
"S  c #B96247",
"D  c #B06F48",
"F  c #CB5257",
"G  c #E8494D",
"H  c #F1404D",
"J  c #E44551",
"K  c #EB525D",
"L  c #F2555C",
"P  c #EF5462",
"I  c #F75868",
"U  c #DC6C6F",
"Y  c #C17B66",
"T  c #F46D74",
"R  c #E97175",
"E  c #F27377",
"W  c #4A8137",
"Q  c #488038",
"!  c #52813E",
"~  c #548249",
"^  c #559449",
"/  c #599A49",
"(  c #6BAF55",
")  c #6FAB58",
"_  c #73A953",
"`  c #64B45C",
"'  c #7DB35E",
"]  c #738F72",
"[  c #7A8C75",
"{  c #7B977C",
"}  c #7ECC6D",
"|  c #849F5A",
" . c #AA9359",
".. c #9DA45C",
"X. c #91AC64",
"o. c #80B865",
"O. c #89BA65",
"+. c #8DBA68",
"@. c #92BB6C",
"#. c #94BF70",
"$. c #B3AA63",
"%. c #879984",
"&. c #869A8D",
"*. c #8A9E8D",
"=. c #97A591",
"-. c #99A796",
";. c #97A991",
":. c #A5B4A6",
">. c #A8B8AB",
",. c #F08B8F",
"<. c #F29391",
"1. c #E0A485",
"2. c #F39CA3",
"3. c #F0A3AC",
"4. c #F6ADB0",
"5. c #F5B9B6",
"6. c #FAB5B8",
"7. c #BCC5BA",
"8. c #C6D0BC",
"9. c #C2DEBC",
"0. c #C3E1BC",
"q. c #FABFC3",
"w. c #CED3C9",
"e. c #F7C5C4",
"r. c #FCCECD",
"t. c #F4D0CF",
"y. c #F6D6D0",
"u. c #F6D9D7",
"i. c #F9D2D4",
"p. c #E5E7E6",
"a. c #ECEFE1",
"s. c #E7EBEA",
"d. c #EDEEEE",
"f. c #F8E4E2",
"g. c #EAF7E7",
"h. c #FBF0EC",
"j. c #F3F3F3",
"k. c #FCF4F5",
"l. c #F6FBF6",
"z. c #FAFAF6",
"x. c #F7FEFC",
"c. c #FDFEFE",
/* pixels */
"c.c.c.c.c.c.c.c.c.c.c.x.c.c.c.l.c.c.c.c.c.c.c.",
"c.c.c.c.c.c.c.c.x.x.c.c.c.c.x.c.x.c.c.c.c.c.c.",
"c.c.c.c.c.c.k.c.c.c.c.c.c.c.c.c.c.c.c.c.c.c.c.",
"c.c.c.c.c.c.c.c.c.k.u.t.i.j.c.c.c.c.c.c.c.c.c.",
"c.c.c.c.c.c.c.c.z.6.P H I e.l.c.c.c.c.c.c.c.c.",
"c.c.c.c.c.c.c.c.y.K l 3 s T f.c.c.c.c.c.c.c.c.",
"c.c.c.c.c.c.c.z.,.j z 4 - v 4.x.c.c.c.c.c.c.c.",
"c.c.c.c.c.c.c.5.Z y z j s x L i.c.c.c.c.c.c.c.",
"c.c.c.c.c.c.h.R e 9 t k j z c <.k.c.c.c.c.c.c.",
"c.c.c.x.c.c.3.p 2 % y y j t & G e.c.c.c.c.c.c.",
"c.c.c.x.c.t.F q e 5 t t a g e x E f.c.c.c.c.c.",
"c.c.c.c.h.U q 7 r 2 i i d h u k b 2.k.c.c.c.c.",
"c.c.k.k.3.i * $ 5 5 w > 4 a d e < J q.c.x.z.c.",
"c.z.c.a.Y 4 & @ = q 8 4 5 w q 8 , C 1.g.c.c.c.",
"x.x.c.9.' S 1 = & < 8 q 2 w - 0 V $.} 9.c.c.c.",
"c.c.c.8.! | D 6 $   ; 8 8 ; @ m  ._ ~ w.c.k.c.",
"c.c.c.d.&.X ' ..A n M M N B A X.` O *.k.c.c.c.",
"z.c.c.c.s.[ X / ( O.@.@.@.@.) ^ X %.s.c.c.c.c.",
"c.c.c.c.c.p.:.] O . Q W o . + { :.s.c.c.c.c.x.",
"c.c.c.c.c.c.c.d.7.=.;.;.=.-.7.j.c.c.c.c.c.c.c.",
"c.c.c.c.c.c.c.c.c.c.c.c.c.c.c.c.c.c.c.c.c.c.c.",
"c.c.c.c.c.c.c.c.c.c.z.c.c.c.c.c.c.c.c.c.c.c.c.",
"c.c.c.c.c.c.c.c.c.c.c.z.c.c.c.c.c.c.c.c.c.c.c."
};
