/* XPM */
static char *exit[] = {
/* columns rows colors chars-per-pixel */
"23 23 161 2 ",
"   c #121212",
".  c #131313",
"X  c #141414",
"o  c #151515",
"O  c #161616",
"+  c #171717",
"@  c #181818",
"#  c #181919",
"$  c #191919",
"%  c #1A1A1A",
"&  c #1A1A1B",
"*  c #1B1B1B",
"=  c #1C1C1C",
"-  c #1D1D1D",
";  c #1E1E1E",
":  c #1F1F1F",
">  c #202020",
",  c #212121",
"<  c #222222",
"1  c #232323",
"2  c #212224",
"3  c #212325",
"4  c #232426",
"5  c #242424",
"6  c #242425",
"7  c #252525",
"8  c #262625",
"9  c #242527",
"0  c #262626",
"q  c #272727",
"w  c #282726",
"e  c #2A2823",
"r  c #242528",
"t  c #252628",
"y  c #242629",
"u  c #262729",
"i  c #27282A",
"p  c #282828",
"a  c #292929",
"s  c #292A2A",
"d  c #2A2A2A",
"f  c #2B2B2B",
"g  c #2C2B29",
"h  c #2D2C2B",
"j  c #2B2C2C",
"k  c #2C2C2C",
"l  c #2C2C2D",
"z  c #2D2D2D",
"x  c #2F2E2C",
"c  c #2D2D2E",
"v  c #313131",
"b  c #323232",
"n  c #333333",
"m  c #373531",
"M  c #363534",
"N  c #3B3730",
"B  c #383632",
"V  c #3E3A31",
"C  c #3C3C3D",
"Z  c #3D3D3D",
"A  c #40392A",
"S  c #413C32",
"D  c #474033",
"F  c #484133",
"G  c #514631",
"H  c #524834",
"J  c #5E5138",
"K  c #695939",
"L  c #6A5B3B",
"P  c #6F5E3B",
"I  c #6B5C3F",
"U  c #705E3B",
"Y  c #73613D",
"T  c #74623D",
"R  c #79643C",
"E  c #7A663E",
"W  c #7C673E",
"Q  c #7D683F",
"!  c #53504B",
"~  c #7F6E4D",
"^  c #666767",
"/  c #686869",
"(  c #68696B",
")  c #68696C",
"_  c #686A6C",
"`  c #696A6C",
"'  c #6F6E6C",
"]  c #856E42",
"[  c #856F42",
"{  c #897244",
"}  c #8B7345",
"|  c #8F7747",
" . c #81704E",
".. c #87734E",
"X. c #907848",
"o. c #927948",
"O. c #947B49",
"+. c #957B49",
"@. c #957C49",
"#. c #957C4A",
"$. c #967D4A",
"%. c #977D4A",
"&. c #977D4B",
"*. c #987E4B",
"=. c #997F4C",
"-. c #8C7851",
";. c #937D52",
":. c #947E53",
">. c #947F54",
",. c #957F54",
"<. c #978052",
"1. c #968055",
"2. c #968156",
"3. c #A38750",
"4. c #A98C53",
"5. c #AD8F55",
"6. c #A68D5B",
"7. c #AF9156",
"8. c #8A8376",
"9. c #BDA372",
"0. c #BCA579",
"q. c #BDA679",
"w. c #C3A260",
"e. c #C5A361",
"r. c #C4A466",
"t. c #CDAA65",
"y. c #D3AF68",
"u. c #D6B169",
"i. c #C4AB7A",
"p. c #CCB07A",
"a. c #E3BC70",
"s. c #E4BD70",
"d. c #E9C173",
"f. c #ECC374",
"g. c #EDC474",
"h. c #EEC575",
"j. c #EFC776",
"k. c #EAC57C",
"l. c #F2C977",
"z. c #F2C978",
"x. c #F4CB79",
"c. c #F6CB78",
"v. c #F6CB79",
"b. c #F6CD79",
"n. c #F9CF7B",
"m. c #FACF7A",
"M. c #FBD07B",
"N. c #FCD17D",
"B. c #FDD37D",
"V. c #FED27D",
"C. c #FFD37D",
"Z. c #FDD47D",
"A. c #FFD47D",
"S. c #FFD57D",
"D. c #FFD67D",
"F. c #FFD47E",
"G. c #FED57E",
"H. c #FFD57E",
"J. c #FFD77E",
"K. c #FFD77F",
"L. c #FFD87F",
/* pixels */
"+ @ # - - : ; - - = > ; ; = $ @ + + O o . X O ",
"+ @ $ : : 1 1 7 7 < 5 < , > * $ + O + O X   X ",
"* - - 1 7 a a a u i k f 7 > = % # + O o o X X ",
"; > > 0 d z C !  .~ B c a 7 > - * # + X X o X ",
"- ; > 0 k Z / i.H.Z.6.m a 7 , ; * % @ o o O O ",
"= ; , p v ^ 8.k.A.A.G.-.t 7 , : = $ @ + o X X ",
"- : < p b ` q.S.C.C.K.2.r 0 , > - # @ + o X X ",
"; < 1 p b ) q.S.C.C.K.1.9 q 1 , > * @ + + O X ",
"; < 5 d n ( q.S.C.C.K.,.9 q < > : * % + + + o ",
": , 1 d n ( q.S.C.C.K.:.4 q 1 1 > = % + O + O ",
", 1 8 f n ( q.S.C.C.K.;.4 0 1 1 > ; = # O O o ",
"> , 5 a b _ q.S.C.C.K.:.9 0 1 < : ; * $ O o O ",
"< 5 q d b _ q.S.C.C.K.,.9 0 7 < > > = $ o o + ",
"1 0 a f b _ q.S.C.C.K.,.4 7 7 < > : % $ + + @ ",
"w g d j b ( 0.D.C.C.K.:.3 7 5 1 < > - % @ @ @ ",
"U P F V M ' p.J.C.C.K.;.2 7 1 7 1 > = * @ @ @ ",
"O.} { { I 9.N.r.n.C.K.:.9 p 0 q < ; * * @ $ $ ",
"*.&.*.3.t.B.z...x.C.L.>.y s a p 7 , : = + + @ ",
"#.4.e.c.B.b.w.a.C.C.m.<.D V l s p 5 < > $ O + ",
"y.f.F.C.M.u.d.F.C.H.s.=.| T J H x h p 6 = + + ",
"H.F.C.C.g.l.F.C.F.j.5.*.*.+.@.] Y L S N 8 & # ",
"C.C.C.C.V.C.C.F.h.7.%.*.*.*.*.*.o.{ Q E G A e ",
"C.C.C.C.C.C.A.v.7.$.*.*.*.*.*.*.*.*.X.[ W R K "
};
