/* XPM */
static char *npxfess[] = {
/* columns rows colors chars-per-pixel */
"23 23 39 1 ",
"  c #1B1B1B",
". c #1C1C1C",
"X c #1D1D1D",
"o c #1F1E1D",
"O c #1F1F1D",
"+ c #1C1D1E",
"@ c #1D1D1E",
"# c #1E1E1E",
"$ c #21201E",
"% c #23221E",
"& c #202020",
"* c #212121",
"= c #262626",
"- c #635719",
"; c #7A6A18",
": c #7E6D18",
"> c #424242",
", c #444444",
"< c #464646",
"1 c #6B6B6B",
"2 c #6F6F6F",
"3 c #706F6F",
"4 c #737373",
"5 c #887617",
"6 c #8A7816",
"7 c #8D7A16",
"8 c #BBA013",
"9 c #D9B911",
"0 c #E9C710",
"q c #999999",
"w c #A5A5A5",
"e c #DCDCDC",
"r c #E7E7E7",
"t c #E9E9E9",
"y c #EDEDED",
"u c #EFEFEF",
"i c #FBFBFB",
"p c #FEFEFE",
"a c #FFFFFF",
/* pixels */
"aaaaaaaaaaaaaaaaaaaaaaa",
"aaaaaaaapiuyuipaaaaaaaa",
"aaaaaaiew1<,<1weiaaaaaa",
"aaaaatq>*X   X*>qtaaaaa",
"aaaar4=.#######.=4raaaa",
"aaat2&O+#######+O&2taaa",
"aaiq=o-;%@###@%;-o=qiaa",
"aae>.+;06%+#+%60;+.>eaa",
"aaw*##%607%@%706%##*waa",
"ai1X##@%705$507%@##X1ia",
"au< ###+%58:85%+### <ua",
"ay, ####@$:9:$@#### ,ya",
"au< ###+%58:85%+### <ua",
"ai1X##@%705$507%@##X1ia",
"aaw*##%607%@%706%##*waa",
"aae>.+;06%+#+%60;+.>eaa",
"aaiq=O-;%@###@%;-O=qiaa",
"aaat4&o+#######+o&4taaa",
"aaaar3=.#######.=3raaaa",
"aaaaatq>*X   X*>qtaaaaa",
"aaaaaaiew1<,<1weiaaaaaa",
"aaaaaaaapiuyuipaaaaaaaa",
"aaaaaaaaaaaaaaaaaaaaaaa"
};
