/* XPM */
static char *test[] = {
/* columns rows colors chars-per-pixel */
"23 23 29 1 ",
"  c #595354",
". c #575259",
"X c #5A565C",
"o c #5C595D",
"O c #625E5E",
"+ c #5D5760",
"@ c #5E5A61",
"# c #625E64",
"$ c #646165",
"% c #686467",
"& c #666369",
"* c #6A656B",
"= c #676869",
"- c #6D6A6D",
"; c #706D6E",
": c #6C6770",
"> c #6E6B71",
", c #726D73",
"< c #6F7174",
"1 c #747275",
"2 c #787677",
"3 c #7B7877",
"4 c #757379",
"5 c #79767B",
"6 c #77787C",
"7 c #7B797C",
"8 c #7D7C81",
"9 c #807F82",
"0 c #808084",
/* pixels */
"789778878806>8897888478",
"-*11=>4<-:4>$>1-%111*:<",
"@#*$@#-$#$=$X=$@o**#@$$",
"24<1414464>>431411,,44&",
",>&,1-&>;-#*;-->;;%->-X",
">#@&-$$$*##:-$#>&##*$@@",
"4>4714474444474444331<1",
",-41>441,,44,211>412--6",
"*#-=&,,*;-,:#;**&4-&&-1",
",,>>14,>4,4,,,,411:>411",
",-&>,>%-1,>;,**5<>*-4--",
"->->4>--1,-;***1>**><--",
"117747737473:772,7774<7",
"@#-%##-%##*$X-*#X%-$+&-",
",,,,,;,1,,:*,,*,,,>:><$",
"24,1233441,:33,511,,74#",
",-#;;*#:,##*;##,,##:*#O",
"1*,41:,,4*;4,:>8,:,1,::",
"4,872577723755751793117",
";%,>*;1::*1;%,,:#,,;**,",
"*%**:,:#:*,;*##:*;%**::",
"11,321151,111,114,,,511",
"%O #:#X#;-O##OX:=#.#;#O"
};
