/* XPM */
static char *wall[] = {
/* columns rows colors chars-per-pixel */
"23 23 38 1 ",
"  c #544C4F",
". c #4C4750",
"X c #534D53",
"o c #56525B",
"O c #5B555D",
"+ c #5D5A5D",
"@ c #635E5D",
"# c #62635E",
"$ c #5D5661",
"% c #5E5B63",
"& c #625D64",
"* c #685E64",
"= c #635D68",
"- c #656265",
"; c #696466",
": c #666866",
"> c #65626A",
", c #6A656B",
"< c #676868",
"1 c #6C6A6D",
"2 c #71676A",
"3 c #716D6E",
"4 c #73716E",
"5 c #6A6770",
"6 c #6E6B72",
"7 c #726D73",
"8 c #746E78",
"9 c #6F7070",
"0 c #747274",
"q c #797676",
"w c #7A7976",
"e c #76737A",
"r c #79757B",
"t c #7C7A7D",
"y c #7A7680",
"u c #7D7B82",
"i c #807F84",
"p c #818285",
/* pixels */
"ruituuuttupu<puiruuprrp",
"10w0:0e0000q+r49,q04110",
"o%&+oO>%oo>%.>+OX>>Oo%%",
"rreeuwrrtte6uuwuer0eut>",
"04>0401643;1011004;641+",
">%o=>+o%-Oo=&$O,%+O&&oo",
"e0trrruurryuruireytte0u",
"71q060w070qq2q006qq011q",
";-6>,50-,,7,*2,1*81>,,7",
"8660ee87e0ee776eer67e0e",
"41-606,200193;5r91>6061",
"16>6e6;;06<111=e6,:10<1",
"0ettetttrrtr>ptt6rrt8eu",
"O&,;+,7;&&6,.7;-O11:%-9",
"66766,071161>e>7161>59&",
"rwqrwtqrrt76tq0rwt0etr>",
"3-+,3*@=,-o;,@&2,*+,;%o",
"r68rr6e8t,0ur5eu580r85e",
"08tq0rtrqqrr8qrr7erw86r",
"2,e4,7q31200;787;7q4,10",
"*;&>,51%1>1,>;%1<6&-,,1",
"e0eyerrreqre88eeeq0eewe",
",@ >1-o+9:+#:Oo1<+X>1#+"
};
