/* XPM */
static char *avatar[] = {
/* columns rows colors chars-per-pixel */
"24 24 167 2 ",
"   c #1B3E1A",
".  c #274B2A",
"X  c #2D522D",
"o  c #395438",
"O  c #26623F",
"+  c #2B683B",
"@  c #36613E",
"#  c #396646",
"$  c #396C46",
"%  c #3A664E",
"&  c #3B6D4B",
"*  c #38724D",
"=  c #3D794C",
"-  c #397351",
";  c #387A50",
":  c #425B40",
">  c #476045",
",  c #426A4E",
"<  c #41764D",
"1  c #44784D",
"2  c #426F54",
"3  c #4B6F50",
"4  c #447455",
"5  c #427F55",
"6  c #4D7A51",
"7  c #4A745A",
"8  c #47795E",
"9  c #4A7E5A",
"0  c #53755B",
"q  c #537B5E",
"w  c #606C5C",
"e  c #4E7F60",
"r  c #597C63",
"t  c #647F65",
"y  c #2F894F",
"u  c #398353",
"i  c #3E805A",
"p  c #3E9657",
"a  c #3B935B",
"s  c #3A9C5D",
"d  c #3D9360",
"f  c #3D9C62",
"g  c #42834F",
"h  c #4A8554",
"j  c #56805C",
"k  c #459157",
"l  c #44915D",
"z  c #4C8662",
"x  c #458E65",
"c  c #4B8D63",
"v  c #528467",
"b  c #5B8367",
"n  c #518B68",
"m  c #5A8C6B",
"M  c #4B9364",
"N  c #429B63",
"B  c #4A9864",
"V  c #459C69",
"C  c #4A9D69",
"Z  c #5A9468",
"A  c #5A976E",
"S  c #50986C",
"D  c #5B8F71",
"F  c #569371",
"G  c #549971",
"H  c #5B9B73",
"J  c #618A63",
"K  c #65846B",
"L  c #63916C",
"P  c #618170",
"I  c #6C8972",
"U  c #798777",
"Y  c #629276",
"T  c #689374",
"R  c #609E75",
"E  c #6D9874",
"W  c #659979",
"Q  c #6E9B7A",
"!  c #77987D",
"~  c #40A060",
"^  c #4CA467",
"/  c #44A66A",
"(  c #4AAA6D",
")  c #50A373",
"_  c #5AA175",
"`  c #53AD74",
"'  c #56AE78",
"]  c #5CAC7C",
"[  c #54B377",
"{  c #53B178",
"}  c #59B67C",
"|  c #57B97A",
" . c #5BBB7F",
".. c #65B37D",
"X. c #818E7E",
"o. c #6D9C81",
"O. c #759682",
"+. c #7D9E8C",
"@. c #5FAF80",
"#. c #5CB582",
"$. c #67A881",
"%. c #75A287",
"&. c #7BA88F",
"*. c #63B281",
"=. c #64BC81",
"-. c #6CB389",
";. c #66BF8B",
":. c #68B888",
">. c #60C083",
",. c #67C68B",
"<. c #6CC18D",
"1. c #6CC491",
"2. c #829885",
"3. c #86A88F",
"4. c #8EA393",
"5. c #83AA90",
"6. c #99BDA5",
"7. c #A9ACA8",
"8. c #A7BDAA",
"9. c #A7BCB1",
"0. c #B7BBB9",
"q. c #9DC0AA",
"w. c #ADC2B1",
"e. c #C6BCC3",
"r. c #BCC5C3",
"t. c #BFD4C9",
"y. c #C1C0C5",
"u. c #C9C0C4",
"i. c #CDC2CA",
"p. c #C6CBCE",
"a. c #C0D4C7",
"s. c #C4D7CB",
"d. c #CED5CB",
"f. c #C3DBCB",
"g. c #C6DBD0",
"h. c #CCDDD3",
"j. c #D5D3D8",
"k. c #DAD3D8",
"l. c #D5D9DB",
"z. c #CCE0CE",
"x. c #C5E5D3",
"c. c #CDE9D7",
"v. c #C8E5D8",
"b. c #D4E1D5",
"n. c #D4E4DA",
"m. c #D9E7DB",
"M. c #E1E6DF",
"N. c #E8DDE3",
"B. c #D8ECE1",
"V. c #DDF2E5",
"C. c #E4E9E3",
"Z. c #E5EBED",
"A. c #E6F3EC",
"S. c #ECF6EE",
"D. c #E7F8ED",
"F. c #EAF9ED",
"G. c #EFECF1",
"H. c #F3EAF0",
"J. c #F8EEF5",
"K. c #EFF6F4",
"L. c #EBF9F1",
"P. c #F1F6F1",
"I. c #F4FCF4",
"U. c #FCFDF6",
"Y. c #FCF7FC",
"T. c #F6FDFA",
"R. c #FDFDFD",
/* pixels */
"R.R.R.R.T.T.R.R.R.R.R.T.R.R.R.R.R.U.R.R.R.U.U.U.",
"R.R.R.R.R.R.R.R.R.R.R.Y.R.R.R.R.R.R.R.R.R.R.R.R.",
"R.R.R.R.R.R.R.R.R.R.R.R.R.R.R.R.R.Y.R.R.R.R.R.R.",
"R.R.R.R.R.R.R.Y.R.R.U.U.R.R.R.R.R.R.R.R.R.R.R.R.",
"R.R.R.R.R.Y.R.R.U.U.I.m.s.s.s.n.S.U.R.R.R.R.R.R.",
"T.R.R.R.R.R.R.U.F.f.3.T m D v 7 3.f.I.R.R.R.Y.R.",
"T.T.Y.R.Y.R.T.c.5.n H M ] :.*.c A m q.D.R.U.R.Y.",
"T.Y.H.Y.Y.R.B.o.i *.;.` f ,.=.N [ :.A q.D.R.R.Y.",
"l.G.i.J.R.T.q.F ] f  .[ p ` ( s >.=.B z f.T.Y.R.",
"p.j.e.N.R.L.&._ 1.{ ~ ^ u l p y } ' C R 5.F.R.R.",
"Z.y.k.u.R.V.Y x { >.k k < $ = a f V #.$.7 n.R.Y.",
"T.r.0.7.F.x.z ] C ) B = K 2.b * ; ) @.G 8 g.R.Y.",
"x.+.P r Q _ d #.<.S h I b.P.b.b 8 x V #.H 4.T.R.",
"%.4 Q L + l [ / #.H % 8.U.R.K.9.% x @.` d W a.K.",
"# L E L h k =.N ] Z q z.U.U.R.s.2 x a / } H e 6.",
"@ q J 6 Z g ..B M 9 ! D.U.R.U.h.7 ; f | =.` G - ",
". .   X 6 1 R j & e w.I.U.U.T.D.O.4 c N C ) -.O ",
"t > o : o 3 q , r w.P.R.R.U.R.T.w.% & 5 c R z v ",
"b.X.w U U 2.4.t.A.Y.R.R.R.T.R.R.K.9.I r 0 r +.v.",
"U.C.d.M.R.T.T.U.R.Y.R.R.R.R.R.Y.R.T.C.d.d.n.S.R.",
"R.R.R.R.R.R.R.R.R.R.Y.R.R.Y.R.R.R.Y.R.R.R.R.R.R.",
"R.R.R.T.R.R.R.Y.R.R.R.R.R.R.R.R.R.R.U.R.U.R.Y.R.",
"R.R.R.R.R.R.R.R.R.R.R.U.U.R.R.T.R.T.U.U.U.R.R.R.",
"R.U.U.R.U.R.R.R.R.U.U.U.U.U.R.T.T.T.U.U.U.R.R.Y."
};
