/* XPM */
static char *avatar_right[] = {
/* columns rows colors chars-per-pixel */
"24 24 169 2 ",
"   c #1B3E1A",
".  c #274B2A",
"X  c #2D522D",
"o  c #395438",
"O  c #26623F",
"+  c #2B683B",
"@  c #396C46",
"#  c #3A664E",
"$  c #3B6D4B",
"%  c #38724D",
"&  c #3D794C",
"*  c #397351",
"=  c #387A50",
"-  c #425B40",
";  c #426A4E",
":  c #41764D",
">  c #44784D",
",  c #4B6F50",
"<  c #447455",
"1  c #427F55",
"2  c #4D7A51",
"3  c #4A745A",
"4  c #47795E",
"5  c #4A7E5A",
"6  c #53755B",
"7  c #537B5E",
"8  c #606C5C",
"9  c #4E7F60",
"0  c #597C63",
"q  c #2F894F",
"w  c #398353",
"e  c #3E805A",
"r  c #3E9657",
"t  c #3B935B",
"y  c #3A9C5D",
"u  c #3D9360",
"i  c #3D9C62",
"p  c #42834F",
"a  c #4A8554",
"s  c #418C5C",
"d  c #56805C",
"f  c #459157",
"g  c #44915D",
"h  c #4B955E",
"j  c #4C8662",
"k  c #458E65",
"l  c #4B8D63",
"z  c #528467",
"x  c #5B8367",
"c  c #518B68",
"v  c #5A8C6B",
"b  c #4B9364",
"n  c #429B63",
"m  c #4A9864",
"M  c #459C69",
"N  c #4A9D69",
"B  c #5A9468",
"V  c #5A976E",
"C  c #50986C",
"Z  c #5B8F71",
"A  c #569371",
"S  c #549971",
"D  c #5B9B73",
"F  c #618A63",
"G  c #65846B",
"H  c #63916C",
"J  c #618170",
"K  c #6C8972",
"L  c #798777",
"P  c #629276",
"I  c #689374",
"U  c #609E75",
"Y  c #6D9874",
"T  c #659979",
"R  c #6E9B7A",
"E  c #77987D",
"W  c #40A060",
"Q  c #4CA467",
"!  c #44A66A",
"~  c #4AA169",
"^  c #4AAA6D",
"/  c #50A36E",
"(  c #50A373",
")  c #5AA175",
"_  c #53AD74",
"`  c #56AE78",
"'  c #5CAC7C",
"]  c #54B377",
"[  c #53B178",
"{  c #59B67C",
"}  c #57B97A",
"|  c #5BBB7F",
" . c #65B37D",
".. c #818E7E",
"X. c #6D9C81",
"o. c #759682",
"O. c #7D9E8C",
"+. c #5CB582",
"@. c #5EBC81",
"#. c #67A881",
"$. c #75A287",
"%. c #7BA88F",
"&. c #63B281",
"*. c #6FB787",
"=. c #64BC81",
"-. c #6CB389",
";. c #66BF8B",
":. c #68B888",
">. c #60C083",
",. c #67C68B",
"<. c #6CC18D",
"1. c #6CC491",
"2. c #829885",
"3. c #86A88F",
"4. c #87A792",
"5. c #8EA393",
"6. c #83AA90",
"7. c #84B095",
"8. c #99BDA5",
"9. c #A9ACA8",
"0. c #A7BDAA",
"q. c #A7BCB1",
"w. c #AABDB3",
"e. c #B7BBB9",
"r. c #9DC0AA",
"t. c #ADC2B1",
"y. c #C6BCC3",
"u. c #BCC5C3",
"i. c #BFD4C9",
"p. c #C1C0C5",
"a. c #C9C0C4",
"s. c #CDC2CA",
"d. c #C6CBCE",
"f. c #C0D4C7",
"g. c #C4D7CB",
"h. c #CED5CB",
"j. c #C3DBCB",
"k. c #C6DBD0",
"l. c #CCDDD3",
"z. c #D5D3D8",
"x. c #DAD3D8",
"c. c #D5D9DB",
"v. c #C5E5D3",
"b. c #CDE9D7",
"n. c #C8E5D8",
"m. c #D4E1D5",
"M. c #D4E4DA",
"N. c #D9E7DB",
"B. c #E1E6DF",
"V. c #E8DDE3",
"C. c #D8ECE1",
"Z. c #DDF2E5",
"A. c #E4E9E3",
"S. c #E5EBED",
"D. c #E6F3EC",
"F. c #ECF6EE",
"G. c #E7F8ED",
"H. c #EAF9ED",
"J. c #EFECF1",
"K. c #F3EAF0",
"L. c #F8EEF5",
"P. c #EFF6F4",
"I. c #EBF9F1",
"U. c #F1F6F1",
"Y. c #F4FCF4",
"T. c #FCFDF6",
"R. c #FCF7FC",
"E. c #F6FDFA",
"W. c #FDFDFD",
/* pixels */
"T.T.T.W.W.W.W.W.W.W.W.W.W.W.W.W.W.W.E.E.W.W.W.W.",
"W.W.W.W.W.W.W.W.W.W.W.W.W.W.W.W.W.W.W.W.W.W.W.W.",
"W.W.W.W.W.W.R.W.W.W.W.W.R.W.W.W.W.W.W.W.W.W.W.W.",
"W.W.W.W.W.W.W.W.W.W.W.W.T.T.W.W.R.W.W.W.W.W.W.W.",
"W.W.W.W.W.W.W.F.M.g.i.g.N.Y.T.T.W.W.W.W.W.W.W.E.",
"W.W.W.W.W.Y.j.3.7 z Z v I 3.f.H.T.W.W.R.W.W.W.E.",
"W.W.W.E.G.r.v V l #.:.' b D c 7.b.E.W.R.W.W.E.E.",
"R.W.W.G.r.V *.] i @.,.i _ <. .e X.C.W.R.R.K.R.E.",
"W.W.E.j.j b =.@.y ^ _ r ] | i ' A 8.E.W.L.s.J.c.",
"W.W.H.6.U N [ +.q t f w Q W [ 1.D %.P.W.V.y.z.d.",
"R.R.M.3 #.&.M i s & @ : f r >.` k P Z.W.a.x.p.S.",
"R.W.k.4 S +.( = % x O.G & h / ~  .s v.I.9.e.u.E.",
"R.W.4.D +.M k 9 G m.U.m.K 5 C ;.@.u ) R 0 J O.n.",
"U.f.T s _ +.k # q.U.W.Y.0.$ D &.! ] g + H Y < $.",
"8.9 ) { ! t s < g.W.T.T.l.0 B ` W  .f a H Y H @ ",
"* S _ >.} u = < l.E.T.T.G.E 5 b m  .p H 2 F d o ",
"O -./ ~ n l < o.G.E.W.T.Y.t.0 $ j D > 2 X   . . ",
"z j U b 1 $ # t.W.W.E.W.W.H.t.0 ; 7 , o - o - G ",
"n.O.0 6 7 K w.P.E.W.E.W.W.W.W.D.f.5.2.L L 8 ..m.",
"E.P.c.h.h.A.R.W.R.W.W.W.W.W.W.E.W.T.E.W.B.h.A.T.",
"W.W.W.W.W.W.R.R.W.W.E.W.R.R.W.W.W.W.E.W.W.W.W.W.",
"W.R.W.T.T.W.W.W.W.W.W.W.W.W.W.W.R.W.W.W.W.R.W.W.",
"W.W.W.T.T.T.E.W.W.W.T.T.W.W.W.W.W.W.W.W.W.W.W.W.",
"E.W.W.T.T.E.E.E.W.T.T.T.Y.W.W.W.W.W.W.W.E.W.W.T."
};
