/* XPM */
static char *collectible[] = {
/* columns rows colors chars-per-pixel */
"24 24 149 2 ",
"   c #711A22",
".  c #3E6C2E",
"X  c #3A6431",
"o  c #42702F",
"O  c #406E31",
"+  c #497146",
"@  c #4A7D41",
"#  c #507145",
"$  c #517852",
"%  c #9F201E",
"&  c #841C23",
"*  c #9C1525",
"=  c #921F24",
"-  c #9F1F21",
";  c #AD1D24",
":  c #A51E29",
">  c #AC1B2B",
",  c #B11D23",
"<  c #BB1C25",
"1  c #B01C2A",
"2  c #BF1E28",
"3  c #932021",
"4  c #913123",
"5  c #AD242A",
"6  c #A62224",
"7  c #B42126",
"8  c #BA2327",
"9  c #BD242A",
"0  c #B42A2A",
"q  c #A42930",
"w  c #BC2732",
"e  c #B83F35",
"r  c #C11E23",
"t  c #C11F2B",
"y  c #C81E28",
"u  c #D51E2C",
"i  c #C32424",
"p  c #C4242B",
"a  c #CC222C",
"s  c #D2242D",
"d  c #DE252B",
"f  c #D5292E",
"g  c #DE292A",
"h  c #D32424",
"j  c #C52432",
"k  c #C92030",
"l  c #C32B35",
"z  c #D32630",
"x  c #DD2532",
"c  c #D52C34",
"v  c #D52F3C",
"b  c #CE3034",
"n  c #E3242D",
"m  c #E3282D",
"M  c #E12632",
"N  c #E92731",
"B  c #E42936",
"V  c #EA2C3B",
"C  c #B34236",
"Z  c #DD3C45",
"A  c #EB3A45",
"S  c #F53E4F",
"D  c #B25E42",
"F  c #B16644",
"G  c #B26843",
"H  c #B36849",
"J  c #BD7B4D",
"K  c #CE4349",
"L  c #ED4246",
"P  c #F2454F",
"I  c #F2545B",
"U  c #DD5C61",
"Y  c #F45765",
"T  c #F76167",
"R  c #F06369",
"E  c #E16870",
"W  c #4C873B",
"Q  c #4D8142",
"!  c #528F45",
"~  c #588943",
"^  c #4C9242",
"/  c #549444",
"(  c #668258",
")  c #61AA56",
"_  c #63AD5B",
"`  c #6CB35C",
"'  c #70B25D",
"]  c #678664",
"[  c #6E8567",
"{  c #6E8C6C",
"}  c #7DBF69",
"|  c #74BB64",
" . c #7FC26A",
".. c #A2824B",
"X. c #A68155",
"o. c #AE8751",
"O. c #A4995E",
"+. c #97A656",
"@. c #99A55D",
"#. c #86BE64",
"$. c #8AB263",
"%. c #AEB17A",
"&. c #CE8152",
"*. c #83C56E",
"=. c #93C86A",
"-. c #9EAF9F",
";. c #A4B6A7",
":. c #B2BEAF",
">. c #B6BEB4",
",. c #EC8387",
"<. c #F48D8B",
"1. c #F38E96",
"2. c #E69B9E",
"3. c #E4969A",
"4. c #F0939A",
"5. c #F9979F",
"6. c #F69FA2",
"7. c #F9B7B7",
"8. c #F5B9B7",
"9. c #F8BAB7",
"0. c #F3BCBA",
"q. c #B8CC8C",
"w. c #B1C0AE",
"e. c #BAC5C7",
"r. c #C2C7C1",
"t. c #C0CAC4",
"y. c #CCD4CF",
"u. c #CFD8D3",
"i. c #EFC1C4",
"p. c #F7D3D0",
"a. c #F5DBDF",
"s. c #F4DBD5",
"d. c #D3E2CC",
"f. c #E4E7DD",
"g. c #FAE2DE",
"h. c #E7E9E6",
"j. c #FCE5E5",
"k. c #F3EDE7",
"l. c #FCEBED",
"z. c #FBEBE6",
"x. c #E8F5E3",
"c. c #E4F6E3",
"v. c #F5F2EF",
"b. c #F8F2EF",
"n. c #FDEFF1",
"m. c #FDF4F4",
"M. c #F6FEFC",
"N. c #FDFEFE",
"B. c #F8FAF4",
/* pixels */
"N.N.N.N.N.N.N.N.N.N.N.M.N.m.N.N.N.N.N.N.N.N.N.N.",
"N.N.N.N.N.N.N.N.M.M.N.N.M.N.M.N.N.M.N.N.N.N.N.N.",
"N.N.N.N.N.N.m.N.N.N.N.N.N.m.N.N.N.N.N.N.N.N.N.N.",
"N.N.N.N.N.N.N.N.N.N.v.g.g.v.N.N.N.N.N.N.N.N.N.N.",
"N.N.N.N.N.N.N.N.N.j.1.Y Y 6.k.N.N.M.N.N.N.N.N.N.",
"N.N.N.N.N.N.N.N.B.6.V g h S 8.N.N.N.N.N.N.N.N.N.",
"N.N.N.N.N.N.N.N.s.A n z = d R j.N.N.N.N.N.N.N.N.",
"N.N.N.N.N.N.N.z.,.x d n u x A 6.m.N.N.N.N.N.N.N.",
"N.N.N.N.N.N.N.9.Z s z g m M N I p.N.N.N.N.N.N.N.",
"B.N.N.N.N.N.j.E p , 2 n d n t b <.l.N.N.N.N.N.N.",
"N.N.N.M.M.m.2.j a 6 9 x f B p r P 0.m.N.N.N.N.N.",
"N.N.N.M.N.i.K 9 p 9 a z s v c m V T a.N.N.N.N.N.",
"N.M.N.m.l.U < 1 w 0 p l 5 c c z f B 4.m.N.N.N.N.",
"N.N.M.m.3.j > & * p i 9 3 k s a 5 : L 7.B.N.B.N.",
"N.M.N.x.%.C , - ; < t t < 8 9 y p 0 J q.c.N.N.N.",
"N.M.N.d.) O.e ; > = ; t i p 1 ; a J =._ d.N.M.N.",
"N.B.N.f.( ~ @.D q   * < i 2 - 4 X.$.W [ h.N.B.N.",
"N.N.N.m.e.+ / #.+...G F H G o.@.| ^ $ e.N.N.N.N.",
"N.N.N.N.N.>.# Q ^ ` *.*.*. .' ! @ + r.N.N.N.N.N.",
"N.N.N.N.N.m.y.-.] X . o o . X { ;.u.B.N.N.N.N.N.",
"N.N.N.N.N.N.N.N.h.>.:.w.:.:.>.h.N.N.N.N.N.N.N.N.",
"N.N.N.N.N.N.N.N.N.N.N.N.N.N.N.N.N.N.N.N.N.N.N.N.",
"N.N.N.N.N.N.N.N.B.N.N.B.N.N.N.N.N.N.N.N.N.N.N.N.",
"N.N.N.N.N.N.N.N.N.N.N.N.N.N.N.N.N.N.N.N.N.N.N.N."
};
