/* XPM */
static char *exit[] = {
/* columns rows colors chars-per-pixel */
"24 24 157 2 ",
"   c #131313",
".  c #141414",
"X  c #151515",
"o  c #161616",
"O  c #171717",
"+  c #181818",
"@  c #191919",
"#  c #1A1A1A",
"$  c #1B1B1B",
"%  c #1A1B1C",
"&  c #1C1C1C",
"*  c #1D1D1D",
"=  c #1E1E1E",
"-  c #1F1F1F",
";  c #202020",
":  c #212121",
">  c #222222",
",  c #222223",
"<  c #232323",
"1  c #232425",
"2  c #242424",
"3  c #242425",
"4  c #242525",
"5  c #252525",
"6  c #262626",
"7  c #272727",
"8  c #2B2824",
"9  c #272728",
"0  c #262729",
"q  c #282828",
"w  c #282829",
"e  c #292929",
"r  c #2A2A29",
"t  c #28282A",
"y  c #292A2B",
"u  c #2A2A2A",
"i  c #2A2A2B",
"p  c #2B2B2B",
"a  c #2B2B2C",
"s  c #2B2C2D",
"d  c #2C2C2C",
"f  c #2C2D2D",
"g  c #2D2D2D",
"h  c #2D2D2E",
"j  c #2E2E2E",
"k  c #302E2C",
"l  c #302F2D",
"z  c #32302D",
"x  c #3B352B",
"c  c #3A362F",
"v  c #3A372F",
"b  c #303030",
"n  c #323232",
"m  c #393630",
"M  c #383631",
"N  c #3B3730",
"B  c #3B3932",
"V  c #3C3831",
"C  c #3C3931",
"Z  c #3D3932",
"A  c #3E3A33",
"S  c #3E3B33",
"D  c #443C2B",
"F  c #403A2F",
"G  c #403B31",
"H  c #423C32",
"J  c #433E32",
"K  c #4D4433",
"L  c #474238",
"P  c #494338",
"I  c #504531",
"U  c #554B36",
"Y  c #564C37",
"T  c #615339",
"R  c #67593E",
"E  c #69593A",
"W  c #6B5A3A",
"Q  c #6B5B3B",
"!  c #715F3D",
"~  c #7A653D",
"^  c #7A653E",
"/  c #79663E",
"(  c #7D683E",
")  c #7D683F",
"_  c #7E693F",
"`  c #3E3F40",
"'  c #5A5242",
"]  c #545454",
"[  c #555557",
"{  c #685B44",
"}  c #5D5E60",
"|  c #5E5F60",
" . c #5F6061",
".. c #646361",
"X. c #737374",
"o. c #836D41",
"O. c #836D42",
"+. c #826D43",
"@. c #877143",
"#. c #8A7344",
"$. c #8F7747",
"%. c #907847",
"&. c #917848",
"*. c #927948",
"=. c #937A48",
"-. c #977D4A",
";. c #977D4B",
":. c #987E4B",
">. c #997E4B",
",. c #997F4B",
"<. c #A08756",
"1. c #B09257",
"2. c #B19357",
"3. c #958A75",
"4. c #978C77",
"5. c #988D77",
"6. c #9A8E77",
"7. c #B59A61",
"8. c #BFA879",
"9. c #C3A160",
"0. c #C7A562",
"q. c #C8A562",
"w. c #C0A36B",
"e. c #CAA969",
"r. c #CAAA6A",
"t. c #D1AD67",
"y. c #D1AE68",
"u. c #D5B068",
"i. c #D3B06C",
"p. c #D4B16C",
"a. c #D9B46B",
"s. c #DDB76C",
"d. c #C7AD7A",
"f. c #E3BB6F",
"g. c #E5BE71",
"h. c #EDC476",
"j. c #EDC576",
"k. c #EDC677",
"l. c #EDC777",
"z. c #EDC67B",
"x. c #F1C776",
"c. c #F1C877",
"v. c #F1C977",
"b. c #F7CE7A",
"n. c #FBCF7B",
"m. c #F9CF7D",
"M. c #FAD07B",
"N. c #FBD07B",
"B. c #FDD17C",
"V. c #FFD37D",
"C. c #FFD47D",
"Z. c #FFD67D",
"A. c #FFD47E",
"S. c #FFD57E",
"D. c #FFD57F",
"F. c #FFD67E",
"G. c #FFD880",
/* pixels */
"O + + * * = = * = $ = - * * $ + + O O o X   X o ",
"O O + - - > < 2 6 > < < ; : - # + o O o o     . ",
"# * & > 2 q e e t 0 i p 7 > - # @ + o o X X . . ",
"* ; ; 5 e g n ` ' { L s d 7 > = & # + o . X X . ",
"* - ; 5 p b [ 3.z.S.e.P a 7 2 ; * # @ O X X o X ",
"& * ; 6 g ] X.8.Z.V.F.r.M 7 < ; - # @ + o X X X ",
"* - > q g  .4.m.V.V.C.l.S 9 < ; - $ + + O X . . ",
"* : > 6 g | 6.V.V.V.C.j.A 9 6 : : = @ O O o X . ",
"= < 3 e j | 6.V.V.V.C.j.Z 9 6 : ; - # @ O O O . ",
"* : > e j | 6.V.V.V.C.j.V 9 6 > : - # @ O O O o ",
": < 3 u j | 6.V.V.V.C.h.v 9 6 2 < ; * $ O o o X ",
": > 3 e f | 6.V.V.V.C.h.N 7 2 < : - * $ + X X X ",
"; > 3 e g | 6.V.V.V.C.j.Z q 5 2 : ; = $ + o o o ",
"< 6 q p g | 6.V.V.V.C.j.C 6 5 2 : : = $ + X o O ",
", 4 q p g | 6.V.V.V.C.j.V 6 5 2 > : = $ + O O + ",
"x F l s h } 5.V.V.V.C.h.c 3 2 < < > ; * # + + O ",
"O.) T Y H ..d.V.V.V.C.h.c 6 3 3 5 > = $ $ + @ + ",
"-.&.*.*.+.w.G.7.i.S.C.j.C u q 7 6 : * $ # O @ @ ",
":.;.>.1.u.A.b.<.p.F.C.k.B y u r 7 5 : ; & O O O ",
"-.2.t.n.V.n.q.s.A.V.V.y.R U m f r 9 2 < ; @ o o ",
"f.v.D.V.B.a.g.A.V.C.N.1.-.#.! Q K z k w 1 & O O ",
"S.A.V.C.x.c.A.V.C.M.9.>.:.;.;.=.O./ E J G 3 % @ ",
"V.V.V.V.V.V.V.V.N.9.,.:.:.:.:.:.:.$.@._ ^ I D 8 ",
"V.V.V.V.V.V.V.V.0.;.:.:.:.:.:.:.:.,.-.%.o.( ~ W "
};
