/* XPM */
static char *npxfess[] = {
/* columns rows colors chars-per-pixel */
"24 24 38 1 ",
"  c #1A1A1A",
". c #1B1B1B",
"X c #1B1B1C",
"o c #1C1C1C",
"O c #1D1D1D",
"+ c #1C1C1E",
"@ c #1C1D1E",
"# c #1D1D1E",
"$ c #1E1E1E",
"% c #24231E",
"& c #25241D",
"* c #28261D",
"= c #37331C",
"- c #222222",
"; c #303030",
": c #353535",
"> c #3E3E3E",
", c #3F3F3F",
"< c #5A501A",
"1 c #6C5E19",
"2 c #535353",
"3 c #616161",
"4 c #6E6E6E",
"5 c #917D16",
"6 c #927E16",
"7 c #B59B14",
"8 c #EDCA0F",
"9 c #E2C110",
"0 c #E7C510",
"q c #939393",
"w c #A8A8A8",
"e c #ABABAB",
"r c #C8C8C8",
"t c #CCCCCC",
"y c #F3F3F3",
"u c #F9F9F9",
"i c #FBFBFB",
"p c #FFFFFF",
/* pixels */
"pppppppppppppppppppppppp",
"ppppppppppuyyupppppppppp",
"pppppppytq3223qtyppppppp",
"pppppir4;-.  .-;4rippppp",
"ppppue,OO$$$$$$OO,eupppp",
"pppiw:o+#$$$$$$#+o:wippp",
"pppr>X=<*@$$$$@*<=X>rppp",
"ppy4O+<96%#$$#%69<+O4ypp",
"ppt;O#*685%@@%586*#O;tpp",
"ppq-$$@%586&&685%@$$-qpp",
"pu3.$$$#%601106%#$$$.3up",
"py2 $$$$@&1771&@$$$$ 2yp",
"py2 $$$$@&1771&@$$$$ 2yp",
"pu3.$$$#%601106%#$$$.3up",
"ppq-$$@%586&&685%@$$-qpp",
"ppt;O#*685%@@%586*#O;tpp",
"ppy4O+<96%#$$#%69<+O4ypp",
"pppr,o=<*@$$$$@*<=o,rppp",
"pppie:X+#$$$$$$#+X:eippp",
"ppppuw>OO$$$$$$OO>wupppp",
"pppppir4;-.  .-;4rippppp",
"pppppppytq3223qtyppppppp",
"ppppppppppuyyupppppppppp",
"pppppppppppppppppppppppp"
};
