/* XPM */
static char *test[] = {
/* columns rows colors chars-per-pixel */
"24 24 28 1 ",
"  c #575154",
". c #5A565C",
"X c #5D595E",
"o c #635E5E",
"O c #63605F",
"+ c #5D5A61",
"@ c #625E63",
"# c #615F69",
"$ c #656265",
"% c #686366",
"& c #676866",
"* c #666369",
"= c #6A656B",
"- c #6D6A6D",
"; c #716D6F",
": c #74706F",
"> c #6C6770",
", c #6E6B72",
"< c #716E74",
"1 c #736F78",
"2 c #747275",
"3 c #787575",
"4 c #767379",
"5 c #79767A",
"6 c #7A797C",
"7 c #7C7B81",
"8 c #807F82",
"9 c #818186",
/* pixels */
"6796777777971<9777769577",
",-32&,42<,23&&31--224=,4",
"++=@++=&+X&#+.&@.+&*$.@*",
"422<4,12644=22412<2;<24+",
"22=,22-<<2-*,<-12::-,,,X",
"-@+*-$@@**X#-&@@=*$X&$X.",
"2>,21,,121,,41112,<<4,,,",
"2,6524664256426421565:25",
"=*,===4-&-<;-%<;=>2--*-2",
",=-,<<2=;;<<==;=,,<*,-,2",
"22,244<145443<<5742<2444",
"=@.$--@@--**=@o#,=@.--&$",
"446664635455<<7464467426",
"=-32;<222<13;%6<-=241>,4",
"X@-@@@-=%X=#.o<@++&&++**",
"545<5243524=442<424,255+",
"22;<23;<<3<*:3,,<33=<3>@",
"<*@<;=@%<%o#<@@><%@@>=@@",
"5>155<4351<48,<75>455;>1",
"3<6534555<455:554<563<16",
";%<;==:;-=<;;%<<-*2;;#<;",
"==%#,,<%-==<%*%#,--@==<=",
":<<354143443<<<<242;2422",
"#o @,@..&=$oO%.@,&. ==@o"
};
