/* XPM */
static char *wall[] = {
/* columns rows colors chars-per-pixel */
"24 24 46 1 ",
"  c #534B4C",
". c #4C4954",
"X c #524D55",
"o c #554F58",
"O c #555156",
"+ c #585155",
"@ c #5F5857",
"# c #555259",
"$ c #5A555B",
"% c #5C5A5D",
"& c #615C5E",
"* c #5F605F",
"= c #60625C",
"- c #5D5660",
"; c #5E5C63",
": c #625D64",
"> c #625E68",
", c #646265",
"< c #696467",
"1 c #656864",
"2 c #696A67",
"3 c #656269",
"4 c #6B656B",
"5 c #666969",
"6 c #6D6A6D",
"7 c #70666D",
"8 c #716C6E",
"9 c #72706E",
"0 c #6D6A71",
"q c #726D73",
"w c #716E79",
"e c #757375",
"r c #787575",
"t c #777877",
"y c #797875",
"u c #75737A",
"i c #79767B",
"p c #77797A",
"a c #7C7A7E",
"s c #817D7E",
"d c #7A7681",
"f c #7D7B82",
"g c #817D82",
"h c #807D88",
"j c #7F8184",
"k c #828285",
/* pixels */
"dfkffafaafffuujffifssfdf",
"69yy6qpteett41yy8qtet50p",
"#$,$Oo3:#O;>XX,$XX4&$#;;",
"iuuuauuifai0iidiiuewiii>",
"tt6etteqey84et6tetr4eee;",
",$X-,$##>@Xo3%o-3$$X;%O.",
"iqiiiuuuiiiddidiiuaiaeqf",
"w6utqupttqrirqirequet66t",
"4,u647t84<q87<t64>iq6<7e",
"7433e7w>6qqq7443qqw:878w",
"trqiuuwiiuiurqidiutqupau",
"1>O,05&$66,*4<+:01:O46**",
"uufaffatauaaeufpauaiauua",
"48yt7eirp0uu44ae84utp00p",
"o$>&$$4<%O,3#o4$$#4%$#;3",
"gafwdtyiiaf4ifiefiieuaa3",
"yeqrryrqirq3et8eerr7wie:",
"7:+>7:&$4:+%7&+:q&&o4:#o",
"awgsdiasgithhwahh0hasiuf",
"qqieewtqt7itrqirq7uteq0i",
"7<u644rq74qq74eq6,tq6,6q",
"44,>q40:5567<>>:040%4467",
"eeeduuwaaetttqiwuurwuput",
"<& :01$+44&&1,X%61@X54=%"
};
