/* XPM */
static char *collectible[] = {
/* columns rows colors chars-per-pixel */
"8 8 46 1 ",
"  c #BA1F28",
". c #AF2229",
"X c #C3212B",
"o c #C7212A",
"O c #D6252E",
"+ c #CA2F33",
"@ c #DB2F38",
"# c #DF383F",
"$ c #8D5F3B",
"% c #A24032",
"& c #AC4333",
"* c #8E6A3F",
"= c #D35C62",
"- c #E76B70",
"; c #8BA677",
": c #8CA678",
"> c #ACB697",
", c #ADBF9D",
"< c #A7BEA1",
"1 c #D8A89F",
"2 c #F2A0A4",
"3 c #F1A6A9",
"4 c #E1BBAE",
"5 c #A8C0A4",
"6 c #F3C1C2",
"7 c #F7CCCE",
"8 c #EAEEEB",
"9 c #EBEFEC",
"0 c #F9EAEB",
"q c #F4F6F4",
"w c #F4F7F5",
"e c #FDF0F2",
"r c #FCF8F8",
"t c #FCFBFB",
"y c #FBFCFB",
"u c #FBFDFB",
"i c #FBFFFD",
"p c #FDFDFD",
"a c #FCFEFD",
"s c #FCFDFE",
"d c #FDFDFE",
"f c #FDFEFE",
"g c #FEFEFE",
"h c #FFFEFF",
"j c #FEFFFF",
"k c #FFFFFF",
/* pixels */
"kkdssakk",
"kkr23tkk",
"fj6@#7jh",
"j0=oO-ej",
"i1. X+4i",
"u>$%&*,y",
"g8<;:59h",
"fhpqwphg"
};
