/* XPM */
static char *exit[] = {
/* columns rows colors chars-per-pixel */
"8 8 54 1 ",
"  c #141414",
". c #151515",
"X c #161616",
"o c #171717",
"O c #181818",
"+ c #191919",
"@ c #1A1A1A",
"# c #1B1B1B",
"$ c #1C1C1C",
"% c #1E1E1E",
"& c #1E1E1F",
"* c #1F1F20",
"= c #1F2020",
"- c #202020",
"; c #202021",
": c #212121",
"> c #212223",
", c #242424",
"< c #272624",
"1 c #262625",
"2 c #262626",
"3 c #2E2D2A",
"4 c #3B362E",
"5 c #2F3030",
"6 c #3F3B31",
"7 c #443B2B",
"8 c #403B31",
"9 c #40403E",
"0 c #40403F",
"q c #42413F",
"w c #655739",
"e c #64573D",
"r c #6A5A3B",
"t c #72654B",
"y c #897246",
"u c #967C4A",
"i c #897A5C",
"p c #998256",
"a c #B6975A",
"s c #C6A461",
"d c #DFBA6F",
"f c #DBB976",
"g c #D4B77A",
"h c #D7B87A",
"j c #D8B87A",
"k c #E4BD70",
"l c #E5BF73",
"z c #E8C173",
"x c #E8C174",
"c c #E8C375",
"v c #EAC274",
"b c #F5CB78",
"n c #FCD17C",
"m c #FED37D",
/* pixels */
"@;21-+X ",
"%5ip3$o.",
"*9gc8&O.",
":qjz8=@X",
",0hx8;#o",
"wtfl6>$O",
"skvde4<+",
"mnbauyr7"
};
