/* XPM */
static char *test[] = {
/* columns rows colors chars-per-pixel */
"8 8 45 1 ",
"  c #68666B",
". c #6A676B",
"X c #6C676B",
"o c #6B686C",
"O c #6B696D",
"+ c #6B686E",
"@ c #6D696D",
"# c #6C696E",
"$ c #6D696E",
"% c #6D6A6E",
"& c #6D6B6E",
"* c #6D6A6F",
"= c #6D6B6F",
"- c #6E6B6E",
"; c #6E6A6F",
": c #6E6B6F",
"> c #6F6B6F",
", c #6E6B70",
"< c #6F6B70",
"1 c #6E6B71",
"2 c #6E6C70",
"3 c #6F6C70",
"4 c #6F6D70",
"5 c #6F6C71",
"6 c #6E6C72",
"7 c #706C71",
"8 c #706D71",
"9 c #716D71",
"0 c #716E71",
"q c #706C72",
"w c #706D72",
"e c #716D72",
"r c #706D73",
"t c #716D73",
"y c #706E72",
"u c #716E72",
"i c #706E73",
"p c #716E73",
"a c #716F73",
"s c #726F72",
"d c #726E73",
"f c #716E74",
"g c #716F74",
"h c #726F74",
"j c #736F74",
/* pixels */
"yygi:8a6",
"%*=O$;@ ",
",ipttte3",
"*wwd>r2u",
":805*241",
"79e;<q>+",
"wjhdpfs7",
"X*$-.#o&"
};
