/* XPM */
static char *wall[] = {
/* columns rows colors chars-per-pixel */
"8 8 43 1 ",
"  c #68666B",
". c #6C676B",
"X c #6A686B",
"o c #6A686D",
"O c #6B686D",
"+ c #6B686E",
"@ c #6C696D",
"# c #6C696E",
"$ c #6D696F",
"% c #6D6B6E",
"& c #6D6A6F",
"* c #6E6A6F",
"= c #6E6B6F",
"- c #6F6B6F",
"; c #6D6A70",
": c #6E6B70",
"> c #6F6B70",
", c #6D6C70",
"< c #6E6C70",
"1 c #6F6C70",
"2 c #6F6D71",
"3 c #6E6C72",
"4 c #706C71",
"5 c #716C71",
"6 c #706D71",
"7 c #716D71",
"8 c #716E71",
"9 c #706D72",
"0 c #716D72",
"q c #706D73",
"w c #716D73",
"e c #726D72",
"r c #726D73",
"t c #716E72",
"y c #716F72",
"u c #706E73",
"i c #716F73",
"p c #726F72",
"a c #726E73",
"s c #726F73",
"d c #716E74",
"f c #716F74",
"g c #726F74",
/* pixels */
"t9fu=2y3",
"#&&O$*@ ",
">uierwt>",
"&q9i-q<t",
":682&:1,",
"577*>4>+",
"0gsaadp4",
".;#=X#o%"
};
